<svg width="573" height="572" viewBox="0 0 573 572" fill="none" xmlns="http://www.w3.org/2000/svg">
<path d="M147.368 48.6324C148.965 50.274 149.33 53.1372 148.384 57.1175C147.445 61.0701 145.245 65.9728 141.953 71.5053C135.373 82.564 124.49 96.0389 110.86 109.297C97.2299 122.554 83.4588 133.06 72.2223 139.332C66.6007 142.469 61.639 144.533 57.662 145.362C53.6569 146.198 50.805 145.754 49.2083 144.112C47.6115 142.47 47.2464 139.607 48.1923 135.627C49.1317 131.674 51.3317 126.772 54.6238 121.239C61.2041 110.18 72.0869 96.7055 85.7168 83.4477C99.3468 70.19 113.118 59.6844 124.354 53.4128C129.976 50.2751 134.938 48.2116 138.915 47.382C142.92 46.5466 145.772 46.9908 147.368 48.6324Z" stroke="#C7CFFF" stroke-opacity="0.17"/>
<path d="M100.99 93.0543C101.224 93.2957 101.362 93.6825 101.334 94.2588C101.306 94.8362 101.112 95.5526 100.744 96.3673C100.011 97.9937 98.6335 99.9142 96.7731 101.724C94.9126 103.533 92.9547 104.858 91.3086 105.545C90.4841 105.89 89.7625 106.064 89.1846 106.076C88.6078 106.089 88.225 105.94 87.9902 105.699C87.7554 105.457 87.6177 105.071 87.6457 104.494C87.6738 103.917 87.8682 103.201 88.2354 102.386C88.9685 100.759 90.3464 98.839 92.2068 97.0293C94.0672 95.2197 96.0251 93.8955 97.6712 93.2077C98.4957 92.8632 99.2173 92.6888 99.7952 92.6767C100.372 92.6646 100.755 92.813 100.99 93.0543Z" stroke="#C7CFFF" stroke-opacity="0.17"/>
<path fill-rule="evenodd" clip-rule="evenodd" d="M115.621 124.825L106.823 114.606L107.043 114.392C107.209 114.23 107.375 114.069 107.541 113.907L116.379 124.173L115.621 124.825ZM91.1194 96.3647L83.1942 87.159C83.4352 86.9272 83.676 86.6961 83.9169 86.4657L91.8376 95.6662C91.7168 95.7811 91.596 95.8973 91.4754 96.0146C91.3555 96.1312 91.2369 96.2479 91.1194 96.3647ZM95.2078 101.114L92.4278 97.8845C92.5729 97.7392 92.7203 97.5938 92.8699 97.4483C92.9613 97.3593 93.0528 97.2712 93.1441 97.1839L95.9316 100.422C95.9027 100.45 95.8737 100.478 95.8447 100.507C95.632 100.713 95.4196 100.916 95.2078 101.114ZM96.5136 102.631L105.516 113.087L105.648 112.958C105.844 112.768 106.039 112.578 106.233 112.388L97.239 101.94C96.9974 102.175 96.7554 102.406 96.5136 102.631ZM30.3789 24.2773L82.6102 84.9479C82.3693 85.1782 82.1284 85.4093 81.8874 85.641L29.6211 24.9298L30.3789 24.2773Z" fill="url(#paint0_linear_310_11512)" fill-opacity="0.35"/>
<path fill-rule="evenodd" clip-rule="evenodd" d="M437.758 464.999L446.556 475.219L446.336 475.433C446.17 475.594 446.004 475.756 445.838 475.918L437 465.652L437.758 464.999ZM462.26 493.46L470.185 502.666C469.944 502.897 469.703 503.128 469.462 503.359L461.541 494.158C461.662 494.043 461.783 493.927 461.904 493.81C462.023 493.693 462.142 493.577 462.26 493.46ZM458.171 488.711L460.951 491.94C460.806 492.085 460.659 492.231 460.509 492.376C460.418 492.465 460.326 492.553 460.235 492.641L457.447 489.403C457.476 489.375 457.505 489.346 457.534 489.318C457.747 489.111 457.959 488.909 458.171 488.711ZM456.865 487.194L447.863 476.737L447.731 476.866C447.535 477.056 447.34 477.246 447.146 477.437L456.14 487.884C456.381 487.649 456.623 487.419 456.865 487.194ZM523 565.547L470.769 504.877C471.01 504.646 471.251 504.415 471.492 504.184L523.758 564.895L523 565.547Z" fill="url(#paint1_linear_310_11512)" fill-opacity="0.35"/>
<path d="M499.604 449.632C501.237 451.311 501.839 453.946 501.401 457.401C500.965 460.848 499.501 465.026 497.121 469.665C492.364 478.94 484.004 489.959 473.159 500.507C462.314 511.056 451.068 519.108 441.665 523.606C436.962 525.857 432.745 527.205 429.287 527.546C425.822 527.887 423.204 527.213 421.571 525.534C419.938 523.855 419.336 521.22 419.774 517.765C420.211 514.318 421.675 510.14 424.054 505.501C428.811 496.226 437.171 485.207 448.016 474.659C458.861 464.11 470.107 456.058 479.51 451.56C484.214 449.309 488.43 447.961 491.888 447.62C495.353 447.279 497.971 447.953 499.604 449.632Z" stroke="#C7CFFF" stroke-opacity="0.17"/>
<path d="M465.876 483.937C466.089 484.156 466.217 484.52 466.177 485.085C466.137 485.65 465.931 486.355 465.553 487.161C464.8 488.769 463.407 490.678 461.545 492.49C459.683 494.301 457.736 495.639 456.108 496.348C455.292 496.704 454.581 496.89 454.016 496.914C453.45 496.939 453.09 496.801 452.877 496.582C452.664 496.363 452.536 495.999 452.576 495.434C452.616 494.87 452.822 494.164 453.199 493.359C453.953 491.75 455.345 489.841 457.207 488.03C459.069 486.218 461.017 484.88 462.645 484.171C463.461 483.815 464.172 483.629 464.737 483.605C465.303 483.581 465.663 483.718 465.876 483.937Z" stroke="#C7CFFF" stroke-opacity="0.17"/>
<path d="M572.5 286C572.5 443.676 444.454 571.5 286.5 571.5C128.546 571.5 0.5 443.676 0.5 286C0.5 128.324 128.546 0.5 286.5 0.5C444.454 0.5 572.5 128.324 572.5 286Z" fill="url(#paint2_linear_310_11512)" fill-opacity="0.02"/>
<path d="M572.5 286C572.5 443.676 444.454 571.5 286.5 571.5C128.546 571.5 0.5 443.676 0.5 286C0.5 128.324 128.546 0.5 286.5 0.5C444.454 0.5 572.5 128.324 572.5 286Z" stroke="#F1F7FD" stroke-opacity="0.04"/>
<path d="M572.5 286C572.5 443.676 444.454 571.5 286.5 571.5C128.546 571.5 0.5 443.676 0.5 286C0.5 128.324 128.546 0.5 286.5 0.5C444.454 0.5 572.5 128.324 572.5 286Z" stroke="url(#paint3_linear_310_11512)"/>
<g filter="url(#filter0_f_310_11512)">
<path d="M27 405.438L33.7184 420.45" stroke="url(#paint4_linear_310_11512)" stroke-width="1.5" stroke-linecap="round"/>
</g>
<path d="M27 405.438L33.7184 420.45" stroke="url(#paint5_linear_310_11512)" stroke-width="1.5" stroke-linecap="round"/>
<path d="M511.537 463L500.679 475.353" stroke="url(#paint6_linear_310_11512)" stroke-width="1.5" stroke-linecap="round"/>
<g filter="url(#filter1_f_310_11512)">
<path d="M511.537 463L500.679 475.353" stroke="url(#paint7_linear_310_11512)" stroke-width="1.5" stroke-linecap="round"/>
</g>
<defs>
<filter id="filter0_f_310_11512" x="22.25" y="400.687" width="16.2188" height="24.5125" filterUnits="userSpaceOnUse" color-interpolation-filters="sRGB">
<feFlood flood-opacity="0" result="BackgroundImageFix"/>
<feBlend mode="normal" in="SourceGraphic" in2="BackgroundImageFix" result="shape"/>
<feGaussianBlur stdDeviation="2" result="effect1_foregroundBlur_310_11512"/>
</filter>
<filter id="filter1_f_310_11512" x="495.929" y="458.25" width="20.3584" height="21.8531" filterUnits="userSpaceOnUse" color-interpolation-filters="sRGB">
<feFlood flood-opacity="0" result="BackgroundImageFix"/>
<feBlend mode="normal" in="SourceGraphic" in2="BackgroundImageFix" result="shape"/>
<feGaussianBlur stdDeviation="2" result="effect1_foregroundBlur_310_11512"/>
</filter>
<linearGradient id="paint0_linear_310_11512" x1="116" y1="119.999" x2="30" y2="23.999" gradientUnits="userSpaceOnUse">
<stop stop-color="#C7CFFF"/>
<stop offset="1" stop-color="#777C99" stop-opacity="0"/>
</linearGradient>
<linearGradient id="paint1_linear_310_11512" x1="480.379" y1="464.999" x2="527.5" y2="569.499" gradientUnits="userSpaceOnUse">
<stop stop-color="#C7CFFF"/>
<stop offset="0.647777" stop-color="#9399BD" stop-opacity="0.352223"/>
<stop offset="1" stop-color="#777C99" stop-opacity="0"/>
</linearGradient>
<linearGradient id="paint2_linear_310_11512" x1="573" y1="0" x2="-67.5302" y2="526.19" gradientUnits="userSpaceOnUse">
<stop stop-color="#F1F7FD" stop-opacity="0.24"/>
<stop offset="1" stop-color="#F1F7FD" stop-opacity="0"/>
</linearGradient>
<linearGradient id="paint3_linear_310_11512" x1="25.1732" y1="397.773" x2="37.5982" y2="362.881" gradientUnits="userSpaceOnUse">
<stop stop-color="#90C7FF" stop-opacity="0.21"/>
<stop offset="1" stop-color="#F1F7FD" stop-opacity="0"/>
</linearGradient>
<linearGradient id="paint4_linear_310_11512" x1="34.2168" y1="420.41" x2="26.9203" y2="404.441" gradientUnits="userSpaceOnUse">
<stop stop-color="#9EACFF" stop-opacity="0"/>
<stop offset="1" stop-color="#9EACFF"/>
</linearGradient>
<linearGradient id="paint5_linear_310_11512" x1="34.2168" y1="420.41" x2="26.9203" y2="404.441" gradientUnits="userSpaceOnUse">
<stop stop-color="#9EACFF" stop-opacity="0"/>
<stop offset="1" stop-color="#9EACFF"/>
</linearGradient>
<linearGradient id="paint6_linear_310_11512" x1="500.922" y1="475.79" x2="512.41" y2="462.513" gradientUnits="userSpaceOnUse">
<stop offset="0.219826" stop-color="#9EACFF" stop-opacity="0"/>
<stop offset="1" stop-color="#9EACFF"/>
</linearGradient>
<linearGradient id="paint7_linear_310_11512" x1="500.922" y1="475.79" x2="512.41" y2="462.513" gradientUnits="userSpaceOnUse">
<stop offset="0.219826" stop-color="#9EACFF" stop-opacity="0"/>
<stop offset="1" stop-color="#9EACFF"/>
</linearGradient>
</defs>
</svg>
