<svg width="7" height="13" viewBox="0 0 7 13" fill="none" xmlns="http://www.w3.org/2000/svg">
<path d="M0.940228 12.0769C0.813561 12.0769 0.686895 12.0302 0.586895 11.9302C0.393561 11.7369 0.393561 11.4169 0.586895 11.2236L4.93356 6.87689C5.25356 6.55689 5.25356 6.03689 4.93356 5.71689L0.586895 1.37022C0.393561 1.17689 0.393561 0.856888 0.586895 0.663555C0.780228 0.470221 1.10023 0.470221 1.29356 0.663555L5.64023 5.01022C5.98023 5.35022 6.17356 5.81022 6.17356 6.29689C6.17356 6.78356 5.98689 7.24356 5.64023 7.58356L1.29356 11.9302C1.19356 12.0236 1.06689 12.0769 0.940228 12.0769Z" fill="#10131B"/>
</svg>
