<svg width="28" height="28" viewBox="0 0 28 28" fill="none" xmlns="http://www.w3.org/2000/svg">
<rect width="28" height="28" rx="14" transform="matrix(-1 0 0 1 28 0)" fill="white"/>
<path d="M16.0598 20.0769C16.1864 20.0769 16.3131 20.0302 16.4131 19.9302C16.6064 19.7369 16.6064 19.4169 16.4131 19.2236L12.0664 14.8769C11.7464 14.5569 11.7464 14.0369 12.0664 13.7169L16.4131 9.37022C16.6064 9.17689 16.6064 8.85689 16.4131 8.66355C16.2198 8.47022 15.8998 8.47022 15.7064 8.66355L11.3598 13.0102C11.0198 13.3502 10.8264 13.8102 10.8264 14.2969C10.8264 14.7836 11.0131 15.2436 11.3598 15.5836L15.7064 19.9302C15.8064 20.0236 15.9331 20.0769 16.0598 20.0769Z" fill="#030518"/>
</svg>
