<svg width="355" height="165" viewBox="0 0 355 165" fill="none" xmlns="http://www.w3.org/2000/svg">
<g clip-path="url(#clip0_310_11942)">
<rect x="12.8673" y="5.52157" width="111.616" height="86.5805" rx="16.1687" fill="#97AFE2" fill-opacity="0.8" stroke="url(#paint0_linear_310_11942)" stroke-width="1.04314"/>
<g filter="url(#filter0_d_310_11942)">
<rect x="16.5176" y="9.17529" width="104.314" height="68.8472" rx="12.5177" fill="white"/>
<rect x="17.0391" y="9.69686" width="103.271" height="67.804" rx="11.9961" stroke="white" stroke-opacity="0.5" stroke-width="1.04314"/>
</g>
<rect x="22.7754" y="17.5176" width="42.2471" height="50.0707" rx="3.12942" fill="#E8EEFC"/>
<path d="M53.1174 47.3381L49.9874 40.0281C48.9274 37.5481 46.9774 37.4481 45.6674 39.8081L43.7774 43.2181C42.8174 44.9481 41.0274 45.0981 39.7874 43.5481L39.5674 43.2681C38.2774 41.6481 36.4574 41.8481 35.5274 43.6981L33.8074 47.1481C32.5974 49.5481 34.3474 52.3781 37.0274 52.3781H49.7874C52.3874 52.3781 54.1374 49.7281 53.1174 47.3381Z" stroke="#ACB7F0" stroke-opacity="0.6" stroke-width="1.5" stroke-linecap="round" stroke-linejoin="round"/>
<path d="M38.4077 38.3779C40.0646 38.3779 41.4077 37.0348 41.4077 35.3779C41.4077 33.7211 40.0646 32.3779 38.4077 32.3779C36.7509 32.3779 35.4077 33.7211 35.4077 35.3779C35.4077 37.0348 36.7509 38.3779 38.4077 38.3779Z" stroke="#ACB7F0" stroke-opacity="0.6" stroke-width="1.5" stroke-linecap="round" stroke-linejoin="round"/>
<rect x="68.1523" y="17.5176" width="27.1216" height="4.17255" rx="2.08628" fill="#E8EEFC"/>
<rect x="68.1523" y="23.2549" width="43.8118" height="4.17255" rx="2.08628" fill="#5C6DC4"/>
<rect x="68.1523" y="29.5137" width="26.6" height="1.56471" rx="0.782354" fill="#5C6DC4"/>
<rect x="68.1523" y="32.6431" width="26.6" height="1.56471" rx="0.782354" fill="#5C6DC4"/>
<rect x="68.1523" y="35.7725" width="26.6" height="1.56471" rx="0.782354" fill="#5C6DC4"/>
<rect x="68.1523" y="38.9019" width="14.0824" height="1.56471" rx="0.782354" fill="#5C6DC4"/>
<rect x="68.1523" y="42.0312" width="14.0824" height="1.56471" rx="0.782354" fill="#5C6DC4"/>
<path d="M4 84.28C4 81.9755 5.86812 80.1074 8.17256 80.1074H36.3373H50.2561C51.3627 80.1074 52.424 80.547 53.2065 81.3295L55.978 84.101C56.7605 84.8835 57.8218 85.3231 58.9284 85.3231H78.1437C79.4112 85.3231 80.6101 84.7469 81.4019 83.7571L83.0689 81.6734C83.8607 80.6836 85.0596 80.1074 86.3271 80.1074H99.9688H129.177C131.481 80.1074 133.349 81.9755 133.349 84.28V90.5388C133.349 92.8432 131.481 94.7114 129.177 94.7114H8.17256C5.86812 94.7114 4 92.8432 4 90.5388V84.28Z" fill="#A1BAF1"/>
<path d="M4.52157 84.28C4.52157 82.2636 6.15617 80.629 8.17256 80.629H36.3373H50.2561C51.2244 80.629 52.153 81.0136 52.8377 81.6983L55.6092 84.4698C56.4895 85.3501 57.6834 85.8447 58.9284 85.8447H78.1437C79.5697 85.8447 80.9184 85.1965 81.8092 84.083L83.4762 81.9992C84.169 81.1332 85.218 80.629 86.3271 80.629H99.9688H129.177C131.193 80.629 132.828 82.2636 132.828 84.28V90.5388C132.828 92.5552 131.193 94.1898 129.177 94.1898H8.17256C6.15617 94.1898 4.52157 92.5552 4.52157 90.5388V84.28Z" stroke="url(#paint1_linear_310_11942)" stroke-opacity="0.5" stroke-width="1.04314"/>
<rect x="68.1523" y="59.7651" width="25.3882" height="7.12942" rx="3.56471" fill="#5C6DC4"/>
<path d="M73.2691 64.3301V61.5178H74.3242C74.5391 61.5178 74.7111 61.5465 74.8403 61.6041C74.9707 61.6604 75.0724 61.748 75.1453 61.8669C75.2195 61.9846 75.2566 62.108 75.2566 62.2371C75.2566 62.3574 75.2239 62.4705 75.1587 62.5767C75.0935 62.6828 74.995 62.7685 74.8633 62.8338C75.0334 62.8836 75.1638 62.9687 75.2546 63.0889C75.3467 63.2091 75.3928 63.3511 75.3928 63.5148C75.3928 63.6465 75.3646 63.7693 75.3084 63.8831C75.2534 63.9956 75.1849 64.0826 75.1031 64.144C75.0212 64.2054 74.9183 64.2521 74.7942 64.284C74.6715 64.3147 74.5205 64.3301 74.3415 64.3301H73.2691ZM73.6413 62.6995H74.2494C74.4144 62.6995 74.5327 62.6886 74.6043 62.6669C74.699 62.6387 74.7699 62.592 74.8173 62.5268C74.8659 62.4616 74.8902 62.3797 74.8902 62.2813C74.8902 62.1879 74.8678 62.1061 74.823 62.0357C74.7782 61.9641 74.7143 61.9155 74.6312 61.8899C74.548 61.8631 74.4054 61.8496 74.2034 61.8496H73.6413V62.6995ZM73.6413 63.9982H74.3415C74.4617 63.9982 74.5461 63.9937 74.5947 63.9848C74.6804 63.9694 74.752 63.9438 74.8096 63.908C74.8671 63.8722 74.9145 63.8204 74.9515 63.7526C74.9886 63.6836 75.0072 63.6043 75.0072 63.5148C75.0072 63.4099 74.9803 63.3191 74.9266 63.2424C74.8729 63.1644 74.7981 63.11 74.7022 63.0793C74.6075 63.0473 74.4707 63.0313 74.2916 63.0313H73.6413V63.9982ZM77.196 64.3301V64.0308C77.0374 64.261 76.8219 64.3761 76.5495 64.3761C76.4293 64.3761 76.3168 64.3531 76.2119 64.3071C76.1083 64.261 76.0309 64.2035 75.9798 64.1344C75.9299 64.0641 75.8947 63.9784 75.8743 63.8773C75.8602 63.8096 75.8532 63.7021 75.8532 63.5551V62.2928H76.1985V63.4227C76.1985 63.603 76.2055 63.7245 76.2196 63.7872C76.2413 63.878 76.2874 63.9496 76.3577 64.002C76.428 64.0532 76.515 64.0788 76.6186 64.0788C76.7222 64.0788 76.8194 64.0526 76.9102 64.0001C77.001 63.9464 77.0649 63.8741 77.102 63.7833C77.1404 63.6913 77.1596 63.5583 77.1596 63.3843V62.2928H77.5049V64.3301H77.196ZM78.0324 65.1147L77.9941 64.7905C78.0695 64.8109 78.1354 64.8212 78.1917 64.8212C78.2684 64.8212 78.3298 64.8084 78.3758 64.7828C78.4219 64.7572 78.4596 64.7214 78.489 64.6754C78.5107 64.6409 78.5459 64.5552 78.5945 64.4183C78.6009 64.3991 78.6111 64.371 78.6252 64.3339L77.8521 62.2928H78.2243L78.6482 63.4726C78.7032 63.6222 78.7525 63.7795 78.7959 63.9445C78.8356 63.7859 78.8829 63.6312 78.9379 63.4802L79.3734 62.2928H79.7187L78.9437 64.3646C78.8605 64.5884 78.7959 64.7425 78.7499 64.8269C78.6885 64.9408 78.6182 65.0239 78.5389 65.0763C78.4596 65.13 78.365 65.1569 78.255 65.1569C78.1885 65.1569 78.1143 65.1428 78.0324 65.1147ZM81.1459 64.3301V61.5178H81.5277L83.0048 63.7258V61.5178H83.3617V64.3301H82.9799L81.5028 62.1201V64.3301H81.1459ZM83.8163 63.3114C83.8163 62.9341 83.9212 62.6547 84.1309 62.4731C84.3061 62.3222 84.5197 62.2467 84.7717 62.2467C85.0517 62.2467 85.2807 62.3388 85.4584 62.523C85.6362 62.7059 85.7251 62.9591 85.7251 63.2827C85.7251 63.5448 85.6854 63.7514 85.6061 63.9023C85.5281 64.0519 85.4137 64.1683 85.2628 64.2514C85.1131 64.3346 84.9494 64.3761 84.7717 64.3761C84.4865 64.3761 84.2556 64.2847 84.0791 64.1018C83.9039 63.9189 83.8163 63.6555 83.8163 63.3114ZM84.1712 63.3114C84.1712 63.5723 84.2281 63.768 84.3419 63.8984C84.4558 64.0276 84.599 64.0922 84.7717 64.0922C84.943 64.0922 85.0856 64.027 85.1995 63.8965C85.3133 63.7661 85.3702 63.5672 85.3702 63.2999C85.3702 63.048 85.3126 62.8574 85.1975 62.7282C85.0837 62.5978 84.9418 62.5326 84.7717 62.5326C84.599 62.5326 84.4558 62.5972 84.3419 62.7263C84.2281 62.8555 84.1712 63.0505 84.1712 63.3114ZM86.5078 64.3301L85.8843 62.2928H86.2411L86.5653 63.4687L86.6862 63.9061C86.6913 63.8844 86.7265 63.7443 86.7917 63.486L87.1159 62.2928H87.4708L87.7758 63.4745L87.8775 63.8639L87.9945 63.4707L88.3437 62.2928H88.6794L88.0425 64.3301H87.6837L87.3595 63.11L87.2809 62.7628L86.8684 64.3301H86.5078Z" fill="white"/>
<path d="M69.5295 47.4237C69.8019 47.4237 70.0148 47.5209 70.1683 47.7153C70.3512 47.9455 70.4426 48.3273 70.4426 48.8606C70.4426 49.3926 70.3505 49.775 70.1663 50.0078C70.0142 50.1996 69.8019 50.2955 69.5295 50.2955C69.2558 50.2955 69.0352 50.1906 68.8676 49.9809C68.7001 49.7699 68.6163 49.3945 68.6163 48.8548C68.6163 48.3254 68.7084 47.9442 68.8926 47.7115C69.0447 47.5196 69.257 47.4237 69.5295 47.4237ZM69.5295 47.8707C69.4642 47.8707 69.406 47.8918 69.3549 47.934C69.3037 47.9749 69.2641 48.0491 69.2359 48.1565C69.1989 48.2959 69.1803 48.5306 69.1803 48.8606C69.1803 49.1905 69.1969 49.4175 69.2302 49.5416C69.2634 49.6644 69.305 49.7462 69.3549 49.7872C69.406 49.8281 69.4642 49.8485 69.5295 49.8485C69.5947 49.8485 69.6529 49.8281 69.704 49.7872C69.7552 49.7449 69.7948 49.6701 69.823 49.5627C69.86 49.4246 69.8786 49.1905 69.8786 48.8606C69.8786 48.5306 69.862 48.3043 69.8287 48.1815C69.7955 48.0574 69.7533 47.9749 69.7021 47.934C69.6522 47.8918 69.5947 47.8707 69.5295 47.8707ZM70.9068 49.7085H71.4459V50.0941C71.4459 50.2501 71.4325 50.3729 71.4056 50.4624C71.3788 50.5532 71.3276 50.6344 71.2521 50.706C71.178 50.7777 71.0833 50.8339 70.9682 50.8749L70.8627 50.6523C70.9714 50.6165 71.0488 50.5673 71.0948 50.5046C71.1409 50.442 71.1652 50.3563 71.1677 50.2476H70.9068V49.7085ZM72.8099 47.4237C73.0823 47.4237 73.2952 47.5209 73.4487 47.7153C73.6316 47.9455 73.723 48.3273 73.723 48.8606C73.723 49.3926 73.6309 49.775 73.4468 50.0078C73.2946 50.1996 73.0823 50.2955 72.8099 50.2955C72.5362 50.2955 72.3156 50.1906 72.148 49.9809C71.9805 49.7699 71.8967 49.3945 71.8967 48.8548C71.8967 48.3254 71.9888 47.9442 72.173 47.7115C72.3251 47.5196 72.5374 47.4237 72.8099 47.4237ZM72.8099 47.8707C72.7446 47.8707 72.6864 47.8918 72.6353 47.934C72.5841 47.9749 72.5445 48.0491 72.5163 48.1565C72.4793 48.2959 72.4607 48.5306 72.4607 48.8606C72.4607 49.1905 72.4773 49.4175 72.5106 49.5416C72.5438 49.6644 72.5854 49.7462 72.6353 49.7872C72.6864 49.8281 72.7446 49.8485 72.8099 49.8485C72.8751 49.8485 72.9333 49.8281 72.9844 49.7872C73.0356 49.7449 73.0752 49.6701 73.1034 49.5627C73.1405 49.4246 73.159 49.1905 73.159 48.8606C73.159 48.5306 73.1424 48.3043 73.1091 48.1815C73.0759 48.0574 73.0337 47.9749 72.9825 47.934C72.9326 47.8918 72.8751 47.8707 72.8099 47.8707ZM74.9968 47.4237C75.2692 47.4237 75.4821 47.5209 75.6356 47.7153C75.8185 47.9455 75.9099 48.3273 75.9099 48.8606C75.9099 49.3926 75.8179 49.775 75.6337 50.0078C75.4815 50.1996 75.2692 50.2955 74.9968 50.2955C74.7231 50.2955 74.5025 50.1906 74.335 49.9809C74.1674 49.7699 74.0837 49.3945 74.0837 48.8548C74.0837 48.3254 74.1757 47.9442 74.3599 47.7115C74.5121 47.5196 74.7244 47.4237 74.9968 47.4237ZM74.9968 47.8707C74.9316 47.8707 74.8734 47.8918 74.8222 47.934C74.7711 47.9749 74.7314 48.0491 74.7033 48.1565C74.6662 48.2959 74.6477 48.5306 74.6477 48.8606C74.6477 49.1905 74.6643 49.4175 74.6975 49.5416C74.7308 49.6644 74.7723 49.7462 74.8222 49.7872C74.8734 49.8281 74.9316 49.8485 74.9968 49.8485C75.062 49.8485 75.1202 49.8281 75.1714 49.7872C75.2225 49.7449 75.2622 49.6701 75.2903 49.5627C75.3274 49.4246 75.3459 49.1905 75.3459 48.8606C75.3459 48.5306 75.3293 48.3043 75.2961 48.1815C75.2628 48.0574 75.2206 47.9749 75.1694 47.934C75.1196 47.8918 75.062 47.8707 74.9968 47.8707ZM76.2802 49.5243L76.8173 49.4687C76.8327 49.5902 76.8781 49.6868 76.9535 49.7584C77.029 49.8287 77.1159 49.8639 77.2144 49.8639C77.327 49.8639 77.4222 49.8185 77.5003 49.7277C77.5783 49.6356 77.6173 49.4975 77.6173 49.3133C77.6173 49.1407 77.5783 49.0115 77.5003 48.9258C77.4235 48.8388 77.3231 48.7954 77.1991 48.7954C77.0443 48.7954 76.9056 48.8638 76.7828 49.0006L76.3454 48.9373L76.6216 47.4736H78.047V47.9781H77.0303L76.9459 48.4558C77.0661 48.3957 77.1888 48.3656 77.3142 48.3656C77.5533 48.3656 77.756 48.4526 77.9223 48.6265C78.0886 48.8005 78.1717 49.0262 78.1717 49.3037C78.1717 49.5352 78.1045 49.7417 77.9703 49.9234C77.7874 50.1715 77.5335 50.2955 77.2087 50.2955C76.9491 50.2955 76.7374 50.2258 76.5737 50.0864C76.41 49.947 76.3122 49.7597 76.2802 49.5243ZM80.28 49.7469V50.2476H78.3904C78.4108 50.0583 78.4722 49.8792 78.5745 49.7104C78.6769 49.5403 78.8789 49.3152 79.1807 49.0352C79.4237 48.8088 79.5727 48.6553 79.6277 48.5747C79.7019 48.4635 79.739 48.3535 79.739 48.2448C79.739 48.1246 79.7064 48.0325 79.6412 47.9685C79.5772 47.9033 79.4883 47.8707 79.3745 47.8707C79.262 47.8707 79.1724 47.9046 79.1059 47.9724C79.0394 48.0402 79.0011 48.1527 78.9908 48.31L78.4537 48.2563C78.4857 47.9596 78.5861 47.7466 78.7549 47.6175C78.9237 47.4883 79.1347 47.4237 79.3879 47.4237C79.6655 47.4237 79.8835 47.4985 80.0421 47.6482C80.2007 47.7978 80.28 47.9839 80.28 48.2064C80.28 48.333 80.257 48.4539 80.2109 48.569C80.1662 48.6828 80.0945 48.8024 79.9961 48.9277C79.9308 49.0109 79.8132 49.1304 79.6431 49.2865C79.473 49.4425 79.3649 49.5461 79.3189 49.5972C79.2741 49.6484 79.2377 49.6983 79.2095 49.7469H80.28ZM82.4727 48.1239L81.9509 48.1815C81.9381 48.074 81.9048 47.9948 81.8511 47.9436C81.7974 47.8924 81.7277 47.8669 81.642 47.8669C81.5282 47.8669 81.4316 47.918 81.3523 48.0203C81.2743 48.1226 81.2251 48.3356 81.2046 48.6592C81.3389 48.5006 81.5058 48.4213 81.7053 48.4213C81.9304 48.4213 82.1229 48.507 82.2827 48.6783C82.4439 48.8497 82.5245 49.071 82.5245 49.3421C82.5245 49.6298 82.4401 49.8607 82.2712 50.0346C82.1024 50.2086 81.8856 50.2955 81.6209 50.2955C81.337 50.2955 81.1036 50.1855 80.9207 49.9656C80.7378 49.7443 80.6464 49.3824 80.6464 48.8798C80.6464 48.3644 80.7417 47.9928 80.9322 47.7652C81.1228 47.5375 81.3702 47.4237 81.6746 47.4237C81.8882 47.4237 82.0647 47.4838 82.2041 47.6041C82.3448 47.723 82.4343 47.8963 82.4727 48.1239ZM81.2507 49.2999C81.2507 49.4751 81.291 49.6107 81.3715 49.7066C81.4521 49.8012 81.5442 49.8485 81.6478 49.8485C81.7475 49.8485 81.8307 49.8095 81.8972 49.7315C81.9637 49.6535 81.9969 49.5256 81.9969 49.3478C81.9969 49.165 81.9611 49.0313 81.8895 48.9469C81.8179 48.8612 81.7283 48.8184 81.6209 48.8184C81.5173 48.8184 81.4297 48.8593 81.3581 48.9412C81.2865 49.0217 81.2507 49.1413 81.2507 49.2999ZM82.841 49.5243L83.3781 49.4687C83.3935 49.5902 83.4389 49.6868 83.5143 49.7584C83.5898 49.8287 83.6768 49.8639 83.7752 49.8639C83.8878 49.8639 83.9831 49.8185 84.0611 49.7277C84.1391 49.6356 84.1781 49.4975 84.1781 49.3133C84.1781 49.1407 84.1391 49.0115 84.0611 48.9258C83.9843 48.8388 83.8839 48.7954 83.7599 48.7954C83.6051 48.7954 83.4664 48.8638 83.3436 49.0006L82.9062 48.9373L83.1825 47.4736H84.6078V47.9781H83.5911L83.5067 48.4558C83.6269 48.3957 83.7497 48.3656 83.875 48.3656C84.1141 48.3656 84.3169 48.4526 84.4831 48.6265C84.6494 48.8005 84.7325 49.0262 84.7325 49.3037C84.7325 49.5352 84.6654 49.7417 84.5311 49.9234C84.3482 50.1715 84.0943 50.2955 83.7695 50.2955C83.5099 50.2955 83.2982 50.2258 83.1345 50.0864C82.9708 49.947 82.873 49.7597 82.841 49.5243Z" fill="#5C6DC3"/>
<path d="M86.213 47.4352H87.3372C87.5597 47.4352 87.7253 47.4448 87.834 47.464C87.944 47.4819 88.0419 47.5203 88.1275 47.5791C88.2145 47.6379 88.2868 47.7166 88.3443 47.8151C88.4019 47.9123 88.4306 48.0216 88.4306 48.1431C88.4306 48.2748 88.3948 48.3957 88.3232 48.5057C88.2529 48.6157 88.157 48.6982 88.0355 48.7532C88.2068 48.803 88.3386 48.8881 88.4306 49.0083C88.5227 49.1285 88.5688 49.2698 88.5688 49.4323C88.5688 49.5601 88.5387 49.6848 88.4786 49.8063C88.4198 49.9266 88.3386 50.0231 88.235 50.096C88.1327 50.1676 88.006 50.2117 87.8551 50.2284C87.7605 50.2386 87.5322 50.245 87.1703 50.2476H86.213V47.4352ZM86.7808 47.9033V48.5536H87.153C87.3743 48.5536 87.5117 48.5504 87.5655 48.544C87.6627 48.5325 87.7387 48.4993 87.7937 48.4443C87.85 48.388 87.8781 48.3145 87.8781 48.2237C87.8781 48.1367 87.8539 48.0664 87.8053 48.0127C87.7579 47.9577 87.687 47.9244 87.5923 47.9129C87.536 47.9065 87.3743 47.9033 87.107 47.9033H86.7808ZM86.7808 49.0217V49.7737H87.3065C87.5111 49.7737 87.6409 49.768 87.6959 49.7565C87.7803 49.7411 87.8487 49.704 87.9012 49.6452C87.9549 49.5851 87.9817 49.5052 87.9817 49.4054C87.9817 49.321 87.9613 49.2494 87.9204 49.1905C87.8794 49.1317 87.82 49.0889 87.7419 49.062C87.6652 49.0352 87.4977 49.0217 87.2393 49.0217H86.7808ZM89.6833 50.2476V47.911H88.8488V47.4352H91.0837V47.911H90.2512V50.2476H89.6833ZM93.2515 49.2136L93.8021 49.3881C93.7177 49.6951 93.577 49.9234 93.38 50.073C93.1844 50.2213 92.9356 50.2955 92.6338 50.2955C92.2603 50.2955 91.9534 50.1683 91.713 49.9138C91.4725 49.658 91.3523 49.3088 91.3523 48.8663C91.3523 48.3983 91.4732 48.035 91.7149 47.7767C91.9566 47.5171 92.2744 47.3873 92.6683 47.3873C93.0123 47.3873 93.2918 47.4889 93.5066 47.6923C93.6345 47.8125 93.7304 47.9852 93.7944 48.2103L93.2323 48.3445C93.1991 48.1987 93.1294 48.0836 93.0232 47.9992C92.9183 47.9148 92.7904 47.8726 92.6395 47.8726C92.4311 47.8726 92.2616 47.9474 92.1312 48.0971C92.002 48.2467 91.9374 48.4891 91.9374 48.8241C91.9374 49.1797 92.0014 49.4329 92.1292 49.5838C92.2571 49.7347 92.4234 49.8102 92.628 49.8102C92.7789 49.8102 92.9087 49.7622 93.0175 49.6663C93.1262 49.5704 93.2042 49.4195 93.2515 49.2136Z" fill="#5C6DC3"/>
<path d="M65.4375 96.3779V140.378H114.438" stroke="url(#paint2_linear_310_11942)" stroke-width="1.18729" stroke-dasharray="2.37 2.37"/>
<path d="M179.438 140.378H205.676C205.676 140.378 205.676 118.437 205.676 104.378H231.438" stroke="url(#paint3_linear_310_11942)" stroke-width="1.18729" stroke-dasharray="2.37 2.37"/>
<g clip-path="url(#clip1_310_11942)">
<rect x="231.328" y="72.0099" width="111.616" height="86.5805" rx="16.1687" fill="#97AFE2" fill-opacity="0.8" stroke="url(#paint4_linear_310_11942)" stroke-width="1.04314"/>
<g filter="url(#filter1_d_310_11942)">
<g clip-path="url(#clip2_310_11942)">
<rect x="234.979" y="75.6631" width="104.314" height="68.8472" rx="12.5177" fill="white"/>
<g clip-path="url(#clip3_310_11942)">
<g clip-path="url(#clip4_310_11942)">
<rect x="241.236" y="99.6533" width="21.9059" height="23.4706" rx="1.49566" fill="#E8EEFC"/>
<rect x="245.932" y="102.783" width="12.5177" height="12.5177" rx="6.25883" fill="#5C6DC3"/>
<path d="M250.627 108.779L251.491 109.643C251.743 109.896 252.156 109.909 252.408 109.656L254.774 107.477" stroke="white" stroke-width="1.25177" stroke-linecap="round" stroke-linejoin="round"/>
<path d="M247.76 119.136L248.2 119.094C248.227 119.241 248.28 119.35 248.361 119.419C248.442 119.488 248.552 119.523 248.689 119.523C248.835 119.523 248.945 119.492 249.018 119.431C249.092 119.369 249.129 119.297 249.129 119.214C249.129 119.161 249.114 119.116 249.082 119.08C249.052 119.042 248.998 119.01 248.92 118.982C248.867 118.964 248.746 118.931 248.558 118.884C248.316 118.824 248.145 118.75 248.048 118.663C247.91 118.539 247.841 118.389 247.841 118.212C247.841 118.098 247.873 117.991 247.938 117.893C248.003 117.793 248.096 117.717 248.217 117.665C248.34 117.613 248.487 117.587 248.659 117.587C248.94 117.587 249.151 117.649 249.293 117.772C249.436 117.895 249.51 118.06 249.518 118.265L249.065 118.285C249.046 118.17 249.004 118.088 248.94 118.038C248.877 117.987 248.782 117.961 248.654 117.961C248.523 117.961 248.42 117.988 248.346 118.042C248.298 118.077 248.274 118.123 248.274 118.181C248.274 118.234 248.296 118.28 248.341 118.317C248.398 118.365 248.537 118.415 248.757 118.467C248.977 118.519 249.139 118.573 249.244 118.629C249.35 118.684 249.433 118.76 249.492 118.857C249.552 118.952 249.582 119.071 249.582 119.213C249.582 119.341 249.546 119.461 249.475 119.573C249.404 119.685 249.303 119.769 249.172 119.824C249.042 119.878 248.879 119.905 248.685 119.905C248.402 119.905 248.184 119.84 248.032 119.709C247.881 119.578 247.79 119.387 247.76 119.136ZM249.871 118.759C249.871 118.531 249.905 118.339 249.973 118.184C250.024 118.07 250.093 117.968 250.181 117.877C250.269 117.787 250.366 117.719 250.471 117.676C250.611 117.616 250.772 117.587 250.954 117.587C251.284 117.587 251.548 117.689 251.745 117.894C251.944 118.099 252.043 118.384 252.043 118.748C252.043 119.11 251.945 119.393 251.749 119.598C251.552 119.802 251.289 119.903 250.96 119.903C250.627 119.903 250.362 119.802 250.166 119.599C249.969 119.396 249.871 119.115 249.871 118.759ZM250.337 118.744C250.337 118.997 250.395 119.19 250.512 119.321C250.63 119.452 250.778 119.517 250.959 119.517C251.139 119.517 251.287 119.452 251.402 119.323C251.518 119.192 251.576 118.997 251.576 118.738C251.576 118.481 251.519 118.289 251.406 118.163C251.294 118.037 251.145 117.974 250.959 117.974C250.772 117.974 250.622 118.038 250.508 118.166C250.394 118.293 250.337 118.486 250.337 118.744ZM252.41 119.865V117.643H252.862V119.488H253.987V119.865H252.41ZM254.31 117.625H255.136C255.323 117.625 255.465 117.639 255.563 117.668C255.694 117.707 255.807 117.775 255.9 117.874C255.994 117.973 256.065 118.094 256.114 118.238C256.163 118.38 256.187 118.557 256.187 118.767C256.187 118.951 256.165 119.11 256.119 119.243C256.063 119.406 255.983 119.538 255.879 119.639C255.8 119.715 255.694 119.775 255.561 119.818C255.461 119.849 255.328 119.865 255.161 119.865H254.31V117.625ZM254.762 118.004V119.488H255.1C255.226 119.488 255.317 119.481 255.373 119.466C255.446 119.448 255.507 119.417 255.555 119.373C255.604 119.329 255.644 119.258 255.674 119.158C255.705 119.057 255.72 118.92 255.72 118.747C255.72 118.574 255.705 118.441 255.674 118.348C255.644 118.255 255.601 118.183 255.546 118.131C255.491 118.079 255.421 118.044 255.336 118.025C255.273 118.011 255.149 118.004 254.965 118.004H254.762Z" fill="#5C6DC3"/>
</g>
<rect x="264.12" y="99.6533" width="22.1015" height="23.4706" rx="1.49566" fill="#E8EEFC"/>
<rect x="287.004" y="99.6533" width="22.1015" height="23.4706" rx="1.49566" fill="#E8EEFC"/>
<rect x="309.888" y="99.6533" width="22.1015" height="23.4706" rx="1.49566" fill="#E8EEFC"/>
<rect x="241.236" y="123.906" width="22.1015" height="23.4706" rx="1.49566" fill="#E8EEFC"/>
<rect x="264.12" y="123.906" width="22.1015" height="23.4706" rx="1.49566" fill="#E8EEFC"/>
<rect x="287.004" y="123.906" width="22.1015" height="23.4706" rx="1.49566" fill="#E8EEFC"/>
<rect x="309.888" y="123.906" width="22.1015" height="23.4706" rx="1.49566" fill="#E8EEFC"/>
</g>
</g>
<rect x="235.37" y="76.0543" width="103.532" height="68.0648" rx="12.1265" stroke="white" stroke-opacity="0.5" stroke-width="0.782354"/>
</g>
<rect x="241.236" y="84.0059" width="27.1216" height="4.17255" rx="2.08628" fill="#E8EEFC"/>
<rect x="241.236" y="89.7432" width="43.8118" height="4.17255" rx="2.08628" fill="#5C6DC4"/>
<g clip-path="url(#clip5_310_11942)">
<rect x="241.236" y="95.4805" width="6.25883" height="1.56471" rx="0.782354" fill="#5C6DC4"/>
<rect x="249.06" y="95.4805" width="6.25883" height="1.56471" rx="0.782354" fill="#5C6DC4"/>
<rect x="256.883" y="95.4805" width="6.25883" height="1.56471" rx="0.782354" fill="#5C6DC4"/>
<rect x="264.707" y="95.4805" width="6.25883" height="1.56471" rx="0.782354" fill="#5C6DC4"/>
<rect x="272.53" y="95.4805" width="6.25883" height="1.56471" rx="0.782354" fill="#5C6DC4"/>
<rect x="280.354" y="95.4805" width="6.25883" height="1.56471" rx="0.782354" fill="#5C6DC4"/>
<rect x="288.178" y="95.4805" width="6.25883" height="1.56471" rx="0.782354" fill="#5C6DC4"/>
<rect x="296.001" y="95.4805" width="6.25883" height="1.56471" rx="0.782354" fill="#5C6DC4"/>
<rect x="303.825" y="95.4805" width="6.25883" height="1.56471" rx="0.782354" fill="#5C6DC4"/>
<rect x="311.648" y="95.4805" width="6.25883" height="1.56471" rx="0.782354" fill="#5C6DC4"/>
<rect x="319.472" y="95.4805" width="6.25883" height="1.56471" rx="0.782354" fill="#5C6DC4"/>
<rect x="327.295" y="95.4805" width="6.25883" height="1.56471" rx="0.782354" fill="#5C6DC4"/>
</g>
<path d="M222.461 150.769C222.461 148.464 224.329 146.596 226.633 146.596H254.798H268.717C269.824 146.596 270.885 147.036 271.667 147.818L274.439 150.59C275.221 151.372 276.283 151.812 277.389 151.812H296.605C297.872 151.812 299.071 151.236 299.863 150.246L301.53 148.162C302.322 147.172 303.521 146.596 304.788 146.596H318.43H347.638C349.942 146.596 351.81 148.464 351.81 150.769V157.028C351.81 159.332 349.942 161.2 347.638 161.2H226.633C224.329 161.2 222.461 159.332 222.461 157.028V150.769Z" fill="#A1BAF1"/>
<path d="M222.983 150.769C222.983 148.752 224.617 147.118 226.633 147.118H254.798H268.717C269.685 147.118 270.614 147.502 271.299 148.187L274.07 150.959C274.95 151.839 276.144 152.333 277.389 152.333H296.605C298.031 152.333 299.379 151.685 300.27 150.572L301.937 148.488C302.63 147.622 303.679 147.118 304.788 147.118H318.43H347.638C349.654 147.118 351.289 148.752 351.289 150.769V157.028C351.289 159.044 349.654 160.679 347.638 160.679H226.633C224.617 160.679 222.983 159.044 222.983 157.028V150.769Z" stroke="url(#paint5_linear_310_11942)" stroke-opacity="0.5" stroke-width="1.04314"/>
</g>
<rect x="115.782" y="110.782" width="59.4353" height="52.4353" rx="26.2176" stroke="white" stroke-width="1.56471"/>
<mask id="path-53-inside-1_310_11942" fill="white">
<path fill-rule="evenodd" clip-rule="evenodd" d="M149.858 151.075C148.028 151.771 146.044 152.152 143.97 152.152C141.076 152.152 138.355 151.41 135.987 150.107C134.05 151.397 131.723 152.149 129.221 152.149C122.472 152.149 117 146.677 117 139.928C117 133.178 122.472 127.706 129.221 127.706C129.273 127.706 129.325 127.707 129.377 127.707C132.178 122.522 137.663 119 143.97 119C148.951 119 153.419 121.197 156.457 124.675C161.012 125.086 164.926 127.715 167.112 131.473C172.139 132.203 176.001 136.53 176.001 141.76C176.001 147.501 171.347 152.155 165.605 152.155C163.867 152.155 162.228 151.728 160.787 150.973C159.081 151.731 157.192 152.152 155.205 152.152C153.309 152.152 151.502 151.769 149.858 151.075Z"/>
</mask>
<path fill-rule="evenodd" clip-rule="evenodd" d="M149.858 151.075C148.028 151.771 146.044 152.152 143.97 152.152C141.076 152.152 138.355 151.41 135.987 150.107C134.05 151.397 131.723 152.149 129.221 152.149C122.472 152.149 117 146.677 117 139.928C117 133.178 122.472 127.706 129.221 127.706C129.273 127.706 129.325 127.707 129.377 127.707C132.178 122.522 137.663 119 143.97 119C148.951 119 153.419 121.197 156.457 124.675C161.012 125.086 164.926 127.715 167.112 131.473C172.139 132.203 176.001 136.53 176.001 141.76C176.001 147.501 171.347 152.155 165.605 152.155C163.867 152.155 162.228 151.728 160.787 150.973C159.081 151.731 157.192 152.152 155.205 152.152C153.309 152.152 151.502 151.769 149.858 151.075Z" fill="url(#paint6_linear_310_11942)"/>
<path d="M149.858 151.075L149.968 150.816L149.864 150.773L149.759 150.813L149.858 151.075ZM135.987 150.107L136.123 149.861L135.973 149.778L135.831 149.873L135.987 150.107ZM129.377 127.707L129.373 127.988L129.543 127.99L129.624 127.841L129.377 127.707ZM156.457 124.675L156.246 124.86L156.32 124.945L156.432 124.955L156.457 124.675ZM167.112 131.473L166.87 131.614L166.938 131.732L167.072 131.751L167.112 131.473ZM160.787 150.973L160.918 150.724L160.797 150.661L160.673 150.716L160.787 150.973ZM143.97 152.433C146.078 152.433 148.097 152.046 149.958 151.338L149.759 150.813C147.96 151.496 146.009 151.871 143.97 151.871V152.433ZM135.852 150.353C138.26 151.679 141.027 152.433 143.97 152.433V151.871C141.124 151.871 138.45 151.142 136.123 149.861L135.852 150.353ZM129.221 152.43C131.78 152.43 134.161 151.661 136.143 150.341L135.831 149.873C133.939 151.133 131.666 151.868 129.221 151.868V152.43ZM116.719 139.928C116.719 146.832 122.316 152.43 129.221 152.43V151.868C122.627 151.868 117.281 146.522 117.281 139.928H116.719ZM129.221 127.425C122.316 127.425 116.719 133.023 116.719 139.928H117.281C117.281 133.333 122.627 127.987 129.221 127.987V127.425ZM129.38 127.426C129.327 127.426 129.274 127.425 129.221 127.425V127.987C129.272 127.987 129.323 127.988 129.373 127.988L129.38 127.426ZM143.97 118.719C137.555 118.719 131.978 122.302 129.129 127.574L129.624 127.841C132.378 122.743 137.77 119.281 143.97 119.281V118.719ZM156.669 124.491C153.579 120.954 149.035 118.719 143.97 118.719V119.281C148.866 119.281 153.258 121.441 156.246 124.86L156.669 124.491ZM167.355 131.332C165.125 127.498 161.131 124.815 156.483 124.396L156.432 124.955C160.893 125.358 164.727 127.932 166.87 131.614L167.355 131.332ZM167.072 131.751C171.963 132.461 175.72 136.672 175.72 141.76H176.282C176.282 136.389 172.316 131.945 167.153 131.195L167.072 131.751ZM175.72 141.76C175.72 147.346 171.191 151.874 165.605 151.874V152.436C171.502 152.436 176.282 147.656 176.282 141.76H175.72ZM165.605 151.874C163.913 151.874 162.319 151.458 160.918 150.724L160.657 151.222C162.136 151.997 163.82 152.436 165.605 152.436V151.874ZM155.205 152.433C157.232 152.433 159.16 152.003 160.901 151.23L160.673 150.716C159.002 151.459 157.152 151.871 155.205 151.871V152.433ZM149.749 151.334C151.427 152.042 153.27 152.433 155.205 152.433V151.871C153.347 151.871 151.577 151.496 149.968 150.816L149.749 151.334Z" fill="url(#paint7_linear_310_11942)" mask="url(#path-53-inside-1_310_11942)"/>
<path d="M128.63 136.471V130.653H132.687V131.795H130.036V132.988H132.479V134.133H130.036V135.329H132.687V136.471H128.63ZM137.377 133.44L136.101 133.474C136.088 133.383 136.052 133.303 135.993 133.233C135.935 133.161 135.858 133.105 135.763 133.065C135.671 133.023 135.563 133.002 135.439 133.002C135.278 133.002 135.141 133.035 135.028 133.099C134.916 133.163 134.861 133.251 134.863 133.36C134.861 133.446 134.895 133.519 134.965 133.582C135.037 133.644 135.165 133.695 135.349 133.733L136.189 133.892C136.625 133.975 136.949 134.113 137.161 134.306C137.375 134.5 137.483 134.755 137.485 135.073C137.483 135.373 137.394 135.633 137.218 135.855C137.044 136.076 136.805 136.249 136.502 136.372C136.199 136.493 135.852 136.554 135.462 136.554C134.839 136.554 134.348 136.426 133.988 136.17C133.63 135.912 133.425 135.568 133.374 135.136L134.746 135.102C134.777 135.261 134.855 135.382 134.982 135.466C135.109 135.549 135.271 135.591 135.468 135.591C135.646 135.591 135.791 135.557 135.903 135.491C136.014 135.425 136.071 135.337 136.073 135.227C136.071 135.128 136.028 135.05 135.942 134.991C135.857 134.93 135.724 134.883 135.542 134.849L134.78 134.704C134.343 134.625 134.017 134.478 133.803 134.264C133.589 134.048 133.483 133.773 133.485 133.44C133.483 133.148 133.561 132.899 133.718 132.693C133.875 132.484 134.099 132.325 134.388 132.216C134.678 132.106 135.02 132.051 135.414 132.051C136.005 132.051 136.471 132.175 136.812 132.423C137.153 132.669 137.341 133.008 137.377 133.44ZM140.206 136.554C139.746 136.554 139.351 136.459 139.021 136.269C138.693 136.08 138.442 135.817 138.265 135.48C138.089 135.141 138.001 134.749 138.001 134.304C138.001 133.857 138.089 133.465 138.265 133.127C138.443 132.788 138.696 132.524 139.024 132.335C139.354 132.145 139.747 132.051 140.203 132.051C140.606 132.051 140.958 132.124 141.257 132.269C141.558 132.415 141.793 132.622 141.961 132.889C142.132 133.154 142.222 133.466 142.231 133.823H140.933C140.907 133.6 140.831 133.425 140.706 133.298C140.583 133.171 140.422 133.108 140.223 133.108C140.062 133.108 139.921 133.153 139.8 133.244C139.678 133.333 139.584 133.466 139.515 133.642C139.449 133.816 139.416 134.032 139.416 134.289C139.416 134.547 139.449 134.765 139.515 134.943C139.584 135.119 139.678 135.252 139.8 135.343C139.921 135.432 140.062 135.477 140.223 135.477C140.352 135.477 140.465 135.449 140.564 135.394C140.664 135.34 140.747 135.259 140.811 135.153C140.875 135.045 140.916 134.914 140.933 134.761H142.231C142.218 135.121 142.128 135.435 141.961 135.704C141.797 135.973 141.565 136.182 141.265 136.332C140.968 136.48 140.615 136.554 140.206 136.554ZM142.942 136.471V132.108H144.292V132.903H144.337C144.417 132.615 144.546 132.401 144.726 132.261C144.906 132.119 145.116 132.048 145.354 132.048C145.419 132.048 145.485 132.053 145.553 132.062C145.621 132.07 145.685 132.082 145.743 132.099V133.306C145.677 133.284 145.59 133.266 145.482 133.252C145.376 133.239 145.281 133.233 145.198 133.233C145.033 133.233 144.885 133.269 144.752 133.343C144.621 133.415 144.518 133.517 144.442 133.647C144.368 133.776 144.331 133.928 144.331 134.102V136.471H142.942ZM148.12 136.554C147.662 136.554 147.268 136.46 146.938 136.272C146.61 136.083 146.358 135.82 146.18 135.483C146.003 135.144 145.915 134.751 145.915 134.304C145.915 133.855 146.003 133.462 146.18 133.125C146.358 132.786 146.61 132.522 146.938 132.335C147.268 132.145 147.662 132.051 148.12 132.051C148.578 132.051 148.971 132.145 149.299 132.335C149.628 132.522 149.881 132.786 150.057 133.125C150.235 133.462 150.324 133.855 150.324 134.304C150.324 134.751 150.235 135.144 150.057 135.483C149.881 135.82 149.628 136.083 149.299 136.272C148.971 136.46 148.578 136.554 148.12 136.554ZM148.128 135.505C148.295 135.505 148.436 135.454 148.552 135.352C148.667 135.25 148.755 135.108 148.816 134.926C148.878 134.744 148.91 134.534 148.91 134.295C148.91 134.053 148.878 133.841 148.816 133.659C148.755 133.477 148.667 133.335 148.552 133.233C148.436 133.13 148.295 133.079 148.128 133.079C147.956 133.079 147.81 133.13 147.691 133.233C147.573 133.335 147.483 133.477 147.421 133.659C147.36 133.841 147.33 134.053 147.33 134.295C147.33 134.534 147.36 134.744 147.421 134.926C147.483 135.108 147.573 135.25 147.691 135.352C147.81 135.454 147.956 135.505 148.128 135.505ZM151.758 136.471L150.621 132.108H152.016L152.604 134.903H152.641L153.272 132.108H154.633L155.28 134.883H155.317L155.888 132.108H157.283L156.144 136.471H154.658L153.976 133.929H153.928L153.246 136.471H151.758ZM159.23 130.653V136.471H157.841V130.653H159.23ZM160.964 138.108C160.797 138.108 160.64 138.094 160.492 138.068C160.344 138.043 160.217 138.01 160.111 137.968L160.418 136.96C160.555 137.005 160.678 137.032 160.787 137.039C160.899 137.047 160.995 137.029 161.074 136.985C161.156 136.944 161.218 136.869 161.262 136.761L161.316 136.63L159.765 132.108H161.219L162.023 135.221H162.069L162.884 132.108H164.347L162.702 136.889C162.623 137.127 162.51 137.338 162.364 137.519C162.22 137.703 162.034 137.847 161.805 137.951C161.577 138.055 161.297 138.108 160.964 138.108ZM141.173 146.471H139.662L141.625 140.653H143.497L145.46 146.471H143.949L142.583 142.119H142.537L141.173 146.471ZM140.972 144.181H144.131V145.25H140.972V144.181ZM146.087 146.471V140.653H148.49C148.926 140.653 149.302 140.738 149.618 140.909C149.936 141.077 150.182 141.313 150.354 141.616C150.526 141.917 150.612 142.268 150.612 142.667C150.612 143.069 150.524 143.42 150.348 143.721C150.174 144.02 149.925 144.252 149.601 144.417C149.277 144.582 148.893 144.664 148.448 144.664H146.965V143.556H148.186C148.398 143.556 148.575 143.519 148.718 143.446C148.861 143.372 148.97 143.269 149.044 143.136C149.118 143.001 149.155 142.845 149.155 142.667C149.155 142.487 149.118 142.332 149.044 142.201C148.97 142.069 148.861 141.966 148.718 141.894C148.574 141.823 148.396 141.787 148.186 141.787H147.493V146.471H146.087ZM152.712 140.653V146.471H151.306V140.653H152.712Z" fill="white"/>
<circle cx="180" cy="140" r="3" fill="#E8EEFC"/>
<circle cx="113" cy="140" r="3" fill="#E8EEFC"/>
<rect x="54.6152" y="126.913" width="25.0353" height="25.0353" rx="12.5177" fill="#E8EEFC"/>
<path d="M67.2592 144.993C70.9941 145.659 71.9164 140.365 68.1816 139.697M67.2592 144.993L62.7788 144.192M67.2592 144.993L66.9968 146.506M65.1939 139.164L68.1823 139.697C71.9171 140.365 72.8395 135.069 69.1039 134.403L64.6219 133.602M69.1031 134.403L69.3671 132.889M64.0076 145.972L66.3786 132.355" stroke="#5C6DC3" stroke-width="1.57978" stroke-linecap="round" stroke-linejoin="round"/>
<rect x="191" y="90" width="25.0353" height="25.0353" rx="12.5177" fill="#E8EEFC"/>
<path d="M203.522 107.081C204.962 107.081 206.13 105.914 206.13 104.474C206.13 103.033 204.962 101.866 203.522 101.866C202.082 101.866 200.914 103.033 200.914 104.474C200.914 105.914 202.082 107.081 203.522 107.081Z" stroke="#5C6DC3" stroke-width="0.977942" stroke-miterlimit="10" stroke-linecap="round" stroke-linejoin="round"/>
<path d="M202.504 104.474L202.928 104.898C203.052 105.022 203.254 105.028 203.378 104.904L204.538 103.835" stroke="#5C6DC3" stroke-width="0.977942" stroke-linecap="round" stroke-linejoin="round"/>
<path d="M201.565 109.037H205.477C208.097 109.037 208.567 107.987 208.704 106.71L209.193 102.798C209.369 101.207 208.912 99.9097 206.128 99.9097H200.913C198.129 99.9097 197.673 101.207 197.849 102.798L198.338 106.71C198.474 107.987 198.944 109.037 201.565 109.037Z" stroke="#5C6DC3" stroke-width="1.56471" stroke-miterlimit="10" stroke-linecap="round" stroke-linejoin="round"/>
<path d="M200.587 99.6951V99.0627C200.587 97.5958 201.767 96.155 203.234 96.0181C204.982 95.8485 206.455 97.2242 206.455 98.9388V99.8386" stroke="#5C6DC3" stroke-width="1.56471" stroke-miterlimit="10" stroke-linecap="round" stroke-linejoin="round"/>
<circle cx="113" cy="140" r="1" fill="#5C6DC3"/>
<circle cx="180" cy="140" r="1" fill="#5C6DC3"/>
</g>
<defs>
<filter id="filter0_d_310_11942" x="8.17247" y="9.17529" width="121.004" height="85.5374" filterUnits="userSpaceOnUse" color-interpolation-filters="sRGB">
<feFlood flood-opacity="0" result="BackgroundImageFix"/>
<feColorMatrix in="SourceAlpha" type="matrix" values="0 0 0 0 0 0 0 0 0 0 0 0 0 0 0 0 0 0 127 0" result="hardAlpha"/>
<feOffset dy="8.34511"/>
<feGaussianBlur stdDeviation="4.17256"/>
<feComposite in2="hardAlpha" operator="out"/>
<feColorMatrix type="matrix" values="0 0 0 0 0.160784 0 0 0 0 0.184314 0 0 0 0 0.317647 0 0 0 0.1 0"/>
<feBlend mode="normal" in2="BackgroundImageFix" result="effect1_dropShadow_310_11942"/>
<feBlend mode="normal" in="SourceGraphic" in2="effect1_dropShadow_310_11942" result="shape"/>
</filter>
<filter id="filter1_d_310_11942" x="228.72" y="75.6631" width="116.832" height="81.3648" filterUnits="userSpaceOnUse" color-interpolation-filters="sRGB">
<feFlood flood-opacity="0" result="BackgroundImageFix"/>
<feColorMatrix in="SourceAlpha" type="matrix" values="0 0 0 0 0 0 0 0 0 0 0 0 0 0 0 0 0 0 127 0" result="hardAlpha"/>
<feOffset dy="6.25883"/>
<feGaussianBlur stdDeviation="3.12942"/>
<feComposite in2="hardAlpha" operator="out"/>
<feColorMatrix type="matrix" values="0 0 0 0 0.160972 0 0 0 0 0.185883 0 0 0 0 0.316667 0 0 0 0.1 0"/>
<feBlend mode="normal" in2="BackgroundImageFix" result="effect1_dropShadow_310_11942"/>
<feBlend mode="normal" in="SourceGraphic" in2="effect1_dropShadow_310_11942" result="shape"/>
</filter>
<linearGradient id="paint0_linear_310_11942" x1="68.6752" y1="5" x2="68.6752" y2="92.6236" gradientUnits="userSpaceOnUse">
<stop stop-color="white"/>
<stop offset="1" stop-color="#C7CFFF" stop-opacity="0.7"/>
</linearGradient>
<linearGradient id="paint1_linear_310_11942" x1="4" y1="87.4094" x2="133.349" y2="87.4094" gradientUnits="userSpaceOnUse">
<stop stop-color="white"/>
<stop offset="1" stop-color="#C7CFFF" stop-opacity="0.25"/>
</linearGradient>
<linearGradient id="paint2_linear_310_11942" x1="114.536" y1="96.3779" x2="57.0666" y2="117.663" gradientUnits="userSpaceOnUse">
<stop stop-color="#CDD1E3"/>
<stop offset="0.460327" stop-color="#5C6DC3"/>
<stop offset="1" stop-color="#CDD1E3"/>
</linearGradient>
<linearGradient id="paint3_linear_310_11942" x1="231.542" y1="104.378" x2="175.192" y2="131.448" gradientUnits="userSpaceOnUse">
<stop stop-color="#CDD1E3"/>
<stop offset="0.460327" stop-color="#5C6DC3"/>
<stop offset="1" stop-color="#CDD1E3" stop-opacity="0.294118"/>
</linearGradient>
<linearGradient id="paint4_linear_310_11942" x1="287.136" y1="71.4883" x2="287.136" y2="159.112" gradientUnits="userSpaceOnUse">
<stop stop-color="white"/>
<stop offset="1" stop-color="#C7CFFF" stop-opacity="0.25"/>
</linearGradient>
<linearGradient id="paint5_linear_310_11942" x1="222.461" y1="153.898" x2="351.81" y2="153.898" gradientUnits="userSpaceOnUse">
<stop stop-color="white"/>
<stop offset="1" stop-color="#C7CFFF" stop-opacity="0.25"/>
</linearGradient>
<linearGradient id="paint6_linear_310_11942" x1="176.001" y1="135.577" x2="117" y2="135.577" gradientUnits="userSpaceOnUse">
<stop stop-color="#BED0F7"/>
<stop offset="0.395" stop-color="#A4BCF2"/>
<stop offset="1" stop-color="#D1DDFB"/>
</linearGradient>
<linearGradient id="paint7_linear_310_11942" x1="146.5" y1="119" x2="146.5" y2="152.155" gradientUnits="userSpaceOnUse">
<stop stop-color="white" stop-opacity="0.1"/>
<stop offset="1" stop-color="white" stop-opacity="0"/>
</linearGradient>
<clipPath id="clip0_310_11942">
<rect width="355" height="165" fill="white"/>
</clipPath>
<clipPath id="clip1_310_11942">
<rect width="129.349" height="93.8825" fill="white" transform="translate(222.461 71.4883)"/>
</clipPath>
<clipPath id="clip2_310_11942">
<rect x="234.979" y="75.6631" width="104.314" height="68.8472" rx="12.5177" fill="white"/>
</clipPath>
<clipPath id="clip3_310_11942">
<rect width="90.7531" height="46.9412" fill="white" transform="translate(241.236 99.6533)"/>
</clipPath>
<clipPath id="clip4_310_11942">
<rect width="22.1015" height="23.4706" fill="white" transform="translate(241.236 99.6533)"/>
</clipPath>
<clipPath id="clip5_310_11942">
<rect width="90.7531" height="1.56471" fill="white" transform="translate(241.236 95.4805)"/>
</clipPath>
</defs>
</svg>
