<svg width="261" height="173" viewBox="0 0 261 173" fill="none" xmlns="http://www.w3.org/2000/svg">
<g clip-path="url(#clip0_310_11802)">
<path d="M62.3855 170.162V164.834H65.5803V165.406H63.0307V167.207H65.341V167.779H63.0307V170.162H62.3855ZM66.6854 170.162V164.834H69.901V165.406H67.3306V167.207H69.7345V167.779H67.3306V169.59H69.9427V170.162H66.6854ZM71.064 170.162V164.834H72.9268C73.298 164.834 73.6041 164.898 73.8452 165.026C74.0863 165.153 74.2658 165.324 74.3837 165.539C74.5017 165.752 74.5606 165.989 74.5606 166.249C74.5606 166.478 74.5199 166.667 74.4384 166.816C74.3586 166.966 74.2528 167.083 74.121 167.17C73.9909 167.257 73.8495 167.321 73.6969 167.363V167.415C73.8599 167.425 74.0238 167.482 74.1886 167.586C74.3534 167.691 74.4913 167.84 74.6023 168.034C74.7133 168.228 74.7688 168.466 74.7688 168.747C74.7688 169.014 74.7081 169.254 74.5867 169.467C74.4652 169.681 74.2736 169.85 74.0117 169.975C73.7498 170.1 73.409 170.162 72.9892 170.162H71.064ZM71.7092 169.59H72.9892C73.4107 169.59 73.7099 169.508 73.8868 169.345C74.0655 169.18 74.1548 168.981 74.1548 168.747C74.1548 168.566 74.1088 168.4 74.0169 168.247C73.925 168.093 73.794 167.97 73.624 167.878C73.4541 167.784 73.2529 167.737 73.0205 167.737H71.7092V169.59ZM71.7092 167.175H72.906C73.1002 167.175 73.2754 167.137 73.4315 167.061C73.5894 166.985 73.7142 166.877 73.8062 166.738C73.8998 166.6 73.9466 166.437 73.9466 166.249C73.9466 166.015 73.8651 165.816 73.7021 165.653C73.5391 165.489 73.2806 165.406 72.9268 165.406H71.7092V167.175Z" fill="#8D9092"/>
<path d="M6.27477 164.656H6.91999V168.465C6.91999 168.805 6.85755 169.094 6.73267 169.331C6.60779 169.569 6.43174 169.749 6.20453 169.873C5.97732 169.996 5.70934 170.057 5.40061 170.057C5.10922 170.057 4.84992 170.004 4.62271 169.899C4.3955 169.791 4.21685 169.638 4.08676 169.441C3.95668 169.243 3.89164 169.008 3.89164 168.736H4.52645C4.52645 168.886 4.56374 169.018 4.63832 169.131C4.71464 169.242 4.8187 169.329 4.95052 169.391C5.08234 169.454 5.23237 169.485 5.40061 169.485C5.5862 169.485 5.74403 169.446 5.87412 169.368C6.0042 169.29 6.10306 169.175 6.17071 169.024C6.24008 168.872 6.27477 168.685 6.27477 168.465V164.656ZM8.43156 169.984H7.75513L9.71159 164.656H10.3776L12.3341 169.984H11.6576L10.0654 165.499H10.0238L8.43156 169.984ZM8.68132 167.903H11.4079V168.475H8.68132V167.903ZM17.3891 164.656V169.984H16.7647L13.8613 165.801H13.8092V169.984H13.164V164.656H13.7884L16.7023 168.85H16.7543V164.656H17.3891Z" fill="#8D9092"/>
<path d="M103.726 164.834H104.496L106.307 169.257H106.37L108.18 164.834H108.95V170.162H108.347V166.114H108.295L106.63 170.162H106.047L104.382 166.114H104.33V170.162H103.726V164.834ZM110.463 170.162H109.786L111.743 164.834H112.409L114.365 170.162H113.689L112.097 165.677H112.055L110.463 170.162ZM110.712 168.081H113.439V168.653H110.712V168.081ZM115.195 170.162V164.834H116.995C117.412 164.834 117.753 164.905 118.021 165.047C118.288 165.188 118.485 165.381 118.614 165.627C118.742 165.874 118.806 166.154 118.806 166.468C118.806 166.782 118.742 167.06 118.614 167.303C118.485 167.546 118.289 167.736 118.023 167.875C117.758 168.012 117.419 168.081 117.006 168.081H115.549V167.498H116.985C117.27 167.498 117.498 167.456 117.672 167.373C117.847 167.29 117.974 167.172 118.052 167.019C118.132 166.865 118.171 166.681 118.171 166.468C118.171 166.254 118.132 166.068 118.052 165.908C117.972 165.749 117.844 165.626 117.669 165.539C117.494 165.45 117.263 165.406 116.975 165.406H115.84V170.162H115.195ZM117.703 167.769L119.014 170.162H118.265L116.975 167.769H117.703Z" fill="#8D9092"/>
<path d="M149.473 170.162H148.797L150.753 164.834H151.419L153.376 170.162H152.699L151.107 165.677H151.065L149.473 170.162ZM149.723 168.081H152.449V168.653H149.723V168.081ZM154.206 170.162V164.834H156.006C156.424 164.834 156.766 164.909 157.031 165.06C157.298 165.209 157.496 165.411 157.624 165.666C157.753 165.921 157.817 166.206 157.817 166.52C157.817 166.834 157.753 167.119 157.624 167.376C157.498 167.632 157.302 167.837 157.036 167.99C156.771 168.141 156.431 168.216 156.016 168.216H154.726V167.644H155.996C156.282 167.644 156.512 167.594 156.685 167.495C156.858 167.397 156.984 167.263 157.062 167.095C157.142 166.925 157.182 166.733 157.182 166.52C157.182 166.306 157.142 166.116 157.062 165.947C156.984 165.779 156.858 165.647 156.682 165.552C156.507 165.455 156.275 165.406 155.985 165.406H154.851V170.162H154.206ZM158.856 170.162V164.834H160.656C161.073 164.834 161.414 164.905 161.681 165.047C161.949 165.188 162.146 165.381 162.275 165.627C162.403 165.874 162.467 166.154 162.467 166.468C162.467 166.782 162.403 167.06 162.275 167.303C162.146 167.546 161.949 167.736 161.684 167.875C161.419 168.012 161.08 168.081 160.667 168.081H159.21V167.498H160.646C160.93 167.498 161.159 167.456 161.333 167.373C161.508 167.29 161.635 167.172 161.713 167.019C161.793 166.865 161.832 166.681 161.832 166.468C161.832 166.254 161.793 166.068 161.713 165.908C161.633 165.749 161.505 165.626 161.33 165.539C161.155 165.45 160.924 165.406 160.636 165.406H159.501V170.162H158.856ZM161.364 167.769L162.675 170.162H161.926L160.636 167.769H161.364Z" fill="#8D9092"/>
<path d="M192.689 164.834H193.459L195.27 169.257H195.332L197.143 164.834H197.913V170.162H197.31V166.114H197.258L195.593 170.162H195.01L193.345 166.114H193.293V170.162H192.689V164.834ZM199.426 170.162H198.749L200.706 164.834H201.372L203.328 170.162H202.652L201.059 165.677H201.018L199.426 170.162ZM199.675 168.081H202.402V168.653H199.675V168.081ZM203.156 164.834H203.895L205.373 167.321H205.435L206.913 164.834H207.652L205.727 167.966V170.162H205.082V167.966L203.156 164.834Z" fill="#8D9092"/>
<path d="M239.733 164.834H240.378V168.643C240.378 168.983 240.316 169.271 240.191 169.509C240.066 169.747 239.89 169.927 239.663 170.05C239.435 170.173 239.167 170.235 238.859 170.235C238.567 170.235 238.308 170.182 238.081 170.076C237.854 169.969 237.675 169.816 237.545 169.618C237.415 169.421 237.35 169.186 237.35 168.913H237.984C237.984 169.064 238.022 169.196 238.096 169.309C238.173 169.42 238.277 169.506 238.409 169.569C238.54 169.631 238.69 169.663 238.859 169.663C239.044 169.663 239.202 169.624 239.332 169.546C239.462 169.467 239.561 169.353 239.629 169.202C239.698 169.049 239.733 168.863 239.733 168.643V164.834ZM245.168 164.834H245.813V168.362C245.813 168.726 245.727 169.051 245.555 169.337C245.385 169.622 245.145 169.846 244.835 170.011C244.524 170.174 244.16 170.256 243.742 170.256C243.324 170.256 242.96 170.174 242.649 170.011C242.339 169.846 242.098 169.622 241.926 169.337C241.756 169.051 241.671 168.726 241.671 168.362V164.834H242.316V168.31C242.316 168.57 242.373 168.801 242.488 169.004C242.602 169.206 242.765 169.364 242.977 169.48C243.19 169.595 243.445 169.652 243.742 169.652C244.039 169.652 244.294 169.595 244.507 169.48C244.72 169.364 244.883 169.206 244.996 169.004C245.11 168.801 245.168 168.57 245.168 168.31V164.834ZM251.327 164.834V170.162H250.702L247.799 165.979H247.747V170.162H247.101V164.834H247.726L250.64 169.028H250.692V164.834H251.327Z" fill="#8D9092"/>
<path d="M5.86621 146.139L37.7346 127.929L65.0504 130.66H92.3662L112.398 116.092L123.324 93.784L151.55 46.4366L177.956 65.5577L193.435 51.4445L230.311 26.8603L252.619 4.09714L255.5 2" stroke="url(#paint0_linear_310_11802)" stroke-width="1.82105" stroke-linecap="round" stroke-linejoin="round" stroke-dasharray="3.66 5.76"/>
<path d="M9.34624 145.797C9.34624 147.031 8.2247 148.117 6.7297 148.117C5.23469 148.117 4.11315 147.031 4.11315 145.797C4.11315 144.562 5.23469 143.476 6.7297 143.476C8.2247 143.476 9.34624 144.562 9.34624 145.797Z" fill="white" stroke="#0A133C" stroke-width="1.04662"/>
<path d="M41.2144 128.496C41.2144 129.731 40.0929 130.817 38.5979 130.817C37.1029 130.817 35.9813 129.731 35.9813 128.496C35.9813 127.262 37.1029 126.176 38.5979 126.176C40.0929 126.176 41.2144 127.262 41.2144 128.496Z" fill="white" stroke="#0A133C" stroke-width="1.04662"/>
<path d="M94.0249 129.408C94.0249 130.642 92.9034 131.728 91.4084 131.728C89.9134 131.728 88.7919 130.642 88.7919 129.408C88.7919 128.173 89.9134 127.087 91.4084 127.087C92.9034 127.087 94.0249 128.173 94.0249 129.408Z" fill="white" stroke="#0A133C" stroke-width="1.04662"/>
<path d="M155.941 40.1756C155.941 41.4098 154.819 42.4963 153.324 42.4963C151.829 42.4963 150.708 41.4098 150.708 40.1756C150.708 38.9414 151.829 37.8549 153.324 37.8549C154.819 37.8549 155.941 38.9414 155.941 40.1756Z" fill="white" stroke="#0A133C" stroke-width="1.04662"/>
<path d="M126.803 92.9861C126.803 94.2203 125.682 95.3069 124.187 95.3069C122.692 95.3069 121.57 94.2203 121.57 92.9861C121.57 91.7519 122.692 90.6654 124.187 90.6654C125.682 90.6654 126.803 91.7519 126.803 92.9861Z" fill="white" stroke="#003488" stroke-width="1.04662"/>
<path d="M181.435 65.6705C181.435 66.9046 180.314 67.9912 178.819 67.9912C177.324 67.9912 176.202 66.9046 176.202 65.6705C176.202 64.4363 177.324 63.3497 178.819 63.3497C180.314 63.3497 181.435 64.4363 181.435 65.6705Z" fill="white" stroke="#0A133C" stroke-width="1.04662"/>
<path d="M232.424 26.5176C232.424 27.7518 231.303 28.8384 229.808 28.8384C228.313 28.8384 227.191 27.7518 227.191 26.5176C227.191 25.2834 228.313 24.1969 229.808 24.1969C231.303 24.1969 232.424 25.2834 232.424 26.5176Z" fill="white" stroke="#0A133C" stroke-width="1.04662"/>
<path d="M195.093 52.0125C195.093 53.2467 193.972 54.3332 192.477 54.3332C190.982 54.3332 189.86 53.2467 189.86 52.0125C189.86 50.7783 190.982 49.6918 192.477 49.6918C193.972 49.6918 195.093 50.7783 195.093 52.0125Z" fill="white" stroke="#0A133C" stroke-width="1.04662"/>
<path d="M257.756 2.84404C257.756 4.07823 256.635 5.16477 255.14 5.16477C253.645 5.16477 252.523 4.07823 252.523 2.84404C252.523 1.60985 253.645 0.523309 255.14 0.523309C256.635 0.523309 257.756 1.60985 257.756 2.84404Z" fill="white" stroke="#0A133C" stroke-width="1.04662"/>
<rect x="137.216" y="9.10522" width="31.8391" height="13.2331" rx="6.61654" fill="#030518"/>
<path d="M148.455 18.2926V12.5837H148.821V18.2926H148.455ZM149.686 14.2964C149.66 14.0704 149.551 13.895 149.361 13.7701C149.171 13.6452 148.937 13.5828 148.661 13.5828C148.458 13.5828 148.281 13.6155 148.13 13.6809C147.98 13.7463 147.862 13.8363 147.778 13.9507C147.694 14.0652 147.653 14.1953 147.653 14.341C147.653 14.4629 147.682 14.5677 147.74 14.6554C147.799 14.7416 147.875 14.8137 147.967 14.8717C148.059 14.9282 148.156 14.9751 148.257 15.0122C148.358 15.0479 148.451 15.0769 148.536 15.0992L149 15.2241C149.118 15.2553 149.251 15.2984 149.396 15.3534C149.544 15.4084 149.684 15.4835 149.818 15.5786C149.953 15.6723 150.065 15.7927 150.152 15.9399C150.24 16.0871 150.284 16.2677 150.284 16.4818C150.284 16.7286 150.219 16.9516 150.09 17.1508C149.962 17.35 149.775 17.5083 149.528 17.6258C149.283 17.7432 148.985 17.802 148.634 17.802C148.307 17.802 148.024 17.7492 147.784 17.6436C147.546 17.5381 147.359 17.3909 147.222 17.2021C147.087 17.0133 147.01 16.794 146.993 16.5442H147.563C147.578 16.7167 147.636 16.8594 147.737 16.9724C147.84 17.0839 147.969 17.1672 148.125 17.2222C148.283 17.2757 148.452 17.3024 148.634 17.3024C148.845 17.3024 149.034 17.2682 149.202 17.1999C149.37 17.13 149.504 17.0334 149.602 16.91C149.7 16.7851 149.749 16.6394 149.749 16.4729C149.749 16.3212 149.706 16.1978 149.622 16.1027C149.537 16.0075 149.425 15.9302 149.287 15.8708C149.149 15.8113 149 15.7593 148.839 15.7147L148.277 15.5541C147.92 15.4515 147.638 15.3051 147.43 15.1148C147.221 14.9245 147.117 14.6755 147.117 14.3677C147.117 14.112 147.187 13.889 147.325 13.6987C147.465 13.507 147.652 13.3583 147.887 13.2527C148.123 13.1457 148.387 13.0922 148.678 13.0922C148.973 13.0922 149.234 13.145 149.463 13.2505C149.692 13.3546 149.874 13.4973 150.008 13.6787C150.143 13.86 150.214 14.066 150.222 14.2964H149.686ZM151.256 17.7217L153.298 13.6809V13.6452H150.944V13.1546H153.869V13.672L151.836 17.7217H151.256ZM154.308 17.7574C154.198 17.7574 154.104 17.718 154.025 17.6392C153.946 17.5604 153.907 17.466 153.907 17.356C153.907 17.2459 153.946 17.1515 154.025 17.0727C154.104 16.994 154.198 16.9546 154.308 16.9546C154.418 16.9546 154.513 16.994 154.591 17.0727C154.67 17.1515 154.709 17.2459 154.709 17.356C154.709 17.4288 154.691 17.4957 154.654 17.5567C154.618 17.6176 154.57 17.6667 154.509 17.7038C154.449 17.7395 154.382 17.7574 154.308 17.7574ZM155.645 17.7217V17.3203L157.152 15.6701C157.329 15.4768 157.475 15.3088 157.59 15.1661C157.704 15.0219 157.789 14.8866 157.844 14.7602C157.9 14.6324 157.929 14.4986 157.929 14.3588C157.929 14.1983 157.89 14.0593 157.813 13.9418C157.737 13.8244 157.633 13.7337 157.5 13.6698C157.368 13.6058 157.219 13.5739 157.054 13.5739C156.879 13.5739 156.726 13.6103 156.595 13.6831C156.466 13.7545 156.365 13.8548 156.294 13.9842C156.224 14.1135 156.189 14.2652 156.189 14.4391H155.663C155.663 14.1715 155.725 13.9366 155.848 13.7344C155.971 13.5322 156.139 13.3747 156.352 13.2617C156.566 13.1487 156.806 13.0922 157.072 13.0922C157.34 13.0922 157.577 13.1487 157.784 13.2617C157.99 13.3747 158.152 13.527 158.27 13.7188C158.387 13.9106 158.446 14.1239 158.446 14.3588C158.446 14.5268 158.415 14.6911 158.354 14.8517C158.295 15.0107 158.191 15.1884 158.042 15.3846C157.895 15.5794 157.691 15.8173 157.429 16.0982L156.403 17.1954V17.2311H158.526V17.7217H155.645Z" fill="white"/>
<path d="M153.611 25.4961C153.423 25.9012 152.848 25.9012 152.66 25.4961L150.759 21.3802C150.599 21.0334 150.853 20.6374 151.234 20.6374L155.037 20.6374C155.419 20.6374 155.672 21.0334 155.512 21.3802L153.611 25.4961Z" fill="black"/>
<g clip-path="url(#clip1_310_11802)">
<circle cx="89.179" cy="151.148" r="5.46316" fill="#A1BAF1"/>
<circle cx="76.4319" cy="151.148" r="5.46316" fill="#A1BAF1"/>
<circle cx="89.179" cy="138.4" r="5.46316" fill="#A1BAF1"/>
<circle cx="63.6839" cy="138.4" r="5.46316" fill="#A1BAF1"/>
<circle cx="38.1897" cy="138.4" r="5.46316" fill="#A1BAF1"/>
<circle cx="63.6839" cy="151.148" r="5.46316" fill="#A1BAF1"/>
<circle cx="50.9368" cy="151.148" r="5.46316" fill="#A1BAF1"/>
<circle cx="38.1897" cy="151.148" r="5.46316" fill="#A1BAF1"/>
<circle cx="25.4417" cy="151.148" r="5.46316" fill="#A1BAF1"/>
<circle cx="12.6946" cy="151.148" r="5.46316" fill="#A1BAF1"/>
<circle cx="101.926" cy="151.148" r="5.46316" fill="#A1BAF1"/>
<circle cx="114.674" cy="151.148" r="5.46316" fill="#A1BAF1"/>
<circle cx="127.421" cy="151.148" r="5.46316" fill="#A1BAF1"/>
<circle cx="127.421" cy="138.4" r="5.46316" fill="#A1BAF1"/>
<circle cx="127.421" cy="125.653" r="5.46316" fill="#A1BAF1"/>
<circle cx="127.421" cy="112.906" r="5.46316" fill="#A1BAF1"/>
<circle cx="140.168" cy="112.906" r="5.46316" fill="#A1BAF1"/>
<circle cx="140.168" cy="125.653" r="5.46316" fill="#A1BAF1"/>
<circle cx="140.168" cy="138.4" r="5.46316" fill="#A1BAF1"/>
<circle cx="140.168" cy="151.148" r="5.46316" fill="#A1BAF1"/>
<circle cx="152.916" cy="151.148" r="5.46316" fill="#A1BAF1"/>
<circle cx="152.916" cy="138.4" r="5.46316" fill="#A1BAF1"/>
<circle cx="152.916" cy="125.653" r="5.46316" fill="#A1BAF1"/>
<circle cx="152.916" cy="112.906" r="5.46316" fill="#A1BAF1"/>
<circle cx="152.916" cy="100.158" r="5.46316" fill="#A1BAF1"/>
<circle cx="152.916" cy="87.4104" r="5.46316" fill="#A1BAF1"/>
<circle cx="152.916" cy="74.6631" r="5.46316" fill="#A1BAF1"/>
<circle cx="152.916" cy="61.9158" r="5.46316" fill="#A1BAF1"/>
<circle cx="152.916" cy="49.1685" r="5.46316" fill="#A1BAF1"/>
<circle cx="165.663" cy="125.653" r="5.46316" fill="#A1BAF1"/>
<circle cx="165.663" cy="138.4" r="5.46316" fill="#A1BAF1"/>
<circle cx="165.663" cy="151.148" r="5.46316" fill="#A1BAF1"/>
<circle cx="178.41" cy="151.148" r="5.46316" fill="#A1BAF1"/>
<circle cx="178.41" cy="138.4" r="5.46316" fill="#A1BAF1"/>
<circle cx="178.41" cy="125.653" r="5.46316" fill="#A1BAF1"/>
<circle cx="178.41" cy="112.906" r="5.46316" fill="#A1BAF1"/>
<circle cx="191.158" cy="112.906" r="5.46316" fill="#A1BAF1"/>
<circle cx="191.158" cy="100.158" r="5.46316" fill="#A1BAF1"/>
<circle cx="191.158" cy="87.4104" r="5.46316" fill="#A1BAF1"/>
<circle cx="191.158" cy="74.6631" r="5.46316" fill="#A1BAF1"/>
<circle cx="191.158" cy="61.9158" r="5.46316" fill="#A1BAF1"/>
<circle cx="191.158" cy="125.653" r="5.46316" fill="#A1BAF1"/>
<circle cx="191.158" cy="138.4" r="5.46316" fill="#A1BAF1"/>
<circle cx="191.158" cy="151.148" r="5.46316" fill="#A1BAF1"/>
<circle cx="203.906" cy="151.148" r="5.46316" fill="#A1BAF1"/>
<circle cx="203.906" cy="138.4" r="5.46316" fill="#A1BAF1"/>
<circle cx="203.906" cy="125.653" r="5.46316" fill="#A1BAF1"/>
<circle cx="203.906" cy="112.906" r="5.46316" fill="#A1BAF1"/>
<circle cx="203.906" cy="100.158" r="5.46316" fill="#A1BAF1"/>
<circle cx="216.653" cy="100.158" r="5.46316" fill="#A1BAF1"/>
<circle cx="216.653" cy="87.4104" r="5.46316" fill="#A1BAF1"/>
<circle cx="216.653" cy="74.6631" r="5.46316" fill="#A1BAF1"/>
<circle cx="216.653" cy="61.9158" r="5.46316" fill="#A1BAF1"/>
<circle cx="216.653" cy="112.906" r="5.46316" fill="#A1BAF1"/>
<circle cx="216.653" cy="125.653" r="5.46316" fill="#A1BAF1"/>
<circle cx="216.653" cy="137.49" r="5.46316" fill="#A1BAF1"/>
<circle cx="216.653" cy="150.237" r="5.46316" fill="#A1BAF1"/>
<circle cx="229.4" cy="150.237" r="5.46316" fill="#A1BAF1"/>
<circle cx="242.148" cy="150.237" r="5.46316" fill="#A1BAF1"/>
<circle cx="254.895" cy="150.237" r="5.46316" fill="#A1BAF1"/>
<circle cx="229.4" cy="137.49" r="5.46316" fill="#A1BAF1"/>
<circle cx="242.148" cy="137.49" r="5.46316" fill="#A1BAF1"/>
<circle cx="254.895" cy="137.49" r="5.46316" fill="#A1BAF1"/>
<circle cx="229.4" cy="125.653" r="5.46316" fill="#A1BAF1"/>
<circle cx="229.4" cy="112.906" r="5.46316" fill="#A1BAF1"/>
<circle cx="229.4" cy="100.158" r="5.46316" fill="#A1BAF1"/>
<circle cx="229.4" cy="87.4104" r="5.46316" fill="#A1BAF1"/>
<circle cx="229.4" cy="74.6631" r="5.46316" fill="#A1BAF1"/>
<circle cx="229.4" cy="61.9158" r="5.46316" fill="#A1BAF1"/>
<circle cx="229.4" cy="49.1685" r="5.46316" fill="#A1BAF1"/>
<circle cx="229.4" cy="36.4209" r="5.46316" fill="#A1BAF1"/>
<circle cx="242.148" cy="125.653" r="5.46316" fill="#A1BAF1"/>
<circle cx="242.148" cy="112.906" r="5.46316" fill="#A1BAF1"/>
<circle cx="242.148" cy="100.158" r="5.46316" fill="#A1BAF1"/>
<circle cx="242.148" cy="87.4104" r="5.46316" fill="#A1BAF1"/>
<circle cx="242.148" cy="74.6631" r="5.46316" fill="#A1BAF1"/>
<circle cx="242.148" cy="61.9158" r="5.46316" fill="#A1BAF1"/>
<circle cx="242.148" cy="49.1685" r="5.46316" fill="#A1BAF1"/>
<circle cx="254.895" cy="125.653" r="5.46316" fill="#A1BAF1"/>
<circle cx="254.895" cy="112.906" r="5.46316" fill="#A1BAF1"/>
<circle cx="254.895" cy="100.158" r="5.46316" fill="#A1BAF1"/>
<circle cx="254.895" cy="87.4104" r="5.46316" fill="#A1BAF1"/>
<circle cx="254.895" cy="74.6631" r="5.46316" fill="#A1BAF1"/>
<circle cx="254.895" cy="61.9158" r="5.46316" fill="#A1BAF1"/>
<circle cx="254.895" cy="49.1685" r="5.46316" fill="#A1BAF1"/>
<circle cx="254.895" cy="36.4209" r="5.46316" fill="#A1BAF1"/>
<circle cx="254.895" cy="23.6736" r="5.46316" fill="#A1BAF1"/>
<circle cx="254.895" cy="10.9263" r="5.46316" fill="#A1BAF1"/>
<circle cx="203.906" cy="87.4104" r="5.46316" fill="#A1BAF1"/>
<circle cx="178.41" cy="100.158" r="5.46316" fill="#A1BAF1"/>
<circle cx="178.41" cy="87.4104" r="5.46316" fill="#A1BAF1"/>
<circle cx="178.41" cy="74.6631" r="5.46316" fill="#A1BAF1"/>
<circle cx="165.663" cy="112.906" r="5.46316" fill="#A1BAF1"/>
<circle cx="127.421" cy="100.158" r="5.46316" fill="#A1BAF1"/>
<circle cx="114.674" cy="138.4" r="5.46316" fill="#A1BAF1"/>
<circle cx="114.674" cy="125.653" r="5.46316" fill="#A1BAF1"/>
<circle cx="101.926" cy="138.4" r="5.46316" fill="#A1BAF1"/>
</g>
<line x1="153.455" y1="29" x2="153.455" y2="185" stroke="url(#paint1_linear_310_11802)" stroke-width="0.910526" stroke-dasharray="3.64 3.64"/>
</g>
<defs>
<linearGradient id="paint0_linear_310_11802" x1="256" y1="2" x2="6.00045" y2="146" gradientUnits="userSpaceOnUse">
<stop stop-color="white"/>
<stop offset="0.460327" stop-color="#4B588A"/>
<stop offset="1" stop-color="white"/>
</linearGradient>
<linearGradient id="paint1_linear_310_11802" x1="152.5" y1="29" x2="153" y2="258.5" gradientUnits="userSpaceOnUse">
<stop stop-color="#C2CCED"/>
<stop offset="1" stop-color="white"/>
</linearGradient>
<clipPath id="clip0_310_11802">
<rect width="261" height="173" fill="white"/>
</clipPath>
<clipPath id="clip1_310_11802">
<rect width="253" height="159" fill="white" transform="translate(7 -2)"/>
</clipPath>
</defs>
</svg>
