<svg width="20" height="20" viewBox="0 0 20 20" fill="none" xmlns="http://www.w3.org/2000/svg">
<path d="M14.1673 9.99992C14.1673 12.3011 12.3018 14.1666 10.0007 14.1666C7.69946 14.1666 5.83398 12.3011 5.83398 9.99992C5.83398 7.69873 7.69946 5.83325 10.0007 5.83325" stroke="white" stroke-width="1.25" stroke-linecap="round"/>
<path d="M11.667 1.83332C11.1285 1.72401 10.5711 1.66663 10.0003 1.66663C5.39795 1.66663 1.66699 5.39759 1.66699 9.99996C1.66699 14.6023 5.39795 18.3333 10.0003 18.3333C14.6027 18.3333 18.3337 14.6023 18.3337 9.99996C18.3337 9.42918 18.2763 8.87181 18.167 8.33329" stroke="white" stroke-width="1.25" stroke-linecap="round"/>
<path d="M9.55806 9.55802C9.31398 9.8021 9.31398 10.1978 9.55806 10.4419C9.80214 10.686 10.1979 10.686 10.4419 10.4419L9.55806 9.55802ZM16.4091 3.59089L15.8043 3.74868C15.8614 3.96758 16.0324 4.13853 16.2513 4.19564L16.4091 3.59089ZM15.9788 1.94168L15.374 2.09947V2.09947L15.9788 1.94168ZM15.2484 1.82501L15.6903 2.26695V2.26695L15.2484 1.82501ZM14.2905 2.78283L13.8486 2.34089L14.2905 2.78283ZM13.5651 5.12603L12.9604 5.28382V5.28382L13.5651 5.12603ZM18.0583 4.02119L17.9005 4.62594V4.62595L18.0583 4.02119ZM18.1749 4.75159L17.733 4.30965L18.1749 4.75159ZM17.2171 5.70941L17.6591 6.15136V6.15136L17.2171 5.70941ZM14.8739 6.43484L14.7161 7.0396L14.8739 6.43484ZM13.394 5.72208L9.55806 9.55802L10.4419 10.4419L14.2779 6.60596L13.394 5.72208ZM17.0138 3.4331L16.5835 1.7839L15.374 2.09947L15.8043 3.74868L17.0138 3.4331ZM14.8064 1.38307L13.8486 2.34089L14.7325 3.22477L15.6903 2.26695L14.8064 1.38307ZM12.9604 5.28382L13.2312 6.32181L14.4407 6.00623L14.1699 4.96825L12.9604 5.28382ZM16.2513 4.19564L17.9005 4.62594L18.2161 3.41644L16.5669 2.98614L16.2513 4.19564ZM17.733 4.30965L16.7752 5.26747L17.6591 6.15136L18.6169 5.19354L17.733 4.30965ZM15.0317 5.83009L13.9937 5.55926L13.6782 6.76877L14.7161 7.0396L15.0317 5.83009ZM16.7752 5.26747C16.2577 5.78497 15.5717 5.97099 15.0317 5.83009L14.7161 7.0396C15.7487 7.30902 16.8771 6.93337 17.6591 6.15136L16.7752 5.26747ZM17.9005 4.62595C17.8578 4.61481 17.8091 4.58763 17.7702 4.54267C17.7331 4.49986 17.7164 4.4546 17.7108 4.41954C17.6997 4.35021 17.7278 4.31489 17.733 4.30965L18.6169 5.19354C18.8772 4.93326 19.0012 4.573 18.9452 4.22236C18.8873 3.85986 18.6322 3.52502 18.2161 3.41644L17.9005 4.62595ZM13.8486 2.34089C13.0666 3.1229 12.6909 4.25122 12.9604 5.28382L14.1699 4.96825C14.029 4.42822 14.215 3.74226 14.7325 3.22477L13.8486 2.34089ZM16.5835 1.7839C16.4749 1.36774 16.1401 1.11269 15.7776 1.05479C15.427 0.998777 15.0667 1.12279 14.8064 1.38307L15.6903 2.26695C15.6851 2.27219 15.6497 2.30021 15.5804 2.28914C15.5454 2.28354 15.5001 2.26684 15.4573 2.22976C15.4123 2.19081 15.3852 2.14217 15.374 2.09947L16.5835 1.7839Z" fill="white"/>
</svg>
