<svg width="20" height="20" viewBox="0 0 20 20" fill="none" xmlns="http://www.w3.org/2000/svg">
<path d="M11.6667 15C15.3486 15 18.3333 12.0152 18.3333 8.33329C18.3333 4.65139 15.3486 1.66663 11.6667 1.66663C7.98477 1.66663 5 4.65139 5 8.33329C5 12.0152 7.98477 15 11.6667 15Z" stroke="white" stroke-width="1.25" stroke-linecap="round"/>
<path d="M2.58399 9.16663C2.00307 10.0887 1.66699 11.1806 1.66699 12.3509C1.66699 15.6549 4.34547 18.3333 7.64953 18.3333C8.81979 18.3333 9.91157 17.9973 10.8337 17.4165" stroke="white" stroke-width="1.25" stroke-linecap="round"/>
<path d="M10 8.33325H12.9167M10 8.33325V5.41659H11.6667M10 8.33325V11.2499H11.6667M12.9167 8.33325C13.607 8.33325 14.1667 7.68033 14.1667 6.87492C14.1667 6.0695 13.607 5.41659 12.9167 5.41659H11.6667M12.9167 8.33325C13.607 8.33325 14.1667 8.98617 14.1667 9.79159C14.1667 10.597 13.607 11.2499 12.9167 11.2499H11.6667M11.6667 11.2499V12.0833M11.6667 5.41659V4.58325" stroke="white" stroke-width="1.25" stroke-linecap="round"/>
</svg>
