<svg width="20" height="20" viewBox="0 0 20 20" fill="none" xmlns="http://www.w3.org/2000/svg">
<path d="M17.892 17.9419C18.1361 18.186 18.5318 18.186 18.7759 17.9419C19.02 17.6979 19.02 17.3021 18.7759 17.0581L17.892 17.9419ZM15.892 15.9419L17.892 17.9419L18.7759 17.0581L16.7759 15.0581L15.892 15.9419ZM17.959 12C17.959 9.16954 15.6644 6.875 12.834 6.875V8.125C14.9741 8.125 16.709 9.8599 16.709 12H17.959ZM12.834 6.875C10.0035 6.875 7.70898 9.16954 7.70898 12H8.95898C8.95898 9.8599 10.6939 8.125 12.834 8.125V6.875ZM7.70898 12C7.70898 14.8305 10.0035 17.125 12.834 17.125V15.875C10.6939 15.875 8.95898 14.1401 8.95898 12H7.70898ZM12.834 17.125C15.6644 17.125 17.959 14.8305 17.959 12H16.709C16.709 14.1401 14.9741 15.875 12.834 15.875V17.125Z" fill="white"/>
<path d="M1.66699 8.33337L5.83366 8.3334" stroke="white" stroke-width="1.25" stroke-linecap="round" stroke-linejoin="round"/>
<path d="M1.66699 14.1666H5.83366" stroke="white" stroke-width="1.25" stroke-linecap="round" stroke-linejoin="round"/>
<path d="M1.66699 2.5H15.8337" stroke="white" stroke-width="1.25" stroke-linecap="round" stroke-linejoin="round"/>
</svg>
