<svg width="20" height="20" viewBox="0 0 20 20" fill="none" xmlns="http://www.w3.org/2000/svg">
<path d="M17.7642 5.9512L17.3529 5.23737C17.0418 4.69751 16.8863 4.42758 16.6217 4.31994C16.357 4.21231 16.0577 4.29724 15.4591 4.46711L14.4422 4.75352C14.0601 4.84165 13.6591 4.79166 13.3101 4.61237L13.0294 4.45039C12.7302 4.25874 12.5 3.97615 12.3726 3.64399L12.0943 2.81284C11.9113 2.26282 11.8198 1.98781 11.602 1.83052C11.3842 1.67322 11.0949 1.67322 10.5163 1.67322H9.58729C9.00866 1.67322 8.71934 1.67322 8.50153 1.83052C8.28372 1.98781 8.19223 2.26282 8.00925 2.81284L7.73095 3.64399C7.60355 3.97615 7.37339 4.25874 7.07415 4.45039L6.79341 4.61237C6.44446 4.79166 6.0435 4.84165 5.66133 4.75352L4.64446 4.46711C4.04585 4.29724 3.74655 4.21231 3.4819 4.31994C3.21725 4.42758 3.06171 4.69751 2.75064 5.23737L2.33931 5.9512C2.04772 6.45724 1.90193 6.71026 1.93022 6.97961C1.95852 7.24896 2.1537 7.46602 2.54406 7.90014L3.40326 8.86073C3.61326 9.12658 3.76235 9.58988 3.76235 10.0064C3.76235 10.4232 3.61331 10.8864 3.40328 11.1523L2.54406 12.1129C2.1537 12.547 1.95852 12.7641 1.93022 13.0334C1.90193 13.3028 2.04773 13.5558 2.33931 14.0618L2.75062 14.7756C3.0617 15.3155 3.21725 15.5854 3.4819 15.6931C3.74655 15.8007 4.04586 15.7158 4.64448 15.5459L5.66129 15.2595C6.04353 15.1713 6.44456 15.2213 6.79356 15.4007L7.07426 15.5627C7.37343 15.7544 7.60354 16.0369 7.73092 16.369L8.00925 17.2003C8.19223 17.7503 8.28372 18.0253 8.50153 18.1826C8.71934 18.3399 9.00866 18.3399 9.58729 18.3399H10.5163C11.0949 18.3399 11.3842 18.3399 11.602 18.1826C11.8198 18.0253 11.9113 17.7503 12.0943 17.2003L12.3726 16.369C12.5 16.0369 12.7301 15.7544 13.0293 15.5627L13.31 15.4007C13.659 15.2213 14.06 15.1713 14.4423 15.2595L15.4591 15.5459C16.0577 15.7158 16.357 15.8007 16.6217 15.6931C16.8863 15.5854 17.0419 15.3155 17.3529 14.7756L17.7642 14.0618C18.0558 13.5558 18.2016 13.3028 18.1733 13.0334C18.145 12.7641 17.9499 12.547 17.5595 12.1129L16.7003 11.1523C16.4903 10.8864 16.3412 10.4232 16.3412 10.0064C16.3412 9.58988 16.4903 9.12658 16.7003 8.86073L17.5595 7.90014C17.9499 7.46602 18.145 7.24896 18.1733 6.97961C18.2016 6.71026 18.0558 6.45724 17.7642 5.9512Z" stroke="white" stroke-width="1.25" stroke-linecap="round"/>
<path d="M12.9329 10C12.9329 11.6109 11.6271 12.9167 10.0163 12.9167C8.40545 12.9167 7.09961 11.6109 7.09961 10C7.09961 8.38921 8.40545 7.08337 10.0163 7.08337C11.6271 7.08337 12.9329 8.38921 12.9329 10Z" stroke="white" stroke-width="1.25"/>
</svg>
