<svg width="20" height="20" viewBox="0 0 20 20" fill="none" xmlns="http://www.w3.org/2000/svg">
<path d="M7.18979 10.5613H6.80733C5.57088 10.5613 4.95266 10.5613 4.68914 10.1537C4.42562 9.74607 4.67671 9.17817 5.17887 8.04235L6.68857 4.62769C7.14515 3.595 7.37344 3.07865 7.81632 2.78933C8.25919 2.5 8.82129 2.5 9.94548 2.5H11.6867C13.0523 2.5 13.7352 2.5 13.9927 2.94613C14.2503 3.39225 13.9115 3.98823 13.2339 5.18019L12.3407 6.75156C12.0038 7.34412 11.8354 7.64041 11.8378 7.88294C11.8408 8.19812 12.0085 8.48849 12.2792 8.64753C12.4875 8.76991 12.8269 8.76991 13.5059 8.76991C14.3641 8.76991 14.7932 8.76991 15.0167 8.91847C15.3071 9.11149 15.4591 9.45682 15.4058 9.80265C15.3648 10.0688 15.0762 10.388 14.4988 11.0264L9.88622 16.1269C8.98026 17.1287 8.52726 17.6297 8.22306 17.4711C7.91887 17.3126 8.06495 16.6518 8.35712 15.3301L8.9294 12.7413C9.15187 11.735 9.2631 11.2318 8.99559 10.8966C8.72808 10.5613 8.21532 10.5613 7.18979 10.5613Z" stroke="white" stroke-width="1.25" stroke-linejoin="round"/>
</svg>
