<svg width="28" height="28" viewBox="0 0 28 28" fill="none" xmlns="http://www.w3.org/2000/svg">
<circle cx="14.001" cy="14" r="14" fill="#EDF0F4"/>
<path d="M18.2022 11.1882C17.9037 11.0165 17.5199 11.0165 17.1787 11.1882L14.7906 12.6048L13.17 13.5063L10.8245 14.9229C10.526 15.0946 10.1422 15.0946 9.80102 14.9229L7.96725 13.8068C7.66873 13.635 7.4555 13.2916 7.4555 12.9053V10.7589C7.4555 10.4155 7.62608 10.072 7.96725 9.8574L9.80102 8.78421C10.0995 8.6125 10.4834 8.6125 10.8245 8.78421L12.6583 9.90033C12.9568 10.072 13.17 10.4155 13.17 10.8018V12.2184L14.7906 11.274V9.81448C14.7906 9.47105 14.62 9.12763 14.2788 8.91299L10.8672 6.89538C10.5686 6.72367 10.1848 6.72367 9.84366 6.89538L6.34671 8.95592C6.00554 9.12763 5.83496 9.47105 5.83496 9.81448V13.8497C5.83496 14.1931 6.00554 14.5365 6.34671 14.7512L9.80102 16.7688C10.0995 16.9405 10.4834 16.9405 10.8245 16.7688L13.17 15.3951L14.7906 14.4507L17.1361 13.077C17.4346 12.9053 17.8184 12.9053 18.1596 13.077L19.9934 14.1502C20.2919 14.3219 20.5051 14.6653 20.5051 15.0517V17.1981C20.5051 17.5415 20.3345 17.8849 19.9934 18.0995L18.2022 19.1727C17.9037 19.3444 17.5199 19.3444 17.1787 19.1727L15.345 18.0995C15.0464 17.9278 14.8332 17.5844 14.8332 17.1981V15.8244L13.2127 16.7688V18.1854C13.2127 18.5288 13.3833 18.8722 13.7244 19.0869L17.1787 21.1045C17.4773 21.2762 17.8611 21.2762 18.2022 21.1045L21.6565 19.0869C21.9551 18.9152 22.1683 18.5717 22.1683 18.1854V14.1073C22.1683 13.7638 21.9977 13.4204 21.6565 13.2058L18.2022 11.1882Z" fill="#8247E5"/>
</svg>
