<svg width="28" height="28" viewBox="0 0 28 28" fill="none" xmlns="http://www.w3.org/2000/svg">
<path d="M13.999 0C21.7317 0 27.999 6.26856 27.999 14C27.999 21.7327 21.7317 28 13.999 28C6.26759 28 -0.000976562 21.7321 -0.000976562 14C-0.000976562 6.26856 6.26759 0 13.999 0Z" fill="#F5AC37"/>
<path fill-rule="evenodd" clip-rule="evenodd" d="M7.33191 21.7176V21.7699L7.32939 21.7718V21.7806H13.402C14.0894 21.79 14.7742 21.7352 15.4495 21.6142C16.1608 21.475 16.8538 21.2558 17.5147 20.9584C17.8013 20.8257 18.0762 20.6653 18.3536 20.5035C18.4238 20.4625 18.4942 20.4214 18.5649 20.3807C18.8913 20.1482 19.2038 19.8962 19.5011 19.6285C20.3151 18.8926 20.9451 17.9747 21.3388 16.9509C21.3653 16.8363 21.4774 16.7626 21.5927 16.7846H23.2465C23.3782 16.7846 23.4216 16.7405 23.4216 16.5918V15.5328C23.4305 15.4314 23.4305 15.3287 23.4216 15.2272C23.4216 15.2007 23.4285 15.1743 23.4353 15.1479C23.4488 15.0953 23.4623 15.0428 23.4216 14.9904H22.04C21.8731 14.9904 21.8731 14.9727 21.8731 14.824C21.921 14.2911 21.921 13.7562 21.8731 13.2232C21.8643 13.0657 21.8995 13.0657 22.0218 13.0657H23.2295C23.37 13.0657 23.4223 13.0304 23.4223 12.8906V11.4554C23.4179 11.3603 23.4157 11.3121 23.3905 11.2877C23.3646 11.2626 23.3143 11.2626 23.2125 11.2626H21.6463C21.5241 11.2834 21.4069 11.2009 21.3848 11.0787C21.2053 10.6093 20.9766 10.1601 20.7013 9.73989C20.4241 9.32535 20.1116 8.936 19.7651 8.57627C19.3046 8.11636 18.7873 7.71694 18.2254 7.38619C17.378 6.89415 16.4513 6.54954 15.4867 6.37125C15.0186 6.28494 14.5455 6.23265 14.0692 6.21375H7.50705C7.33191 6.21375 7.33191 6.24903 7.33191 6.38889V11.1051C7.33191 11.2714 7.29663 11.2714 7.16559 11.2714H5.28439C5.14453 11.2714 5.14453 11.2973 5.14453 11.3937V12.9334C5.14453 13.0733 5.188 13.0733 5.29321 13.0733H7.19205C7.33191 13.0733 7.33191 13.0991 7.33191 13.2043V14.8492C7.33191 14.9979 7.28781 14.9979 7.17441 14.9979H5.14453V16.6605C5.14453 16.8004 5.188 16.8004 5.29321 16.8004H7.19205C7.33191 16.8004 7.33191 16.8174 7.33191 16.9314V18.9878V19.6789V21.7176ZM19.4159 11.1215C19.431 11.1606 19.431 11.204 19.4159 11.2437H19.4581C19.4405 11.296 19.3529 11.3136 19.3529 11.3136H9.25577C9.08945 11.3136 9.08945 11.2784 9.08945 11.1473V8.04139C9.08945 7.92736 9.10709 7.87507 9.23813 7.87507H13.9367C14.4369 7.87066 14.9359 7.92295 15.4242 8.03257C16.3919 8.26189 17.2921 8.71802 18.0494 9.36252C18.2006 9.47529 18.3354 9.60822 18.452 9.75627C18.6989 10.0013 18.9157 10.2741 19.0996 10.5702C19.2218 10.7435 19.3271 10.9281 19.4159 11.1215ZM19.8348 14.9885H14.515H9.29981C9.19342 14.9885 9.14098 14.9885 9.11514 14.9623C9.09002 14.9368 9.09002 14.8865 9.09002 14.7875V13.2301C9.09002 13.1073 9.1253 13.0638 9.25634 13.0638H19.8436C19.9576 13.0638 20.0099 13.1073 20.0099 13.2125C20.0534 13.7543 20.0534 14.2986 20.0099 14.8398C20.0017 14.9885 19.9482 14.9885 19.8348 14.9885ZM19.4158 16.8086C19.2671 16.7922 19.1172 16.7922 18.9685 16.8086H9.26516C9.13412 16.8086 9.09002 16.8086 9.09002 16.9837V20.0203C9.09002 20.1602 9.09002 20.1955 9.26516 20.1955H13.7451C13.9593 20.2119 14.1735 20.1967 14.3833 20.152C15.0335 20.1054 15.673 19.9643 16.2828 19.7318C16.5046 19.6549 16.7188 19.5548 16.921 19.4344H16.9821C18.0323 18.8882 18.8854 18.0301 19.4234 16.9768C19.4234 16.9768 19.4845 16.8445 19.4158 16.8098V16.8086Z" fill="#FEFEFD"/>
</svg>
