<svg width="28" height="28" viewBox="0 0 28 28" fill="none" xmlns="http://www.w3.org/2000/svg">
<path d="M13.999 28C21.7574 28 27.999 21.7584 27.999 14C27.999 6.24162 21.7574 0 13.999 0C6.24064 0 -0.000976562 6.24162 -0.000976562 14C-0.000976562 21.7584 6.24064 28 13.999 28Z" fill="#2775CA"/>
<path d="M17.8488 16.2166C17.8488 14.175 16.6238 13.475 14.1738 13.1833C12.4238 12.95 12.0738 12.4833 12.0738 11.6666C12.0738 10.8498 12.6572 10.325 13.8238 10.325C14.8738 10.325 15.4572 10.675 15.7488 11.55C15.8072 11.725 15.9822 11.8416 16.1572 11.8416H17.0905C17.3238 11.8416 17.4988 11.6666 17.4988 11.4333V11.375C17.2655 10.0916 16.2155 9.09996 14.8738 8.98334V7.58334C14.8738 7.34996 14.6988 7.17496 14.4072 7.11658H13.5322C13.2988 7.11658 13.1238 7.29158 13.0655 7.58334V8.92496C11.3155 9.15834 10.2072 10.325 10.2072 11.7833C10.2072 13.7083 11.3738 14.4666 13.8238 14.7583C15.4572 15.05 15.9822 15.4 15.9822 16.3333C15.9822 17.2667 15.1655 17.9083 14.0572 17.9083C12.5405 17.9083 12.0155 17.2666 11.8405 16.3916C11.7822 16.1583 11.6072 16.0416 11.4322 16.0416H10.4405C10.2072 16.0416 10.0322 16.2166 10.0322 16.45V16.5083C10.2655 17.9666 11.1988 19.0166 13.1238 19.3083V20.7083C13.1238 20.9416 13.2988 21.1166 13.5905 21.175H14.4655C14.6988 21.175 14.8738 21 14.9322 20.7083V19.3083C16.6822 19.0166 17.8488 17.7916 17.8488 16.2166Z" fill="white"/>
<path fill-rule="evenodd" clip-rule="evenodd" d="M5.83256 11.1416C4.1408 15.6334 6.47418 20.7084 11.0242 22.3416C11.1992 22.4584 11.3742 22.6916 11.3742 22.8666V23.6834C11.3742 23.8 11.3742 23.8584 11.3158 23.9166C11.2576 24.15 11.0242 24.2666 10.7908 24.15C7.52418 23.1 5.0158 20.5916 3.9658 17.325C2.2158 11.7834 5.24918 5.89161 10.7908 4.14161C10.8492 4.08337 10.9658 4.08337 11.0242 4.08337C11.2576 4.14161 11.3742 4.31661 11.3742 4.54999V5.36661C11.3742 5.65837 11.2576 5.83337 11.0242 5.94999C8.63256 6.82499 6.70756 8.69161 5.83256 11.1416ZM16.6824 4.37499C16.7406 4.14161 16.974 4.02499 17.2074 4.14161C20.4156 5.19161 22.9824 7.69999 24.0324 11.025C25.7824 16.5666 22.749 22.4584 17.2074 24.2084C17.149 24.2666 17.0324 24.2666 16.974 24.2666C16.7406 24.2084 16.624 24.0334 16.624 23.8V22.9834C16.624 22.6916 16.7406 22.5166 16.974 22.4C19.3656 21.525 21.2906 19.6584 22.1656 17.2084C23.8574 12.7166 21.524 7.64161 16.974 6.00837C16.799 5.89161 16.624 5.65837 16.624 5.42499V4.60837C16.624 4.49161 16.624 4.43337 16.6824 4.37499Z" fill="white"/>
</svg>
