<svg width="28" height="28" viewBox="0 0 28 28" fill="none" xmlns="http://www.w3.org/2000/svg">
<path fill-rule="evenodd" clip-rule="evenodd" d="M14.0005 28C6.30049 28 0.000488281 21.7001 0.000488281 13.9303C0.0704883 6.23045 6.30049 -0.0694208 14.0705 0.000577738C21.7705 0.0705763 28.0005 6.30045 28.0005 14.1403C27.9305 21.7701 21.7005 28 14.0005 28Z" fill="black"/>
<path fill-rule="evenodd" clip-rule="evenodd" d="M9.53002 10.6773L13.898 4.66663L18.2287 10.64L20.0954 19.5626L13.898 23.3333L7.70068 19.5626L9.53002 10.6773ZM10.0898 12.3946L8.70845 19.152L13.2258 21.9146L10.0898 12.3946ZM10.5379 10.864L13.8979 6.23463L17.2579 10.864L13.8979 21.0186L10.5379 10.864ZM17.6684 12.3946L14.5324 21.9146L19.0498 19.152L17.6684 12.3946Z" fill="white"/>
</svg>
