<svg width="28" height="28" viewBox="0 0 28 28" fill="none" xmlns="http://www.w3.org/2000/svg">
<path fill-rule="evenodd" clip-rule="evenodd" d="M14.002 28C6.30195 28 0.00195312 21.7001 0.00195312 13.9303C0.0719531 6.23045 6.30195 -0.0694208 14.072 0.000577738C21.772 0.0705763 28.002 6.30045 28.002 14.1403C27.932 21.7701 21.702 28 14.002 28Z" fill="#FC070C"/>
<path fill-rule="evenodd" clip-rule="evenodd" d="M22.6904 9.807L22.6903 9.80696L22.6903 9.80691C22.0419 9.17739 21.3568 8.51221 20.7522 7.97555L20.6909 7.93268C20.589 7.85084 20.4741 7.78666 20.351 7.7428L19.8843 7.65573C16.6643 7.05492 6.22713 5.10745 6.01242 5.13356C5.94892 5.14245 5.88823 5.16548 5.8348 5.20094L5.77661 5.24687C5.70496 5.31964 5.65055 5.40754 5.61736 5.50412L5.60205 5.54393V5.76137V5.79506C6.31065 7.76819 8.1514 12.1747 9.85104 16.2434L9.85104 16.2434L9.85105 16.2434C11.288 19.6832 12.624 22.8815 13.0898 24.1639L13.09 24.1644C13.1513 24.3544 13.2677 24.7151 13.4849 24.7335H13.5339C13.6503 24.7335 14.1464 24.0781 14.1464 24.0781C14.1464 24.0781 23.0154 13.3227 23.9127 12.1773C24.0288 12.0362 24.1314 11.8844 24.2189 11.724C24.2644 11.4688 24.1725 11.2083 23.977 11.038C23.5951 10.6854 23.1523 10.2555 22.6908 9.80746L22.6905 9.8071L22.6904 9.807ZM16.4218 12.2906L20.207 9.15155L22.4273 11.1973L16.4218 12.2906ZM8.43477 6.74443L14.9517 12.0854L18.9789 8.68911L8.43477 6.74443ZM15.5398 13.485L22.2099 12.41L14.5843 21.5975L15.5398 13.485ZM14.4067 13.096L7.54974 7.27731L13.4144 21.6036L14.4067 13.096Z" fill="white"/>
</svg>
