<svg width="28" height="28" viewBox="0 0 28 28" fill="none" xmlns="http://www.w3.org/2000/svg">
<circle cx="13.998" cy="14" r="14" fill="#EDF0F4"/>
<path d="M9.78237 13.9288C9.74255 14.6207 10.2751 15.213 10.967 15.2528C10.9919 15.2528 11.0168 15.2528 11.0417 15.2528C11.7385 15.2528 12.301 14.6904 12.296 13.9935C12.296 13.2967 11.7336 12.7342 11.0367 12.7392C10.3697 12.7392 9.81721 13.2618 9.78237 13.9288Z" fill="#0033AD"/>
<path d="M5.09353 13.6053C4.86954 13.5903 4.67541 13.7645 4.66546 13.9885C4.6555 14.2125 4.82474 14.4066 5.04873 14.4166C5.27272 14.4315 5.46187 14.2573 5.4768 14.0333C5.49173 13.8093 5.31752 13.6202 5.09353 13.6053Z" fill="#0033AD"/>
<path d="M9.70269 6.63176C9.9018 6.53221 9.98144 6.28333 9.88189 6.08423C9.78233 5.88513 9.53346 5.80549 9.33435 5.90504C9.13525 6.00459 9.05561 6.24849 9.15516 6.44759C9.25471 6.65167 9.49861 6.73629 9.70269 6.63176C9.70269 6.63176 9.69772 6.63176 9.70269 6.63176Z" fill="#0033AD"/>
<path d="M10.9768 8.85671C11.2854 8.7024 11.4098 8.32411 11.2555 8.0155C11.1012 7.70689 10.7229 7.58245 10.4143 7.73676C10.1057 7.89106 9.98126 8.26936 10.1356 8.57796C10.2899 8.88657 10.6682 9.01101 10.9768 8.85671Z" fill="#0033AD"/>
<path d="M6.6863 10.3848C6.92523 10.5391 7.24379 10.4744 7.40307 10.2354C7.55738 9.99651 7.49267 9.67795 7.25375 9.51867C7.01482 9.36436 6.69626 9.42907 6.53698 9.66799C6.3777 9.90692 6.44738 10.2305 6.6863 10.3848Z" fill="#0033AD"/>
<path d="M7.44823 13.3813C7.0998 13.3614 6.80612 13.6252 6.78621 13.9736C6.7663 14.3221 7.03011 14.6157 7.37854 14.6356C7.72697 14.6556 8.02065 14.3917 8.04056 14.0433C8.06047 13.6999 7.79666 13.4012 7.44823 13.3813Z" fill="#0033AD"/>
<path d="M6.75628 17.5973C6.50243 17.7267 6.3979 18.0353 6.52731 18.2941C6.65673 18.548 6.96534 18.6525 7.22417 18.5231C7.47803 18.3937 7.58256 18.0851 7.45314 17.8262C7.32372 17.5724 7.01014 17.4678 6.75628 17.5973Z" fill="#0033AD"/>
<path d="M9.19475 12.0822C9.5382 12.3062 9.99613 12.2116 10.2151 11.8682C10.4391 11.5247 10.3446 11.0668 10.0011 10.8478C9.65766 10.6238 9.19972 10.7184 8.98071 11.0618C8.75672 11.4003 8.8513 11.8582 9.19475 12.0822Z" fill="#0033AD"/>
<path d="M16.9357 8.80691C17.2243 8.99606 17.6176 8.91642 17.8067 8.62772C17.9959 8.33902 17.9162 7.94579 17.6275 7.75665C17.3388 7.5675 16.9456 7.64714 16.7565 7.93584C16.5623 8.22952 16.642 8.61776 16.9357 8.80691Z" fill="#0033AD"/>
<path d="M18.2199 6.59188C18.4091 6.71632 18.658 6.66157 18.7824 6.47242C18.9068 6.28327 18.8521 6.0344 18.6629 5.90996C18.4738 5.78552 18.2249 5.84027 18.1005 6.02444C17.981 6.21359 18.0358 6.46744 18.2199 6.59188Z" fill="#0033AD"/>
<path d="M17.0302 12.7293C16.3383 12.6894 15.741 13.222 15.7062 13.9139C15.6664 14.6058 16.199 15.2031 16.8909 15.238C16.9157 15.238 16.9406 15.238 16.9605 15.238C17.6524 15.238 18.2149 14.6755 18.2149 13.9786C18.2199 13.3166 17.6972 12.7641 17.0302 12.7293Z" fill="#0033AD"/>
<path d="M11.3904 11.9926C11.6045 12.4157 12.0375 12.6845 12.5153 12.6845C13.2072 12.6845 13.7697 12.122 13.7697 11.4251C13.7697 11.231 13.7249 11.0369 13.6353 10.8577C13.3217 10.2355 12.5651 9.98663 11.9479 10.3002C11.3257 10.6188 11.0768 11.3754 11.3904 11.9926Z" fill="#0033AD"/>
<path d="M21.2406 10.3847C21.4945 10.2553 21.594 9.94175 21.4646 9.68789C21.3352 9.43404 21.0216 9.33449 20.7678 9.4639C20.5139 9.59332 20.4144 9.90193 20.5388 10.1558C20.6732 10.4096 20.9818 10.5142 21.2406 10.3847Z" fill="#0033AD"/>
<path d="M18.055 10.783C17.6916 10.9672 17.5423 11.4102 17.7265 11.7735C17.9106 12.1369 18.3536 12.2862 18.717 12.102C19.0804 11.9179 19.2297 11.4749 19.0455 11.1115C18.8613 10.7482 18.4183 10.6038 18.055 10.783Z" fill="#0033AD"/>
<path d="M13.9485 6.40277C14.2322 6.4177 14.4761 6.19869 14.496 5.91497C14.5159 5.63125 14.2919 5.38735 14.0082 5.36744C13.7245 5.3525 13.4806 5.56654 13.4607 5.85026C13.4457 6.13896 13.6648 6.38286 13.9485 6.40277Z" fill="#0033AD"/>
<path d="M13.9439 9.65309C14.352 9.67797 14.7005 9.36439 14.7204 8.95623C14.7452 8.54807 14.4317 8.19964 14.0235 8.17973C13.6153 8.15484 13.2669 8.46843 13.247 8.87659C13.2271 9.28475 13.5357 9.63318 13.9439 9.65309Z" fill="#0033AD"/>
<path d="M9.94161 17.1991C10.305 17.0149 10.4543 16.5719 10.2701 16.2085C10.086 15.8452 9.64295 15.6959 9.27959 15.88C8.91623 16.0642 8.7669 16.5072 8.95107 16.8706C9.13524 17.2339 9.57824 17.3832 9.94161 17.1991Z" fill="#0033AD"/>
<path d="M14.4217 10.7332C14.0434 11.3156 14.2027 12.0921 14.7851 12.4704C15.3675 12.8487 16.144 12.6894 16.5223 12.107C16.9006 11.5246 16.7413 10.7481 16.1589 10.3699C15.9548 10.2355 15.7159 10.1658 15.472 10.1658C15.0489 10.1658 14.6557 10.3798 14.4217 10.7332Z" fill="#0033AD"/>
<path d="M16.607 15.9895C16.2934 15.3673 15.5368 15.1185 14.9196 15.432C14.2974 15.7456 14.0485 16.5022 14.3621 17.1194C14.6757 17.7416 15.4323 17.9905 16.0495 17.6769C16.6667 17.3683 16.9206 16.6217 16.612 15.9995C16.612 15.9945 16.612 15.9945 16.607 15.9895Z" fill="#0033AD"/>
<path d="M18.8019 15.8999C18.4584 15.6759 18.0005 15.7705 17.7815 16.1139C17.5575 16.4574 17.6521 16.9153 17.9955 17.1343C18.339 17.3583 18.7969 17.2638 19.0159 16.9203C19.2399 16.5818 19.1453 16.1239 18.8019 15.8999Z" fill="#0033AD"/>
<path d="M21.2115 14.0134C21.2314 13.665 20.9676 13.3713 20.6191 13.3514C20.2707 13.3315 19.977 13.5953 19.9571 13.9437C19.9372 14.2922 20.201 14.5858 20.5494 14.6057C20.8929 14.6257 21.1915 14.3569 21.2115 14.0134Z" fill="#0033AD"/>
<path d="M22.948 13.5655C22.724 13.5505 22.5299 13.7247 22.5199 13.9487C22.51 14.1727 22.6792 14.3669 22.9032 14.3768C23.1272 14.3917 23.3164 14.2175 23.3313 13.9935C23.3412 13.7695 23.172 13.5804 22.948 13.5655Z" fill="#0033AD"/>
<path d="M21.3101 17.5973C21.0712 17.443 20.7527 17.5077 20.5934 17.7466C20.4391 17.9855 20.5038 18.3041 20.7427 18.4634C20.9816 18.6177 21.3002 18.553 21.4595 18.314C21.6188 18.0751 21.5491 17.7516 21.3101 17.5973Z" fill="#0033AD"/>
<path d="M9.77308 21.3902C9.58393 21.2657 9.33506 21.3205 9.21062 21.5047C9.08618 21.6938 9.14093 21.9427 9.3251 22.0671C9.51425 22.1916 9.76313 22.1368 9.88756 21.9526C10.017 21.7685 9.96223 21.5146 9.77308 21.3902Z" fill="#0033AD"/>
<path d="M18.2943 21.3503C18.0952 21.4499 18.0156 21.6988 18.1151 21.8979C18.2147 22.097 18.4636 22.1766 18.6627 22.0771C18.8618 21.9775 18.9414 21.7336 18.8418 21.5345C18.7423 21.3304 18.4984 21.2458 18.2943 21.3503C18.2993 21.3503 18.2943 21.3503 18.2943 21.3503Z" fill="#0033AD"/>
<path d="M13.5753 17.2488C13.9536 16.6665 13.7944 15.89 13.212 15.5067C12.6296 15.1284 11.8531 15.2877 11.4698 15.8701C11.0866 16.4524 11.2508 17.2289 11.8332 17.6122C12.0373 17.7466 12.2762 17.8163 12.5201 17.8163C12.9482 17.8213 13.3414 17.6072 13.5753 17.2488Z" fill="#0033AD"/>
<path d="M11.0616 19.1752C10.7729 18.9861 10.3796 19.0657 10.1905 19.3544C10.0013 19.6431 10.081 20.0363 10.3697 20.2255C10.6584 20.4146 11.0516 20.335 11.2407 20.0463C11.4349 19.7576 11.3552 19.3644 11.0616 19.1752Z" fill="#0033AD"/>
<path d="M13.9941 21.5793C13.7104 21.5644 13.4665 21.7834 13.4465 22.0671C13.4266 22.3509 13.6506 22.5948 13.9343 22.6147C14.2181 22.6296 14.462 22.4156 14.4819 22.1318C14.4968 21.8431 14.2778 21.5992 13.9941 21.5793Z" fill="#0033AD"/>
<path d="M13.9986 18.329C13.5904 18.3041 13.242 18.6177 13.2221 19.0259C13.1972 19.434 13.5108 19.7825 13.9189 19.8024C14.3271 19.8223 14.6755 19.5137 14.6954 19.1055C14.7203 18.7023 14.4067 18.3489 13.9986 18.329Z" fill="#0033AD"/>
<path d="M17.02 19.1254C16.7114 19.2847 16.5869 19.663 16.7462 19.9716C16.9055 20.2802 17.2838 20.4046 17.5924 20.2454C17.901 20.0911 18.0254 19.7128 17.8711 19.4042C17.7119 19.0956 17.3336 18.9661 17.02 19.1254Z" fill="#0033AD"/>
</svg>
