<svg width="28" height="28" viewBox="0 0 28 28" fill="none" xmlns="http://www.w3.org/2000/svg">
<path d="M14 28C21.7322 28 28 21.7322 28 14C28 6.2678 21.7322 0 14 0C6.2678 0 0 6.2678 0 14C0 21.7322 6.2678 28 14 28Z" fill="#070A0E"/>
<path fill-rule="evenodd" clip-rule="evenodd" d="M8.08789 18.6942C7.66929 18.438 7.41309 17.983 7.41309 17.493V14.7574C7.41309 14.4326 7.67769 14.1694 8.00249 14.1708C8.10609 14.1708 8.20829 14.1988 8.29789 14.2506L14.4705 17.85C14.8317 18.06 15.0543 18.4464 15.0543 18.865V21.6986C15.0557 22.0878 14.7407 22.4042 14.3515 22.4042C14.2213 22.4042 14.0925 22.3678 13.9819 22.3006L8.08789 18.6942ZM17.2886 13.5016C17.6498 13.7116 17.871 14.0994 17.8724 14.5166V20.2678C17.8724 20.4372 17.7814 20.594 17.633 20.6766L16.282 21.4368C16.2652 21.4466 16.2471 21.4536 16.2274 21.4592V18.2658C16.2274 17.8528 16.0104 17.4692 15.6549 17.2564L10.234 14.014V10.409C10.234 10.0842 10.4986 9.82099 10.8234 9.82239C10.927 9.82239 11.0292 9.85039 11.1188 9.90219L17.2886 13.5016ZM19.9907 9.25399C20.3533 9.46399 20.5759 9.85179 20.5759 10.2704V18.6704C20.5745 18.8426 20.4793 19.0008 20.3281 19.0834L19.0471 19.775V13.9272C19.0471 13.5142 18.8301 13.132 18.4773 12.9192L12.9361 9.59559V6.17679C12.9361 6.07319 12.9641 5.97099 13.0145 5.88139C13.1783 5.60139 13.5381 5.50619 13.8181 5.66859L19.9907 9.25399Z" fill="#00D395"/>
</svg>
