<svg width="28" height="28" viewBox="0 0 28 28" fill="none" xmlns="http://www.w3.org/2000/svg">
<circle cx="13.999" cy="14" r="14" fill="#EDF0F4"/>
<path fill-rule="evenodd" clip-rule="evenodd" d="M5.36572 8.94744L13.9991 3.96667L22.6324 8.94744V18.909L13.9991 23.8898L5.36572 18.909V8.94744ZM10.5907 8.27296H17.3901L18.2032 11.7318H9.79481L10.5907 8.27296ZM12.3208 16.3667L12.5457 14.2049L11.8017 12.268H16.1962L15.4696 14.2049L15.6772 16.3667H13.9817H12.3208ZM17.4074 19.9985H16.179L14.7084 18.6496V17.9578L16.2309 16.5051V14.2049L18.2205 12.9078L20.487 14.62L17.4074 19.9985ZM11.8537 20.0158L13.3243 18.6496V17.9578L11.8017 16.5051V14.2049L9.7948 12.9251L7.51104 14.62L10.608 20.0158H11.8537Z" fill="#03316C"/>
</svg>
