<svg width="29" height="29" viewBox="0 0 29 29" fill="none" xmlns="http://www.w3.org/2000/svg">
<circle cx="14.0635" cy="14.5039" r="14" fill="#EDF0F4"/>
<path fill-rule="evenodd" clip-rule="evenodd" d="M5.43018 9.45123L14.0635 4.47046L22.6968 9.45123V19.4128L14.0635 24.3935L5.43018 19.4128V9.45123ZM10.6551 8.77687H17.4545L18.2677 12.2357H9.85926L10.6551 8.77687ZM12.3853 16.8706L12.6102 14.7088L11.8662 12.7719H16.2608L15.5341 14.7088L15.7417 16.8706H14.0462H12.3853ZM17.4718 20.5024H16.2434L14.7728 19.1535V18.4617L16.2953 17.009V14.7088L18.285 13.4118L20.5514 15.1239L17.4718 20.5024ZM11.9181 20.5197L13.3887 19.1534V18.4617L11.8662 17.0089V14.7088L9.85926 13.429L7.57549 15.1239L10.6724 20.5197H11.9181Z" fill="#03316C"/>
</svg>
