<svg width="28" height="28" viewBox="0 0 28 28" fill="none" xmlns="http://www.w3.org/2000/svg">
<circle cx="14" cy="14" r="14" fill="#EDF0F4"/>
<path d="M18.8563 9.33325C17.7955 9.33325 16.6373 9.89773 15.411 11.017C14.8271 11.5425 14.321 12.107 13.9512 12.5644C13.9512 12.5644 14.5448 13.2359 15.1969 13.9561C15.5473 13.5182 16.0631 12.9245 16.647 12.3892C17.7371 11.3965 18.4475 11.1921 18.8563 11.1921C20.3843 11.1921 21.63 12.4476 21.63 14.0048C21.63 15.5425 20.394 16.798 18.8563 16.8174C18.7882 16.8174 18.6908 16.8077 18.5935 16.7882C19.0412 16.9926 19.5181 17.1386 19.9755 17.1386C22.7784 17.1386 23.3234 15.2408 23.3624 15.1045C23.4402 14.7542 23.4889 14.3941 23.4889 14.0145C23.4694 11.4257 21.4062 9.33325 18.8563 9.33325Z" fill="url(#paint0_linear_310_11415)"/>
<path d="M9.06522 18.6666C10.126 18.6666 11.2842 18.1021 12.5105 16.9829C13.0944 16.4573 13.6005 15.8928 13.9703 15.4354C13.9703 15.4354 13.3767 14.7639 12.7246 14.0437C12.3742 14.4816 11.8584 15.0753 11.2745 15.6106C10.1844 16.6033 9.47398 16.8077 9.06522 16.8077C7.53724 16.8077 6.2915 15.5522 6.2915 13.995C6.2915 12.4573 7.52751 11.2018 9.06522 11.1824C9.13335 11.1824 9.23067 11.1921 9.32799 11.2116C8.88031 11.0072 8.40342 10.8612 7.946 10.8612C5.14308 10.8612 4.59807 12.759 4.55914 12.8953C4.48128 13.2456 4.43262 13.6057 4.43262 13.9853C4.44235 16.5644 6.51534 18.6666 9.06522 18.6666Z" fill="url(#paint1_linear_310_11415)"/>
<path fill-rule="evenodd" clip-rule="evenodd" d="M7.9564 10.9099C9.39679 10.9488 10.8956 12.1362 11.1973 12.4281C11.9147 13.119 12.5919 13.8905 12.7152 14.031C12.7273 14.0449 12.7341 14.0526 12.735 14.0534C13.3871 14.7736 13.9807 15.4452 13.9807 15.4452L13.9905 15.4354C15.3238 16.9634 17.1048 18.6666 18.8761 18.6666C21.0464 18.6569 22.8761 17.1289 23.3627 15.0753C23.3141 15.2213 22.5939 17.1386 19.9661 17.0705C18.5355 17.0315 17.0367 15.8539 16.735 15.562C15.9467 14.8028 15.207 13.9464 15.207 13.9464C14.5549 13.2262 13.9613 12.5547 13.9613 12.5547C13.9515 12.5547 13.9515 12.5644 13.9515 12.5644C12.6279 11.0267 10.8469 9.33325 9.07562 9.33325C6.90531 9.34298 5.07562 10.8612 4.589 12.905C4.6474 12.6617 5.39679 10.8515 7.9564 10.9099ZM4.5791 12.9148V12.8953C4.58883 12.905 4.58883 12.9148 4.5791 12.9148Z" fill="#29ABE2"/>
<defs>
<linearGradient id="paint0_linear_310_11415" x1="12.3922" y1="12.6396" x2="17.3062" y2="20.1989" gradientUnits="userSpaceOnUse">
<stop offset="0.21" stop-color="#F15A24"/>
<stop offset="0.6841" stop-color="#FBB03B"/>
</linearGradient>
<linearGradient id="paint1_linear_310_11415" x1="15.5285" y1="15.3578" x2="10.6144" y2="7.79852" gradientUnits="userSpaceOnUse">
<stop offset="0.21" stop-color="#ED1E79"/>
<stop offset="0.8929" stop-color="#522785"/>
</linearGradient>
</defs>
</svg>
