<svg width="28" height="28" viewBox="0 0 28 28" fill="none" xmlns="http://www.w3.org/2000/svg">
<path d="M27.578 17.3867C25.7082 24.8867 18.1118 29.4511 10.6109 27.5809C3.11305 25.7111 -1.45134 18.1142 0.419279 10.6148C2.28826 3.11387 9.88462 -1.45087 17.3833 0.418928C24.8837 2.28873 29.4478 9.88639 27.5778 17.3868L27.5779 17.3867H27.578Z" fill="#23292F"/>
<path d="M20.8843 5.83337H23.7094L17.83 11.6548C15.7008 13.7618 12.2488 13.7618 10.118 11.6548L4.23633 5.83337H7.0638L11.5306 10.2555C12.8848 11.5902 15.0598 11.5902 16.414 10.2555L20.8843 5.83337Z" fill="white"/>
<path d="M7.02728 22.0208H4.2002L10.1178 16.1635C12.247 14.0565 15.699 14.0565 17.8298 16.1635L23.7474 22.0208H20.9222L16.4172 17.5628C15.063 16.2281 12.888 16.2281 11.5338 17.5628L7.02728 22.0208Z" fill="white"/>
</svg>
