<svg width="28" height="28" viewBox="0 0 28 28" fill="none" xmlns="http://www.w3.org/2000/svg">
<circle cx="14.001" cy="14" r="14" fill="#EDF0F4"/>
<path d="M14.0612 4.66663C10.1685 4.68226 7.01661 7.83412 7.00098 11.7269C7.00098 12.5064 7.12681 13.2808 7.37327 14.0202C7.55719 14.5235 8.10297 14.7946 8.61525 14.639C9.11041 14.4491 9.37325 13.9078 9.21539 13.4014C9.00616 12.8251 8.91309 12.2138 8.94064 11.6018C9.02552 8.79018 11.3732 6.57948 14.1848 6.66437C16.9964 6.74925 19.2071 9.09695 19.1222 11.9085C19.0425 14.5407 16.9696 16.6784 14.3404 16.8385C14.3404 16.8385 13.3494 16.8988 12.8565 16.9591C12.6748 16.9852 12.4946 17.0209 12.3166 17.0663C12.2913 17.0924 12.2504 17.0924 12.2243 17.0671L12.2235 17.0663C12.2057 17.0432 12.2057 17.0105 12.2235 16.9874L12.3769 16.1505L13.3077 11.9644C13.4194 11.4417 13.0865 10.9272 12.5638 10.8155C12.0411 10.7038 11.5266 11.0366 11.4149 11.5593C11.4149 11.5593 9.20125 21.8057 9.20125 21.8987C9.07467 22.3969 9.37548 22.9032 9.87361 23.0298C9.87883 23.0313 9.88478 23.0327 9.89 23.0335H9.94137C10.4388 23.1623 10.9466 22.863 11.0746 22.3656C11.0769 22.3574 11.0791 22.3492 11.0806 22.3403C11.0791 22.3246 11.0791 22.309 11.0806 22.2941C11.1081 22.1735 11.3874 20.8101 11.3874 20.8101C11.5988 19.7811 12.4283 18.9926 13.4663 18.8332C13.68 18.8005 14.578 18.7402 14.578 18.7402C18.4558 18.3537 21.286 14.8966 20.8988 11.0187C20.5459 7.48193 17.6159 4.75896 14.0612 4.66663Z" fill="#1E1E1E"/>
<path d="M14.4889 20.9456C13.8523 20.8131 13.2298 21.2218 13.0972 21.8577C13.0958 21.8637 13.095 21.8696 13.0935 21.8756C12.9558 22.5078 13.3564 23.1325 13.9893 23.2702C13.99 23.2702 13.9908 23.2702 13.9915 23.271H14.0243C14.6438 23.4206 15.267 23.0394 15.4159 22.4206C15.4174 22.4162 15.4181 22.411 15.4196 22.4065V22.3417C15.5291 21.7029 15.121 21.0901 14.4889 20.9456Z" fill="#E6007A"/>
</svg>
