<svg width="28" height="28" viewBox="0 0 28 28" fill="none" xmlns="http://www.w3.org/2000/svg">
<path d="M27.9981 14.0006C27.9981 21.7311 21.7303 27.9989 13.9964 28C6.26812 28 0.000345399 21.7311 0.00146544 13.9994C-0.000774646 6.26777 6.267 0 13.9987 0C21.7303 0 27.9981 6.26889 27.9981 14.0006Z" fill="#02A6C2"/>
<path d="M10.891 7.70075C14.3776 7.69968 17.8644 7.69968 21.3514 7.70075C21.3525 8.82776 21.3525 9.95456 21.3514 11.0812C17.8647 11.0822 14.3779 11.0822 10.891 11.0812C10.8899 9.95417 10.8899 8.82737 10.891 7.70075Z" fill="white"/>
<path d="M6.77244 12.353C7.8973 12.3472 9.02236 12.3472 10.1476 12.353C10.1534 13.4779 10.1534 14.6029 10.1476 15.7282C9.02241 15.734 7.89735 15.7341 6.77244 15.7285C6.76661 14.6034 6.76661 13.4783 6.77244 12.353Z" fill="white"/>
<path d="M10.8936 12.353C13.4102 12.3477 15.9265 12.3477 18.4428 12.353C18.4481 13.4779 18.4481 14.6029 18.4428 15.7282C15.9263 15.7334 13.4099 15.7334 10.8936 15.7282C10.8883 14.6033 10.8883 13.4782 10.8936 12.353Z" fill="white"/>
<path d="M10.897 17.0062C12.02 16.994 13.1427 16.994 14.2653 17.0062C14.277 18.1285 14.2771 19.2512 14.2658 20.3745C13.1428 20.3856 12.0201 20.3854 10.8976 20.374C10.8859 19.2518 10.8857 18.1292 10.897 17.0062Z" fill="white"/>
</svg>
