<svg width="28" height="28" viewBox="0 0 28 28" fill="none" xmlns="http://www.w3.org/2000/svg">
<g clip-path="url(#clip0_310_11424)">
<circle cx="14.002" cy="14" r="14" fill="#EDF0F4"/>
<path fill-rule="evenodd" clip-rule="evenodd" d="M8.8682 13.1288L14.0329 10.41L19.1553 13.1457L14.0104 5.59998L8.8682 13.1288ZM9.06515 13.914L14.0384 11.2602L18.947 13.8946L14.0412 16.5513L9.06515 13.914ZM8.86816 14.6741C10.6807 15.6366 12.5721 16.6442 14.0329 17.4238L19.1553 14.6741C17.3005 17.4294 15.7551 19.7233 14.0329 22.2621L13.0373 20.8005C11.5993 18.6898 10.1117 16.506 8.86816 14.6741Z" fill="#3AB83A"/>
<path fill-rule="evenodd" clip-rule="evenodd" d="M14.0107 5.59998L14.0333 10.4102L19.1557 13.1457L14.0107 5.59998ZM14.039 11.2602L18.9475 13.8946L14.0418 16.5513L14.039 11.2602ZM14.0334 17.4238L19.1558 14.6741C17.3011 17.4294 14.0334 22.2621 14.0334 22.2621V17.4238Z" fill="#0B8311"/>
<path d="M9.06543 13.9141L14.039 14.3222L18.9475 13.8972L14.0415 16.5541L9.06543 13.9141Z" fill="#0B8311"/>
<path d="M14.0381 14.3222L18.9466 13.8972L14.0409 16.5541L14.0381 14.3222Z" fill="#146714"/>
</g>
<defs>
<clipPath id="clip0_310_11424">
<rect width="28" height="28" fill="white" transform="translate(0.00195312)"/>
</clipPath>
</defs>
</svg>
