<svg width="28" height="28" viewBox="0 0 28 28" fill="none" xmlns="http://www.w3.org/2000/svg">
<path d="M13.9995 0C21.7322 0 27.9995 6.26856 27.9995 14C27.9995 21.7327 21.7322 28 13.9995 28C6.26807 28 -0.000488281 21.7321 -0.000488281 14C-0.000488281 6.26856 6.26807 0 13.9995 0Z" fill="#29BCE1"/>
<path fill-rule="evenodd" clip-rule="evenodd" d="M8.90343 4.43335H19.0951L20.066 5.39528V22.8381L19.0951 23.8H8.90343L7.93262 22.8381V5.39528L8.90343 4.43335ZM18.1246 21.8762V6.35721H9.87448V21.8762H18.1246Z" fill="white"/>
<path fill-rule="evenodd" clip-rule="evenodd" d="M14.9428 11.5269H17.0331V13.4161H10.9664V11.5269H13.0567V9.33337H14.9428V11.5269ZM14.9427 16.9399H17.033V15.0506H10.9663V16.9399H13.0566V19.1334H14.9427V16.9399Z" fill="white"/>
</svg>
