<svg width="44" height="44" viewBox="0 0 44 44" fill="none" xmlns="http://www.w3.org/2000/svg">
<rect width="44" height="44" rx="22" fill="white"/>
<rect x="0.5" y="0.5" width="43" height="43" rx="21.5" stroke="black" stroke-opacity="0.1"/>
<path d="M28.667 29.5H19.5003C16.7505 29.5 15.3755 29.5 14.5213 28.6457C13.667 27.7915 13.667 26.4165 13.667 23.6667V14.5" stroke="#19459F" stroke-width="1.25" stroke-linecap="round"/>
<path d="M25.3405 17.8334C25.3405 17.4882 25.6203 17.2084 25.9655 17.2084C26.3107 17.2084 26.5905 17.4882 26.5905 17.8334L25.3405 17.8334ZM17 26.7917C16.6548 26.7917 16.375 26.5119 16.375 26.1667C16.375 25.8216 16.6548 25.5417 17 25.5417L17 26.7917ZM24.5542 19.0936C24.3185 19.3457 23.923 19.359 23.6708 19.1233C23.4187 18.8875 23.4054 18.492 23.6412 18.2399L24.5542 19.0936ZM24.9089 17.7991L24.4524 17.3723L24.4524 17.3723L24.9089 17.7991ZM27.0221 17.7991L27.4786 17.3723L27.0221 17.7991ZM28.2899 18.2399C28.5256 18.492 28.5123 18.8875 28.2602 19.1233C28.0081 19.359 27.6126 19.3457 27.3768 19.0936L28.2899 18.2399ZM25.9655 17.0001L25.9655 16.3751L25.9655 17.0001ZM26.5905 17.8334C26.5905 20.759 25.5206 23.0223 23.7467 24.5454C21.9857 26.0573 19.5882 26.7917 17 26.7917L17 25.5417C19.3634 25.5417 21.4485 24.871 22.9324 23.5969C24.4034 22.334 25.3405 20.4307 25.3405 17.8334L26.5905 17.8334ZM23.6412 18.2399L24.4524 17.3723L25.3654 18.226L24.5542 19.0936L23.6412 18.2399ZM27.4786 17.3723L28.2899 18.2399L27.3768 19.0936L26.5656 18.226L27.4786 17.3723ZM24.4524 17.3723C24.6891 17.1191 24.9092 16.8818 25.1128 16.7156C25.3289 16.5393 25.6059 16.3751 25.9655 16.3751L25.9655 17.6251C26.0157 17.6251 26.0134 17.5941 25.9031 17.6841C25.7803 17.7843 25.6268 17.9465 25.3654 18.226L24.4524 17.3723ZM26.5656 18.226C26.3042 17.9465 26.1507 17.7843 26.0279 17.6841C25.9176 17.5941 25.9153 17.6251 25.9655 17.6251L25.9655 16.3751C26.3252 16.3751 26.6021 16.5393 26.8182 16.7156C27.0219 16.8818 27.2419 17.1191 27.4786 17.3723L26.5656 18.226Z" fill="#19459F"/>
</svg>
