<svg width="16" height="16" viewBox="0 0 16 16" fill="none" xmlns="http://www.w3.org/2000/svg">
<g clip-path="url(#clip0_3001_4369)">
<g clip-path="url(#clip1_3001_4369)">
<path d="M24.0333 16.1778H1.40411C1.18095 16.1778 1 15.9968 1 15.7736V1.22626C1 1.0031 1.18095 0.822144 1.40411 0.822144H24.0334C24.2565 0.822144 24.4375 1.0031 24.4375 1.22626V15.7736C24.4375 15.9968 24.2565 16.1778 24.0333 16.1778Z" fill="#F5F5F5"/>
<path d="M24.4375 2.0034H1V1.22626C1 1.0031 1.18095 0.822144 1.40411 0.822144H24.0334C24.2565 0.822144 24.4375 1.0031 24.4375 1.22626L24.4375 2.0034Z" fill="#FF4B55"/>
<path d="M24.4375 5.54688H1V6.72809H24.4375V5.54688Z" fill="#FF4B55"/>
<path d="M24.4375 3.18445H1V4.36566H24.4375V3.18445Z" fill="#FF4B55"/>
<path d="M24.4375 9.09062H1.40411C1.18095 9.09062 1 8.90967 1 8.68651V7.90936H24.4375V9.09062Z" fill="#FF4B55"/>
<path d="M24.4375 12.6345H1V13.8157H24.4375V12.6345Z" fill="#FF4B55"/>
<path d="M24.0333 16.1778H1.40411C1.18095 16.1778 1 15.9968 1 15.7737V14.9966H24.4375V15.7737C24.4375 15.9969 24.2565 16.1778 24.0333 16.1778Z" fill="#FF4B55"/>
<path d="M24.4375 10.2721H1V11.4533H24.4375V10.2721Z" fill="#FF4B55"/>
<path d="M11.5064 0.822266H1.40411C1.18095 0.822266 1 1.00317 1 1.22633V8.68649C1 8.90965 1.18095 9.09061 1.40411 9.09061H11.5065C11.7296 9.09061 11.9106 8.90965 11.9106 8.68649V1.22633C11.9105 1.00317 11.7296 0.822266 11.5064 0.822266Z" fill="#41479B"/>
<path d="M2.13515 1.74975L2.22459 2.018L2.50735 2.02015C2.54398 2.02047 2.55913 2.06716 2.52969 2.0889L2.30223 2.2569L2.38756 2.52648C2.39864 2.56136 2.35886 2.59029 2.32906 2.56896L2.09903 2.40458L1.869 2.569C1.8392 2.59029 1.79952 2.56141 1.8105 2.52652L1.89583 2.25695L1.66837 2.08895C1.63893 2.06716 1.65408 2.02051 1.69071 2.02019L1.97347 2.01804L2.06291 1.74979C2.07445 1.715 2.12352 1.715 2.13515 1.74975Z" fill="#F5F5F5"/>
<path d="M2.13466 3.15291L2.22411 3.42116L2.50687 3.42331C2.54349 3.42363 2.55864 3.47032 2.5292 3.49207L2.30174 3.66007L2.38707 3.92964C2.39815 3.96452 2.35837 3.99345 2.32857 3.97212L2.09854 3.80774L1.86852 3.97217C1.83872 3.99345 1.79903 3.96457 1.81001 3.92969L1.89534 3.66011L1.66788 3.49211C1.63844 3.47032 1.6536 3.42368 1.69022 3.42336L1.97298 3.4212L2.06242 3.15296C2.07396 3.11821 2.12303 3.11821 2.13466 3.15291Z" fill="#F5F5F5"/>
<path d="M2.13466 4.55617L2.22411 4.82442L2.50687 4.82657C2.54349 4.82689 2.55864 4.87358 2.5292 4.89533L2.30174 5.06332L2.38707 5.3329C2.39815 5.36778 2.35837 5.39671 2.32857 5.37538L2.09854 5.211L1.86852 5.37543C1.83872 5.39671 1.79903 5.36783 1.81001 5.33295L1.89534 5.06337L1.66788 4.89537C1.63844 4.87358 1.6536 4.82694 1.69022 4.82662L1.97298 4.82446L2.06242 4.55622C2.07396 4.52147 2.12303 4.52147 2.13466 4.55617Z" fill="#F5F5F5"/>
<path d="M2.13466 5.95952L2.22411 6.22777L2.50687 6.22992C2.54349 6.23025 2.55864 6.27694 2.5292 6.29868L2.30174 6.46668L2.38707 6.73626C2.39815 6.77114 2.35837 6.80007 2.32857 6.77874L2.09854 6.61435L1.86852 6.77878C1.83872 6.80007 1.79903 6.77118 1.81001 6.7363L1.89534 6.46672L1.66788 6.29873C1.63844 6.27694 1.6536 6.23029 1.69022 6.22997L1.97298 6.22782L2.06242 5.95957C2.07396 5.92478 2.12303 5.92478 2.13466 5.95952Z" fill="#F5F5F5"/>
<path d="M2.13466 7.3627L2.22411 7.63094L2.50687 7.6331C2.54349 7.63342 2.55864 7.68011 2.5292 7.70185L2.30174 7.86985L2.38707 8.13943C2.39815 8.17431 2.35837 8.20324 2.32857 8.18191L2.09854 8.01753L1.86852 8.18195C1.83872 8.20324 1.79903 8.17435 1.81001 8.13947L1.89534 7.8699L1.66788 7.7019C1.63844 7.68011 1.6536 7.63346 1.69022 7.63314L1.97298 7.63099L2.06242 7.36274C2.07396 7.32791 2.12303 7.32791 2.13466 7.3627Z" fill="#F5F5F5"/>
<path d="M3.22353 2.43764L3.31297 2.70589L3.59573 2.70805C3.63235 2.70837 3.64751 2.75506 3.61807 2.7768L3.39061 2.9448L3.47594 3.21438C3.48701 3.24926 3.44723 3.27819 3.41743 3.25686L3.18741 3.09243L2.95738 3.25686C2.92758 3.27814 2.88789 3.24926 2.89888 3.21438L2.98421 2.9448L2.75675 2.7768C2.72731 2.75501 2.74246 2.70837 2.77908 2.70805L3.06184 2.70589L3.15129 2.43764C3.16278 2.40295 3.21194 2.40295 3.22353 2.43764Z" fill="#F5F5F5"/>
<path d="M3.22353 3.841L3.31297 4.10925L3.59573 4.1114C3.63235 4.11172 3.64751 4.15841 3.61807 4.18016L3.39061 4.34815L3.47594 4.61773C3.48701 4.65261 3.44723 4.68154 3.41743 4.66021L3.18741 4.49578L2.95738 4.66021C2.92758 4.6815 2.88789 4.65266 2.89888 4.61773L2.98421 4.34815L2.75675 4.18016C2.72731 4.15837 2.74246 4.11172 2.77908 4.1114L3.06184 4.10925L3.15129 3.841C3.16278 3.80626 3.21194 3.80626 3.22353 3.841Z" fill="#F5F5F5"/>
<path d="M3.22353 5.24414L3.31297 5.51239L3.59573 5.51454C3.63235 5.51486 3.64751 5.56155 3.61807 5.58329L3.39061 5.75129L3.47594 6.02087C3.48701 6.05575 3.44723 6.08468 3.41743 6.06335L3.18741 5.89892L2.95738 6.06335C2.92758 6.08464 2.88789 6.05575 2.89888 6.02087L2.98421 5.75129L2.75675 5.58329C2.72731 5.5615 2.74246 5.51486 2.77908 5.51454L3.06184 5.51239L3.15129 5.24414C3.16278 5.20939 3.21194 5.20939 3.22353 5.24414Z" fill="#F5F5F5"/>
<path d="M3.22353 6.64742L3.31297 6.91567L3.59573 6.91782C3.63235 6.91814 3.64751 6.96484 3.61807 6.98658L3.39061 7.15458L3.47594 7.42415C3.48701 7.45904 3.44723 7.48797 3.41743 7.46663L3.18741 7.30221L2.95738 7.46663C2.92758 7.48792 2.88789 7.45904 2.89888 7.42415L2.98421 7.15458L2.75675 6.98658C2.72731 6.96479 2.74246 6.91814 2.77908 6.91782L3.06184 6.91567L3.15129 6.64742C3.16278 6.61272 3.21194 6.61272 3.22353 6.64742Z" fill="#F5F5F5"/>
<path d="M4.31239 1.74969L4.40184 2.01794L4.6846 2.02009C4.72122 2.02041 4.73637 2.0671 4.70694 2.08885L4.47948 2.25685L4.5648 2.52642C4.57588 2.5613 4.5361 2.59023 4.5063 2.5689L4.27628 2.40447L4.04625 2.5689C4.01645 2.59019 3.97676 2.5613 3.98775 2.52642L4.07308 2.25685L3.84561 2.08885C3.81618 2.06706 3.83133 2.02041 3.86795 2.02009L4.15071 2.01794L4.24016 1.74969C4.25169 1.71495 4.30081 1.71495 4.31239 1.74969Z" fill="#F5F5F5"/>
<path d="M4.31239 3.15292L4.40184 3.42116L4.6846 3.42332C4.72122 3.42364 4.73637 3.47033 4.70694 3.49207L4.47948 3.66007L4.5648 3.92965C4.57588 3.96453 4.5361 3.99346 4.5063 3.97213L4.27628 3.8077L4.04625 3.97213C4.01645 3.99341 3.97676 3.96453 3.98775 3.92965L4.07308 3.66007L3.84561 3.49207C3.81618 3.47028 3.83133 3.42364 3.86795 3.42332L4.15071 3.42116L4.24016 3.15292C4.25169 3.11822 4.30081 3.11822 4.31239 3.15292Z" fill="#F5F5F5"/>
<path d="M4.31239 4.55618L4.40184 4.82442L4.6846 4.82658C4.72122 4.8269 4.73637 4.87359 4.70694 4.89533L4.47948 5.06333L4.5648 5.33291C4.57588 5.36779 4.5361 5.39672 4.5063 5.37539L4.27628 5.21096L4.04625 5.37539C4.01645 5.39668 3.97676 5.36779 3.98775 5.33291L4.07308 5.06333L3.84561 4.89533C3.81618 4.87354 3.83133 4.8269 3.86795 4.82658L4.15071 4.82442L4.24016 4.55618C4.25169 4.52148 4.30081 4.52148 4.31239 4.55618Z" fill="#F5F5F5"/>
<path d="M4.31239 5.95947L4.40184 6.22772L4.6846 6.22987C4.72122 6.23019 4.73637 6.27688 4.70694 6.29862L4.47948 6.46662L4.5648 6.7362C4.57588 6.77108 4.5361 6.80001 4.5063 6.77868L4.27628 6.61425L4.04625 6.77868C4.01645 6.79997 3.97676 6.77108 3.98775 6.7362L4.07308 6.46662L3.84561 6.29862C3.81618 6.27684 3.83133 6.23019 3.86795 6.22987L4.15071 6.22772L4.24016 5.95947C4.25169 5.92472 4.30081 5.92472 4.31239 5.95947Z" fill="#F5F5F5"/>
<path d="M4.31239 7.3627L4.40184 7.63095L4.6846 7.6331C4.72122 7.63342 4.73637 7.68011 4.70694 7.70186L4.47948 7.86986L4.5648 8.13943C4.57588 8.17431 4.5361 8.20324 4.5063 8.18191L4.27628 8.01748L4.04625 8.18191C4.01645 8.2032 3.97676 8.17431 3.98775 8.13943L4.07308 7.86986L3.84561 7.70186C3.81618 7.68007 3.83133 7.63342 3.86795 7.6331L4.15071 7.63095L4.24016 7.3627C4.25169 7.32791 4.30081 7.32791 4.31239 7.3627Z" fill="#F5F5F5"/>
<path d="M5.40224 2.43764L5.49168 2.70589L5.77444 2.70805C5.81107 2.70837 5.82622 2.75506 5.79678 2.7768L5.56932 2.9448L5.65465 3.21438C5.66573 3.24926 5.62595 3.27819 5.59615 3.25686L5.36612 3.09243L5.13609 3.25686C5.10629 3.27814 5.06661 3.24926 5.07759 3.21438L5.16292 2.9448L4.93546 2.7768C4.90602 2.75501 4.92117 2.70837 4.9578 2.70805L5.24056 2.70589L5.33 2.43764C5.34149 2.40295 5.39066 2.40295 5.40224 2.43764Z" fill="#F5F5F5"/>
<path d="M5.40224 3.841L5.49168 4.10925L5.77444 4.1114C5.81107 4.11172 5.82622 4.15841 5.79678 4.18016L5.56932 4.34815L5.65465 4.61773C5.66573 4.65261 5.62595 4.68154 5.59615 4.66021L5.36612 4.49578L5.13609 4.66021C5.10629 4.6815 5.06661 4.65266 5.07759 4.61773L5.16292 4.34815L4.93546 4.18016C4.90602 4.15837 4.92117 4.11172 4.9578 4.1114L5.24056 4.10925L5.33 3.841C5.34149 3.80626 5.39066 3.80626 5.40224 3.841Z" fill="#F5F5F5"/>
<path d="M5.40224 5.24414L5.49168 5.51239L5.77444 5.51454C5.81107 5.51486 5.82622 5.56155 5.79678 5.58329L5.56932 5.75129L5.65465 6.02087C5.66573 6.05575 5.62595 6.08468 5.59615 6.06335L5.36612 5.89892L5.13609 6.06335C5.10629 6.08464 5.06661 6.05575 5.07759 6.02087L5.16292 5.75129L4.93546 5.58329C4.90602 5.5615 4.92117 5.51486 4.9578 5.51454L5.24056 5.51239L5.33 5.24414C5.34149 5.20939 5.39066 5.20939 5.40224 5.24414Z" fill="#F5F5F5"/>
<path d="M5.40224 6.64742L5.49168 6.91567L5.77444 6.91782C5.81107 6.91814 5.82622 6.96484 5.79678 6.98658L5.56932 7.15458L5.65465 7.42415C5.66573 7.45904 5.62595 7.48797 5.59615 7.46663L5.36612 7.30221L5.13609 7.46663C5.10629 7.48792 5.06661 7.45904 5.07759 7.42415L5.16292 7.15458L4.93546 6.98658C4.90602 6.96479 4.92117 6.91814 4.9578 6.91782L5.24056 6.91567L5.33 6.64742C5.34149 6.61272 5.39066 6.61272 5.40224 6.64742Z" fill="#F5F5F5"/>
<path d="M6.49115 1.74969L6.5806 2.01794L6.86336 2.02009C6.89998 2.02041 6.91513 2.0671 6.8857 2.08885L6.65823 2.25685L6.74356 2.52642C6.75464 2.5613 6.71486 2.59023 6.68506 2.5689L6.45499 2.40447L6.22496 2.5689C6.19516 2.59019 6.15547 2.5613 6.16646 2.52642L6.25179 2.25685L6.02432 2.08885C5.99489 2.06706 6.01004 2.02041 6.04666 2.02009L6.32942 2.01794L6.41887 1.74969C6.43045 1.71495 6.47957 1.71495 6.49115 1.74969Z" fill="#F5F5F5"/>
<path d="M6.49115 3.15292L6.5806 3.42116L6.86336 3.42332C6.89998 3.42364 6.91513 3.47033 6.8857 3.49207L6.65823 3.66007L6.74356 3.92965C6.75464 3.96453 6.71486 3.99346 6.68506 3.97213L6.45499 3.8077L6.22496 3.97213C6.19516 3.99341 6.15547 3.96453 6.16646 3.92965L6.25179 3.66007L6.02432 3.49207C5.99489 3.47028 6.01004 3.42364 6.04666 3.42332L6.32942 3.42116L6.41887 3.15292C6.43045 3.11822 6.47957 3.11822 6.49115 3.15292Z" fill="#F5F5F5"/>
<path d="M6.49115 4.55618L6.5806 4.82442L6.86336 4.82658C6.89998 4.8269 6.91513 4.87359 6.8857 4.89533L6.65823 5.06333L6.74356 5.33291C6.75464 5.36779 6.71486 5.39672 6.68506 5.37539L6.45499 5.21096L6.22496 5.37539C6.19516 5.39668 6.15547 5.36779 6.16646 5.33291L6.25179 5.06333L6.02432 4.89533C5.99489 4.87354 6.01004 4.8269 6.04666 4.82658L6.32942 4.82442L6.41887 4.55618C6.43045 4.52148 6.47957 4.52148 6.49115 4.55618Z" fill="#F5F5F5"/>
<path d="M6.49115 5.95947L6.5806 6.22772L6.86336 6.22987C6.89998 6.23019 6.91513 6.27688 6.8857 6.29862L6.65823 6.46662L6.74356 6.7362C6.75464 6.77108 6.71486 6.80001 6.68506 6.77868L6.45499 6.61425L6.22496 6.77868C6.19516 6.79997 6.15547 6.77108 6.16646 6.7362L6.25179 6.46662L6.02432 6.29862C5.99489 6.27684 6.01004 6.23019 6.04666 6.22987L6.32942 6.22772L6.41887 5.95947C6.43045 5.92472 6.47957 5.92472 6.49115 5.95947Z" fill="#F5F5F5"/>
<path d="M6.49115 7.3627L6.5806 7.63095L6.86336 7.6331C6.89998 7.63342 6.91513 7.68011 6.8857 7.70186L6.65823 7.86986L6.74356 8.13943C6.75464 8.17431 6.71486 8.20324 6.68506 8.18191L6.45499 8.01748L6.22496 8.18191C6.19516 8.2032 6.15547 8.17431 6.16646 8.13943L6.25179 7.86986L6.02432 7.70186C5.99489 7.68007 6.01004 7.63342 6.04666 7.6331L6.32942 7.63095L6.41887 7.3627C6.43045 7.32791 6.47957 7.32791 6.49115 7.3627Z" fill="#F5F5F5"/>
<path d="M7.58095 2.43764L7.6704 2.70589L7.95316 2.70805C7.98978 2.70837 8.00493 2.75506 7.97549 2.7768L7.74803 2.9448L7.83336 3.21438C7.84444 3.24926 7.80466 3.27819 7.77486 3.25686L7.54483 3.09243L7.3148 3.25686C7.285 3.27814 7.24532 3.24926 7.2563 3.21438L7.34163 2.9448L7.11417 2.7768C7.08473 2.75501 7.09989 2.70837 7.13651 2.70805L7.41927 2.70589L7.50871 2.43764C7.52029 2.40295 7.56937 2.40295 7.58095 2.43764Z" fill="#F5F5F5"/>
<path d="M7.58095 3.841L7.6704 4.10925L7.95316 4.1114C7.98978 4.11172 8.00493 4.15841 7.97549 4.18016L7.74803 4.34815L7.83336 4.61773C7.84444 4.65261 7.80466 4.68154 7.77486 4.66021L7.54483 4.49578L7.3148 4.66021C7.285 4.6815 7.24532 4.65266 7.2563 4.61773L7.34163 4.34815L7.11417 4.18016C7.08473 4.15837 7.09989 4.11172 7.13651 4.1114L7.41927 4.10925L7.50871 3.841C7.52029 3.80626 7.56937 3.80626 7.58095 3.841Z" fill="#F5F5F5"/>
<path d="M7.58095 5.24414L7.6704 5.51239L7.95316 5.51454C7.98978 5.51486 8.00493 5.56155 7.97549 5.58329L7.74803 5.75129L7.83336 6.02087C7.84444 6.05575 7.80466 6.08468 7.77486 6.06335L7.54483 5.89892L7.3148 6.06335C7.285 6.08464 7.24532 6.05575 7.2563 6.02087L7.34163 5.75129L7.11417 5.58329C7.08473 5.5615 7.09989 5.51486 7.13651 5.51454L7.41927 5.51239L7.50871 5.24414C7.52029 5.20939 7.56937 5.20939 7.58095 5.24414Z" fill="#F5F5F5"/>
<path d="M7.58095 6.64742L7.6704 6.91567L7.95316 6.91782C7.98978 6.91814 8.00493 6.96484 7.97549 6.98658L7.74803 7.15458L7.83336 7.42415C7.84444 7.45904 7.80466 7.48797 7.77486 7.46663L7.54483 7.30221L7.3148 7.46663C7.285 7.48792 7.24532 7.45904 7.2563 7.42415L7.34163 7.15458L7.11417 6.98658C7.08473 6.96479 7.09989 6.91814 7.13651 6.91782L7.41927 6.91567L7.50871 6.64742C7.52029 6.61272 7.56937 6.61272 7.58095 6.64742Z" fill="#F5F5F5"/>
<path d="M8.66933 1.74969L8.75877 2.01794L9.04153 2.02009C9.07816 2.02041 9.09331 2.0671 9.06387 2.08885L8.83641 2.25685L8.92174 2.52642C8.93282 2.5613 8.89304 2.59023 8.86324 2.5689L8.63321 2.40447L8.40318 2.5689C8.37338 2.59019 8.3337 2.5613 8.34468 2.52642L8.43001 2.25685L8.20255 2.08885C8.17311 2.06706 8.18826 2.02041 8.22488 2.02009L8.50765 2.01794L8.59709 1.74969C8.60858 1.71495 8.65775 1.71495 8.66933 1.74969Z" fill="#F5F5F5"/>
<path d="M8.66933 3.15292L8.75877 3.42116L9.04153 3.42332C9.07816 3.42364 9.09331 3.47033 9.06387 3.49207L8.83641 3.66007L8.92174 3.92965C8.93282 3.96453 8.89304 3.99346 8.86324 3.97213L8.63321 3.8077L8.40318 3.97213C8.37338 3.99341 8.3337 3.96453 8.34468 3.92965L8.43001 3.66007L8.20255 3.49207C8.17311 3.47028 8.18826 3.42364 8.22488 3.42332L8.50765 3.42116L8.59709 3.15292C8.60858 3.11822 8.65775 3.11822 8.66933 3.15292Z" fill="#F5F5F5"/>
<path d="M8.66933 4.55618L8.75877 4.82442L9.04153 4.82658C9.07816 4.8269 9.09331 4.87359 9.06387 4.89533L8.83641 5.06333L8.92174 5.33291C8.93282 5.36779 8.89304 5.39672 8.86324 5.37539L8.63321 5.21096L8.40318 5.37539C8.37338 5.39668 8.3337 5.36779 8.34468 5.33291L8.43001 5.06333L8.20255 4.89533C8.17311 4.87354 8.18826 4.8269 8.22488 4.82658L8.50765 4.82442L8.59709 4.55618C8.60858 4.52148 8.65775 4.52148 8.66933 4.55618Z" fill="#F5F5F5"/>
<path d="M8.66933 5.95947L8.75877 6.22772L9.04153 6.22987C9.07816 6.23019 9.09331 6.27688 9.06387 6.29862L8.83641 6.46662L8.92174 6.7362C8.93282 6.77108 8.89304 6.80001 8.86324 6.77868L8.63321 6.61425L8.40318 6.77868C8.37338 6.79997 8.3337 6.77108 8.34468 6.7362L8.43001 6.46662L8.20255 6.29862C8.17311 6.27684 8.18826 6.23019 8.22488 6.22987L8.50765 6.22772L8.59709 5.95947C8.60858 5.92472 8.65775 5.92472 8.66933 5.95947Z" fill="#F5F5F5"/>
<path d="M8.66933 7.3627L8.75877 7.63095L9.04153 7.6331C9.07816 7.63342 9.09331 7.68011 9.06387 7.70186L8.83641 7.86986L8.92174 8.13943C8.93282 8.17431 8.89304 8.20324 8.86324 8.18191L8.63321 8.01748L8.40318 8.18191C8.37338 8.2032 8.3337 8.17431 8.34468 8.13943L8.43001 7.86986L8.20255 7.70186C8.17311 7.68007 8.18826 7.63342 8.22488 7.6331L8.50765 7.63095L8.59709 7.3627C8.60858 7.32791 8.65775 7.32791 8.66933 7.3627Z" fill="#F5F5F5"/>
<path d="M9.75868 2.43764L9.84813 2.70589L10.1309 2.70805C10.1675 2.70837 10.1827 2.75506 10.1532 2.7768L9.92577 2.9448L10.0111 3.21438C10.0222 3.24926 9.98239 3.27819 9.95259 3.25686L9.72256 3.09243L9.49254 3.25686C9.46274 3.27814 9.42305 3.24926 9.43404 3.21438L9.51936 2.9448L9.2919 2.7768C9.26247 2.75501 9.27762 2.70837 9.31424 2.70805L9.597 2.70589L9.68645 2.43764C9.69798 2.40295 9.74715 2.40295 9.75868 2.43764Z" fill="#F5F5F5"/>
<path d="M9.75868 3.841L9.84813 4.10925L10.1309 4.1114C10.1675 4.11172 10.1827 4.15841 10.1532 4.18016L9.92577 4.34815L10.0111 4.61773C10.0222 4.65261 9.98239 4.68154 9.95259 4.66021L9.72256 4.49578L9.49254 4.66021C9.46274 4.6815 9.42305 4.65266 9.43404 4.61773L9.51936 4.34815L9.2919 4.18016C9.26247 4.15837 9.27762 4.11172 9.31424 4.1114L9.597 4.10925L9.68645 3.841C9.69798 3.80626 9.74715 3.80626 9.75868 3.841Z" fill="#F5F5F5"/>
<path d="M9.75868 5.24414L9.84813 5.51239L10.1309 5.51454C10.1675 5.51486 10.1827 5.56155 10.1532 5.58329L9.92577 5.75129L10.0111 6.02087C10.0222 6.05575 9.98239 6.08468 9.95259 6.06335L9.72256 5.89892L9.49254 6.06335C9.46274 6.08464 9.42305 6.05575 9.43404 6.02087L9.51936 5.75129L9.2919 5.58329C9.26247 5.5615 9.27762 5.51486 9.31424 5.51454L9.597 5.51239L9.68645 5.24414C9.69798 5.20939 9.74715 5.20939 9.75868 5.24414Z" fill="#F5F5F5"/>
<path d="M9.75868 6.64742L9.84813 6.91567L10.1309 6.91782C10.1675 6.91814 10.1827 6.96484 10.1532 6.98658L9.92577 7.15458L10.0111 7.42415C10.0222 7.45904 9.98239 7.48797 9.95259 7.46663L9.72256 7.30221L9.49254 7.46663C9.46274 7.48792 9.42305 7.45904 9.43404 7.42415L9.51936 7.15458L9.2919 6.98658C9.26247 6.96479 9.27762 6.91814 9.31424 6.91782L9.597 6.91567L9.68645 6.64742C9.69798 6.61272 9.74715 6.61272 9.75868 6.64742Z" fill="#F5F5F5"/>
<path d="M10.848 1.74969L10.9375 2.01794L11.2202 2.02009C11.2569 2.02041 11.272 2.0671 11.2426 2.08885L11.0151 2.25685L11.1004 2.52642C11.1115 2.5613 11.0717 2.59023 11.0419 2.5689L10.8119 2.40447L10.5819 2.5689C10.5521 2.59019 10.5124 2.5613 10.5234 2.52642L10.6087 2.25685L10.3813 2.08885C10.3518 2.06706 10.367 2.02041 10.4036 2.02009L10.6864 2.01794L10.7758 1.74969C10.7873 1.71495 10.8364 1.71495 10.848 1.74969Z" fill="#F5F5F5"/>
<path d="M10.848 3.15292L10.9375 3.42116L11.2202 3.42332C11.2569 3.42364 11.272 3.47033 11.2426 3.49207L11.0151 3.66007L11.1004 3.92965C11.1115 3.96453 11.0717 3.99346 11.0419 3.97213L10.8119 3.8077L10.5819 3.97213C10.5521 3.99341 10.5124 3.96453 10.5234 3.92965L10.6087 3.66007L10.3813 3.49207C10.3518 3.47028 10.367 3.42364 10.4036 3.42332L10.6864 3.42116L10.7758 3.15292C10.7873 3.11822 10.8364 3.11822 10.848 3.15292Z" fill="#F5F5F5"/>
<path d="M10.848 4.55618L10.9375 4.82442L11.2202 4.82658C11.2569 4.8269 11.272 4.87359 11.2426 4.89533L11.0151 5.06333L11.1004 5.33291C11.1115 5.36779 11.0717 5.39672 11.0419 5.37539L10.8119 5.21096L10.5819 5.37539C10.5521 5.39668 10.5124 5.36779 10.5234 5.33291L10.6087 5.06333L10.3813 4.89533C10.3518 4.87354 10.367 4.8269 10.4036 4.82658L10.6864 4.82442L10.7758 4.55618C10.7873 4.52148 10.8364 4.52148 10.848 4.55618Z" fill="#F5F5F5"/>
<path d="M10.848 5.95947L10.9375 6.22772L11.2202 6.22987C11.2569 6.23019 11.272 6.27688 11.2426 6.29862L11.0151 6.46662L11.1004 6.7362C11.1115 6.77108 11.0717 6.80001 11.0419 6.77868L10.8119 6.61425L10.5819 6.77868C10.5521 6.79997 10.5124 6.77108 10.5234 6.7362L10.6087 6.46662L10.3813 6.29862C10.3518 6.27684 10.367 6.23019 10.4036 6.22987L10.6864 6.22772L10.7758 5.95947C10.7873 5.92472 10.8364 5.92472 10.848 5.95947Z" fill="#F5F5F5"/>
<path d="M10.848 7.3627L10.9375 7.63095L11.2202 7.6331C11.2569 7.63342 11.272 7.68011 11.2426 7.70186L11.0151 7.86986L11.1004 8.13943C11.1115 8.17431 11.0717 8.20324 11.0419 8.18191L10.8119 8.01748L10.5819 8.18191C10.5521 8.2032 10.5124 8.17431 10.5234 8.13943L10.6087 7.86986L10.3813 7.70186C10.3518 7.68007 10.367 7.63342 10.4036 7.6331L10.6864 7.63095L10.7758 7.3627C10.7873 7.32791 10.8364 7.32791 10.848 7.3627Z" fill="#F5F5F5"/>
</g>
</g>
<rect x="0.5" y="0.5" width="15" height="15" rx="7.5" stroke="white"/>
<defs>
<clipPath id="clip0_3001_4369">
<rect width="16" height="16" rx="8" fill="white"/>
</clipPath>
<clipPath id="clip1_3001_4369">
<rect width="23.4375" height="15" fill="white" transform="translate(1 1)"/>
</clipPath>
</defs>
</svg>
