<?xml version="1.0" encoding="UTF-8"?>
<svg xmlns="http://www.w3.org/2000/svg" xmlns:xlink="http://www.w3.org/1999/xlink" width="30px" height="33px" viewBox="0 0 30 32" version="1.1">
<g id="surface1">
<path style=" stroke:none;fill-rule:nonzero;fill:rgb(100%,100%,100%);fill-opacity:1;" d="M 15 0.25 C 10.417969 0 4.078125 3.574219 1.480469 5.394531 C -1.765625 20.507812 9.140625 28.59375 15 30.742188 C 28.183594 26.730469 29.804688 12.171875 28.96875 5.394531 C 26.222656 3.785156 19.582031 0.503906 15 0.25 Z M 15 0.25 "/>
<path style=" stroke:none;fill-rule:evenodd;fill:rgb(8.235294%,22.745098%,52.156866%);fill-opacity:1;" d="M 3.246094 13.675781 C 6.675781 11.4375 10.773438 10.199219 14.953125 10.007812 L 15.046875 10.007812 C 19.226562 10.199219 23.324219 11.4375 26.753906 13.675781 C 27.058594 11.65625 27.179688 9.394531 27.082031 6.84375 C 24.101562 4.667969 19.960938 2.957031 15 2.730469 C 10.039062 2.957031 5.898438 4.667969 2.917969 6.84375 C 2.820312 9.394531 2.941406 11.65625 3.246094 13.675781 Z M 3.246094 13.675781 "/>
<path style=" stroke:none;fill-rule:evenodd;fill:rgb(70.19608%,70.588237%,72.941178%);fill-opacity:1;" d="M 15 32 C 19.636719 30.242188 22.988281 28.246094 25.800781 24.222656 C 29.753906 18.558594 30.199219 12.023438 29.941406 5.472656 C 25.257812 2.054688 21.035156 0.277344 15 0 L 15 1.820312 C 19.917969 2.042969 24.160156 3.554688 28.03125 6.386719 C 28.265625 12.167969 27.640625 18.265625 24.175781 23.230469 C 21.863281 26.539062 18.875 28.574219 15 30.039062 Z M 15 32 "/>
<path style=" stroke:none;fill-rule:evenodd;fill:rgb(80.000001%,0%,0%);fill-opacity:1;" d="M 14.027344 10.980469 L 14.027344 28.664062 C 14.355469 28.804688 14.683594 28.9375 15 29.054688 C 15.316406 28.9375 15.644531 28.804688 15.972656 28.664062 L 15.972656 10.980469 C 15.648438 10.949219 15.328125 10.929688 15 10.914062 C 14.671875 10.929688 14.351562 10.949219 14.027344 10.980469 Z M 4.324219 18.136719 L 4.324219 14.09375 C 4.011719 14.28125 3.707031 14.480469 3.410156 14.679688 C 3.648438 15.929688 3.953125 17.082031 4.324219 18.136719 Z M 8.207031 24.65625 L 8.207031 12.242188 C 7.53125 12.488281 6.878906 12.757812 6.265625 13.050781 L 6.265625 22.171875 C 6.863281 23.105469 7.515625 23.925781 8.207031 24.65625 Z M 12.089844 27.691406 L 12.089844 11.226562 C 11.425781 11.34375 10.773438 11.480469 10.148438 11.644531 L 10.148438 26.402344 C 10.785156 26.886719 11.4375 27.316406 12.089844 27.691406 Z M 25.675781 14.09375 L 25.675781 18.136719 C 26.046875 17.082031 26.351562 15.929688 26.589844 14.679688 C 26.296875 14.480469 25.992188 14.28125 25.675781 14.09375 Z M 21.792969 12.242188 L 21.792969 24.65625 C 22.484375 23.925781 23.136719 23.105469 23.734375 22.171875 L 23.734375 13.050781 C 23.121094 12.757812 22.46875 12.488281 21.792969 12.242188 Z M 17.910156 11.226562 L 17.910156 27.691406 C 18.5625 27.316406 19.214844 26.886719 19.851562 26.402344 L 19.851562 11.644531 C 19.226562 11.480469 18.574219 11.34375 17.910156 11.226562 Z M 17.910156 11.226562 "/>
<path style=" stroke:none;fill-rule:evenodd;fill:rgb(80.392158%,80.392158%,81.960785%);fill-opacity:1;" d="M 15 32 C 10.363281 30.242188 7.011719 28.246094 4.199219 24.222656 C 0.246094 18.558594 -0.199219 12.023438 0.0585938 5.472656 C 4.742188 2.054688 8.964844 0.277344 15 0 L 15 1.820312 C 10.082031 2.042969 5.839844 3.554688 1.96875 6.386719 C 1.734375 12.167969 2.359375 18.265625 5.824219 23.230469 C 8.136719 26.539062 11.125 28.574219 15 30.039062 Z M 15 32 "/>
<path style=" stroke:none;fill-rule:nonzero;fill:rgb(100%,100%,100%);fill-opacity:1;" d="M 16.46875 4.65625 C 16.605469 4.691406 16.75 4.828125 16.789062 4.960938 L 17.234375 6.582031 C 17.269531 6.71875 17.1875 6.796875 17.050781 6.761719 L 15.386719 6.324219 C 15.246094 6.292969 15.105469 6.15625 15.070312 6.019531 L 14.625 4.398438 C 14.589844 4.261719 14.667969 4.183594 14.808594 4.21875 Z M 16.46875 4.65625 "/>
<path style=" stroke:none;fill-rule:nonzero;fill:rgb(100%,100%,100%);fill-opacity:1;" d="M 14.144531 4.320312 C 14.246094 4.21875 14.355469 4.25 14.394531 4.382812 L 14.839844 6.007812 C 14.875 6.136719 14.824219 6.324219 14.726562 6.425781 L 13.511719 7.613281 C 13.40625 7.707031 13.296875 7.679688 13.257812 7.546875 L 12.8125 5.925781 C 12.777344 5.792969 12.832031 5.605469 12.925781 5.507812 Z M 14.144531 4.320312 "/>
<path style=" stroke:none;fill-rule:nonzero;fill:rgb(100%,100%,100%);fill-opacity:1;" d="M 14.863281 6.675781 C 14.964844 6.574219 15.152344 6.527344 15.292969 6.558594 L 16.957031 6.992188 C 17.09375 7.03125 17.121094 7.140625 17.027344 7.238281 L 15.804688 8.425781 C 15.707031 8.523438 15.511719 8.574219 15.375 8.535156 L 13.710938 8.101562 C 13.574219 8.070312 13.542969 7.957031 13.644531 7.859375 Z M 14.863281 6.675781 "/>
<path style=" stroke:none;fill-rule:nonzero;fill:rgb(100%,100%,100%);fill-opacity:1;" d="M 23.832031 6.84375 C 23.9375 6.867188 24.042969 6.96875 24.070312 7.070312 L 24.410156 8.277344 C 24.441406 8.375 24.378906 8.433594 24.273438 8.40625 L 23.003906 8.082031 C 22.898438 8.054688 22.792969 7.957031 22.761719 7.855469 L 22.421875 6.652344 C 22.394531 6.550781 22.457031 6.492188 22.558594 6.519531 Z M 23.832031 6.84375 "/>
<path style=" stroke:none;fill-rule:nonzero;fill:rgb(100%,100%,100%);fill-opacity:1;" d="M 22.054688 6.59375 C 22.132812 6.519531 22.21875 6.542969 22.246094 6.640625 L 22.585938 7.84375 C 22.613281 7.945312 22.574219 8.085938 22.496094 8.15625 L 21.570312 9.039062 C 21.492188 9.113281 21.40625 9.09375 21.378906 8.992188 L 21.035156 7.785156 C 21.011719 7.6875 21.046875 7.546875 21.128906 7.472656 Z M 22.054688 6.59375 "/>
<path style=" stroke:none;fill-rule:nonzero;fill:rgb(100%,100%,100%);fill-opacity:1;" d="M 22.605469 8.34375 C 22.675781 8.269531 22.828125 8.230469 22.933594 8.257812 L 24.199219 8.582031 C 24.308594 8.609375 24.328125 8.6875 24.25 8.761719 L 23.324219 9.644531 C 23.246094 9.71875 23.097656 9.753906 22.996094 9.726562 L 21.726562 9.40625 C 21.621094 9.378906 21.597656 9.296875 21.671875 9.222656 Z M 22.605469 8.34375 "/>
<path style=" stroke:none;fill-rule:nonzero;fill:rgb(100%,100%,100%);fill-opacity:1;" d="M 8.25 6.84375 C 8.355469 6.867188 8.464844 6.96875 8.496094 7.070312 L 8.835938 8.277344 C 8.859375 8.375 8.800781 8.433594 8.691406 8.40625 L 7.421875 8.082031 C 7.320312 8.054688 7.210938 7.957031 7.183594 7.855469 L 6.84375 6.652344 C 6.816406 6.550781 6.878906 6.492188 6.980469 6.519531 Z M 8.25 6.84375 "/>
<path style=" stroke:none;fill-rule:nonzero;fill:rgb(100%,100%,100%);fill-opacity:1;" d="M 6.480469 6.59375 C 6.554688 6.519531 6.640625 6.542969 6.667969 6.640625 L 7.007812 7.84375 C 7.039062 7.945312 6.996094 8.085938 6.921875 8.15625 L 5.988281 9.039062 C 5.914062 9.113281 5.824219 9.09375 5.800781 8.992188 L 5.460938 7.785156 C 5.429688 7.6875 5.472656 7.546875 5.546875 7.472656 Z M 6.480469 6.59375 "/>
<path style=" stroke:none;fill-rule:nonzero;fill:rgb(100%,100%,100%);fill-opacity:1;" d="M 7.023438 8.34375 C 7.101562 8.269531 7.246094 8.230469 7.351562 8.257812 L 8.625 8.582031 C 8.730469 8.609375 8.753906 8.6875 8.675781 8.761719 L 7.746094 9.644531 C 7.667969 9.71875 7.519531 9.753906 7.417969 9.726562 L 6.144531 9.40625 C 6.039062 9.378906 6.015625 9.296875 6.09375 9.222656 Z M 7.023438 8.34375 "/>
</g>
</svg>
