<svg width="89" height="89" viewBox="0 0 89 89" fill="none" xmlns="http://www.w3.org/2000/svg">
<rect x="39" y="36.0078" width="16" height="16" rx="8" transform="rotate(-18.2394 39 36.0078)" fill="white"/>
<path fill-rule="evenodd" clip-rule="evenodd" d="M45.4583 42.4875C45.9957 41.3031 46.8946 40.2724 48.006 39.5074L48.0186 39.4987L48.0321 39.4912C49.2128 38.8289 50.5597 38.4612 51.9052 38.4732C51.6241 37.8824 51.2485 37.2552 50.7597 36.5909C49.5499 36.5173 48.1064 36.7672 46.7046 37.5535C45.3852 38.4617 44.5588 39.6251 44.1355 40.7157C44.5678 41.4151 45.011 42.0002 45.4583 42.4875ZM45.106 39.6469L45.2487 40.1869L44.739 40.503L45.3356 40.5189L45.476 41.0595L45.7021 40.5293L46.2985 40.5474L45.8416 40.2038L46.0698 39.6744L45.5614 39.9922L45.106 39.6469ZM49.3475 37.0059L49.8028 37.3511L50.3113 37.0333L50.0831 37.5628L50.5399 37.9063L49.9435 37.8883L49.7175 38.4185L49.5771 37.8778L48.9805 37.862L49.4901 37.5459L49.3475 37.0059ZM46.8602 37.7839L47.4449 38.2271L48.0976 37.8191L47.8046 38.4988L48.3912 38.9399L47.6255 38.9167L47.3353 39.5974L47.155 38.9033L46.3892 38.8829L47.0434 38.4771L46.8602 37.7839Z" fill="#244065"/>
<path fill-rule="evenodd" clip-rule="evenodd" d="M51.9932 45.3809C52.9477 44.1197 53.5059 43.013 53.5493 41.4574C53.6104 39.2679 52.5526 37.4425 51.2966 35.736C49.3961 35.6204 47.9165 35.8667 46.2121 36.8228L46.541 37.3097C47.9299 36.5294 49.3664 36.2101 50.9392 36.3057C52.0476 37.8118 52.9776 39.5496 52.9241 41.4685C52.8884 42.7483 52.4364 43.8027 51.6388 44.8563L51.9932 45.3809Z" fill="#CCCCCC"/>
<path fill-rule="evenodd" clip-rule="evenodd" d="M47.929 39.9249L51.1239 44.6545C51.2393 44.6367 51.3518 44.6164 51.4612 44.5942C51.5269 44.5074 51.5921 44.417 51.6561 44.3231L48.4612 39.5935C48.3685 39.6407 48.2759 39.6902 48.1835 39.742C48.0965 39.8019 48.0117 39.8629 47.929 39.9249ZM46.5609 43.4965L45.83 42.4144C45.7784 42.5189 45.7306 42.6231 45.6865 42.7269C45.9773 43.0218 46.2694 43.2769 46.5609 43.4965ZM48.8027 44.5765L46.5607 41.2575C46.4194 41.4377 46.2906 41.6203 46.1737 41.804L47.8222 44.2443C48.1545 44.3915 48.4823 44.4998 48.8027 44.5765ZM50.4158 44.7257L47.4415 40.3227C47.2794 40.4668 47.1272 40.6147 46.9846 40.7656L49.6503 44.7119C49.9135 44.7338 50.1693 44.7368 50.4158 44.7257ZM51.6848 38.7688L52.4157 39.8508C52.3257 39.5057 52.2023 39.1456 52.0405 38.7704C51.9238 38.7668 51.8052 38.7662 51.6848 38.7688ZM50.2865 38.9375L52.5285 42.2565C52.5863 41.9443 52.6169 41.6127 52.6125 41.2615L50.9641 38.8212C50.7418 38.8487 50.5155 38.8872 50.2865 38.9375ZM49.0383 39.3285L52.0125 43.7314C52.1236 43.5198 52.2251 43.2944 52.3116 43.0547L49.6459 39.1085C49.4442 39.172 49.2414 39.2451 49.0383 39.3285Z" fill="#CC0000"/>
<path fill-rule="evenodd" clip-rule="evenodd" d="M51.9926 45.3811C50.4039 45.7036 49.1238 45.7415 47.6267 45.1452C45.5196 44.3058 44.2151 42.634 43.1044 40.837C43.7695 39.1238 44.6073 37.9273 46.2116 36.823L46.5405 37.3099C45.232 38.2092 44.3425 39.3383 43.792 40.7561C44.7722 42.3419 46.0457 43.8659 47.8923 44.6016C49.124 45.0922 50.311 45.126 51.6383 44.8566L51.9926 45.3811Z" fill="#CCCCCC"/>
<path d="M39.4229 36.4735L28.522 32.834" stroke="white" stroke-width="1.5" stroke-linecap="round"/>
<path d="M61.0348 55.809L55.6907 48.767" stroke="white" stroke-width="1.5" stroke-linecap="round"/>
<path d="M53.9946 32.0966L57.4819 27.7832" stroke="white" stroke-width="1.5" stroke-linecap="round"/>
<path d="M26.3297 32.1206C26.1576 33.7529 24.6425 34.9593 22.9142 34.7771C21.1859 34.5949 19.9557 33.099 20.1278 31.4667C20.2999 29.8344 21.815 28.628 23.5433 28.8102C25.2716 28.9924 26.5018 30.4883 26.3297 32.1206Z" fill="white" stroke="white"/>
<path d="M66.9693 61.913C66.141 63.3406 64.2892 63.8263 62.8281 62.9786C61.3669 62.1308 60.8696 60.2821 61.6979 58.8544C62.5263 57.4268 64.3781 56.9411 65.8392 57.7889C67.3004 58.6366 67.7977 60.4853 66.9693 61.913Z" fill="white" stroke="white"/>
</svg>
