<svg width="81" height="81" viewBox="0 0 81 81" fill="none" xmlns="http://www.w3.org/2000/svg">
<path d="M34.2289 44.3363L23.9326 49.4414" stroke="white" stroke-width="1.5" stroke-linecap="round"/>
<path d="M68.498 45.04L54.4316 41.584" stroke="white" stroke-width="1.5" stroke-linecap="round"/>
<path d="M41.999 30.041L39.999 16.041" stroke="white" stroke-width="1.5" stroke-linecap="round"/>
<path d="M21.8741 50.483C22.903 51.7619 22.6792 53.6857 21.3251 54.775C19.9711 55.8644 18.044 55.671 17.0152 54.3921C15.9863 53.1133 16.2101 51.1895 17.5641 50.1001C18.9182 49.0108 20.8452 49.2042 21.8741 50.483Z" fill="white" stroke="white"/>
<path d="M41.4671 9.18881C41.8327 10.5813 40.9799 12.0288 39.5376 12.4075C38.0953 12.7862 36.6415 11.9444 36.2758 10.5519C35.9102 9.15943 36.7629 7.71199 38.2052 7.33327C39.6475 6.95454 41.1014 7.79631 41.4671 9.18881Z" fill="white" stroke="white"/>
<path d="M77.2662 44.5522C77.6854 46.1487 76.7147 47.7988 75.0808 48.2278C73.4469 48.6568 71.7907 47.6965 71.3715 46.1001C70.9523 44.5036 71.923 42.8535 73.5569 42.4245C75.1908 41.9955 76.847 42.9558 77.2662 44.5522Z" fill="white" stroke="white"/>
<rect x="36" y="31" width="16" height="16" rx="8" fill="white"/>
<path fill-rule="evenodd" clip-rule="evenodd" d="M40.1059 39.1755C40.9869 38.2188 42.1633 37.5212 43.4583 37.1426L43.473 37.1382L43.4881 37.1353C44.8168 36.8759 46.2111 36.9482 47.4853 37.3807C47.4033 36.7316 47.2428 36.0183 46.9864 35.2345C45.8605 34.7859 44.4113 34.5715 42.8338 34.8795C41.2965 35.3291 40.1474 36.1754 39.404 37.0787C39.5957 37.8783 39.8336 38.5727 40.1059 39.1755ZM40.6603 36.3674L40.6268 36.9249L40.0439 37.0656L40.6054 37.2674L40.5696 37.8248L40.9503 37.392L41.5111 37.5958L41.1847 37.1265L41.5671 36.6951L40.9847 36.8378L40.6603 36.3674ZM45.5153 35.1865L45.8397 35.657L46.4221 35.5143L46.0396 35.9457L46.366 36.415L45.8052 36.2112L45.4246 36.644L45.4605 36.0866L44.8988 35.8848L45.4818 35.744L45.5153 35.1865ZM42.9095 35.147L43.326 35.751L44.0737 35.5677L43.5827 36.1216L44.0017 36.7241L43.2818 36.4624L42.7931 37.0181L42.8392 36.3024L42.1181 36.0434L42.8665 35.8627L42.9095 35.147Z" fill="#244065"/>
<path fill-rule="evenodd" clip-rule="evenodd" d="M45.4062 43.9688C46.7076 43.0698 47.5841 42.1934 48.1122 40.7295C48.8555 38.6692 48.4221 36.6044 47.7634 34.5906C45.9946 33.8859 44.5122 33.6568 42.5942 34.0313L42.7542 34.5967C44.3176 34.2903 45.7818 34.4367 47.2457 35.0198C47.827 36.7971 48.1663 38.7387 47.5149 40.5444C47.0804 41.7487 46.3212 42.6087 45.2339 43.3597L45.4062 43.9688Z" fill="#CCCCCC"/>
<path fill-rule="evenodd" clip-rule="evenodd" d="M43.2545 37.515L44.8085 43.0069C44.9237 43.0261 45.0369 43.0421 45.1478 43.0552C45.2374 42.9934 45.3275 42.9279 45.4178 42.8587L43.8637 37.3668C43.7609 37.3826 43.6574 37.4007 43.5534 37.4209C43.4521 37.4506 43.3524 37.482 43.2545 37.515ZM40.8373 40.479L40.4817 39.2225C40.4001 39.3056 40.3221 39.3896 40.2476 39.4743C40.4316 39.8454 40.6292 40.1791 40.8373 40.479ZM42.6284 42.2063L41.5379 38.3524C41.3473 38.4793 41.1678 38.6124 40.9993 38.7503L41.8011 41.584C42.0707 41.8278 42.3481 42.0332 42.6284 42.2063ZM44.1138 42.8529L42.667 37.7402C42.4679 37.8263 42.2771 37.9192 42.0944 38.0179L43.3911 42.6002C43.6342 42.7033 43.8762 42.7863 44.1138 42.8529ZM47.1835 37.5925L47.539 38.8488C47.5615 38.4929 47.557 38.1124 47.5207 37.7053C47.4111 37.6654 47.2986 37.6277 47.1835 37.5925ZM45.8026 37.3151L46.8932 41.169C47.0457 40.8906 47.1786 40.5853 47.2844 40.2503L46.4826 37.4167C46.2628 37.3733 46.0358 37.3389 45.8026 37.3151ZM44.4948 37.2957L45.9415 42.4083C46.1132 42.2422 46.2801 42.0598 46.4373 41.8593L45.1407 37.277C44.9293 37.2741 44.7138 37.2801 44.4948 37.2957Z" fill="#CC0000"/>
<path fill-rule="evenodd" clip-rule="evenodd" d="M45.4059 43.9688C43.7961 43.7778 42.5684 43.4132 41.3332 42.3783C39.5947 40.9215 38.8789 38.9255 38.3865 36.8712C39.5544 35.4522 40.7245 34.578 42.5939 34.0313L42.7539 34.5967C41.2296 35.0413 40.0315 35.8352 39.0648 37.0095C39.4995 38.8224 40.232 40.6684 41.7556 41.9451C42.7718 42.7966 43.8886 43.2002 45.2336 43.3597L45.4059 43.9688Z" fill="#CCCCCC"/>
</svg>
