<svg width="60" height="41" viewBox="0 0 60 41" fill="none" xmlns="http://www.w3.org/2000/svg">
<g clip-path="url(#clip0_405_1506)">
<path d="M20.2289 27.2953L9.93262 32.4004" stroke="white" stroke-width="1.5" stroke-linecap="round"/>
<path d="M49.1875 25.7687L40.4327 24.5431" stroke="white" stroke-width="1.5" stroke-linecap="round"/>
<path d="M27.4756 13.918L26.9072 8.40039" stroke="white" stroke-width="1.5" stroke-linecap="round"/>
<path d="M7.87507 33.4418C8.90393 34.7207 8.68016 36.6445 7.32612 37.7338C5.97207 38.8232 4.04499 38.6298 3.01613 37.3509C1.98727 36.0721 2.21103 34.1483 3.56508 33.0589C4.91913 31.9696 6.84621 32.163 7.87507 33.4418Z" fill="white" stroke="white"/>
<path d="M28.9006 3.54819C29.2663 4.94069 28.4135 6.38813 26.9712 6.76686C25.5289 7.14558 24.075 6.30381 23.7094 4.91131C23.3438 3.51881 24.1965 2.07136 25.6388 1.69264C27.0811 1.31392 28.535 2.15569 28.9006 3.54819Z" fill="white" stroke="white"/>
<path d="M57.6998 25.9134C58.119 27.5099 57.1482 29.16 55.5144 29.589C53.8805 30.018 52.2243 29.0577 51.8051 27.4613C51.3859 25.8648 52.3566 24.2147 53.9905 23.7857C55.6244 23.3567 57.2806 24.317 57.6998 25.9134Z" fill="white" stroke="white"/>
<rect x="22" y="15" width="16" height="16" rx="8" fill="white"/>
<path fill-rule="evenodd" clip-rule="evenodd" d="M26.1059 23.1755C26.9869 22.2188 28.1633 21.5212 29.4583 21.1426L29.473 21.1382L29.4881 21.1353C30.8168 20.8759 32.2111 20.9482 33.4853 21.3807C33.4033 20.7316 33.2428 20.0183 32.9864 19.2345C31.8605 18.7859 30.4113 18.5715 28.8338 18.8795C27.2965 19.3291 26.1474 20.1754 25.404 21.0787C25.5957 21.8783 25.8336 22.5727 26.1059 23.1755ZM26.6603 20.3674L26.6268 20.9249L26.0439 21.0656L26.6054 21.2674L26.5696 21.8248L26.9503 21.392L27.5111 21.5958L27.1847 21.1265L27.5671 20.6951L26.9847 20.8378L26.6603 20.3674ZM31.5153 19.1865L31.8397 19.657L32.4221 19.5143L32.0396 19.9457L32.366 20.415L31.8052 20.2112L31.4246 20.644L31.4605 20.0866L30.8988 19.8848L31.4818 19.744L31.5153 19.1865ZM28.9095 19.147L29.326 19.751L30.0737 19.5677L29.5827 20.1216L30.0017 20.7241L29.2818 20.4624L28.7931 21.0181L28.8392 20.3024L28.1181 20.0434L28.8665 19.8627L28.9095 19.147Z" fill="#244065"/>
<path fill-rule="evenodd" clip-rule="evenodd" d="M31.4062 27.9688C32.7076 27.0698 33.5841 26.1934 34.1122 24.7295C34.8555 22.6692 34.4221 20.6044 33.7634 18.5906C31.9946 17.8859 30.5122 17.6568 28.5942 18.0313L28.7542 18.5967C30.3176 18.2903 31.7818 18.4367 33.2457 19.0198C33.827 20.7971 34.1663 22.7387 33.5149 24.5444C33.0804 25.7487 32.3212 26.6087 31.2339 27.3597L31.4062 27.9688Z" fill="#CCCCCC"/>
<path fill-rule="evenodd" clip-rule="evenodd" d="M29.2545 21.515L30.8085 27.0069C30.9237 27.0261 31.0369 27.0421 31.1478 27.0552C31.2374 26.9934 31.3275 26.9279 31.4178 26.8587L29.8637 21.3668C29.7609 21.3826 29.6574 21.4007 29.5534 21.4209C29.4521 21.4506 29.3524 21.482 29.2545 21.515ZM26.8373 24.479L26.4817 23.2225C26.4001 23.3056 26.3221 23.3896 26.2476 23.4743C26.4316 23.8454 26.6292 24.1791 26.8373 24.479ZM28.6284 26.2063L27.5379 22.3524C27.3473 22.4793 27.1678 22.6124 26.9993 22.7503L27.8011 25.584C28.0707 25.8278 28.3481 26.0332 28.6284 26.2063ZM30.1138 26.8529L28.667 21.7402C28.4679 21.8263 28.2771 21.9192 28.0944 22.0179L29.3911 26.6002C29.6342 26.7033 29.8762 26.7863 30.1138 26.8529ZM33.1835 21.5925L33.539 22.8488C33.5615 22.4929 33.557 22.1124 33.5207 21.7053C33.4111 21.6654 33.2986 21.6277 33.1835 21.5925ZM31.8026 21.3151L32.8932 25.169C33.0457 24.8906 33.1786 24.5853 33.2844 24.2503L32.4826 21.4167C32.2628 21.3733 32.0358 21.3389 31.8026 21.3151ZM30.4948 21.2957L31.9415 26.4083C32.1132 26.2422 32.2801 26.0598 32.4373 25.8593L31.1407 21.277C30.9293 21.2741 30.7138 21.2801 30.4948 21.2957Z" fill="#CC0000"/>
<path fill-rule="evenodd" clip-rule="evenodd" d="M31.4059 27.9688C29.7961 27.7778 28.5684 27.4132 27.3332 26.3783C25.5947 24.9215 24.8789 22.9255 24.3865 20.8712C25.5544 19.4522 26.7245 18.578 28.5939 18.0313L28.7539 18.5967C27.2296 19.0413 26.0315 19.8352 25.0648 21.0095C25.4995 22.8224 26.232 24.6684 27.7556 25.9451C28.7718 26.7966 29.8886 27.2002 31.2336 27.3597L31.4059 27.9688Z" fill="#CCCCCC"/>
</g>
<defs>
<clipPath id="clip0_405_1506">
<rect width="58.6396" height="39.9909" fill="white" transform="translate(0.432617 0.400513)"/>
</clipPath>
</defs>
</svg>
