<svg width="44" height="44" viewBox="0 0 44 44" fill="none" xmlns="http://www.w3.org/2000/svg">
<rect width="44" height="44" rx="22" fill="white"/>
<rect x="0.5" y="0.5" width="43" height="43" rx="21.5" stroke="black" stroke-opacity="0.1"/>
<path d="M20.3333 30.3333C18.3892 30.3333 17.4835 30.3333 16.8067 29.7294C16.13 29.1254 15.9591 28.1053 15.6174 26.0651L14.6482 20.2796C14.4906 19.3386 14.4118 18.8681 14.6545 18.559C14.8972 18.25 15.3456 18.25 16.2423 18.25H27.7577C28.6544 18.25 29.1028 18.25 29.3455 18.559C29.5882 18.8681 29.5094 19.3386 29.3518 20.2796L29.1334 21.5833" stroke="#141B34" stroke-width="1.25" stroke-linecap="round"/>
<path d="M22.9515 24.035C23.9572 23.4257 24.8349 23.6712 25.3621 24.0623C25.5783 24.2227 25.6864 24.3028 25.75 24.3028C25.8136 24.3028 25.9217 24.2227 26.1379 24.0623C26.6651 23.6712 27.5428 23.4257 28.5485 24.035C29.8682 24.8345 30.1669 27.4722 27.1227 29.6976C26.5429 30.1215 26.2529 30.3334 25.75 30.3334C25.2471 30.3334 24.9571 30.1215 24.3773 29.6976C21.3331 27.4722 21.6318 24.8345 22.9515 24.035Z" stroke="#141B34" stroke-width="1.25" stroke-linecap="round"/>
<path d="M17.8335 18.2501V17.8334C17.8335 15.5322 19.699 13.6667 22.0002 13.6667C24.3013 13.6667 26.1668 15.5322 26.1668 17.8334V18.2501" stroke="#141B34" stroke-width="1.25"/>
<path d="M15.75 26.5835H19.9167" stroke="#141B34" stroke-width="1.25" stroke-linecap="round"/>
</svg>
