<svg width="44" height="44" viewBox="0 0 44 44" fill="none" xmlns="http://www.w3.org/2000/svg">
<rect width="44" height="44" rx="22" fill="white"/>
<rect x="0.5" y="0.5" width="43" height="43" rx="21.5" stroke="black" stroke-opacity="0.1"/>
<path d="M21.5833 30.3324C21.4457 30.333 21.3069 30.3333 21.1667 30.3333C19.8461 30.3333 18.6469 30.305 17.4664 30.2508C16.0634 30.1863 14.9106 29.0958 14.7232 27.704C14.6009 26.7956 14.5 25.8647 14.5 24.9167C14.5 23.9686 14.6009 23.0378 14.7232 22.1294C14.9106 20.7375 16.0634 19.6471 17.4664 19.5826C18.6469 19.5283 19.8461 19.5 21.1667 19.5C22.4872 19.5 23.6864 19.5283 24.867 19.5826C26.0803 19.6384 27.0402 20.4615 27.4167 21.5833" stroke="#0A133C" stroke-width="1.25" stroke-linecap="round"/>
<path d="M17.4165 19.5V17.4166C17.4165 15.3456 19.0954 13.6666 21.1665 13.6666C23.2376 13.6666 24.9165 15.3456 24.9165 17.4166V19.5" stroke="#0A133C" stroke-width="1.25" stroke-linecap="round" stroke-linejoin="round"/>
<path d="M25.3248 26.8062C25.0133 26.6576 24.6402 26.7897 24.4916 27.1012C24.343 27.4128 24.4751 27.7858 24.7866 27.9344L25.3248 26.8062ZM25.7965 28.1111L25.258 28.4283C25.3752 28.6273 25.5926 28.7454 25.8233 28.7355C26.054 28.7256 26.2604 28.5893 26.3601 28.381L25.7965 28.1111ZM27.5742 26.8095C27.8781 26.6459 27.9919 26.2669 27.8283 25.963C27.6646 25.659 27.2856 25.5453 26.9817 25.7089L27.5742 26.8095ZM28.8752 27C28.8752 28.4957 27.6626 29.7083 26.1668 29.7083V30.9583C28.353 30.9583 30.1252 29.1861 30.1252 27H28.8752ZM26.1668 29.7083C24.6711 29.7083 23.4585 28.4957 23.4585 27H22.2085C22.2085 29.1861 23.9807 30.9583 26.1668 30.9583V29.7083ZM23.4585 27C23.4585 25.5042 24.6711 24.2916 26.1668 24.2916V23.0416C23.9807 23.0416 22.2085 24.8138 22.2085 27H23.4585ZM26.1668 24.2916C27.6626 24.2916 28.8752 25.5042 28.8752 27H30.1252C30.1252 24.8138 28.353 23.0416 26.1668 23.0416V24.2916ZM25.0557 27.3703C24.7866 27.9344 24.7864 27.9343 24.7862 27.9342C24.7861 27.9342 24.7859 27.9341 24.7858 27.934C24.7855 27.9339 24.7853 27.9338 24.785 27.9337C24.7845 27.9334 24.7841 27.9332 24.7836 27.933C24.7827 27.9325 24.7819 27.9322 24.7812 27.9318C24.7798 27.9311 24.7787 27.9306 24.778 27.9302C24.7766 27.9295 24.7766 27.9295 24.7779 27.9302C24.7806 27.9316 24.7884 27.9359 24.8003 27.9432C24.8244 27.958 24.8645 27.9845 24.9137 28.0243C25.0123 28.1042 25.1438 28.2346 25.258 28.4283L26.3349 27.7938C26.1316 27.4487 25.8928 27.2087 25.7004 27.0529C25.6041 26.975 25.5186 26.9173 25.4533 26.8774C25.4206 26.8573 25.3929 26.8416 25.3711 26.8299C25.3602 26.824 25.3509 26.8192 25.3431 26.8152C25.3392 26.8133 25.3357 26.8115 25.3327 26.81C25.3312 26.8093 25.3298 26.8086 25.3284 26.808C25.3278 26.8077 25.3272 26.8073 25.3266 26.8071C25.3263 26.8069 25.326 26.8068 25.3257 26.8066C25.3255 26.8066 25.3253 26.8065 25.3252 26.8064C25.325 26.8063 25.3248 26.8062 25.0557 27.3703ZM25.7965 28.1111C26.3601 28.381 26.3601 28.3811 26.3601 28.3812C26.36 28.3812 26.36 28.3813 26.36 28.3814C26.36 28.3814 26.3599 28.3815 26.3599 28.3815C26.3599 28.3816 26.3599 28.3816 26.3599 28.3815C26.36 28.3814 26.3602 28.3809 26.3606 28.38C26.3614 28.3784 26.3629 28.3754 26.3649 28.3713C26.369 28.3629 26.3756 28.3498 26.3844 28.3323C26.4022 28.2974 26.4291 28.2457 26.464 28.1816C26.5342 28.0528 26.6352 27.8776 26.7583 27.6914C27.023 27.2906 27.3213 26.9457 27.5742 26.8095L26.9817 25.7089C26.4335 26.004 25.9911 26.585 25.7153 27.0024C25.5681 27.2252 25.449 27.432 25.3666 27.5831C25.3252 27.659 25.2927 27.7216 25.2701 27.766C25.2588 27.7883 25.2499 27.8061 25.2437 27.8188C25.2405 27.8251 25.2381 27.8302 25.2362 27.8339C25.2353 27.8358 25.2346 27.8374 25.234 27.8385C25.2337 27.8391 25.2335 27.8397 25.2333 27.8401C25.2332 27.8403 25.2331 27.8405 25.233 27.8407C25.2329 27.8407 25.2329 27.8408 25.2329 27.8409C25.2328 27.841 25.2328 27.8411 25.7965 28.1111Z" fill="#0A133C"/>
</svg>
