<svg width="32" height="32" viewBox="0 0 32 32" fill="none" xmlns="http://www.w3.org/2000/svg">
<rect width="32" height="32" rx="16" fill="white"/>
<path d="M22.668 13.5001C22.0053 10.1789 18.9286 7.66675 15.234 7.66675C11.0559 7.66675 7.66797 10.8794 7.66797 14.8418C7.66797 16.7456 8.44979 18.4754 9.72509 19.7591C10.0059 20.0417 10.1933 20.4279 10.1177 20.8253C9.99282 21.4751 9.70985 22.0813 9.29551 22.5865C10.3857 22.7875 11.5192 22.6065 12.4913 22.094C12.835 21.9129 13.0068 21.8223 13.128 21.804C13.2129 21.7911 13.3235 21.8031 13.5013 21.8336" stroke="#0A133C" stroke-width="1.25" stroke-linecap="round" stroke-linejoin="round"/>
<path d="M15.168 19.5515C15.168 21.9729 17.2203 23.9362 19.7513 23.9362C20.0489 23.9366 20.3457 23.9091 20.638 23.8542C20.8484 23.8147 20.9536 23.7949 21.0271 23.8062C21.1005 23.8174 21.2046 23.8727 21.4128 23.9834C22.0017 24.2966 22.6883 24.4072 23.3487 24.2844C23.0977 23.9756 22.9263 23.6052 22.8507 23.2081C22.8048 22.9652 22.9184 22.7292 23.0885 22.5565C23.861 21.772 24.3346 20.7149 24.3346 19.5515C24.3346 17.1301 22.2823 15.1667 19.7513 15.1667C17.2203 15.1667 15.168 17.1301 15.168 19.5515Z" stroke="#0A133C" stroke-width="1.25" stroke-linejoin="round"/>
</svg>
