<svg width="21" height="20" viewBox="0 0 21 20" fill="none" xmlns="http://www.w3.org/2000/svg">
<path d="M13.4842 10.0001C13.4842 11.6501 12.1509 12.9834 10.5009 12.9834C8.85091 12.9834 7.51758 11.6501 7.51758 10.0001C7.51758 8.35006 8.85091 7.01672 10.5009 7.01672C12.1509 7.01672 13.4842 8.35006 13.4842 10.0001Z" stroke="#030518" stroke-width="1.25" stroke-linecap="round" stroke-linejoin="round"/>
<path d="M10.4999 16.8916C13.4415 16.8916 16.1832 15.1583 18.0915 12.1583C18.8415 10.9833 18.8415 9.00831 18.0915 7.83331C16.1832 4.83331 13.4415 3.09998 10.4999 3.09998C7.5582 3.09998 4.81654 4.83331 2.9082 7.83331C2.1582 9.00831 2.1582 10.9833 2.9082 12.1583C4.81654 15.1583 7.5582 16.8916 10.4999 16.8916Z" stroke="#030518" stroke-width="1.25" stroke-linecap="round" stroke-linejoin="round"/>
</svg>
