<svg width="24" height="24" viewBox="0 0 24 24" fill="none" xmlns="http://www.w3.org/2000/svg">
<path d="M12 24C18.6274 24 24 18.6274 24 12C24 5.37258 18.6274 0 12 0C5.37258 0 0 5.37258 0 12C0 18.6274 5.37258 24 12 24Z" fill="#F7931A"/>
<path d="M17.3922 10.515C17.6277 8.943 16.4299 8.09775 14.7934 7.53375L15.3244 5.40375L14.0284 5.08125L13.5109 7.155C13.1704 7.0695 12.8209 6.99 12.4722 6.9105L12.9934 4.82325L11.6974 4.5L11.1664 6.62925C10.8844 6.56475 10.6069 6.50175 10.3384 6.43425L10.3399 6.4275L8.55191 5.98125L8.20691 7.36575C8.20691 7.36575 9.16916 7.58625 9.14891 7.59975C9.67391 7.731 9.76841 8.07825 9.75266 8.35425L9.14816 10.7805C9.18416 10.7895 9.23066 10.803 9.28316 10.8232L9.14591 10.7895L8.29841 14.1885C8.23391 14.3475 8.07116 14.5867 7.70366 14.496C7.71716 14.5147 6.76166 14.2612 6.76166 14.2612L6.11816 15.7447L7.80566 16.1655C8.11916 16.2442 8.42666 16.3267 8.72891 16.404L8.19266 18.558L9.48791 18.8805L10.0189 16.7505C10.3729 16.8457 10.7164 16.9342 11.0524 17.0182L10.5229 19.1392L11.8189 19.4617L12.3552 17.3122C14.5662 17.7307 16.2282 17.562 16.9279 15.5625C17.4919 13.953 16.9002 13.0237 15.7369 12.4185C16.5844 12.2235 17.2219 11.6662 17.3922 10.515ZM14.4297 14.6685C14.0299 16.2787 11.3187 15.408 10.4397 15.1897L11.1522 12.336C12.0312 12.5557 14.8489 12.99 14.4297 14.6685ZM14.8309 10.4917C14.4657 11.9565 12.2097 11.2117 11.4784 11.0295L12.1234 8.442C12.8547 8.62425 15.2119 8.964 14.8309 10.4917Z" fill="white"/>
</svg>
