<svg width="91" height="90" viewBox="0 0 91 90" fill="none" xmlns="http://www.w3.org/2000/svg">
<circle cx="45.5" cy="45" r="44.5" stroke="#19459F" stroke-dasharray="4 4"/>
<rect x="6.48828" y="5.43896" width="78.0244" height="78.0244" rx="39.0122" stroke="#19459F"/>
<g clip-path="url(#clip0_3086_4586)">
<path d="M33.0599 35.2781V35.9548C33.0599 36.3285 33.3598 36.6315 33.7297 36.6315C34.0996 36.6315 34.3995 36.3285 34.3995 35.9548V35.2781H35.0693C36.1768 35.2808 37.0768 34.3758 37.0794 33.2569C37.0809 32.5584 36.7264 31.9084 36.141 31.5367C36.3145 31.2341 36.4069 30.891 36.4089 30.5413C36.4089 29.4201 35.5093 28.5112 34.3995 28.5112V27.8345C34.3995 27.4608 34.0996 27.1578 33.7297 27.1578C33.3598 27.1578 33.0599 27.4608 33.0599 27.8345V28.5112H32.3901V27.8345C32.3901 27.4608 32.0902 27.1578 31.7203 27.1578C31.3504 27.1578 31.0505 27.4608 31.0505 27.8345V28.5112H30.3807C30.0108 28.5112 29.7109 28.8142 29.7109 29.1879C29.7109 29.5616 30.0108 29.8646 30.3807 29.8646H31.0505V33.9248H30.3807C30.0108 33.9248 29.7109 34.2277 29.7109 34.6014C29.7109 34.9751 30.0108 35.2781 30.3807 35.2781H31.0505V35.9548C31.0505 36.3285 31.3504 36.6315 31.7203 36.6315C32.0902 36.6315 32.3901 36.3285 32.3901 35.9548V35.2781H33.0599ZM35.0693 33.9248H32.3901V32.5714H35.0693C35.4392 32.5714 35.7391 32.8744 35.7391 33.2481C35.7391 33.6219 35.4392 33.9248 35.0693 33.9248ZM35.0693 30.5413C35.0693 30.915 34.7694 31.218 34.3995 31.218H32.3901V29.8646H34.3995C34.7694 29.8646 35.0693 30.1676 35.0693 30.5413Z" fill="url(#paint0_linear_3086_4586)"/>
<mask id="path-4-outside-1_3086_4586" maskUnits="userSpaceOnUse" x="24.5" y="23" width="42" height="42" fill="black">
<rect fill="white" x="24.5" y="23" width="42" height="42"/>
<path d="M65.4997 36.7844C65.4995 36.7571 65.4973 36.73 65.4931 36.703C65.4823 36.6312 65.4599 36.5616 65.4267 36.497C65.4267 36.497 65.4267 36.4897 65.4228 36.4857L64.8583 35.5037L61.6693 29.9515C61.6286 29.8832 61.5757 29.8231 61.5134 29.7741C61.4971 29.7614 61.48 29.7495 61.4623 29.7388C61.4125 29.7044 61.358 29.6775 61.3005 29.6588C61.2879 29.6541 61.2786 29.6448 61.266 29.6414L45.8912 25.5013C45.5374 25.4059 45.1736 25.6169 45.0787 25.9725V25.9727L43.112 33.3322H41.3013C41.3777 32.8919 41.417 32.4459 41.4187 31.9989C41.4179 27.5805 37.8537 23.9993 33.4579 24C32.1935 24.0003 30.9473 24.3033 29.8226 24.8839C29.336 25.1298 28.878 25.429 28.4569 25.776C27.8143 26.2964 27.2574 26.9154 26.8067 27.61C26.6314 27.8821 26.4702 28.1632 26.3238 28.4521C25.2254 30.6875 25.2254 33.3096 26.3238 35.545C26.47 35.8342 26.6312 36.1154 26.8067 36.3877C26.8106 36.3944 26.8425 36.4457 26.8471 36.4544C28.0643 38.2784 29.977 39.5163 32.1328 39.8751V63.3333C32.1328 63.7015 32.4298 64 32.7961 64H54.021C54.3873 64 54.6843 63.7015 54.6843 63.3333V59.6158L58.4922 60.6439C58.5482 60.6587 58.606 60.6663 58.6639 60.6665C58.9642 60.6665 59.2269 60.464 59.3047 60.1725L65.4864 36.9917C65.4911 36.973 65.4864 36.9544 65.4864 36.935C65.4968 36.8855 65.5013 36.835 65.4997 36.7844ZM61.3171 32.0122L63.4681 35.7563L60.5297 34.965L61.3171 32.0122ZM27.9309 35.679C27.7799 35.4454 27.6408 35.2042 27.5144 34.9563C26.5959 33.0911 26.5959 30.902 27.5144 29.0368C27.6481 28.7781 27.7949 28.5264 27.9541 28.2827C28.3248 27.7241 28.779 27.2262 29.3006 26.8067C29.6486 26.5215 30.0267 26.2756 30.4282 26.0733C33.6832 24.389 37.6803 25.676 39.3559 28.9477C40.1269 30.453 40.2987 32.1968 39.8368 33.8249C39.7587 34.1124 39.6587 34.3935 39.5376 34.6656C38.4814 37.0938 36.0959 38.6638 33.4593 38.6658C33.2544 38.6658 33.0554 38.6531 32.8564 38.6351C30.8534 38.4542 29.041 37.3671 27.9316 35.681L27.9309 35.679ZM53.3577 62.6666H33.4593V39.9992C36.6215 39.9972 39.4832 38.1153 40.7514 35.2036C40.8284 35.0283 40.898 34.8516 40.9604 34.6756L40.9643 34.6656H48.0515V39.3325C48.0515 39.7006 48.3485 39.9992 48.7148 39.9992H53.3577V62.6666ZM49.378 35.6083L52.4198 38.6658H49.378V35.6083ZM58.195 59.1825L54.6843 58.2358V56.8557L56.6151 57.3764C56.671 57.3919 56.7288 57.3998 56.7869 57.3998C57.1532 57.3999 57.4503 57.1016 57.4505 56.7334C57.4506 56.4315 57.2488 56.1671 56.9587 56.0891L54.6843 55.475V54.0956L57.3042 54.8037C57.3605 54.8187 57.4185 54.8263 57.4767 54.8263C57.843 54.8268 58.1404 54.5288 58.1409 54.1607C58.1414 53.8585 57.9396 53.5938 57.6491 53.5156L54.6843 52.7149V51.3329L57.9887 52.2216C58.3427 52.3169 58.7067 52.1057 58.8016 51.7499C58.8964 51.3941 58.6863 51.0282 58.3323 50.9329L54.6843 49.9548V48.5748L58.6779 49.6502C58.7339 49.6652 58.7916 49.6727 58.8497 49.6728C59.216 49.673 59.5131 49.3746 59.5133 49.0065C59.5134 48.7045 59.3116 48.4402 59.0215 48.3621L54.6843 47.1941V45.8154L59.361 47.0767C59.4173 47.0921 59.4753 47.0997 59.5335 47.0994C59.8998 47.0978 60.1955 46.7981 60.194 46.4299C60.1927 46.13 59.9925 45.8679 59.7046 45.7894L54.6843 44.4346V39.3325C54.6843 39.3178 54.677 39.3051 54.6756 39.2905C54.6723 39.232 54.661 39.1744 54.6418 39.1191C54.6345 39.0978 54.6292 39.0771 54.6199 39.0565C54.5878 38.9838 54.5429 38.9176 54.4873 38.8611L49.181 33.5276C49.1247 33.4718 49.0588 33.4267 48.9867 33.3942C48.9661 33.3849 48.9462 33.3796 48.925 33.3722C48.869 33.3527 48.8104 33.3411 48.7512 33.3376C48.7391 33.3352 48.727 33.3334 48.7148 33.3322H44.4857L46.1857 26.9614L60.2797 30.7568L59.0778 35.2657C58.9829 35.6212 59.1928 35.9869 59.5466 36.0823H59.5468L64.0365 37.2884L58.195 59.1825Z"/>
</mask>
<path d="M65.4997 36.7844C65.4995 36.7571 65.4973 36.73 65.4931 36.703C65.4823 36.6312 65.4599 36.5616 65.4267 36.497C65.4267 36.497 65.4267 36.4897 65.4228 36.4857L64.8583 35.5037L61.6693 29.9515C61.6286 29.8832 61.5757 29.8231 61.5134 29.7741C61.4971 29.7614 61.48 29.7495 61.4623 29.7388C61.4125 29.7044 61.358 29.6775 61.3005 29.6588C61.2879 29.6541 61.2786 29.6448 61.266 29.6414L45.8912 25.5013C45.5374 25.4059 45.1736 25.6169 45.0787 25.9725V25.9727L43.112 33.3322H41.3013C41.3777 32.8919 41.417 32.4459 41.4187 31.9989C41.4179 27.5805 37.8537 23.9993 33.4579 24C32.1935 24.0003 30.9473 24.3033 29.8226 24.8839C29.336 25.1298 28.878 25.429 28.4569 25.776C27.8143 26.2964 27.2574 26.9154 26.8067 27.61C26.6314 27.8821 26.4702 28.1632 26.3238 28.4521C25.2254 30.6875 25.2254 33.3096 26.3238 35.545C26.47 35.8342 26.6312 36.1154 26.8067 36.3877C26.8106 36.3944 26.8425 36.4457 26.8471 36.4544C28.0643 38.2784 29.977 39.5163 32.1328 39.8751V63.3333C32.1328 63.7015 32.4298 64 32.7961 64H54.021C54.3873 64 54.6843 63.7015 54.6843 63.3333V59.6158L58.4922 60.6439C58.5482 60.6587 58.606 60.6663 58.6639 60.6665C58.9642 60.6665 59.2269 60.464 59.3047 60.1725L65.4864 36.9917C65.4911 36.973 65.4864 36.9544 65.4864 36.935C65.4968 36.8855 65.5013 36.835 65.4997 36.7844ZM61.3171 32.0122L63.4681 35.7563L60.5297 34.965L61.3171 32.0122ZM27.9309 35.679C27.7799 35.4454 27.6408 35.2042 27.5144 34.9563C26.5959 33.0911 26.5959 30.902 27.5144 29.0368C27.6481 28.7781 27.7949 28.5264 27.9541 28.2827C28.3248 27.7241 28.779 27.2262 29.3006 26.8067C29.6486 26.5215 30.0267 26.2756 30.4282 26.0733C33.6832 24.389 37.6803 25.676 39.3559 28.9477C40.1269 30.453 40.2987 32.1968 39.8368 33.8249C39.7587 34.1124 39.6587 34.3935 39.5376 34.6656C38.4814 37.0938 36.0959 38.6638 33.4593 38.6658C33.2544 38.6658 33.0554 38.6531 32.8564 38.6351C30.8534 38.4542 29.041 37.3671 27.9316 35.681L27.9309 35.679ZM53.3577 62.6666H33.4593V39.9992C36.6215 39.9972 39.4832 38.1153 40.7514 35.2036C40.8284 35.0283 40.898 34.8516 40.9604 34.6756L40.9643 34.6656H48.0515V39.3325C48.0515 39.7006 48.3485 39.9992 48.7148 39.9992H53.3577V62.6666ZM49.378 35.6083L52.4198 38.6658H49.378V35.6083ZM58.195 59.1825L54.6843 58.2358V56.8557L56.6151 57.3764C56.671 57.3919 56.7288 57.3998 56.7869 57.3998C57.1532 57.3999 57.4503 57.1016 57.4505 56.7334C57.4506 56.4315 57.2488 56.1671 56.9587 56.0891L54.6843 55.475V54.0956L57.3042 54.8037C57.3605 54.8187 57.4185 54.8263 57.4767 54.8263C57.843 54.8268 58.1404 54.5288 58.1409 54.1607C58.1414 53.8585 57.9396 53.5938 57.6491 53.5156L54.6843 52.7149V51.3329L57.9887 52.2216C58.3427 52.3169 58.7067 52.1057 58.8016 51.7499C58.8964 51.3941 58.6863 51.0282 58.3323 50.9329L54.6843 49.9548V48.5748L58.6779 49.6502C58.7339 49.6652 58.7916 49.6727 58.8497 49.6728C59.216 49.673 59.5131 49.3746 59.5133 49.0065C59.5134 48.7045 59.3116 48.4402 59.0215 48.3621L54.6843 47.1941V45.8154L59.361 47.0767C59.4173 47.0921 59.4753 47.0997 59.5335 47.0994C59.8998 47.0978 60.1955 46.7981 60.194 46.4299C60.1927 46.13 59.9925 45.8679 59.7046 45.7894L54.6843 44.4346V39.3325C54.6843 39.3178 54.677 39.3051 54.6756 39.2905C54.6723 39.232 54.661 39.1744 54.6418 39.1191C54.6345 39.0978 54.6292 39.0771 54.6199 39.0565C54.5878 38.9838 54.5429 38.9176 54.4873 38.8611L49.181 33.5276C49.1247 33.4718 49.0588 33.4267 48.9867 33.3942C48.9661 33.3849 48.9462 33.3796 48.925 33.3722C48.869 33.3527 48.8104 33.3411 48.7512 33.3376C48.7391 33.3352 48.727 33.3334 48.7148 33.3322H44.4857L46.1857 26.9614L60.2797 30.7568L59.0778 35.2657C58.9829 35.6212 59.1928 35.9869 59.5466 36.0823H59.5468L64.0365 37.2884L58.195 59.1825Z" fill="url(#paint1_linear_3086_4586)"/>
<path d="M65.4997 36.7844C65.4995 36.7571 65.4973 36.73 65.4931 36.703C65.4823 36.6312 65.4599 36.5616 65.4267 36.497C65.4267 36.497 65.4267 36.4897 65.4228 36.4857L64.8583 35.5037L61.6693 29.9515C61.6286 29.8832 61.5757 29.8231 61.5134 29.7741C61.4971 29.7614 61.48 29.7495 61.4623 29.7388C61.4125 29.7044 61.358 29.6775 61.3005 29.6588C61.2879 29.6541 61.2786 29.6448 61.266 29.6414L45.8912 25.5013C45.5374 25.4059 45.1736 25.6169 45.0787 25.9725V25.9727L43.112 33.3322H41.3013C41.3777 32.8919 41.417 32.4459 41.4187 31.9989C41.4179 27.5805 37.8537 23.9993 33.4579 24C32.1935 24.0003 30.9473 24.3033 29.8226 24.8839C29.336 25.1298 28.878 25.429 28.4569 25.776C27.8143 26.2964 27.2574 26.9154 26.8067 27.61C26.6314 27.8821 26.4702 28.1632 26.3238 28.4521C25.2254 30.6875 25.2254 33.3096 26.3238 35.545C26.47 35.8342 26.6312 36.1154 26.8067 36.3877C26.8106 36.3944 26.8425 36.4457 26.8471 36.4544C28.0643 38.2784 29.977 39.5163 32.1328 39.8751V63.3333C32.1328 63.7015 32.4298 64 32.7961 64H54.021C54.3873 64 54.6843 63.7015 54.6843 63.3333V59.6158L58.4922 60.6439C58.5482 60.6587 58.606 60.6663 58.6639 60.6665C58.9642 60.6665 59.2269 60.464 59.3047 60.1725L65.4864 36.9917C65.4911 36.973 65.4864 36.9544 65.4864 36.935C65.4968 36.8855 65.5013 36.835 65.4997 36.7844ZM61.3171 32.0122L63.4681 35.7563L60.5297 34.965L61.3171 32.0122ZM27.9309 35.679C27.7799 35.4454 27.6408 35.2042 27.5144 34.9563C26.5959 33.0911 26.5959 30.902 27.5144 29.0368C27.6481 28.7781 27.7949 28.5264 27.9541 28.2827C28.3248 27.7241 28.779 27.2262 29.3006 26.8067C29.6486 26.5215 30.0267 26.2756 30.4282 26.0733C33.6832 24.389 37.6803 25.676 39.3559 28.9477C40.1269 30.453 40.2987 32.1968 39.8368 33.8249C39.7587 34.1124 39.6587 34.3935 39.5376 34.6656C38.4814 37.0938 36.0959 38.6638 33.4593 38.6658C33.2544 38.6658 33.0554 38.6531 32.8564 38.6351C30.8534 38.4542 29.041 37.3671 27.9316 35.681L27.9309 35.679ZM53.3577 62.6666H33.4593V39.9992C36.6215 39.9972 39.4832 38.1153 40.7514 35.2036C40.8284 35.0283 40.898 34.8516 40.9604 34.6756L40.9643 34.6656H48.0515V39.3325C48.0515 39.7006 48.3485 39.9992 48.7148 39.9992H53.3577V62.6666ZM49.378 35.6083L52.4198 38.6658H49.378V35.6083ZM58.195 59.1825L54.6843 58.2358V56.8557L56.6151 57.3764C56.671 57.3919 56.7288 57.3998 56.7869 57.3998C57.1532 57.3999 57.4503 57.1016 57.4505 56.7334C57.4506 56.4315 57.2488 56.1671 56.9587 56.0891L54.6843 55.475V54.0956L57.3042 54.8037C57.3605 54.8187 57.4185 54.8263 57.4767 54.8263C57.843 54.8268 58.1404 54.5288 58.1409 54.1607C58.1414 53.8585 57.9396 53.5938 57.6491 53.5156L54.6843 52.7149V51.3329L57.9887 52.2216C58.3427 52.3169 58.7067 52.1057 58.8016 51.7499C58.8964 51.3941 58.6863 51.0282 58.3323 50.9329L54.6843 49.9548V48.5748L58.6779 49.6502C58.7339 49.6652 58.7916 49.6727 58.8497 49.6728C59.216 49.673 59.5131 49.3746 59.5133 49.0065C59.5134 48.7045 59.3116 48.4402 59.0215 48.3621L54.6843 47.1941V45.8154L59.361 47.0767C59.4173 47.0921 59.4753 47.0997 59.5335 47.0994C59.8998 47.0978 60.1955 46.7981 60.194 46.4299C60.1927 46.13 59.9925 45.8679 59.7046 45.7894L54.6843 44.4346V39.3325C54.6843 39.3178 54.677 39.3051 54.6756 39.2905C54.6723 39.232 54.661 39.1744 54.6418 39.1191C54.6345 39.0978 54.6292 39.0771 54.6199 39.0565C54.5878 38.9838 54.5429 38.9176 54.4873 38.8611L49.181 33.5276C49.1247 33.4718 49.0588 33.4267 48.9867 33.3942C48.9661 33.3849 48.9462 33.3796 48.925 33.3722C48.869 33.3527 48.8104 33.3411 48.7512 33.3376C48.7391 33.3352 48.727 33.3334 48.7148 33.3322H44.4857L46.1857 26.9614L60.2797 30.7568L59.0778 35.2657C58.9829 35.6212 59.1928 35.9869 59.5466 36.0823H59.5468L64.0365 37.2884L58.195 59.1825Z" stroke="url(#paint2_linear_3086_4586)" stroke-width="0.4" mask="url(#path-4-outside-1_3086_4586)"/>
<path d="M46.7282 46.101H46.1849V44.1914C46.1849 42.2903 44.7039 40.7422 42.8686 40.7422C41.0332 40.7422 39.5522 42.2903 39.5522 44.1914V46.101H39.0089C37.8841 46.101 36.9791 47.0493 36.9791 48.2106V53.5694C36.9791 54.7307 37.8841 55.679 39.0089 55.679H46.7282C47.8531 55.679 48.758 54.7307 48.758 53.5694V48.2106C48.758 47.0493 47.8531 46.101 46.7282 46.101ZM41.0388 44.1914C41.0388 43.133 41.8618 42.2819 42.8686 42.2819C43.8754 42.2819 44.6984 43.133 44.6984 44.1914V46.101H41.0388V44.1914ZM47.2715 53.5694C47.2715 53.888 47.0245 54.1393 46.7282 54.1393H39.0089C38.7127 54.1393 38.4657 53.888 38.4657 53.5694V48.2106C38.4657 47.892 38.7127 47.6407 39.0089 47.6407H46.7282C47.0245 47.6407 47.2715 47.892 47.2715 48.2106V53.5694Z" fill="url(#paint3_linear_3086_4586)" stroke="url(#paint4_linear_3086_4586)" stroke-width="0.2"/>
<path d="M42.8681 50.3158C42.5775 50.3158 42.3418 50.6693 42.3418 51.1053V52.6842C42.3418 53.1202 42.5775 53.4737 42.8681 53.4737C43.1588 53.4737 43.3944 53.1202 43.3944 52.6842V51.1053C43.3944 50.6693 43.1588 50.3158 42.8681 50.3158Z" fill="url(#paint5_linear_3086_4586)"/>
</g>
<defs>
<linearGradient id="paint0_linear_3086_4586" x1="33.3951" y1="27.1578" x2="33.3951" y2="36.6315" gradientUnits="userSpaceOnUse">
<stop stop-color="#19459F"/>
<stop offset="0.62" stop-color="#30388F"/>
<stop offset="1" stop-color="#122058"/>
</linearGradient>
<linearGradient id="paint1_linear_3086_4586" x1="45.5" y1="24" x2="45.5" y2="64" gradientUnits="userSpaceOnUse">
<stop stop-color="#19459F"/>
<stop offset="0.62" stop-color="#30388F"/>
<stop offset="1" stop-color="#122058"/>
</linearGradient>
<linearGradient id="paint2_linear_3086_4586" x1="45.5" y1="24" x2="45.5" y2="64" gradientUnits="userSpaceOnUse">
<stop stop-color="#19459F"/>
<stop offset="0.62" stop-color="#30388F"/>
<stop offset="1" stop-color="#122058"/>
</linearGradient>
<linearGradient id="paint3_linear_3086_4586" x1="42.8686" y1="40.8422" x2="42.8686" y2="55.579" gradientUnits="userSpaceOnUse">
<stop stop-color="#19459F"/>
<stop offset="0.62" stop-color="#30388F"/>
<stop offset="1" stop-color="#122058"/>
</linearGradient>
<linearGradient id="paint4_linear_3086_4586" x1="42.8686" y1="40.8422" x2="42.8686" y2="55.579" gradientUnits="userSpaceOnUse">
<stop stop-color="#19459F"/>
<stop offset="0.62" stop-color="#30388F"/>
<stop offset="1" stop-color="#122058"/>
</linearGradient>
<linearGradient id="paint5_linear_3086_4586" x1="42.8681" y1="50.3158" x2="42.8681" y2="53.4737" gradientUnits="userSpaceOnUse">
<stop stop-color="#19459F"/>
<stop offset="1" stop-color="#091939"/>
</linearGradient>
<clipPath id="clip0_3086_4586">
<rect width="40" height="40" fill="white" transform="translate(25.5 24)"/>
</clipPath>
</defs>
</svg>
