<svg width="32" height="32" viewBox="0 0 32 32" fill="none" xmlns="http://www.w3.org/2000/svg">
<rect x="-0.000976562" width="32" height="32" rx="16" fill="white"/>
<path d="M24.3327 16C24.3327 20.6024 20.6017 24.3334 15.9993 24.3334C11.397 24.3334 7.66602 20.6024 7.66602 16C7.66602 11.3976 11.397 7.66669 15.9993 7.66669C20.6017 7.66669 24.3327 11.3976 24.3327 16Z" stroke="#0A133C" stroke-width="1.25"/>
<path d="M13.499 16H16.999M13.499 16V13.747C13.499 13.3541 13.499 13.1577 13.6211 13.0357C13.7431 12.9136 13.9395 12.9136 14.3324 12.9136H16.999C17.8275 12.9136 18.499 13.6045 18.499 14.4568C18.499 15.3091 17.8275 16 16.999 16M13.499 16V18.2531C13.499 18.646 13.499 18.8424 13.6211 18.9644C13.7431 19.0865 13.9395 19.0865 14.3324 19.0865H16.999C17.8275 19.0865 18.499 18.3955 18.499 17.5432C18.499 16.691 17.8275 16 16.999 16M14.7439 12.9136V11.8334M14.7439 20.1667V19.0865M16.7475 12.9136V11.8334M16.7475 20.1667V19.0865" stroke="#0A133C" stroke-width="1.25" stroke-linecap="round"/>
</svg>
