<svg width="32" height="32" viewBox="0 0 32 32" fill="none" xmlns="http://www.w3.org/2000/svg">
<rect width="32" height="32" rx="16" fill="white"/>
<path d="M8.08203 15.9999C8.08203 12.268 8.08203 10.402 9.2414 9.24262C10.4008 8.08325 12.2667 8.08325 15.9987 8.08325C19.7306 8.08325 21.5966 8.08325 22.756 9.24262C23.9154 10.402 23.9154 12.268 23.9154 15.9999C23.9154 19.7319 23.9154 21.5978 22.756 22.7572C21.5966 23.9166 19.7306 23.9166 15.9987 23.9166C12.2667 23.9166 10.4008 23.9166 9.2414 22.7572C8.08203 21.5978 8.08203 19.7319 8.08203 15.9999Z" stroke="#0A133C" stroke-width="1.25"/>
<path d="M13.498 15.9999H16.998M13.498 15.9999V13.7468C13.498 13.354 13.498 13.1576 13.6201 13.0355C13.7421 12.9135 13.9385 12.9135 14.3314 12.9135H16.998C17.8265 12.9135 18.498 13.6044 18.498 14.4567C18.498 15.309 17.8265 15.9999 16.998 15.9999M13.498 15.9999V18.253C13.498 18.6458 13.498 18.8423 13.6201 18.9643C13.7421 19.0863 13.9385 19.0863 14.3314 19.0863H16.998C17.8265 19.0863 18.498 18.3954 18.498 17.5431C18.498 16.6908 17.8265 15.9999 16.998 15.9999M14.7429 12.9135V11.8333M14.7429 20.1666V19.0863M16.7465 12.9135V11.8333M16.7465 20.1666V19.0863" stroke="#0A133C" stroke-width="1.25" stroke-linecap="round"/>
</svg>
