<svg width="32" height="32" viewBox="0 0 32 32" fill="none" xmlns="http://www.w3.org/2000/svg">
<rect x="-0.000976562" y="0.00012207" width="32" height="32" rx="16" fill="white"/>
<g clip-path="url(#clip0_310_11660)">
<path d="M12.4647 8.02977C13.4581 7.51509 14.5972 7.04181 15.9982 7.04181C17.3993 7.04181 18.5388 7.5151 19.5327 8.02976C19.833 8.18525 20.112 8.33906 20.3786 8.48605C21.0312 8.8458 21.6096 9.16467 22.2446 9.36718L22.2658 9.37394L22.2658 9.37395C22.6385 9.4928 22.9474 9.59132 23.1815 9.68303C23.4019 9.76934 23.6638 9.88764 23.8496 10.0941C24.0165 10.2796 24.1023 10.4879 24.1592 10.6871C24.2108 10.8679 24.2503 11.0872 24.2927 11.322L24.2927 11.3221L24.2973 11.3476C25.3292 17.0688 23.0756 22.4892 17.567 24.5984L17.5396 24.6089C16.9982 24.8162 16.6269 24.9585 16.001 24.9585C15.3751 24.9585 15.0037 24.8163 14.4623 24.6089L14.4348 24.5984C8.92612 22.4893 6.6703 17.0691 7.70191 11.3477L7.70651 11.3222C7.74883 11.0873 7.78835 10.868 7.83996 10.6872C7.89681 10.488 7.98255 10.2798 8.14945 10.0943C8.33525 9.88781 8.59713 9.76949 8.81748 9.68314C9.05159 9.5914 9.36058 9.49282 9.73333 9.37389L9.75451 9.36713C10.3891 9.16464 10.967 8.84586 11.6191 8.48616L11.6191 8.48615C11.8856 8.33914 12.1645 8.18529 12.4647 8.02977Z" stroke="#0A133C" stroke-width="1.25" stroke-linecap="round" stroke-linejoin="round"/>
<path fill-rule="evenodd" clip-rule="evenodd" d="M16.4276 11.8573L17.2847 11.8749C18.283 12.0135 18.999 12.9486 18.999 14.0002C18.999 14.6826 18.6975 15.316 18.2129 15.7144C18.6975 16.1129 18.999 16.7463 18.999 17.4287C18.999 18.4803 18.283 19.4154 17.2847 19.5539L16.4276 19.5716H13.4276C13.1909 19.5716 12.999 19.3797 12.999 19.143C12.999 18.9063 13.1909 18.7144 13.4276 18.7144V12.7144C13.1909 12.7144 12.999 12.5226 12.999 12.2859C12.999 12.0492 13.1909 11.8573 13.4276 11.8573H16.4276ZM14.2847 15.2859V12.7144H17.0276C17.6016 12.7144 18.1419 13.2465 18.1419 14.0002C18.1419 14.7538 17.6016 15.2859 17.0276 15.2859H14.2847ZM17.0276 16.143H14.2847V18.7144H17.0276C17.6016 18.7144 18.1419 18.1824 18.1419 17.4287C18.1419 16.6751 17.6016 16.143 17.0276 16.143Z" fill="#0A133C"/>
<path d="M15.1418 11.4287C15.1418 11.192 14.9499 11.0001 14.7132 11.0001C14.4765 11.0001 14.2847 11.192 14.2847 11.4287V11.8573H15.1418V11.4287Z" fill="#0A133C"/>
<path d="M17.2847 11.8749L16.4275 11.8573V11.4287C16.4275 11.192 16.6194 11.0001 16.8561 11.0001C17.0928 11.0001 17.2847 11.192 17.2847 11.4287V11.8749Z" fill="#0A133C"/>
<path d="M16.4275 19.5716L17.2847 19.5539V20.0001C17.2847 20.2368 17.0928 20.4287 16.8561 20.4287C16.6194 20.4287 16.4275 20.2368 16.4275 20.0001V19.5716Z" fill="#0A133C"/>
<path d="M15.1418 19.5716H14.2847V20.0001C14.2847 20.2368 14.4765 20.4287 14.7132 20.4287C14.9499 20.4287 15.1418 20.2368 15.1418 20.0001V19.5716Z" fill="#0A133C"/>
</g>
<defs>
<clipPath id="clip0_310_11660">
<rect width="20" height="20" fill="white" transform="translate(5.99902 6.00012)"/>
</clipPath>
</defs>
</svg>
