<svg width="44" height="44" viewBox="0 0 44 44" fill="none" xmlns="http://www.w3.org/2000/svg">
<rect width="44" height="44" rx="22" fill="white"/>
<rect x="0.5" y="0.5" width="43" height="43" rx="21.5" stroke="black" stroke-opacity="0.1"/>
<path d="M26.9999 29.0834C27.7405 28.9171 28.3031 28.6436 28.7572 28.194C29.9166 27.0462 29.9166 25.1989 29.9166 21.5043C29.9166 17.8096 29.9166 15.9623 28.7572 14.8145C27.5978 13.6667 25.7319 13.6667 21.9999 13.6667C18.268 13.6667 16.402 13.6667 15.2426 14.8145C14.0833 15.9623 14.0833 17.8096 14.0833 21.5043C14.0833 25.1989 14.0833 27.0462 15.2426 28.194C15.6967 28.6436 16.2593 28.9171 16.9999 29.0834" stroke="#0A133C" stroke-width="1.25" stroke-linecap="round"/>
<path d="M14.0833 19.0835H29.9166" stroke="#0A133C" stroke-width="1.25" stroke-linejoin="round"/>
<path d="M17.8331 16.5835H17.8406" stroke="#0A133C" stroke-width="1.66667" stroke-linecap="round" stroke-linejoin="round"/>
<path d="M21.1666 16.5835H21.1741" stroke="#0A133C" stroke-width="1.66667" stroke-linecap="round" stroke-linejoin="round"/>
<path d="M21.9993 22.8333C20.812 22.8333 20.0422 23.5904 19.1317 23.8663C18.7615 23.9786 18.5764 24.0347 18.5015 24.1137C18.4266 24.1928 18.4047 24.3084 18.3608 24.5396C17.8914 27.013 18.9175 29.2997 21.3646 30.1898C21.6275 30.2854 21.759 30.3333 22.0006 30.3333C22.2422 30.3332 22.3736 30.2854 22.6366 30.1898C25.0835 29.2997 26.1087 27.013 25.6391 24.5395C25.5952 24.3084 25.5732 24.1928 25.4983 24.1137C25.4234 24.0346 25.2383 23.9785 24.8681 23.8664C23.9573 23.5904 23.1866 22.8333 21.9993 22.8333Z" stroke="#0A133C" stroke-width="1.25" stroke-linecap="round" stroke-linejoin="round"/>
</svg>
