<svg width="16" height="16" viewBox="0 0 16 16" fill="none" xmlns="http://www.w3.org/2000/svg">
<g clip-path="url(#clip0_464_2120)">
<path d="M6 10C6 8.11438 6 7.17157 6.58579 6.58579C7.17157 6 8.11438 6 10 6L10.6667 6C12.5523 6 13.4951 6 14.0809 6.58579C14.6667 7.17157 14.6667 8.11438 14.6667 10V10.6667C14.6667 12.5523 14.6667 13.4951 14.0809 14.0809C13.4951 14.6667 12.5523 14.6667 10.6667 14.6667H10C8.11438 14.6667 7.17157 14.6667 6.58579 14.0809C6 13.4951 6 12.5523 6 10.6667L6 10Z" stroke="#19459F" stroke-linecap="round" stroke-linejoin="round"/>
<path d="M11.3329 6.00004C11.3314 4.02865 11.3015 3.00751 10.7277 2.30833C10.6169 2.1733 10.4931 2.04949 10.3581 1.93868C9.62049 1.33337 8.52466 1.33337 6.33301 1.33337C4.14135 1.33337 3.04553 1.33337 2.30796 1.93868C2.17294 2.04949 2.04913 2.1733 1.93831 2.30833C1.33301 3.04589 1.33301 4.14172 1.33301 6.33337C1.33301 8.52503 1.33301 9.62085 1.93831 10.3584C2.04912 10.4934 2.17293 10.6173 2.30796 10.7281C3.00715 11.3019 4.02828 11.3317 5.99967 11.3333" stroke="#19459F" stroke-linecap="round" stroke-linejoin="round"/>
</g>
<defs>
<clipPath id="clip0_464_2120">
<rect width="16" height="16" fill="white"/>
</clipPath>
</defs>
</svg>
