<svg width="16" height="17" viewBox="0 0 16 17" fill="none" xmlns="http://www.w3.org/2000/svg">
<path d="M14.6454 12.7199C14.6454 12.9599 14.592 13.2066 14.4787 13.4466C14.3654 13.6866 14.2187 13.9133 14.0254 14.1266C13.6987 14.4866 13.3387 14.7466 12.932 14.9133C12.532 15.0799 12.0987 15.1666 11.632 15.1666C10.952 15.1666 10.2254 15.0066 9.4587 14.6799C8.69203 14.3533 7.92536 13.9133 7.16536 13.3599C6.3987 12.7999 5.67203 12.1799 4.9787 11.4933C4.29203 10.7999 3.67203 10.0733 3.1187 9.31325C2.57203 8.55325 2.13203 7.79325 1.81203 7.03992C1.49203 6.27992 1.33203 5.55325 1.33203 4.85992C1.33203 4.40659 1.41203 3.97325 1.57203 3.57325C1.73203 3.16659 1.98536 2.79325 2.3387 2.45992C2.76536 2.03992 3.23203 1.83325 3.72536 1.83325C3.91203 1.83325 4.0987 1.87325 4.26536 1.95325C4.4387 2.03325 4.59203 2.15325 4.71203 2.32659L6.2587 4.50659C6.3787 4.67325 6.46536 4.82659 6.52536 4.97325C6.58536 5.11325 6.6187 5.25325 6.6187 5.37992C6.6187 5.53992 6.57203 5.69992 6.4787 5.85325C6.39203 6.00658 6.26536 6.16658 6.10536 6.32658L5.5987 6.85325C5.52536 6.92658 5.49203 7.01325 5.49203 7.11992C5.49203 7.17325 5.4987 7.21992 5.51203 7.27325C5.53203 7.32658 5.55203 7.36658 5.56536 7.40658C5.68536 7.62658 5.89203 7.91325 6.18536 8.25992C6.48536 8.60659 6.80536 8.95992 7.15203 9.31325C7.51203 9.66658 7.8587 9.99325 8.21203 10.2933C8.5587 10.5866 8.84536 10.7866 9.07203 10.9066C9.10536 10.9199 9.14536 10.9399 9.19203 10.9599C9.24536 10.9799 9.2987 10.9866 9.3587 10.9866C9.47203 10.9866 9.5587 10.9466 9.63203 10.8733L10.1387 10.3733C10.3054 10.2066 10.4654 10.0799 10.6187 9.99992C10.772 9.90658 10.9254 9.85992 11.092 9.85992C11.2187 9.85992 11.352 9.88658 11.4987 9.94658C11.6454 10.0066 11.7987 10.0933 11.9654 10.2066L14.172 11.7733C14.3454 11.8933 14.4654 12.0333 14.5387 12.1999C14.6054 12.3666 14.6454 12.5333 14.6454 12.7199Z" stroke="white" stroke-width="0.8" stroke-miterlimit="10"/>
</svg>
