<svg width="32" height="32" viewBox="0 0 32 32" fill="none" xmlns="http://www.w3.org/2000/svg">
<rect width="32" height="32" rx="16" fill="white"/>
<path d="M19.3359 20.5835H22.2526M19.3359 20.5835V18.5002C19.3359 18.1073 19.3359 17.9109 19.458 17.7889C19.58 17.6668 19.7764 17.6668 20.1693 17.6668H21.0026M19.3359 20.5835V22.6668C19.3359 23.0597 19.3359 23.2561 19.458 23.3781C19.58 23.5002 19.7764 23.5002 20.1693 23.5002H21.0026M22.2526 20.5835C22.943 20.5835 23.5026 19.9306 23.5026 19.1252C23.5026 18.3197 22.943 17.6668 22.2526 17.6668H21.0026M22.2526 20.5835C22.943 20.5835 23.5026 21.2364 23.5026 22.0418C23.5026 22.8472 22.943 23.5002 22.2526 23.5002H21.0026M21.0026 23.5002V24.3335M21.0026 17.6668V16.8335" stroke="#0A133C" stroke-width="1.25" stroke-linecap="round"/>
<path d="M16.8327 24.3335L14.9387 24.3335C12.2211 24.3335 10.8622 24.3335 9.91857 23.6686C9.6482 23.4781 9.40817 23.2522 9.20577 22.9978C8.49935 22.1096 8.49935 20.8307 8.49935 18.2729L8.49935 16.1517C8.49935 13.6824 8.49935 12.4477 8.89013 11.4616C9.51836 9.87635 10.847 8.6259 12.5313 8.03462C13.579 7.66683 14.8909 7.66683 17.5145 7.66683C19.0137 7.66683 19.7633 7.66683 20.362 7.877C21.3245 8.21487 22.0837 8.92941 22.4427 9.83528C22.666 10.3988 22.666 11.1043 22.666 12.5153L22.666 14.3335" stroke="#0A133C" stroke-width="1.25" stroke-linecap="round" stroke-linejoin="round"/>
<path d="M8.50065 16C8.50065 14.4659 9.7443 13.2222 11.2784 13.2222C11.8332 13.2222 12.4873 13.3194 13.0268 13.1749C13.5061 13.0465 13.8805 12.6721 14.0089 12.1928C14.1534 11.6534 14.0562 10.9993 14.0562 10.4444C14.0562 8.91032 15.2999 7.66667 16.834 7.66667" stroke="#0A133C" stroke-width="1.25" stroke-linecap="round" stroke-linejoin="round"/>
</svg>
