<svg width="24" height="24" viewBox="0 0 24 24" fill="none" xmlns="http://www.w3.org/2000/svg">
<rect width="24" height="24" rx="12" fill="black"/>
<path fill-rule="evenodd" clip-rule="evenodd" d="M5.5052 10.3101H16.8204C16.962 10.3101 17.0918 10.3809 17.198 10.5083L18.9914 12.7169C19.3218 13.1274 19.0858 13.8212 18.6138 13.8212H7.29864C7.15705 13.8212 7.02727 13.7504 6.92107 13.623L5.12764 11.4144C4.79727 11.0038 5.03324 10.3101 5.5052 10.3101ZM5.12764 7.37945L6.92107 5.17086C7.01547 5.04344 7.15705 4.97266 7.29864 4.97266H18.602C19.074 4.97266 19.31 5.66638 18.9796 6.07695L17.198 8.28553C17.1036 8.41295 16.962 8.48374 16.8204 8.48374H5.5052C5.03324 8.48374 4.79727 7.79002 5.12764 7.37945ZM18.9796 16.7376L17.1862 18.9462C17.08 19.0736 16.9502 19.1444 16.8086 19.1444H5.5052C5.03324 19.1444 4.79727 18.4507 5.12764 18.0401L6.92107 15.8315C7.01547 15.7041 7.15705 15.6333 7.29864 15.6333H18.602C19.074 15.6333 19.31 16.3271 18.9796 16.7376Z" fill="#4582F2"/>
</svg>
