<svg width="32" height="32" viewBox="0 0 32 32" fill="none" xmlns="http://www.w3.org/2000/svg">
<rect x="-0.000976562" width="32" height="32" rx="16" fill="white"/>
<path d="M17.6657 21C21.3476 21 24.3324 18.0153 24.3324 14.3334C24.3324 10.6515 21.3476 7.66669 17.6657 7.66669C13.9838 7.66669 10.999 10.6515 10.999 14.3334C10.999 18.0153 13.9838 21 17.6657 21Z" stroke="#0A133C" stroke-width="1.25" stroke-linecap="round"/>
<path d="M8.58253 15.1667C8.00161 16.0888 7.66553 17.1807 7.66553 18.351C7.66553 21.655 10.344 24.3334 13.6481 24.3334C14.8183 24.3334 15.9101 23.9974 16.8322 23.4166" stroke="#0A133C" stroke-width="1.25" stroke-linecap="round"/>
<path d="M15.999 14.3333H18.9157M15.999 14.3333V11.4166H17.6657M15.999 14.3333V17.25H17.6657M18.9157 14.3333C19.606 14.3333 20.1657 13.6804 20.1657 12.875C20.1657 12.0696 19.606 11.4166 18.9157 11.4166H17.6657M18.9157 14.3333C19.606 14.3333 20.1657 14.9862 20.1657 15.7916C20.1657 16.5971 19.606 17.25 18.9157 17.25H17.6657M17.6657 17.25V18.0833M17.6657 11.4166V10.5833" stroke="#0A133C" stroke-width="1.25" stroke-linecap="round"/>
</svg>
