<svg width="24" height="24" viewBox="0 0 24 24" fill="none" xmlns="http://www.w3.org/2000/svg">
<path d="M12 24C18.6274 24 24 18.6274 24 12C24 5.37258 18.6274 0 12 0C5.37258 0 0 5.37258 0 12C0 18.6274 5.37258 24 12 24Z" fill="#3E73C4"/>
<path d="M15 13.1203C15 11.5229 14.0595 10.9755 12.1786 10.7468C10.8355 10.5641 10.5673 10.1994 10.5673 9.56013C10.5673 8.9209 11.0155 8.51029 11.9104 8.51029C12.7164 8.51029 13.1646 8.78403 13.388 9.46913C13.4112 9.53538 13.4538 9.59274 13.5099 9.63348C13.566 9.67422 13.6329 9.69639 13.7017 9.697H14.4181C14.4595 9.69813 14.5006 9.69065 14.5391 9.675C14.5776 9.65936 14.6125 9.63588 14.6419 9.606C14.6712 9.57611 14.6943 9.54044 14.7098 9.50114C14.7252 9.46184 14.7327 9.41974 14.7318 9.37738V9.33226C14.6443 8.8366 14.3992 8.3844 14.0348 8.04592C13.6703 7.70744 13.2069 7.50162 12.7164 7.46045V6.36549C12.7164 6.18274 12.582 6.04587 12.3586 6H11.6863C11.5078 6 11.3733 6.13687 11.3285 6.36549V7.41533C9.98463 7.59732 9.13453 8.51029 9.13453 9.65188C9.13453 11.1574 10.0295 11.7508 11.9104 11.9794C13.1646 12.2073 13.5672 12.4818 13.5672 13.212C13.5672 13.9415 12.9405 14.4438 12.0897 14.4438C10.9251 14.4438 10.5225 13.9422 10.388 13.2571C10.3439 13.0751 10.2087 12.9834 10.0743 12.9834H9.31307C9.27176 12.9824 9.23067 12.9899 9.19229 13.0056C9.15391 13.0213 9.11904 13.0448 9.08978 13.0747C9.06052 13.1045 9.03749 13.1402 9.02207 13.1794C9.00665 13.2187 8.99917 13.2607 9.00007 13.303V13.3481C9.17862 14.4897 9.89573 15.3109 11.3733 15.5395V16.6353C11.3733 16.8173 11.5078 16.9549 11.7311 17H12.4034C12.582 17 12.7164 16.8631 12.7612 16.6353V15.5388C14.1051 15.3109 15 14.3521 15 13.1195V13.1203Z" fill="white"/>
<path d="M9.7395 18.4739C6.28182 17.1787 4.50862 13.1558 5.79452 9.59543C6.45929 7.65257 7.92193 6.17371 9.7395 5.47962C9.91696 5.38743 10.005 5.24876 10.005 5.01714V4.36952C10.005 4.18514 9.91696 4.04648 9.7395 4C9.69513 4 9.6064 4 9.56203 4.04571C8.56446 4.37206 7.63837 4.90189 6.83707 5.6047C6.03578 6.30752 5.37511 7.16943 4.89311 8.14082C4.41111 9.11221 4.1173 10.1739 4.0286 11.2647C3.93989 12.3555 4.05804 13.454 4.37625 14.4968C5.17339 17.0872 7.07969 19.0758 9.56203 19.9078C9.73949 20 9.91696 19.9078 9.9606 19.7227C10.005 19.677 10.005 19.6297 10.005 19.5375V18.8899C10.005 18.7512 9.87259 18.5669 9.7395 18.4739ZM14.438 4.04648C14.2605 3.95352 14.083 4.04648 14.0394 4.23086C13.995 4.27733 13.995 4.32381 13.995 4.416V5.06362C13.995 5.24876 14.1274 5.43314 14.2605 5.5261C17.7182 6.82133 19.4914 10.8442 18.2055 14.4046C17.5407 16.3474 16.0781 17.8263 14.2605 18.5204C14.083 18.6126 13.995 18.7512 13.995 18.9829V19.6305C13.995 19.8149 14.083 19.9535 14.2605 20C14.3049 20 14.3936 20 14.438 19.9543C15.4355 19.6279 16.3616 19.0981 17.1629 18.3953C17.9642 17.6925 18.6249 16.8306 19.1069 15.8592C19.5889 14.8878 19.8827 13.8261 19.9714 12.7353C20.0601 11.6445 19.942 10.546 19.6238 9.50324C18.8266 6.86705 16.8759 4.87848 14.438 4.04648Z" fill="white"/>
</svg>
