<svg width="91" height="90" viewBox="0 0 91 90" fill="none" xmlns="http://www.w3.org/2000/svg">
<circle cx="45.5" cy="45" r="44.5" stroke="#19459F" stroke-dasharray="4 4"/>
<rect x="6.48779" y="5.43896" width="78.0244" height="78.0244" rx="39.0122" stroke="#19459F"/>
<g clip-path="url(#clip0_3086_1036)">
<mask id="path-3-outside-1_3086_1036" maskUnits="userSpaceOnUse" x="24.5" y="23" width="42" height="41" fill="black">
<rect fill="white" x="24.5" y="23" width="42" height="41"/>
<path d="M53.6425 53.8704L51.223 55.1826C51.1433 55.2257 51.0558 55.2469 50.9701 55.2469C50.7952 55.2469 50.6246 55.1615 50.5302 55.0085C50.3899 54.7807 50.473 54.4895 50.7155 54.3577L53.135 53.0455C53.3784 52.9137 53.6875 52.9926 53.8278 53.2196C53.9681 53.4482 53.885 53.7394 53.6425 53.8704ZM63.0193 49.0911C61.8771 50.1641 60.4855 50.858 59.0185 51.1899L59.5277 60.6535C59.558 61.2197 59.261 61.7086 58.6894 62.0299C58.2287 62.2894 57.6243 62.4196 57.0198 62.4196C56.4154 62.4196 55.81 62.2894 55.3493 62.0299C54.7787 61.7086 54.4808 61.2197 54.5111 60.6535L54.751 56.2019L42.2471 62.9842C42.1683 63.0265 42.0809 63.0476 41.9934 63.0476C41.9059 63.0476 41.8185 63.0265 41.7397 62.9842L27.6416 55.338C27.4848 55.2526 27.3878 55.0956 27.3878 54.9255V43.8114L25.7537 42.9247C25.6351 42.8604 25.5494 42.7538 25.5156 42.6294C25.4818 42.5049 25.5035 42.3723 25.5753 42.2633L27.4632 39.3826C27.5091 39.3127 27.5714 39.2598 27.6424 39.2216L27.6416 39.2199L34.2827 35.6177L33.7614 34.7692C33.6939 34.6594 33.6757 34.5301 33.7103 34.408C33.745 34.286 33.8298 34.1819 33.9467 34.1192L34.9591 33.5701C34.8387 33.0747 34.7772 32.5662 34.7772 32.0546C34.7772 31.5429 34.8378 31.0344 34.9591 30.539L33.9467 29.9899C33.7043 29.8581 33.6211 29.5668 33.7614 29.3391L35.3739 26.7147C35.5142 26.4869 35.8242 26.4088 36.0658 26.5406L37.079 27.0897C37.8783 26.3909 38.8326 25.8727 39.8726 25.5733V24.4759C39.8726 24.2131 40.0995 24 40.3792 24H43.605C43.8847 24 44.1116 24.2131 44.1116 24.4759V25.5733C45.1516 25.8735 46.105 26.3909 46.9052 27.0897L47.9184 26.5406C48.1609 26.4088 48.4709 26.4869 48.6103 26.7147L50.2228 29.3391C50.2903 29.4489 50.3085 29.5782 50.2739 29.7003C50.2392 29.8223 50.1544 29.9264 50.0374 29.9891L49.026 30.5382C49.1464 31.0336 49.2078 31.542 49.2078 32.0537C49.2078 32.5662 49.1472 33.0739 49.026 33.5693L50.0374 34.1184C50.1544 34.1819 50.2392 34.2852 50.2739 34.4072C50.3085 34.5292 50.2903 34.6594 50.2228 34.7684L49.7014 35.6169L52.1357 36.9372C53.555 35.9952 55.2437 35.4851 57.0181 35.4851C59.2843 35.4851 61.4146 36.3141 63.0167 37.8191C66.3273 40.9275 66.3273 45.9835 63.0193 49.0911ZM34.895 34.705L36.0008 36.5044L36.9092 36.0123C37.1101 35.9025 37.3656 35.9366 37.5275 36.0944C38.3424 36.8892 39.3712 37.4473 40.5039 37.7101C40.7299 37.7629 40.8893 37.9533 40.8893 38.1721V39.1557H43.101V38.1721C43.101 37.9533 43.2603 37.7621 43.4863 37.7101C44.6199 37.4473 45.6487 36.8884 46.4627 36.0944C46.6238 35.9366 46.8792 35.9025 47.081 36.0123L47.9894 36.5044L49.0953 34.705L48.1886 34.2136C47.9868 34.1038 47.8907 33.8801 47.9548 33.6694C48.115 33.1463 48.1964 32.6029 48.1964 32.0537C48.1964 31.5046 48.115 30.9612 47.9548 30.4381C47.8907 30.2282 47.9868 30.0037 48.1886 29.8939L49.0953 29.4025L47.9885 27.603L47.0801 28.0952C46.8792 28.205 46.6238 28.1709 46.4618 28.013C45.6478 27.2191 44.6182 26.6602 43.4855 26.3974C43.2594 26.3445 43.1001 26.1542 43.1001 25.9353V24.9518H40.8884V25.9353C40.8884 26.1542 40.7291 26.3453 40.503 26.3974C39.3695 26.6602 38.3407 27.2191 37.5267 28.013C37.3647 28.1709 37.1093 28.2042 36.9084 28.0952L36 27.603L34.8941 29.4025L35.8008 29.8939C36.0026 30.0037 36.0987 30.2274 36.0346 30.4381C35.8744 30.9612 35.793 31.5046 35.793 32.0537C35.793 32.6029 35.8744 33.1463 36.0346 33.6694C36.0987 33.8793 36.0026 34.1038 35.8008 34.2136L34.895 34.705ZM34.7919 36.4426L28.9111 39.6324L41.9951 46.7286L48.5558 43.1703C48.6294 41.2252 49.4451 39.3013 51.0221 37.8199C51.1104 37.7369 51.2005 37.6572 51.2922 37.5783L49.1983 36.4426L48.6138 37.3936C48.4735 37.6214 48.1635 37.6995 47.9219 37.5677L46.9087 37.0186C46.1094 37.7174 45.1551 38.2356 44.115 38.535V39.6324C44.115 39.8952 43.8881 40.1083 43.6084 40.1083H40.3827C40.103 40.1083 39.8761 39.8952 39.8761 39.6324V38.535C38.836 38.2356 37.8826 37.7174 37.0824 37.0186L36.0692 37.5677C35.8268 37.6987 35.5167 37.6206 35.3773 37.3936L34.7919 36.4426ZM42.7 47.4461L44.0553 49.5149L49.2737 46.6847C48.9073 45.907 48.6735 45.087 48.5843 44.2539L42.7 47.4461ZM26.7141 42.3454L39.9341 49.5149L41.2902 47.4461L28.0702 40.2759L26.7141 42.3454ZM28.4036 54.6498L32.6443 56.9496V54.4025C32.6443 54.2324 32.7413 54.0754 32.898 53.99C33.0548 53.9054 33.2479 53.9054 33.4055 53.99L36.995 55.9367C37.1517 56.0222 37.2487 56.1792 37.2487 56.3492V59.4462L41.4877 61.746V48.9601L40.5385 50.4081C40.4433 50.5537 40.277 50.6351 40.1064 50.6351C40.0207 50.6351 39.9332 50.6148 39.8536 50.5708L28.4036 44.3613V54.6498ZM36.2338 56.6242L33.6584 55.2274V57.4995L36.2338 58.8963V56.6242ZM54.8133 55.0687L55.022 51.1899C53.5559 50.858 52.1643 50.1649 51.0221 49.0911C50.5137 48.6135 50.0937 48.0864 49.7413 47.5316L44.1358 50.5716C44.0561 50.6148 43.9687 50.6359 43.8829 50.6359C43.7124 50.6359 43.5461 50.5554 43.4508 50.4089L42.5017 48.9609V61.746L54.8133 55.0687ZM58.5162 60.7015L58.1542 53.9754H55.8871L55.5251 60.7015C55.5182 60.8332 55.5468 61.0293 55.8724 61.2132C56.4734 61.5516 57.568 61.5516 58.169 61.2132C58.4946 61.0293 58.5231 60.8332 58.5162 60.7015ZM58.0131 51.3607C57.6832 51.3974 57.3523 51.4218 57.0207 51.4218C56.689 51.4218 56.3582 51.3974 56.0274 51.3607L55.9382 53.0227H58.1023L58.0131 51.3607ZM62.3031 48.4175C65.2154 45.6816 65.2154 41.2293 62.3031 38.4935C59.3909 35.7576 54.6514 35.7576 51.7391 38.4935C48.8268 41.2293 48.8268 45.6816 51.7391 48.4175C54.6514 51.1533 59.39 51.1533 62.3031 48.4175ZM63.2167 43.4551C63.2167 45.0097 62.5725 46.4716 61.4017 47.5706C60.1936 48.7055 58.6071 49.2725 57.0207 49.2725C55.4333 49.2725 53.8477 48.7055 52.6397 47.5706C51.4698 46.4716 50.8246 45.0097 50.8246 43.4551C50.8246 41.9005 51.4689 40.4386 52.6397 39.3395C55.0558 37.0698 58.9864 37.0698 61.4025 39.3395C62.5725 40.4386 63.2167 41.9005 63.2167 43.4551ZM62.2027 43.4551C62.2027 42.1543 61.664 40.9324 60.6846 40.0123C58.6643 38.1144 55.3762 38.1144 53.355 40.0123C52.3764 40.9316 51.8369 42.1543 51.8369 43.4551C51.8369 44.7559 52.3756 45.9778 53.355 46.8978C55.3753 48.7958 58.6634 48.7958 60.6838 46.8978C61.664 45.9786 62.2027 44.7559 62.2027 43.4551ZM38.0688 32.0537C38.0688 30.02 39.8302 28.3653 41.9951 28.3653C44.1601 28.3653 45.9215 30.02 45.9215 32.0537C45.9215 34.0875 44.1601 35.7422 41.9951 35.7422C39.8302 35.7422 38.0688 34.0875 38.0688 32.0537ZM39.0828 32.0537C39.0828 33.562 40.3896 34.7896 41.9951 34.7896C43.6006 34.7896 44.9074 33.562 44.9074 32.0537C44.9074 30.5455 43.6006 29.3179 41.9951 29.3179C40.3896 29.3179 39.0828 30.5455 39.0828 32.0537Z"/>
</mask>
<path d="M53.6425 53.8704L51.223 55.1826C51.1433 55.2257 51.0558 55.2469 50.9701 55.2469C50.7952 55.2469 50.6246 55.1615 50.5302 55.0085C50.3899 54.7807 50.473 54.4895 50.7155 54.3577L53.135 53.0455C53.3784 52.9137 53.6875 52.9926 53.8278 53.2196C53.9681 53.4482 53.885 53.7394 53.6425 53.8704ZM63.0193 49.0911C61.8771 50.1641 60.4855 50.858 59.0185 51.1899L59.5277 60.6535C59.558 61.2197 59.261 61.7086 58.6894 62.0299C58.2287 62.2894 57.6243 62.4196 57.0198 62.4196C56.4154 62.4196 55.81 62.2894 55.3493 62.0299C54.7787 61.7086 54.4808 61.2197 54.5111 60.6535L54.751 56.2019L42.2471 62.9842C42.1683 63.0265 42.0809 63.0476 41.9934 63.0476C41.9059 63.0476 41.8185 63.0265 41.7397 62.9842L27.6416 55.338C27.4848 55.2526 27.3878 55.0956 27.3878 54.9255V43.8114L25.7537 42.9247C25.6351 42.8604 25.5494 42.7538 25.5156 42.6294C25.4818 42.5049 25.5035 42.3723 25.5753 42.2633L27.4632 39.3826C27.5091 39.3127 27.5714 39.2598 27.6424 39.2216L27.6416 39.2199L34.2827 35.6177L33.7614 34.7692C33.6939 34.6594 33.6757 34.5301 33.7103 34.408C33.745 34.286 33.8298 34.1819 33.9467 34.1192L34.9591 33.5701C34.8387 33.0747 34.7772 32.5662 34.7772 32.0546C34.7772 31.5429 34.8378 31.0344 34.9591 30.539L33.9467 29.9899C33.7043 29.8581 33.6211 29.5668 33.7614 29.3391L35.3739 26.7147C35.5142 26.4869 35.8242 26.4088 36.0658 26.5406L37.079 27.0897C37.8783 26.3909 38.8326 25.8727 39.8726 25.5733V24.4759C39.8726 24.2131 40.0995 24 40.3792 24H43.605C43.8847 24 44.1116 24.2131 44.1116 24.4759V25.5733C45.1516 25.8735 46.105 26.3909 46.9052 27.0897L47.9184 26.5406C48.1609 26.4088 48.4709 26.4869 48.6103 26.7147L50.2228 29.3391C50.2903 29.4489 50.3085 29.5782 50.2739 29.7003C50.2392 29.8223 50.1544 29.9264 50.0374 29.9891L49.026 30.5382C49.1464 31.0336 49.2078 31.542 49.2078 32.0537C49.2078 32.5662 49.1472 33.0739 49.026 33.5693L50.0374 34.1184C50.1544 34.1819 50.2392 34.2852 50.2739 34.4072C50.3085 34.5292 50.2903 34.6594 50.2228 34.7684L49.7014 35.6169L52.1357 36.9372C53.555 35.9952 55.2437 35.4851 57.0181 35.4851C59.2843 35.4851 61.4146 36.3141 63.0167 37.8191C66.3273 40.9275 66.3273 45.9835 63.0193 49.0911ZM34.895 34.705L36.0008 36.5044L36.9092 36.0123C37.1101 35.9025 37.3656 35.9366 37.5275 36.0944C38.3424 36.8892 39.3712 37.4473 40.5039 37.7101C40.7299 37.7629 40.8893 37.9533 40.8893 38.1721V39.1557H43.101V38.1721C43.101 37.9533 43.2603 37.7621 43.4863 37.7101C44.6199 37.4473 45.6487 36.8884 46.4627 36.0944C46.6238 35.9366 46.8792 35.9025 47.081 36.0123L47.9894 36.5044L49.0953 34.705L48.1886 34.2136C47.9868 34.1038 47.8907 33.8801 47.9548 33.6694C48.115 33.1463 48.1964 32.6029 48.1964 32.0537C48.1964 31.5046 48.115 30.9612 47.9548 30.4381C47.8907 30.2282 47.9868 30.0037 48.1886 29.8939L49.0953 29.4025L47.9885 27.603L47.0801 28.0952C46.8792 28.205 46.6238 28.1709 46.4618 28.013C45.6478 27.2191 44.6182 26.6602 43.4855 26.3974C43.2594 26.3445 43.1001 26.1542 43.1001 25.9353V24.9518H40.8884V25.9353C40.8884 26.1542 40.7291 26.3453 40.503 26.3974C39.3695 26.6602 38.3407 27.2191 37.5267 28.013C37.3647 28.1709 37.1093 28.2042 36.9084 28.0952L36 27.603L34.8941 29.4025L35.8008 29.8939C36.0026 30.0037 36.0987 30.2274 36.0346 30.4381C35.8744 30.9612 35.793 31.5046 35.793 32.0537C35.793 32.6029 35.8744 33.1463 36.0346 33.6694C36.0987 33.8793 36.0026 34.1038 35.8008 34.2136L34.895 34.705ZM34.7919 36.4426L28.9111 39.6324L41.9951 46.7286L48.5558 43.1703C48.6294 41.2252 49.4451 39.3013 51.0221 37.8199C51.1104 37.7369 51.2005 37.6572 51.2922 37.5783L49.1983 36.4426L48.6138 37.3936C48.4735 37.6214 48.1635 37.6995 47.9219 37.5677L46.9087 37.0186C46.1094 37.7174 45.1551 38.2356 44.115 38.535V39.6324C44.115 39.8952 43.8881 40.1083 43.6084 40.1083H40.3827C40.103 40.1083 39.8761 39.8952 39.8761 39.6324V38.535C38.836 38.2356 37.8826 37.7174 37.0824 37.0186L36.0692 37.5677C35.8268 37.6987 35.5167 37.6206 35.3773 37.3936L34.7919 36.4426ZM42.7 47.4461L44.0553 49.5149L49.2737 46.6847C48.9073 45.907 48.6735 45.087 48.5843 44.2539L42.7 47.4461ZM26.7141 42.3454L39.9341 49.5149L41.2902 47.4461L28.0702 40.2759L26.7141 42.3454ZM28.4036 54.6498L32.6443 56.9496V54.4025C32.6443 54.2324 32.7413 54.0754 32.898 53.99C33.0548 53.9054 33.2479 53.9054 33.4055 53.99L36.995 55.9367C37.1517 56.0222 37.2487 56.1792 37.2487 56.3492V59.4462L41.4877 61.746V48.9601L40.5385 50.4081C40.4433 50.5537 40.277 50.6351 40.1064 50.6351C40.0207 50.6351 39.9332 50.6148 39.8536 50.5708L28.4036 44.3613V54.6498ZM36.2338 56.6242L33.6584 55.2274V57.4995L36.2338 58.8963V56.6242ZM54.8133 55.0687L55.022 51.1899C53.5559 50.858 52.1643 50.1649 51.0221 49.0911C50.5137 48.6135 50.0937 48.0864 49.7413 47.5316L44.1358 50.5716C44.0561 50.6148 43.9687 50.6359 43.8829 50.6359C43.7124 50.6359 43.5461 50.5554 43.4508 50.4089L42.5017 48.9609V61.746L54.8133 55.0687ZM58.5162 60.7015L58.1542 53.9754H55.8871L55.5251 60.7015C55.5182 60.8332 55.5468 61.0293 55.8724 61.2132C56.4734 61.5516 57.568 61.5516 58.169 61.2132C58.4946 61.0293 58.5231 60.8332 58.5162 60.7015ZM58.0131 51.3607C57.6832 51.3974 57.3523 51.4218 57.0207 51.4218C56.689 51.4218 56.3582 51.3974 56.0274 51.3607L55.9382 53.0227H58.1023L58.0131 51.3607ZM62.3031 48.4175C65.2154 45.6816 65.2154 41.2293 62.3031 38.4935C59.3909 35.7576 54.6514 35.7576 51.7391 38.4935C48.8268 41.2293 48.8268 45.6816 51.7391 48.4175C54.6514 51.1533 59.39 51.1533 62.3031 48.4175ZM63.2167 43.4551C63.2167 45.0097 62.5725 46.4716 61.4017 47.5706C60.1936 48.7055 58.6071 49.2725 57.0207 49.2725C55.4333 49.2725 53.8477 48.7055 52.6397 47.5706C51.4698 46.4716 50.8246 45.0097 50.8246 43.4551C50.8246 41.9005 51.4689 40.4386 52.6397 39.3395C55.0558 37.0698 58.9864 37.0698 61.4025 39.3395C62.5725 40.4386 63.2167 41.9005 63.2167 43.4551ZM62.2027 43.4551C62.2027 42.1543 61.664 40.9324 60.6846 40.0123C58.6643 38.1144 55.3762 38.1144 53.355 40.0123C52.3764 40.9316 51.8369 42.1543 51.8369 43.4551C51.8369 44.7559 52.3756 45.9778 53.355 46.8978C55.3753 48.7958 58.6634 48.7958 60.6838 46.8978C61.664 45.9786 62.2027 44.7559 62.2027 43.4551ZM38.0688 32.0537C38.0688 30.02 39.8302 28.3653 41.9951 28.3653C44.1601 28.3653 45.9215 30.02 45.9215 32.0537C45.9215 34.0875 44.1601 35.7422 41.9951 35.7422C39.8302 35.7422 38.0688 34.0875 38.0688 32.0537ZM39.0828 32.0537C39.0828 33.562 40.3896 34.7896 41.9951 34.7896C43.6006 34.7896 44.9074 33.562 44.9074 32.0537C44.9074 30.5455 43.6006 29.3179 41.9951 29.3179C40.3896 29.3179 39.0828 30.5455 39.0828 32.0537Z" fill="url(#paint0_linear_3086_1036)"/>
<path d="M53.6425 53.8704L51.223 55.1826C51.1433 55.2257 51.0558 55.2469 50.9701 55.2469C50.7952 55.2469 50.6246 55.1615 50.5302 55.0085C50.3899 54.7807 50.473 54.4895 50.7155 54.3577L53.135 53.0455C53.3784 52.9137 53.6875 52.9926 53.8278 53.2196C53.9681 53.4482 53.885 53.7394 53.6425 53.8704ZM63.0193 49.0911C61.8771 50.1641 60.4855 50.858 59.0185 51.1899L59.5277 60.6535C59.558 61.2197 59.261 61.7086 58.6894 62.0299C58.2287 62.2894 57.6243 62.4196 57.0198 62.4196C56.4154 62.4196 55.81 62.2894 55.3493 62.0299C54.7787 61.7086 54.4808 61.2197 54.5111 60.6535L54.751 56.2019L42.2471 62.9842C42.1683 63.0265 42.0809 63.0476 41.9934 63.0476C41.9059 63.0476 41.8185 63.0265 41.7397 62.9842L27.6416 55.338C27.4848 55.2526 27.3878 55.0956 27.3878 54.9255V43.8114L25.7537 42.9247C25.6351 42.8604 25.5494 42.7538 25.5156 42.6294C25.4818 42.5049 25.5035 42.3723 25.5753 42.2633L27.4632 39.3826C27.5091 39.3127 27.5714 39.2598 27.6424 39.2216L27.6416 39.2199L34.2827 35.6177L33.7614 34.7692C33.6939 34.6594 33.6757 34.5301 33.7103 34.408C33.745 34.286 33.8298 34.1819 33.9467 34.1192L34.9591 33.5701C34.8387 33.0747 34.7772 32.5662 34.7772 32.0546C34.7772 31.5429 34.8378 31.0344 34.9591 30.539L33.9467 29.9899C33.7043 29.8581 33.6211 29.5668 33.7614 29.3391L35.3739 26.7147C35.5142 26.4869 35.8242 26.4088 36.0658 26.5406L37.079 27.0897C37.8783 26.3909 38.8326 25.8727 39.8726 25.5733V24.4759C39.8726 24.2131 40.0995 24 40.3792 24H43.605C43.8847 24 44.1116 24.2131 44.1116 24.4759V25.5733C45.1516 25.8735 46.105 26.3909 46.9052 27.0897L47.9184 26.5406C48.1609 26.4088 48.4709 26.4869 48.6103 26.7147L50.2228 29.3391C50.2903 29.4489 50.3085 29.5782 50.2739 29.7003C50.2392 29.8223 50.1544 29.9264 50.0374 29.9891L49.026 30.5382C49.1464 31.0336 49.2078 31.542 49.2078 32.0537C49.2078 32.5662 49.1472 33.0739 49.026 33.5693L50.0374 34.1184C50.1544 34.1819 50.2392 34.2852 50.2739 34.4072C50.3085 34.5292 50.2903 34.6594 50.2228 34.7684L49.7014 35.6169L52.1357 36.9372C53.555 35.9952 55.2437 35.4851 57.0181 35.4851C59.2843 35.4851 61.4146 36.3141 63.0167 37.8191C66.3273 40.9275 66.3273 45.9835 63.0193 49.0911ZM34.895 34.705L36.0008 36.5044L36.9092 36.0123C37.1101 35.9025 37.3656 35.9366 37.5275 36.0944C38.3424 36.8892 39.3712 37.4473 40.5039 37.7101C40.7299 37.7629 40.8893 37.9533 40.8893 38.1721V39.1557H43.101V38.1721C43.101 37.9533 43.2603 37.7621 43.4863 37.7101C44.6199 37.4473 45.6487 36.8884 46.4627 36.0944C46.6238 35.9366 46.8792 35.9025 47.081 36.0123L47.9894 36.5044L49.0953 34.705L48.1886 34.2136C47.9868 34.1038 47.8907 33.8801 47.9548 33.6694C48.115 33.1463 48.1964 32.6029 48.1964 32.0537C48.1964 31.5046 48.115 30.9612 47.9548 30.4381C47.8907 30.2282 47.9868 30.0037 48.1886 29.8939L49.0953 29.4025L47.9885 27.603L47.0801 28.0952C46.8792 28.205 46.6238 28.1709 46.4618 28.013C45.6478 27.2191 44.6182 26.6602 43.4855 26.3974C43.2594 26.3445 43.1001 26.1542 43.1001 25.9353V24.9518H40.8884V25.9353C40.8884 26.1542 40.7291 26.3453 40.503 26.3974C39.3695 26.6602 38.3407 27.2191 37.5267 28.013C37.3647 28.1709 37.1093 28.2042 36.9084 28.0952L36 27.603L34.8941 29.4025L35.8008 29.8939C36.0026 30.0037 36.0987 30.2274 36.0346 30.4381C35.8744 30.9612 35.793 31.5046 35.793 32.0537C35.793 32.6029 35.8744 33.1463 36.0346 33.6694C36.0987 33.8793 36.0026 34.1038 35.8008 34.2136L34.895 34.705ZM34.7919 36.4426L28.9111 39.6324L41.9951 46.7286L48.5558 43.1703C48.6294 41.2252 49.4451 39.3013 51.0221 37.8199C51.1104 37.7369 51.2005 37.6572 51.2922 37.5783L49.1983 36.4426L48.6138 37.3936C48.4735 37.6214 48.1635 37.6995 47.9219 37.5677L46.9087 37.0186C46.1094 37.7174 45.1551 38.2356 44.115 38.535V39.6324C44.115 39.8952 43.8881 40.1083 43.6084 40.1083H40.3827C40.103 40.1083 39.8761 39.8952 39.8761 39.6324V38.535C38.836 38.2356 37.8826 37.7174 37.0824 37.0186L36.0692 37.5677C35.8268 37.6987 35.5167 37.6206 35.3773 37.3936L34.7919 36.4426ZM42.7 47.4461L44.0553 49.5149L49.2737 46.6847C48.9073 45.907 48.6735 45.087 48.5843 44.2539L42.7 47.4461ZM26.7141 42.3454L39.9341 49.5149L41.2902 47.4461L28.0702 40.2759L26.7141 42.3454ZM28.4036 54.6498L32.6443 56.9496V54.4025C32.6443 54.2324 32.7413 54.0754 32.898 53.99C33.0548 53.9054 33.2479 53.9054 33.4055 53.99L36.995 55.9367C37.1517 56.0222 37.2487 56.1792 37.2487 56.3492V59.4462L41.4877 61.746V48.9601L40.5385 50.4081C40.4433 50.5537 40.277 50.6351 40.1064 50.6351C40.0207 50.6351 39.9332 50.6148 39.8536 50.5708L28.4036 44.3613V54.6498ZM36.2338 56.6242L33.6584 55.2274V57.4995L36.2338 58.8963V56.6242ZM54.8133 55.0687L55.022 51.1899C53.5559 50.858 52.1643 50.1649 51.0221 49.0911C50.5137 48.6135 50.0937 48.0864 49.7413 47.5316L44.1358 50.5716C44.0561 50.6148 43.9687 50.6359 43.8829 50.6359C43.7124 50.6359 43.5461 50.5554 43.4508 50.4089L42.5017 48.9609V61.746L54.8133 55.0687ZM58.5162 60.7015L58.1542 53.9754H55.8871L55.5251 60.7015C55.5182 60.8332 55.5468 61.0293 55.8724 61.2132C56.4734 61.5516 57.568 61.5516 58.169 61.2132C58.4946 61.0293 58.5231 60.8332 58.5162 60.7015ZM58.0131 51.3607C57.6832 51.3974 57.3523 51.4218 57.0207 51.4218C56.689 51.4218 56.3582 51.3974 56.0274 51.3607L55.9382 53.0227H58.1023L58.0131 51.3607ZM62.3031 48.4175C65.2154 45.6816 65.2154 41.2293 62.3031 38.4935C59.3909 35.7576 54.6514 35.7576 51.7391 38.4935C48.8268 41.2293 48.8268 45.6816 51.7391 48.4175C54.6514 51.1533 59.39 51.1533 62.3031 48.4175ZM63.2167 43.4551C63.2167 45.0097 62.5725 46.4716 61.4017 47.5706C60.1936 48.7055 58.6071 49.2725 57.0207 49.2725C55.4333 49.2725 53.8477 48.7055 52.6397 47.5706C51.4698 46.4716 50.8246 45.0097 50.8246 43.4551C50.8246 41.9005 51.4689 40.4386 52.6397 39.3395C55.0558 37.0698 58.9864 37.0698 61.4025 39.3395C62.5725 40.4386 63.2167 41.9005 63.2167 43.4551ZM62.2027 43.4551C62.2027 42.1543 61.664 40.9324 60.6846 40.0123C58.6643 38.1144 55.3762 38.1144 53.355 40.0123C52.3764 40.9316 51.8369 42.1543 51.8369 43.4551C51.8369 44.7559 52.3756 45.9778 53.355 46.8978C55.3753 48.7958 58.6634 48.7958 60.6838 46.8978C61.664 45.9786 62.2027 44.7559 62.2027 43.4551ZM38.0688 32.0537C38.0688 30.02 39.8302 28.3653 41.9951 28.3653C44.1601 28.3653 45.9215 30.02 45.9215 32.0537C45.9215 34.0875 44.1601 35.7422 41.9951 35.7422C39.8302 35.7422 38.0688 34.0875 38.0688 32.0537ZM39.0828 32.0537C39.0828 33.562 40.3896 34.7896 41.9951 34.7896C43.6006 34.7896 44.9074 33.562 44.9074 32.0537C44.9074 30.5455 43.6006 29.3179 41.9951 29.3179C40.3896 29.3179 39.0828 30.5455 39.0828 32.0537Z" stroke="url(#paint1_linear_3086_1036)" stroke-width="0.4" mask="url(#path-3-outside-1_3086_1036)"/>
</g>
<defs>
<linearGradient id="paint0_linear_3086_1036" x1="45.5" y1="24" x2="45.5" y2="63.0476" gradientUnits="userSpaceOnUse">
<stop stop-color="#19459F"/>
<stop offset="0.62" stop-color="#30388F"/>
<stop offset="1" stop-color="#122058"/>
</linearGradient>
<linearGradient id="paint1_linear_3086_1036" x1="45.5" y1="24" x2="45.5" y2="63.0476" gradientUnits="userSpaceOnUse">
<stop stop-color="#19459F"/>
<stop offset="0.62" stop-color="#30388F"/>
<stop offset="1" stop-color="#122058"/>
</linearGradient>
<clipPath id="clip0_3086_1036">
<rect width="40" height="40" fill="white" transform="translate(25.5 24)"/>
</clipPath>
</defs>
</svg>
