<svg width="91" height="90" viewBox="0 0 91 90" fill="none" xmlns="http://www.w3.org/2000/svg">
<circle cx="45.5" cy="45" r="44.5" stroke="#19459F" stroke-dasharray="4 4"/>
<rect x="6.48779" y="5.43896" width="78.0244" height="78.0244" rx="39.0122" stroke="#19459F"/>
<g clip-path="url(#clip0_2163_1795)">
<path d="M59.8657 40.5474V28.3986C59.8647 27.4511 59.4872 26.5427 58.8162 25.8727C58.1452 25.2027 57.2353 24.8258 56.2863 24.8248H31.904C30.955 24.8258 30.0452 25.2027 29.3742 25.8727C28.7031 26.5427 28.3257 27.4511 28.3247 28.3986V55.1573C28.3257 56.1048 28.7031 57.0133 29.3742 57.6833C30.0452 58.3533 30.955 58.7301 31.904 58.7311H56.4591C57.3508 59.8496 58.0932 61.0791 58.6675 62.3886C58.7162 62.4999 58.7963 62.5946 58.8981 62.6611C58.9999 62.7276 59.1188 62.763 59.2405 62.763C59.3621 62.763 59.481 62.7276 59.5828 62.6611C59.6846 62.5946 59.7647 62.4999 59.8134 62.3886C60.9255 59.8471 62.3767 58.2472 63.6573 56.8358C65.498 54.8064 67.0876 53.0542 67.0876 49.4681C67.0876 44.7735 63.9014 40.912 59.8657 40.5474ZM58.6152 28.3986V33.4589H49.0169V26.0739H56.2867C56.904 26.0746 57.4958 26.3197 57.9324 26.7556C58.3689 27.1914 58.6145 27.7823 58.6152 28.3986ZM40.4239 26.0733H47.7665V38.6036L44.4694 36.144C44.3613 36.0634 44.2301 36.0198 44.0952 36.0198C43.9603 36.0198 43.829 36.0634 43.721 36.144L40.4239 38.6035V26.0733ZM31.9038 26.0733H39.1735V33.4589H29.5751V28.3986C29.5759 27.7822 29.8215 27.1913 30.2581 26.7555C30.6947 26.3197 31.2864 26.0739 31.9038 26.0733ZM31.9038 57.4817C31.2863 57.4811 30.6943 57.2359 30.2577 56.7999C29.8211 56.364 29.5755 55.7729 29.5749 55.1564V34.7074H39.1735V39.8496C39.1735 39.9654 39.2057 40.0789 39.2667 40.1775C39.3276 40.2761 39.4148 40.3558 39.5186 40.4076C39.6223 40.4595 39.7384 40.4816 39.8539 40.4714C39.9695 40.4611 40.0799 40.419 40.1729 40.3497L44.0952 37.4235L48.0175 40.3497C48.1104 40.419 48.2209 40.4611 48.3364 40.4714C48.452 40.4816 48.5681 40.4595 48.6718 40.4076C48.7755 40.3558 48.8627 40.2761 48.9237 40.1775C48.9846 40.0789 49.0169 39.9654 49.0169 39.8496V34.7074H58.6152V40.5474C54.5795 40.912 51.3934 44.7735 51.3934 49.4681C51.3934 53.0541 52.983 54.8063 54.8235 56.8353C55.0146 57.046 55.2095 57.2608 55.4064 57.4823L31.9038 57.4817ZM62.7306 55.9966C61.5928 57.2508 60.3264 58.6468 59.2405 60.6993C58.1542 58.6471 56.8881 57.2508 55.7503 55.9965C54.0147 54.0833 52.6438 52.5721 52.6438 49.4674C52.6438 45.2213 55.6031 41.7669 59.2405 41.7669C62.8778 41.7669 65.8372 45.222 65.8372 49.4681C65.8372 52.5728 64.4663 54.0833 62.7306 55.9966ZM59.2405 44.8619C58.5487 44.8619 57.8725 45.0668 57.2974 45.4505C56.7222 45.8342 56.2739 46.3796 56.0092 47.0177C55.7445 47.6558 55.6753 48.358 55.8103 49.0354C55.9452 49.7128 56.2783 50.335 56.7675 50.8234C57.2566 51.3117 57.8798 51.6443 58.5583 51.779C59.2367 51.9137 59.94 51.8446 60.579 51.5803C61.2181 51.3159 61.7643 50.8683 62.1486 50.2941C62.5329 49.7198 62.738 49.0446 62.738 48.3539C62.737 47.4281 62.3682 46.5404 61.7125 45.8858C61.0568 45.2311 60.1677 44.8629 59.2405 44.8619ZM59.2405 50.5976C58.796 50.5976 58.3616 50.466 57.9921 50.2195C57.6226 49.9729 57.3346 49.6225 57.1645 49.2126C56.9944 48.8026 56.9499 48.3515 57.0366 47.9163C57.1233 47.4811 57.3374 47.0813 57.6516 46.7675C57.9659 46.4538 58.3662 46.2401 58.8021 46.1535C59.238 46.067 59.6898 46.1114 60.1004 46.2812C60.511 46.451 60.862 46.7385 61.1089 47.1075C61.3558 47.4764 61.4876 47.9102 61.4876 48.3539C61.487 48.9488 61.25 49.5191 60.8287 49.9398C60.4074 50.3604 59.8362 50.597 59.2405 50.5976Z" fill="url(#paint0_linear_2163_1795)"/>
<path fill-rule="evenodd" clip-rule="evenodd" d="M59.8655 28.3987V40.5474C63.9012 40.912 67.0874 44.7736 67.0874 49.4681C67.0874 53.054 65.498 54.8062 63.6575 56.8354C62.3769 58.2469 60.9254 59.8472 59.8132 62.3887C59.7645 62.5 59.6844 62.5946 59.5826 62.6611C59.4808 62.7276 59.3619 62.763 59.2403 62.763C59.1186 62.763 58.9997 62.7276 58.8979 62.6611C58.7961 62.5946 58.716 62.5 58.6673 62.3887C58.093 61.0791 57.3506 59.8496 56.4589 58.7312H31.9038C30.9548 58.7302 30.045 58.3533 29.374 57.6833C28.7029 57.0133 28.3255 56.1049 28.3245 55.1574V28.3987C28.3255 27.4511 28.7029 26.5427 29.374 25.8727C30.045 25.2027 30.9548 24.8259 31.9038 24.8249H56.2862C57.2351 24.8259 58.145 25.2027 58.816 25.8727C59.4871 26.5427 59.8645 27.4511 59.8655 28.3987ZM56.3622 58.9312H31.9038C30.902 58.9301 29.9412 58.5323 29.2327 57.8249C28.5241 57.1174 28.1256 56.1582 28.1245 55.1576L28.1245 28.3987C28.1256 27.3981 28.5241 26.4386 29.2327 25.7312C29.9412 25.0238 30.9018 24.6259 31.9036 24.6249L56.2862 24.6249C57.288 24.6259 58.2488 25.0238 58.9573 25.7312C59.6659 26.4386 60.0644 27.3979 60.0655 28.3985V40.367C64.1364 40.8402 67.2874 44.7612 67.2874 49.4681C67.2874 51.2941 66.8819 52.6619 66.2377 53.8322C65.599 54.9926 64.7282 55.9526 63.8138 56.9608L63.8053 56.9702C62.5257 58.3805 61.0944 59.9597 59.9964 62.4688C59.9321 62.6158 59.8263 62.7408 59.692 62.8285C59.5577 62.9163 59.4007 62.963 59.2403 62.963C59.0798 62.963 58.9228 62.9163 58.7885 62.8285C58.6543 62.7408 58.5485 62.6159 58.4842 62.469C57.9297 61.2047 57.2166 60.0159 56.3622 58.9312ZM43.7208 36.144L43.6012 35.9837C43.7438 35.8773 43.917 35.8199 44.095 35.8199C44.2729 35.8199 44.4461 35.8773 44.5888 35.9837L44.4692 36.144C44.3611 36.0634 44.2299 36.0199 44.095 36.0199C43.9601 36.0199 43.8289 36.0634 43.7208 36.144ZM43.7208 36.144L43.6012 35.9837L40.6237 38.2048V26.2734H47.5663V38.2049L44.5888 35.9837L44.4692 36.144L47.7663 38.6036V26.0734H40.4237V38.6036L43.7208 36.144ZM40.1727 40.3497C40.0797 40.419 39.9693 40.4612 39.8538 40.4714C39.7382 40.4817 39.6221 40.4596 39.5184 40.4077C39.4146 40.3558 39.3274 40.2761 39.2665 40.1776C39.2056 40.079 39.1733 39.9654 39.1733 39.8496V34.7074H29.5747V55.1564C29.5753 55.773 29.8209 56.364 30.2575 56.8C30.6941 57.2359 31.2861 57.4811 31.9036 57.4817L55.4062 57.4824C55.3465 57.4151 55.2868 57.3485 55.2275 57.2824C55.0951 57.135 54.9638 56.9903 54.8343 56.8475L54.8233 56.8353C52.9828 54.8064 51.3932 53.0541 51.3932 49.4681C51.3932 44.7736 54.5793 40.912 58.6151 40.5474V34.7074H49.0167V39.8496C49.0167 39.9654 48.9844 40.079 48.9235 40.1776C48.8625 40.2761 48.7753 40.3558 48.6716 40.4077C48.5679 40.4596 48.4518 40.4817 48.3362 40.4714C48.2207 40.4612 48.1102 40.419 48.0173 40.3497L44.095 37.4236L40.1727 40.3497ZM44.095 37.6731L47.8977 40.51C48.0204 40.6015 48.1661 40.6571 48.3186 40.6706C48.471 40.6841 48.6243 40.655 48.7611 40.5866C48.898 40.5181 49.0131 40.4129 49.0936 40.2827C49.1741 40.1526 49.2167 40.0026 49.2167 39.8496V34.9074H58.4151V40.367C54.3441 40.8402 51.1932 44.7612 51.1932 49.4681C51.1932 51.294 51.5987 52.6619 52.2428 53.8321C52.8816 54.9925 53.7525 55.9526 54.667 56.9606L54.6855 56.9811C54.7758 57.0806 54.8668 57.181 54.9583 57.2824L31.9038 57.2817C31.3392 57.2812 30.7979 57.057 30.3988 56.6585C29.9997 56.26 29.7753 55.7198 29.7747 55.1563C29.7747 55.1563 29.7747 55.1564 29.7747 55.1563V34.9074H38.9733V39.8496C38.9733 40.0026 39.0159 40.1526 39.0964 40.2827C39.1769 40.4129 39.292 40.5181 39.4289 40.5866C39.5657 40.655 39.7189 40.6841 39.8714 40.6706C40.0239 40.6571 40.1696 40.6015 40.2923 40.51L44.095 37.6731ZM59.2405 44.662C60.2206 44.663 61.1604 45.0522 61.8536 45.7443C62.5468 46.4364 62.9368 47.3748 62.9378 48.3538C62.9378 49.0841 62.721 49.7982 62.3147 50.4053C61.9083 51.0125 61.3309 51.4857 60.6553 51.7651C59.9797 52.0445 59.2363 52.1177 58.5191 51.9752C57.8019 51.8328 57.1431 51.4813 56.626 50.9649C56.1088 50.4486 55.7566 49.7907 55.6139 49.0745C55.4712 48.3582 55.5444 47.6158 55.8243 46.9411C56.1042 46.2665 56.5781 45.6898 57.1862 45.2842C57.7942 44.8785 58.5092 44.662 59.2405 44.662ZM58.4151 33.2589V28.3989C58.4144 27.8356 58.1899 27.2955 57.7909 26.8971C57.3918 26.4988 56.8508 26.2746 56.2863 26.274C56.2863 26.274 56.2864 26.274 56.2863 26.274H49.2167V33.2589H58.4151ZM56.2865 26.074C56.9038 26.0747 57.4956 26.3198 57.9322 26.7556C58.3687 27.1914 58.6143 27.7823 58.6151 28.3987V33.4589H49.0167V26.074H56.2865ZM38.9733 26.2734L31.9038 26.2734C31.9038 26.2734 31.9038 26.2734 31.9038 26.2734C31.3395 26.274 30.7985 26.4986 30.3992 26.8971C30.0002 27.2954 29.7757 27.8355 29.7749 28.3987V33.2589H38.9733V26.2734ZM29.5749 28.3987V33.4589H39.1733V26.0734H31.9036C31.2862 26.074 30.6946 26.3197 30.258 26.7555C29.8214 27.1913 29.5757 27.7823 29.5749 28.3987ZM62.5791 55.8658L62.5823 55.8623C63.4533 54.9021 64.2133 54.0631 64.7598 53.0819C65.3025 52.1076 65.637 50.9874 65.637 49.4681C65.637 45.3023 62.7393 41.9669 59.2403 41.9669C55.7412 41.9669 52.8436 45.3017 52.8436 49.4675C52.8436 50.9867 53.1781 52.1071 53.7208 53.0815C54.2673 54.0629 55.0273 54.9021 55.8982 55.8622L55.8992 55.8632C56.9765 57.0508 58.1823 58.38 59.2402 60.2801C60.2972 58.3811 61.5024 57.0527 62.5791 55.8658ZM59.354 60.4879C60.414 58.55 61.6321 57.2073 62.7304 55.9967L62.7316 55.9953C64.4667 54.0827 65.837 52.5721 65.837 49.4681C65.837 45.222 62.8776 41.7669 59.2403 41.7669C55.6029 41.7669 52.6436 45.2214 52.6436 49.4675C52.6436 52.5721 54.0145 54.0833 55.75 55.9965C56.8483 57.2072 58.0662 58.5503 59.1264 60.4879C59.1646 60.5576 59.2025 60.6281 59.2403 60.6993C59.278 60.628 59.3159 60.5576 59.354 60.4879ZM62.7378 48.354C62.7378 49.0447 62.5327 49.7198 62.1484 50.2941C61.7641 50.8684 61.2179 51.316 60.5788 51.5803C59.9398 51.8446 59.2365 51.9138 58.5581 51.7791C57.8796 51.6443 57.2564 51.3118 56.7673 50.8234C56.2781 50.335 55.945 49.7128 55.8101 49.0354C55.6751 48.358 55.7443 47.6559 56.009 47.0178C56.2737 46.3797 56.722 45.8343 57.2972 45.4505C57.8723 45.0668 58.5485 44.862 59.2403 44.862C60.1676 44.8629 61.0566 45.2311 61.7123 45.8858C62.368 46.5405 62.7368 47.4281 62.7378 48.354ZM58.1029 50.0532C58.4395 50.2777 58.8352 50.3976 59.24 50.3977C59.783 50.3971 60.3034 50.1815 60.6872 49.7983C61.071 49.4151 61.2868 48.8956 61.2874 48.3538C61.2874 47.9497 61.1673 47.5548 60.9425 47.2188C60.7176 46.8827 60.3979 46.6208 60.0238 46.466C59.6497 46.3113 59.238 46.2709 58.8409 46.3497C58.4438 46.4286 58.079 46.6233 57.7927 46.9091C57.5065 47.1949 57.3116 47.5591 57.2326 47.9554C57.1536 48.3518 57.1941 48.7626 57.349 49.136C57.5039 49.5094 57.7662 49.8286 58.1029 50.0532ZM61.4874 48.354C61.4874 47.9102 61.3556 47.4765 61.1087 47.1075C60.8618 46.7386 60.5108 46.451 60.1002 46.2812C59.6896 46.1114 59.2378 46.067 58.8019 46.1536C58.3661 46.2401 57.9657 46.4538 57.6514 46.7676C57.3372 47.0814 57.1231 47.4811 57.0364 47.9163C56.9497 48.3515 56.9942 48.8027 57.1643 49.2126C57.3344 49.6226 57.6224 49.973 57.9919 50.2195C58.3614 50.4661 58.7958 50.5977 59.2403 50.5977C59.836 50.597 60.4072 50.3604 60.8285 49.9398C61.2498 49.5192 61.4868 48.9489 61.4874 48.354Z" fill="url(#paint1_linear_2163_1795)"/>
</g>
<defs>
<linearGradient id="paint0_linear_2163_1795" x1="47.706" y1="24.8248" x2="47.706" y2="62.763" gradientUnits="userSpaceOnUse">
<stop stop-color="#19459F"/>
<stop offset="0.62" stop-color="#30388F"/>
<stop offset="1" stop-color="#122058"/>
</linearGradient>
<linearGradient id="paint1_linear_2163_1795" x1="47.7058" y1="24.8249" x2="47.7058" y2="62.763" gradientUnits="userSpaceOnUse">
<stop stop-color="#19459F"/>
<stop offset="0.62" stop-color="#30388F"/>
<stop offset="1" stop-color="#122058"/>
</linearGradient>
<clipPath id="clip0_2163_1795">
<rect width="40" height="40" fill="white" transform="translate(27.5 24)"/>
</clipPath>
</defs>
</svg>
