<svg width="24" height="24" viewBox="0 0 24 24" fill="none" xmlns="http://www.w3.org/2000/svg">
<g clip-path="url(#clip0_3025_7459)">
<path d="M11.2906 23.2477C11.2946 23.1526 11.316 23.0592 11.3535 22.9731C11.3911 22.887 11.444 22.8098 11.5093 22.746C11.5746 22.6822 11.651 22.6331 11.7339 22.6015C11.8169 22.5698 11.9048 22.5563 11.9927 22.5618C12.0805 22.5672 12.1664 22.5914 12.2456 22.6331C12.3247 22.6747 12.3954 22.7329 12.4535 22.8043C12.5117 22.8758 12.5562 22.959 12.5844 23.0492C12.6127 23.1393 12.6241 23.2347 12.6181 23.3297C12.6061 23.5187 12.5257 23.6949 12.3945 23.8202C12.2632 23.9454 12.0916 24.0096 11.9169 23.9988C11.7422 23.988 11.5785 23.9031 11.4612 23.7625C11.344 23.6219 11.2827 23.4369 11.2906 23.2477ZM5.8454 22.469C5.92147 22.3436 6.04046 22.256 6.17619 22.2255C6.31192 22.1951 6.45327 22.2242 6.56915 22.3065C6.68503 22.3889 6.76594 22.5177 6.79409 22.6646C6.82224 22.8115 6.79532 22.9645 6.71924 23.09C6.68157 23.1521 6.63297 23.2056 6.5762 23.2473C6.51944 23.2891 6.45563 23.3184 6.38842 23.3335C6.32121 23.3485 6.25191 23.3491 6.18449 23.3352C6.11706 23.3213 6.05282 23.2932 5.99545 23.2524C5.93807 23.2116 5.88867 23.159 5.85008 23.0976C5.81149 23.0361 5.78445 22.967 5.77052 22.8943C5.75659 22.8215 5.75603 22.7465 5.76888 22.6735C5.78172 22.6006 5.80773 22.5311 5.8454 22.469ZM17.5246 22.2472C17.5859 22.2136 17.6526 22.1935 17.7211 22.1879C17.7896 22.1823 17.8584 22.1914 17.9236 22.2147C17.9888 22.2379 18.0491 22.2749 18.1011 22.3234C18.1531 22.372 18.1957 22.4311 18.2265 22.4975C18.2731 22.5974 18.2912 22.71 18.2787 22.8211C18.2661 22.9322 18.2234 23.0367 18.1559 23.1215C18.0885 23.2063 17.9993 23.2676 17.8997 23.2975C17.8001 23.3274 17.6945 23.3247 17.5963 23.2897C17.4981 23.2547 17.4117 23.1889 17.3481 23.1008C17.2844 23.0126 17.2463 22.906 17.2387 22.7944C17.231 22.6828 17.2541 22.5712 17.305 22.4738C17.3559 22.3764 17.4323 22.2975 17.5246 22.2472ZM7.10765 19.4747C7.22487 19.2809 7.40837 19.1455 7.61783 19.0981C7.82728 19.0508 8.04553 19.0954 8.22459 19.2222C8.40363 19.3493 8.52874 19.5481 8.57244 19.775C8.61614 20.0019 8.57485 20.2382 8.45765 20.4322C8.33973 20.6244 8.15633 20.7583 7.94752 20.8046C7.7387 20.851 7.52142 20.806 7.34313 20.6796C7.16483 20.5531 7.03999 20.3554 6.99587 20.1297C6.95175 19.904 6.99194 19.6685 7.10765 19.4747ZM15.885 19.1524C15.9794 19.1003 16.0824 19.0688 16.1881 19.0598C16.2937 19.0508 16.4 19.0645 16.5008 19.1C16.6016 19.1355 16.6949 19.1922 16.7754 19.2667C16.8559 19.3413 16.9221 19.4324 16.9701 19.5347C17.0423 19.6877 17.0712 19.8604 17.0532 20.0312C17.0352 20.2019 16.9712 20.3632 16.869 20.4948C16.7669 20.6263 16.6312 20.7224 16.4789 20.771C16.3266 20.8196 16.1645 20.8185 16.0128 20.7679C15.861 20.7174 15.7264 20.6195 15.6258 20.4866C15.5251 20.3537 15.4629 20.1917 15.4468 20.0207C15.4308 19.8497 15.4616 19.6774 15.5355 19.5253C15.6094 19.3732 15.723 19.248 15.8622 19.1654L15.885 19.1524ZM11.0871 18.6188C11.1693 18.4357 11.2999 18.2831 11.4622 18.1804C11.6246 18.0777 11.8115 18.0295 11.9993 18.0419C12.5216 18.0757 12.9202 18.561 12.8901 19.1266C12.8821 19.2786 12.8431 19.4267 12.7758 19.5604C12.7086 19.694 12.6147 19.8099 12.5011 19.8995C12.3875 19.9892 12.2569 20.0504 12.1187 20.0788C11.9806 20.1072 11.8384 20.102 11.7023 20.0637C11.5662 20.0254 11.4397 19.9548 11.3319 19.8571C11.224 19.7595 11.1376 19.6371 11.0787 19.4989C11.0198 19.3607 10.9901 19.21 10.9915 19.0578C10.993 18.9056 11.0256 18.7557 11.0871 18.6188ZM2.68424 17.0269C2.84123 16.9423 3.02274 16.9283 3.18924 16.9879C3.35574 17.0475 3.49374 17.1759 3.57319 17.3451C3.65265 17.5143 3.66712 17.7107 3.61346 17.8914C3.5598 18.0721 3.44235 18.2226 3.28669 18.31C3.13103 18.3974 2.94976 18.4148 2.78236 18.3582C2.61496 18.3016 2.47498 18.1758 2.39291 18.008C2.31083 17.8403 2.29331 17.6442 2.34415 17.4625C2.39499 17.2809 2.51008 17.1283 2.66436 17.038L2.68424 17.0269ZM20.4821 17.2316C20.5296 17.1515 20.5912 17.0824 20.6634 17.0282C20.7357 16.9741 20.8171 16.936 20.9031 16.9162C20.989 16.8963 21.0777 16.8951 21.1641 16.9126C21.2505 16.9301 21.3328 16.9659 21.4063 17.018C21.4798 17.0702 21.543 17.1376 21.5923 17.2163C21.6416 17.2951 21.676 17.3836 21.6934 17.4768C21.7109 17.57 21.7112 17.6661 21.6942 17.7594C21.6771 17.8527 21.6432 17.9414 21.5943 18.0205C21.4968 18.178 21.3458 18.2876 21.1742 18.3253C21.0025 18.3631 20.824 18.3259 20.6774 18.222C20.5309 18.118 20.4282 17.9557 20.3916 17.7702C20.3551 17.5848 20.3876 17.3912 20.4821 17.2316ZM9.3345 14.0398C9.6509 13.8549 10.0152 13.7895 10.3698 13.854C10.7244 13.9184 11.049 14.1091 11.2922 14.3958C11.5354 14.6825 11.6833 15.0487 11.7125 15.4367C11.7418 15.8246 11.6506 16.212 11.4535 16.5375C11.307 16.7811 11.1064 16.981 10.8701 17.119C10.6338 17.2571 10.3693 17.3289 10.1008 17.3279C9.74128 17.3276 9.39211 17.1975 9.10858 16.9582C8.82504 16.7189 8.62334 16.384 8.5354 16.0067C8.44745 15.6293 8.47828 15.231 8.62302 14.8747C8.76776 14.5185 9.01813 14.2246 9.3345 14.0398ZM13.4166 13.9082C13.7832 13.7805 14.1798 13.7987 14.5351 13.9595C14.8904 14.1204 15.181 14.4133 15.3544 14.7855C15.7532 15.6471 15.4335 16.6957 14.6391 17.131C14.4135 17.2548 14.1645 17.3203 13.9116 17.3222C13.5265 17.3222 13.154 17.1733 12.8614 16.9023C12.5688 16.6313 12.3751 16.2562 12.3154 15.8443C12.2557 15.4325 12.3338 15.0112 12.5357 14.6562C12.7376 14.3012 13.05 14.036 13.4166 13.9082ZM5.63596 14.8794C5.72761 14.7641 5.84175 14.6723 5.97014 14.6105C6.09853 14.5487 6.23798 14.5185 6.37845 14.5221C6.51892 14.5257 6.65691 14.563 6.78247 14.6312C6.90804 14.6995 7.01805 14.797 7.10458 14.9169C7.19112 15.0367 7.25203 15.1758 7.28291 15.3242C7.3138 15.4725 7.3139 15.6265 7.2832 15.7749C7.25251 15.9233 7.19178 16.0625 7.1054 16.1825C7.01901 16.3024 6.90913 16.4002 6.78365 16.4686C6.58742 16.5757 6.36297 16.6058 6.14853 16.5538C5.93409 16.5018 5.74293 16.371 5.60759 16.1836C5.47225 15.9962 5.40111 15.7638 5.40629 15.526C5.41146 15.2882 5.49263 15.0597 5.63596 14.8794ZM16.8625 14.9586C17.1504 14.4837 17.7394 14.3515 18.178 14.6633C18.6158 14.9756 18.7376 15.6123 18.4508 16.0874C18.1629 16.5621 17.5738 16.6943 17.1353 16.3827C16.6966 16.0709 16.5745 15.4334 16.8625 14.9586ZM6.57178 11.9165C6.62221 10.9653 7.36659 10.2329 8.24615 10.269C9.12553 10.3051 9.81647 11.0965 9.80035 12.049C9.78441 12.9907 9.08278 13.7476 8.21625 13.7655L8.18662 13.7658H8.09831C7.21603 13.7099 6.5399 12.8993 6.57478 11.9472L6.57618 11.9155L6.57178 11.9165ZM14.1946 11.8968C14.2458 10.9322 15.0098 10.1951 15.9009 10.2505C16.1125 10.2623 16.3199 10.3196 16.5109 10.419C16.702 10.5184 16.8728 10.658 17.0134 10.8297C17.2192 11.0791 17.3547 11.3872 17.4037 11.7174C17.4527 12.0477 17.4132 12.3862 17.2899 12.6928C17.1666 12.9995 16.9647 13.2615 16.708 13.4477C16.4514 13.6339 16.1508 13.7366 15.8419 13.7435L15.809 13.7439H15.7153C14.8242 13.6885 14.1433 12.8616 14.1945 11.897L14.1946 11.8968ZM2.72736 11.9763C2.7395 11.7451 2.836 11.5285 2.99563 11.3742C3.15526 11.22 3.36496 11.1407 3.57861 11.1537C3.79235 11.1671 3.99246 11.2717 4.13499 11.4446C4.27751 11.6175 4.3508 11.8446 4.33874 12.076C4.32653 12.3073 4.22994 12.5239 4.07021 12.6781C3.91048 12.8323 3.7007 12.9115 3.48702 12.8983C3.27334 12.8851 3.07326 12.7805 2.93079 12.6076C2.78833 12.4347 2.71515 12.2076 2.72736 11.9763ZM19.6604 11.9368C19.6737 11.7064 19.7707 11.491 19.9302 11.3378C20.0897 11.1845 20.2987 11.1058 20.5117 11.1189C20.7246 11.132 20.9241 11.2358 21.0665 11.4077C21.2089 11.5795 21.2828 11.8054 21.2718 12.0359C21.2595 12.2673 21.1629 12.4839 21.0031 12.6382C20.8434 12.7925 20.6336 12.8719 20.4198 12.8588C20.2062 12.8455 20.0062 12.7409 19.8638 12.568C19.7214 12.3952 19.6482 12.168 19.6604 11.9368ZM0.531451 11.4713L0.550951 11.4721C0.619477 11.4761 0.686593 11.4948 0.748443 11.5269C0.810293 11.5591 0.865658 11.6042 0.911358 11.6596C0.957059 11.7151 0.992194 11.7797 1.01474 11.8499C1.03729 11.92 1.04682 11.9943 1.04276 12.0685C1.03688 12.1791 1.00109 12.2854 0.939833 12.3741C0.87858 12.4628 0.794572 12.5301 0.698263 12.5676C0.601954 12.605 0.497595 12.611 0.398172 12.5848C0.298748 12.5585 0.20865 12.5012 0.139087 12.42C0.0695246 12.3387 0.0235685 12.2371 0.00693719 12.1278C-0.0096941 12.0185 0.0037337 11.9063 0.0455498 11.8052C0.0873659 11.7041 0.155724 11.6185 0.242119 11.5592C0.328514 11.4998 0.429131 11.4692 0.531451 11.4713ZM23.4856 11.4129L23.5074 11.4138C23.6457 11.4227 23.7751 11.4905 23.8673 11.6025C23.9595 11.7145 24.0069 11.8614 23.9992 12.0111C23.9933 12.1219 23.9575 12.2282 23.8962 12.3171C23.8349 12.406 23.7508 12.4733 23.6544 12.5109C23.5581 12.5485 23.4536 12.5546 23.3541 12.5284C23.2545 12.5022 23.1643 12.445 23.0945 12.3637C23.0248 12.2825 22.9786 12.1809 22.9618 12.0715C22.945 11.9621 22.9583 11.8498 22.9999 11.7485C23.0416 11.6472 23.1098 11.5614 23.1962 11.5017C23.2826 11.442 23.3832 11.4112 23.4856 11.4129ZM10.0868 6.69322C10.3858 6.69169 10.6792 6.78028 10.9344 6.94908C11.1895 7.11788 11.3962 7.36022 11.5313 7.64897C11.6561 7.9158 11.7156 8.2128 11.7042 8.51163C11.6928 8.81045 11.6108 9.10113 11.4661 9.35591C11.3214 9.61069 11.1188 9.82107 10.8776 9.96698C10.6364 10.1129 10.3647 10.1894 10.0884 10.1894C9.78878 10.1904 9.49481 10.1008 9.23963 9.93077C8.98444 9.76073 8.77817 9.51696 8.64403 9.2269C8.52067 8.96033 8.46228 8.66406 8.47439 8.36619C8.48651 8.06833 8.56873 7.77876 8.71325 7.52495C8.85777 7.27114 9.05981 7.06151 9.30019 6.91595C9.54057 6.77038 9.81132 6.69372 10.0868 6.69322ZM13.8984 6.68084C14.2579 6.68135 14.6069 6.81163 14.8904 7.05107C15.1738 7.2905 15.3753 7.62541 15.4631 8.00278C15.5509 8.38016 15.5199 8.77845 15.375 9.13461C15.2302 9.49078 14.9797 9.78448 14.6633 9.96923C14.3469 10.154 13.9826 10.2192 13.6281 10.1546C13.2736 10.0901 12.9491 9.89935 12.7059 9.61267C12.4628 9.32599 12.315 8.95974 12.2858 8.57186C12.2566 8.18399 12.3477 7.79666 12.5448 7.47118C12.6921 7.22819 12.8929 7.02871 13.1292 6.89074C13.3656 6.75276 13.6299 6.68063 13.8984 6.68084ZM5.54756 7.92429C5.83527 7.44936 6.42412 7.31672 6.86287 7.62817C7.30162 7.93951 7.42415 8.57702 7.13662 9.05195C6.8489 9.52688 6.26006 9.65962 5.82131 9.34828C5.71685 9.27433 5.62689 9.17881 5.55659 9.06718C5.48628 8.95556 5.437 8.83001 5.41157 8.69775C5.38615 8.56548 5.38507 8.42908 5.4084 8.29636C5.43174 8.16364 5.47902 8.0372 5.54756 7.92429ZM17.2165 7.54292C17.3279 7.48203 17.4493 7.44551 17.5737 7.43546C17.6982 7.42542 17.8233 7.44205 17.9418 7.48439C18.0603 7.52673 18.1699 7.59396 18.2644 7.68222C18.3589 7.77049 18.4364 7.87806 18.4924 7.99878C18.7284 8.50608 18.5397 9.12441 18.0712 9.37994C17.6025 9.63537 17.0313 9.43119 16.7952 8.92398C16.5593 8.41668 16.7479 7.79835 17.2165 7.54282V7.54292ZM2.40514 5.99168C2.50183 5.83205 2.65313 5.72053 2.82577 5.68166C2.91126 5.66241 2.99941 5.66158 3.08519 5.67921C3.17097 5.69684 3.2527 5.73258 3.32572 5.7844C3.39874 5.83622 3.46162 5.9031 3.51076 5.98123C3.5599 6.05935 3.59434 6.14719 3.61212 6.23972C3.6299 6.33225 3.63067 6.42767 3.61439 6.52053C3.5981 6.61338 3.56508 6.70186 3.51721 6.7809C3.42052 6.94053 3.26922 7.05205 3.09658 7.09092C2.92393 7.12979 2.7441 7.09283 2.59663 6.98817C2.44916 6.88352 2.34614 6.71973 2.31023 6.53285C2.27432 6.34597 2.30846 6.15131 2.40514 5.99168ZM20.7157 5.70043C20.8728 5.61718 21.054 5.60435 21.2198 5.66473C21.3857 5.7251 21.5229 5.85381 21.6016 6.02294C21.6804 6.19207 21.6944 6.38799 21.6406 6.56821C21.5868 6.74844 21.4695 6.89844 21.3142 6.98569C21.1566 7.0715 20.9739 7.08608 20.8064 7.02622C20.6388 6.96636 20.5001 6.83695 20.4206 6.66643C20.3415 6.49595 20.3281 6.29842 20.3834 6.11726C20.4387 5.9361 20.5582 5.78613 20.7157 5.70032V5.70043ZM11.0359 4.88492C11.0659 4.31815 11.5148 3.88492 12.0384 3.91719C12.562 3.94947 12.9624 4.43505 12.9328 5.00203C12.9033 5.5688 12.4549 6.00243 11.9312 5.97067C11.407 5.9383 11.0063 5.4523 11.0359 4.88492ZM7.38675 3.29907C7.48139 3.24745 7.5845 3.21651 7.69019 3.20803C7.79588 3.19954 7.90208 3.21367 8.00272 3.24961C8.10337 3.28555 8.19649 3.3426 8.27676 3.4175C8.35704 3.49239 8.4229 3.58367 8.47059 3.68612C8.51828 3.78857 8.54686 3.90018 8.5547 4.01459C8.56254 4.12899 8.54949 4.24395 8.51628 4.3529C8.48308 4.46184 8.43038 4.56264 8.36119 4.64953C8.292 4.73643 8.20767 4.80773 8.11303 4.85935C7.92189 4.9636 7.70031 4.98139 7.49705 4.90881C7.29379 4.83622 7.12549 4.6792 7.02918 4.4723C6.93287 4.26539 6.91644 4.02555 6.98349 3.80552C7.05055 3.5855 7.1956 3.40332 7.38675 3.29907ZM15.5389 3.57936C15.6263 3.43464 15.7514 3.32121 15.8983 3.25343C16.0453 3.18564 16.2075 3.16653 16.3645 3.19852C16.5215 3.2305 16.6662 3.31215 16.7803 3.43313C16.8944 3.55412 16.9728 3.70901 17.0057 3.87823C17.0385 4.04746 17.0242 4.22341 16.9647 4.38386C16.9051 4.54431 16.803 4.68205 16.6711 4.77967C16.5393 4.87728 16.3836 4.9304 16.2239 4.9323C16.0642 4.9342 15.9075 4.8848 15.7737 4.79034C15.6847 4.72764 15.608 4.64655 15.548 4.5517C15.488 4.45685 15.4459 4.35012 15.4241 4.23762C15.4023 4.12512 15.4012 4.00906 15.4209 3.89611C15.4406 3.78315 15.4807 3.67551 15.5389 3.57936ZM5.99962 0.755947C6.12304 0.689051 6.26589 0.677718 6.397 0.724421C6.52811 0.771123 6.63683 0.87207 6.69944 1.00523C6.76204 1.13839 6.77344 1.29294 6.73115 1.43517C6.68886 1.57739 6.59632 1.69574 6.47371 1.76437C6.4122 1.79841 6.34507 1.81895 6.2762 1.82478C6.20732 1.83062 6.13806 1.82164 6.0724 1.79837C6.00675 1.7751 5.946 1.73799 5.89365 1.68919C5.8413 1.64038 5.79839 1.58085 5.7674 1.51401C5.70558 1.38011 5.69531 1.22514 5.73884 1.08305C5.78237 0.940966 5.87614 0.823344 5.99962 0.755947ZM17.2791 0.922376C17.3166 0.86018 17.3651 0.806601 17.4218 0.764697C17.4785 0.722793 17.5423 0.693384 17.6095 0.678151C17.6766 0.662919 17.7459 0.662159 17.8134 0.675916C17.8808 0.689674 17.9451 0.717678 18.0026 0.758332C18.0601 0.798985 18.1096 0.85149 18.1483 0.91285C18.187 0.97421 18.2141 1.04322 18.2282 1.11595C18.2423 1.18867 18.243 1.26369 18.2303 1.33671C18.2176 1.40972 18.1917 1.47932 18.1541 1.54151C18.0783 1.66712 17.9595 1.75498 17.8238 1.78575C17.6881 1.81653 17.5467 1.7877 17.4307 1.70561C17.3146 1.62352 17.2335 1.49489 17.205 1.34803C17.1766 1.20116 17.2032 1.04799 17.2791 0.922376ZM11.7566 0.0435473C11.8394 0.0108943 11.9273 -0.0036449 12.0152 0.000773762C12.1032 0.00519242 12.1895 0.0284809 12.269 0.0692872C12.3486 0.110094 12.4199 0.167605 12.4788 0.238482C12.5377 0.30936 12.583 0.392191 12.612 0.482168C12.6411 0.572145 12.6533 0.667475 12.6481 0.762624C12.6428 0.857772 12.6202 0.950844 12.5814 1.03644C12.5427 1.12203 12.4886 1.19843 12.4223 1.26122C12.3561 1.32401 12.279 1.37192 12.1955 1.40218C12.0297 1.46225 11.8488 1.44924 11.6918 1.36597C11.5348 1.2827 11.4145 1.13586 11.3568 0.957244C11.2991 0.778627 11.3087 0.5826 11.3835 0.411596C11.4584 0.240591 11.5924 0.108368 11.7566 0.0435473Z" fill="#0033AD"/>
</g>
<defs>
<clipPath id="clip0_3025_7459">
<rect width="24" height="24" fill="white"/>
</clipPath>
</defs>
</svg>
