<svg width="16" height="16" viewBox="0 0 16 16" fill="none" xmlns="http://www.w3.org/2000/svg">
<path d="M14.6454 12.2199C14.6454 12.4599 14.592 12.7066 14.4787 12.9466C14.3654 13.1866 14.2187 13.4133 14.0254 13.6266C13.6987 13.9866 13.3387 14.2466 12.932 14.4133C12.532 14.5799 12.0987 14.6666 11.632 14.6666C10.952 14.6666 10.2254 14.5066 9.4587 14.1799C8.69203 13.8533 7.92536 13.4133 7.16536 12.8599C6.3987 12.2999 5.67203 11.6799 4.9787 10.9933C4.29203 10.2999 3.67203 9.57325 3.1187 8.81325C2.57203 8.05325 2.13203 7.29325 1.81203 6.53992C1.49203 5.77992 1.33203 5.05325 1.33203 4.35992C1.33203 3.90659 1.41203 3.47325 1.57203 3.07325C1.73203 2.66659 1.98536 2.29325 2.3387 1.95992C2.76536 1.53992 3.23203 1.33325 3.72536 1.33325C3.91203 1.33325 4.0987 1.37325 4.26536 1.45325C4.4387 1.53325 4.59203 1.65325 4.71203 1.82659L6.2587 4.00659C6.3787 4.17325 6.46536 4.32659 6.52536 4.47325C6.58536 4.61325 6.6187 4.75325 6.6187 4.87992C6.6187 5.03992 6.57203 5.19992 6.4787 5.35325C6.39203 5.50658 6.26536 5.66658 6.10536 5.82658L5.5987 6.35325C5.52536 6.42658 5.49203 6.51325 5.49203 6.61992C5.49203 6.67325 5.4987 6.71992 5.51203 6.77325C5.53203 6.82658 5.55203 6.86658 5.56536 6.90658C5.68536 7.12658 5.89203 7.41325 6.18536 7.75992C6.48536 8.10659 6.80536 8.45992 7.15203 8.81325C7.51203 9.16658 7.8587 9.49325 8.21203 9.79325C8.5587 10.0866 8.84536 10.2866 9.07203 10.4066C9.10536 10.4199 9.14536 10.4399 9.19203 10.4599C9.24536 10.4799 9.2987 10.4866 9.3587 10.4866C9.47203 10.4866 9.5587 10.4466 9.63203 10.3733L10.1387 9.87325C10.3054 9.70659 10.4654 9.57992 10.6187 9.49992C10.772 9.40658 10.9254 9.35992 11.092 9.35992C11.2187 9.35992 11.352 9.38658 11.4987 9.44658C11.6454 9.50658 11.7987 9.59325 11.9654 9.70659L14.172 11.2733C14.3454 11.3933 14.4654 11.5333 14.5387 11.6999C14.6054 11.8666 14.6454 12.0333 14.6454 12.2199Z" stroke="#030518" stroke-opacity="0.6" stroke-width="0.8" stroke-miterlimit="10"/>
</svg>
