<svg width="91" height="90" viewBox="0 0 91 90" fill="none" xmlns="http://www.w3.org/2000/svg">
<circle cx="45.5" cy="45" r="44.7256" stroke="#19459F" stroke-width="0.548781" stroke-dasharray="4 4"/>
<rect x="6.48779" y="5.43896" width="78.0244" height="78.0244" rx="39.0122" stroke="#19459F"/>
<path d="M63.2148 51.293C63.1719 51.1708 63.0921 51.0649 62.9864 50.9899C62.8807 50.915 62.7544 50.8748 62.6248 50.8749H59.6754L60.7311 46.6518C60.7541 46.5596 60.7559 46.4634 60.7362 46.3704C60.7166 46.2775 60.676 46.1903 60.6175 46.1154C60.5591 46.0405 60.4843 45.9799 60.3989 45.9382C60.3136 45.8965 60.2198 45.8749 60.1248 45.8749H52.6248C52.5298 45.8749 52.436 45.8965 52.3507 45.9382C52.2653 45.9799 52.1905 46.0405 52.1321 46.1154C52.0736 46.1903 52.033 46.2775 52.0134 46.3704C51.9937 46.4634 51.9955 46.5596 52.0186 46.6518L53.0742 50.8749H50.1248C49.9953 50.8748 49.8689 50.915 49.7632 50.9899C49.6575 51.0648 49.5777 51.1707 49.5348 51.2929C49.4919 51.4152 49.488 51.5477 49.5237 51.6722C49.5595 51.7968 49.633 51.9071 49.7342 51.988L55.9842 56.988C56.095 57.0768 56.2328 57.1251 56.3748 57.1251C56.5168 57.1251 56.6546 57.0768 56.7654 56.988L63.0154 51.988C63.1166 51.9071 63.1901 51.7968 63.2258 51.6723C63.2615 51.5478 63.2577 51.4152 63.2148 51.293ZM56.3748 55.6993L51.9067 52.1249H53.8748C53.9698 52.1249 54.0636 52.1032 54.1489 52.0615C54.2343 52.0199 54.3091 51.9593 54.3675 51.8844C54.426 51.8095 54.4666 51.7223 54.4862 51.6293C54.5059 51.5364 54.5041 51.4402 54.4811 51.348L53.4254 47.1249H59.3242L58.2686 51.348C58.2455 51.4402 58.2437 51.5364 58.2634 51.6293C58.283 51.7223 58.3236 51.8095 58.3821 51.8844C58.4405 51.9593 58.5153 52.0199 58.6007 52.0615C58.686 52.1032 58.7798 52.1249 58.8748 52.1249H60.8429L56.3748 55.6993Z" fill="url(#paint0_linear_3086_9769)"/>
<path d="M54.5 57.7499H49.0462C49.1539 57.2725 49.117 56.774 48.9404 56.3176C48.7637 55.8613 48.4553 55.4679 48.0544 55.1874L39.875 49.1249C39.7425 49.0274 39.5773 48.9855 39.4144 49.008L35.0813 49.6249H30.75V48.9999C30.75 48.8341 30.6842 48.6751 30.5669 48.5579C30.4497 48.4407 30.2908 48.3749 30.125 48.3749H26.375C26.2092 48.3749 26.0503 48.4407 25.9331 48.5579C25.8158 48.6751 25.75 48.8341 25.75 48.9999V58.9999C25.75 59.1656 25.8158 59.3246 25.9331 59.4418C26.0503 59.559 26.2092 59.6249 26.375 59.6249H30.125C30.2908 59.6249 30.4497 59.559 30.5669 59.4418C30.6842 59.3246 30.75 59.1656 30.75 58.9999V58.3749H34.2863L39.7419 62.6186C39.8515 62.7037 39.9863 62.7499 40.125 62.7499H54.5C55.163 62.7499 55.7989 62.4865 56.2678 62.0176C56.7366 61.5488 57 60.9129 57 60.2499C57 59.5868 56.7366 58.951 56.2678 58.4821C55.7989 58.0133 55.163 57.7499 54.5 57.7499ZM29.5 58.3749H27V49.6249H29.5V58.3749ZM54.5 61.4999H40.34L34.8844 57.2561C34.7744 57.1708 34.6392 57.1246 34.5 57.1249H30.75V50.8749H35.125C35.1547 50.875 35.1844 50.8729 35.2137 50.8686L39.3344 50.2799L47.3219 56.1986C47.4882 56.3143 47.6239 56.4687 47.717 56.6487C47.8101 56.8286 47.8579 57.0285 47.8562 57.2311C47.8575 57.4856 47.7791 57.7341 47.6319 57.9418C47.5379 58.0764 47.4182 58.1912 47.2798 58.2796C47.1414 58.368 46.9869 58.4283 46.8252 58.4569C46.6635 58.4856 46.4977 58.4821 46.3374 58.4467C46.177 58.4113 46.0252 58.3446 45.8906 58.2505L40.8775 54.738L40.16 55.7618L45.1737 59.2749C45.6534 59.6089 46.2349 59.7643 46.8172 59.714C47.3996 59.6638 47.9459 59.4111 48.3613 58.9999H54.5C54.8315 58.9999 55.1495 59.1316 55.3839 59.366C55.6183 59.6004 55.75 59.9184 55.75 60.2499C55.75 60.5814 55.6183 60.8993 55.3839 61.1338C55.1495 61.3682 54.8315 61.4999 54.5 61.4999Z" fill="url(#paint1_linear_3086_9769)"/>
<path d="M35.125 40.2499C35.125 42.1041 35.6748 43.9166 36.705 45.4583C37.7351 47.0001 39.1993 48.2017 40.9123 48.9112C42.6254 49.6208 44.5104 49.8065 46.329 49.4447C48.1475 49.083 49.818 48.1901 51.1291 46.879C52.4402 45.5679 53.3331 43.8974 53.6949 42.0788C54.0566 40.2603 53.8709 38.3753 53.1614 36.6622C52.4518 34.9492 51.2502 33.485 49.7085 32.4549C48.1668 31.4247 46.3542 30.8749 44.5 30.8749C42.0145 30.8777 39.6315 31.8663 37.874 33.6239C36.1164 35.3814 35.1278 37.7643 35.125 40.2499ZM39.9106 33.5511L40.2081 34.0668L41.2912 33.4418L40.9956 32.9305C41.8988 32.4954 42.8754 32.233 43.875 32.1568V32.7499H45.125V32.1568C46.1246 32.233 47.1012 32.4954 48.0044 32.9305L47.7087 33.4418L48.7919 34.0668L49.0894 33.5511C49.9154 34.1196 50.6303 34.8345 51.1987 35.6605L50.6831 35.958L51.3081 37.0411L51.8194 36.7455C52.2544 37.6487 52.5169 38.6253 52.5931 39.6249H52V40.8749H52.5931C52.5169 41.8745 52.2544 42.8511 51.8194 43.7543L51.3081 43.4586L50.6831 44.5418L51.1987 44.8393C50.6303 45.6652 49.9154 46.3801 49.0894 46.9486L48.7919 46.433L47.7087 47.058L48.0044 47.5693C47.1012 48.0043 46.1246 48.2667 45.125 48.343V47.7499H43.875V48.343C42.8754 48.2667 41.8988 48.0043 40.9956 47.5693L41.2912 47.058L40.2081 46.433L39.9106 46.9486C39.0846 46.3801 38.3697 45.6652 37.8012 44.8393L38.3169 44.5418L37.6919 43.4586L37.1806 43.7543C36.7456 42.8511 36.4831 41.8745 36.4069 40.8749H37V39.6249H36.4069C36.4831 38.6253 36.7456 37.6487 37.1806 36.7455L37.6919 37.0411L38.3169 35.958L37.8012 35.6605C38.3697 34.8345 39.0846 34.1196 39.9106 33.5511Z" fill="url(#paint2_linear_3086_9769)"/>
<path d="M44.5 47.1248C45.8597 47.1248 47.189 46.7215 48.3195 45.9661C49.4501 45.2107 50.3313 44.1369 50.8517 42.8807C51.372 41.6245 51.5082 40.2421 51.2429 38.9085C50.9776 37.5749 50.3228 36.3499 49.3614 35.3884C48.3999 34.4269 47.1749 33.7721 45.8412 33.5069C44.5076 33.2416 43.1253 33.3777 41.8691 33.8981C40.6128 34.4184 39.5391 35.2996 38.7836 36.4302C38.0282 37.5608 37.625 38.89 37.625 40.2498C37.6272 42.0725 38.3522 43.8199 39.641 45.1087C40.9299 46.3976 42.6773 47.1226 44.5 47.1248ZM44.5 34.6248C45.6125 34.6248 46.7001 34.9547 47.6251 35.5727C48.5501 36.1908 49.2711 37.0693 49.6968 38.0972C50.1226 39.125 50.234 40.256 50.0169 41.3471C49.7999 42.4383 49.2641 43.4406 48.4775 44.2272C47.6908 45.0139 46.6885 45.5496 45.5974 45.7667C44.5062 45.9837 43.3752 45.8723 42.3474 45.4466C41.3196 45.0208 40.4411 44.2999 39.823 43.3748C39.2049 42.4498 38.875 41.3623 38.875 40.2498C38.8768 38.7585 39.47 37.3288 40.5245 36.2743C41.579 35.2198 43.0087 34.6266 44.5 34.6248Z" fill="url(#paint3_linear_3086_9769)"/>
<path d="M42.625 43.9998H43.875V43.3748H44.5V43.9998H45.75V43.3748C46.1126 43.3764 46.4679 43.2723 46.7724 43.0753C47.0768 42.8783 47.3174 42.5969 47.4645 42.2655C47.6117 41.934 47.6591 41.5669 47.601 41.2089C47.543 40.851 47.3819 40.5177 47.1375 40.2498C47.3819 39.9818 47.543 39.6485 47.601 39.2906C47.6591 38.9326 47.6117 38.5655 47.4645 38.234C47.3174 37.9026 47.0768 37.6212 46.7724 37.4242C46.4679 37.2272 46.1126 37.1232 45.75 37.1248V36.4998H44.5V37.1248H43.875V36.4998H42.625V37.1248H41.375V38.3748H42V42.1248H41.375V43.3748H42.625V43.9998ZM45.75 38.3748C45.9158 38.3748 46.0747 38.4406 46.1919 38.5578C46.3092 38.675 46.375 38.834 46.375 38.9998C46.375 39.1655 46.3092 39.3245 46.1919 39.4417C46.0747 39.5589 45.9158 39.6248 45.75 39.6248H43.25V38.3748H45.75ZM43.25 40.8748H45.75C45.9158 40.8748 46.0747 40.9406 46.1919 41.0578C46.3092 41.175 46.375 41.334 46.375 41.4998C46.375 41.6655 46.3092 41.8245 46.1919 41.9417C46.0747 42.0589 45.9158 42.1248 45.75 42.1248H43.25V40.8748Z" fill="url(#paint4_linear_3086_9769)"/>
<path d="M32.2342 36.3629C32.345 36.4516 32.4828 36.5 32.6248 36.5C32.7668 36.5 32.9046 36.4516 33.0154 36.3629L39.2654 31.3629C39.3666 31.282 39.4401 31.1716 39.4759 31.0471C39.5116 30.9226 39.5077 30.79 39.4648 30.6678C39.4219 30.5456 39.3421 30.4397 39.2364 30.3648C39.1307 30.2899 39.0044 30.2497 38.8748 30.2498H35.9254L36.9811 26.0266C37.0041 25.9345 37.0059 25.8383 36.9862 25.7453C36.9666 25.6524 36.926 25.5651 36.8675 25.4902C36.8091 25.4154 36.7343 25.3548 36.6489 25.3131C36.5636 25.2714 36.4698 25.2498 36.3748 25.2498H28.8748C28.7798 25.2498 28.686 25.2714 28.6007 25.3131C28.5153 25.3548 28.4405 25.4154 28.3821 25.4902C28.3236 25.5651 28.283 25.6524 28.2634 25.7453C28.2437 25.8383 28.2455 25.9345 28.2686 26.0266L29.3242 30.2498H26.3748C26.2453 30.2497 26.1189 30.2899 26.0132 30.3648C25.9075 30.4397 25.8277 30.5456 25.7848 30.6678C25.7419 30.79 25.738 30.9226 25.7737 31.0471C25.8095 31.1716 25.883 31.282 25.9842 31.3629L32.2342 36.3629ZM30.1248 31.4998C30.2198 31.4998 30.3136 31.4781 30.3989 31.4364C30.4843 31.3947 30.5591 31.3342 30.6175 31.2593C30.676 31.1844 30.7166 31.0971 30.7362 31.0042C30.7559 30.9112 30.7541 30.815 30.7311 30.7229L29.6754 26.4998H35.5742L34.5186 30.7229C34.4955 30.815 34.4937 30.9112 34.5134 31.0042C34.533 31.0971 34.5736 31.1844 34.6321 31.2593C34.6905 31.3342 34.7653 31.3947 34.8507 31.4364C34.936 31.4781 35.0298 31.4998 35.1248 31.4998H37.0929L32.6248 35.0741L28.1567 31.4998H30.1248Z" fill="url(#paint5_linear_3086_9769)"/>
<defs>
<linearGradient id="paint0_linear_3086_9769" x1="56.3748" y1="45.8749" x2="56.3748" y2="57.1251" gradientUnits="userSpaceOnUse">
<stop stop-color="#19459F"/>
<stop offset="0.62" stop-color="#30388F"/>
<stop offset="1" stop-color="#122058"/>
</linearGradient>
<linearGradient id="paint1_linear_3086_9769" x1="41.375" y1="48.3749" x2="41.375" y2="62.7499" gradientUnits="userSpaceOnUse">
<stop stop-color="#19459F"/>
<stop offset="0.62" stop-color="#30388F"/>
<stop offset="1" stop-color="#122058"/>
</linearGradient>
<linearGradient id="paint2_linear_3086_9769" x1="44.5" y1="30.8749" x2="44.5" y2="49.6249" gradientUnits="userSpaceOnUse">
<stop stop-color="#19459F"/>
<stop offset="0.62" stop-color="#30388F"/>
<stop offset="1" stop-color="#122058"/>
</linearGradient>
<linearGradient id="paint3_linear_3086_9769" x1="44.5" y1="33.3748" x2="44.5" y2="47.1248" gradientUnits="userSpaceOnUse">
<stop stop-color="#19459F"/>
<stop offset="0.62" stop-color="#30388F"/>
<stop offset="1" stop-color="#122058"/>
</linearGradient>
<linearGradient id="paint4_linear_3086_9769" x1="44.5001" y1="36.4998" x2="44.5001" y2="43.9998" gradientUnits="userSpaceOnUse">
<stop stop-color="#19459F"/>
<stop offset="0.62" stop-color="#30388F"/>
<stop offset="1" stop-color="#122058"/>
</linearGradient>
<linearGradient id="paint5_linear_3086_9769" x1="32.6248" y1="25.2498" x2="32.6248" y2="36.5" gradientUnits="userSpaceOnUse">
<stop stop-color="#19459F"/>
<stop offset="0.62" stop-color="#30388F"/>
<stop offset="1" stop-color="#122058"/>
</linearGradient>
</defs>
</svg>
