<svg width="91" height="90" viewBox="0 0 91 90" fill="none" xmlns="http://www.w3.org/2000/svg">
<circle cx="45.5" cy="45" r="44.5" stroke="#19459F" stroke-dasharray="4 4"/>
<rect x="6.48828" y="5.43896" width="78.0244" height="78.0244" rx="39.0122" stroke="#19459F"/>
<mask id="path-3-outside-1_2163_1754" maskUnits="userSpaceOnUse" x="32.9883" y="23.939" width="32" height="39" fill="black">
<rect fill="white" x="32.9883" y="23.939" width="32" height="39"/>
<path d="M55.2368 34.2198V28.0223C55.2368 27.2045 54.9076 26.4203 54.3216 25.8421C53.7356 25.2638 52.9408 24.939 52.112 24.939H37.1131C36.2843 24.939 35.4895 25.2638 34.9035 25.8421C34.3175 26.4203 33.9883 27.2045 33.9883 28.0223V58.8556C33.9883 59.6734 34.3175 60.4576 34.9035 61.0359C35.4895 61.6141 36.2843 61.939 37.1131 61.939H52.112C52.9408 61.939 53.7356 61.6141 54.3216 61.0359C54.9076 60.4576 55.2368 59.6734 55.2368 58.8556V52.6581C57.6091 52.5049 59.8335 51.4669 61.4587 49.7549C63.0839 48.0428 63.9883 45.7848 63.9883 43.439C63.9883 41.0931 63.0839 38.8351 61.4587 37.1231C59.8335 35.411 57.6091 34.373 55.2368 34.2198ZM49.8497 26.1723L49.3997 27.0665C49.3473 27.1691 49.2669 27.2552 49.1675 27.3152C49.0681 27.3751 48.9537 27.4064 48.8373 27.4056H40.3878C40.2714 27.4064 40.157 27.3751 40.0576 27.3152C39.9582 27.2552 39.8778 27.1691 39.8254 27.0665L39.3754 26.1723H49.8497ZM53.9869 58.8556C53.9854 59.3458 53.7874 59.8155 53.4361 60.1622C53.0848 60.5088 52.6088 60.7042 52.112 60.7056H37.1131C36.6163 60.7042 36.1403 60.5088 35.789 60.1622C35.4377 59.8155 35.2397 59.3458 35.2382 58.8556V28.0223C35.2397 27.5321 35.4377 27.0624 35.789 26.7158C36.1403 26.3691 36.6163 26.1738 37.1131 26.1723H37.9755L38.7067 27.6153C38.8621 27.9238 39.102 28.1832 39.3991 28.3641C39.6962 28.545 40.0387 28.6402 40.3878 28.639H48.8373C49.1864 28.6402 49.5289 28.545 49.826 28.3641C50.1231 28.1832 50.363 27.9238 50.5184 27.6153L51.2496 26.1723H52.112C52.6088 26.1738 53.0848 26.3691 53.4361 26.7158C53.7874 27.0624 53.9854 27.5321 53.9869 28.0223V34.2198C51.6146 34.373 49.3902 35.411 47.765 37.1231C46.1398 38.8351 45.2354 41.0931 45.2354 43.439C45.2354 45.7848 46.1398 48.0428 47.765 49.7549C49.3902 51.4669 51.6146 52.5049 53.9869 52.6581V58.8556ZM54.6119 51.4556C53.005 51.4556 51.4342 50.9855 50.0982 50.1046C48.7621 49.2237 47.7208 47.9717 47.1059 46.5068C46.4909 45.042 46.33 43.4301 46.6435 41.875C46.957 40.3199 47.7308 38.8915 48.867 37.7703C50.0032 36.6492 51.4509 35.8857 53.0269 35.5763C54.6028 35.267 56.2364 35.4258 57.7209 36.0325C59.2055 36.6393 60.4744 37.6668 61.3671 38.9851C62.2598 40.3035 62.7363 41.8534 62.7363 43.439C62.7343 45.5645 61.8777 47.6024 60.3545 49.1054C58.8313 50.6084 56.766 51.4537 54.6119 51.4556Z"/>
<path d="M44.8597 42.9702L41.0026 38.1642C40.9398 38.0937 40.8611 38.037 40.7723 37.9981C40.6834 37.9591 40.5864 37.939 40.4883 37.939C40.3901 37.939 40.2932 37.9591 40.2043 37.9981C40.1154 38.037 40.0368 38.0937 39.974 38.1642L36.1169 42.9702C36.0452 43.0595 36.0016 43.1656 35.9909 43.2767C35.9802 43.3878 36.0028 43.4995 36.0561 43.5993C36.1095 43.6991 36.1916 43.7831 36.2932 43.8417C36.3947 43.9004 36.5118 43.9314 36.6311 43.9314H37.9169V49.3382C37.9169 49.4975 37.9846 49.6503 38.1051 49.763C38.2257 49.8757 38.3892 49.939 38.5597 49.939H42.4169C42.5873 49.939 42.7509 49.8757 42.8714 49.763C42.992 49.6503 43.0597 49.4975 43.0597 49.3382V43.9314H44.3454C44.4648 43.9314 44.5818 43.9004 44.6834 43.8417C44.7849 43.7831 44.867 43.6991 44.9204 43.5993C44.9738 43.4995 44.9964 43.3878 44.9857 43.2767C44.975 43.1656 44.9313 43.0595 44.8597 42.9702ZM42.4169 42.7299C42.2464 42.7299 42.0828 42.7932 41.9623 42.9059C41.8417 43.0185 41.774 43.1713 41.774 43.3307V48.7375H39.2026V43.3307C39.2026 43.1713 39.1348 43.0185 39.0143 42.9059C38.8937 42.7932 38.7302 42.7299 38.5597 42.7299H37.9169L40.4883 39.5279L43.0597 42.7299H42.4169Z"/>
<path d="M57.4856 43.5C57.8743 43.2139 58.1717 42.821 58.3414 42.3691C58.5111 41.9172 58.5459 41.4257 58.4416 40.9544C58.3373 40.483 58.0983 40.0522 57.7537 39.7141C57.4091 39.376 56.9738 39.1453 56.5005 39.05V38H55.5005V39H54.5005V38H53.5005V39H51.5005V40H52.5005V47H51.5005V48H53.5005V49H54.5005V48H55.5005V49H56.5005V47.95C56.9738 47.8547 57.4091 47.624 57.7537 47.2859C58.0983 46.9478 58.3373 46.517 58.4416 46.0456C58.5459 45.5743 58.5111 45.0828 58.3414 44.6309C58.1717 44.179 57.8743 43.7861 57.4856 43.5ZM53.5005 40H56.0005C56.3984 40 56.7799 40.158 57.0612 40.4393C57.3425 40.7206 57.5006 41.1022 57.5006 41.5C57.5006 41.8978 57.3425 42.2794 57.0612 42.5607C56.7799 42.842 56.3984 43 56.0005 43H53.5005V40ZM56.0005 47H53.5005V44H56.0005C56.3984 44 56.7799 44.158 57.0612 44.4393C57.3425 44.7206 57.5006 45.1022 57.5006 45.5C57.5006 45.8978 57.3425 46.2794 57.0612 46.5607C56.7799 46.842 56.3984 47 56.0005 47Z"/>
</mask>
<path d="M55.2368 34.2198V28.0223C55.2368 27.2045 54.9076 26.4203 54.3216 25.8421C53.7356 25.2638 52.9408 24.939 52.112 24.939H37.1131C36.2843 24.939 35.4895 25.2638 34.9035 25.8421C34.3175 26.4203 33.9883 27.2045 33.9883 28.0223V58.8556C33.9883 59.6734 34.3175 60.4576 34.9035 61.0359C35.4895 61.6141 36.2843 61.939 37.1131 61.939H52.112C52.9408 61.939 53.7356 61.6141 54.3216 61.0359C54.9076 60.4576 55.2368 59.6734 55.2368 58.8556V52.6581C57.6091 52.5049 59.8335 51.4669 61.4587 49.7549C63.0839 48.0428 63.9883 45.7848 63.9883 43.439C63.9883 41.0931 63.0839 38.8351 61.4587 37.1231C59.8335 35.411 57.6091 34.373 55.2368 34.2198ZM49.8497 26.1723L49.3997 27.0665C49.3473 27.1691 49.2669 27.2552 49.1675 27.3152C49.0681 27.3751 48.9537 27.4064 48.8373 27.4056H40.3878C40.2714 27.4064 40.157 27.3751 40.0576 27.3152C39.9582 27.2552 39.8778 27.1691 39.8254 27.0665L39.3754 26.1723H49.8497ZM53.9869 58.8556C53.9854 59.3458 53.7874 59.8155 53.4361 60.1622C53.0848 60.5088 52.6088 60.7042 52.112 60.7056H37.1131C36.6163 60.7042 36.1403 60.5088 35.789 60.1622C35.4377 59.8155 35.2397 59.3458 35.2382 58.8556V28.0223C35.2397 27.5321 35.4377 27.0624 35.789 26.7158C36.1403 26.3691 36.6163 26.1738 37.1131 26.1723H37.9755L38.7067 27.6153C38.8621 27.9238 39.102 28.1832 39.3991 28.3641C39.6962 28.545 40.0387 28.6402 40.3878 28.639H48.8373C49.1864 28.6402 49.5289 28.545 49.826 28.3641C50.1231 28.1832 50.363 27.9238 50.5184 27.6153L51.2496 26.1723H52.112C52.6088 26.1738 53.0848 26.3691 53.4361 26.7158C53.7874 27.0624 53.9854 27.5321 53.9869 28.0223V34.2198C51.6146 34.373 49.3902 35.411 47.765 37.1231C46.1398 38.8351 45.2354 41.0931 45.2354 43.439C45.2354 45.7848 46.1398 48.0428 47.765 49.7549C49.3902 51.4669 51.6146 52.5049 53.9869 52.6581V58.8556ZM54.6119 51.4556C53.005 51.4556 51.4342 50.9855 50.0982 50.1046C48.7621 49.2237 47.7208 47.9717 47.1059 46.5068C46.4909 45.042 46.33 43.4301 46.6435 41.875C46.957 40.3199 47.7308 38.8915 48.867 37.7703C50.0032 36.6492 51.4509 35.8857 53.0269 35.5763C54.6028 35.267 56.2364 35.4258 57.7209 36.0325C59.2055 36.6393 60.4744 37.6668 61.3671 38.9851C62.2598 40.3035 62.7363 41.8534 62.7363 43.439C62.7343 45.5645 61.8777 47.6024 60.3545 49.1054C58.8313 50.6084 56.766 51.4537 54.6119 51.4556Z" fill="url(#paint0_linear_2163_1754)"/>
<path d="M44.8597 42.9702L41.0026 38.1642C40.9398 38.0937 40.8611 38.037 40.7723 37.9981C40.6834 37.9591 40.5864 37.939 40.4883 37.939C40.3901 37.939 40.2932 37.9591 40.2043 37.9981C40.1154 38.037 40.0368 38.0937 39.974 38.1642L36.1169 42.9702C36.0452 43.0595 36.0016 43.1656 35.9909 43.2767C35.9802 43.3878 36.0028 43.4995 36.0561 43.5993C36.1095 43.6991 36.1916 43.7831 36.2932 43.8417C36.3947 43.9004 36.5118 43.9314 36.6311 43.9314H37.9169V49.3382C37.9169 49.4975 37.9846 49.6503 38.1051 49.763C38.2257 49.8757 38.3892 49.939 38.5597 49.939H42.4169C42.5873 49.939 42.7509 49.8757 42.8714 49.763C42.992 49.6503 43.0597 49.4975 43.0597 49.3382V43.9314H44.3454C44.4648 43.9314 44.5818 43.9004 44.6834 43.8417C44.7849 43.7831 44.867 43.6991 44.9204 43.5993C44.9738 43.4995 44.9964 43.3878 44.9857 43.2767C44.975 43.1656 44.9313 43.0595 44.8597 42.9702ZM42.4169 42.7299C42.2464 42.7299 42.0828 42.7932 41.9623 42.9059C41.8417 43.0185 41.774 43.1713 41.774 43.3307V48.7375H39.2026V43.3307C39.2026 43.1713 39.1348 43.0185 39.0143 42.9059C38.8937 42.7932 38.7302 42.7299 38.5597 42.7299H37.9169L40.4883 39.5279L43.0597 42.7299H42.4169Z" fill="url(#paint1_linear_2163_1754)"/>
<path d="M57.4856 43.5C57.8743 43.2139 58.1717 42.821 58.3414 42.3691C58.5111 41.9172 58.5459 41.4257 58.4416 40.9544C58.3373 40.483 58.0983 40.0522 57.7537 39.7141C57.4091 39.376 56.9738 39.1453 56.5005 39.05V38H55.5005V39H54.5005V38H53.5005V39H51.5005V40H52.5005V47H51.5005V48H53.5005V49H54.5005V48H55.5005V49H56.5005V47.95C56.9738 47.8547 57.4091 47.624 57.7537 47.2859C58.0983 46.9478 58.3373 46.517 58.4416 46.0456C58.5459 45.5743 58.5111 45.0828 58.3414 44.6309C58.1717 44.179 57.8743 43.7861 57.4856 43.5ZM53.5005 40H56.0005C56.3984 40 56.7799 40.158 57.0612 40.4393C57.3425 40.7206 57.5006 41.1022 57.5006 41.5C57.5006 41.8978 57.3425 42.2794 57.0612 42.5607C56.7799 42.842 56.3984 43 56.0005 43H53.5005V40ZM56.0005 47H53.5005V44H56.0005C56.3984 44 56.7799 44.158 57.0612 44.4393C57.3425 44.7206 57.5006 45.1022 57.5006 45.5C57.5006 45.8978 57.3425 46.2794 57.0612 46.5607C56.7799 46.842 56.3984 47 56.0005 47Z" fill="url(#paint2_linear_2163_1754)"/>
<path d="M55.2368 34.2198V28.0223C55.2368 27.2045 54.9076 26.4203 54.3216 25.8421C53.7356 25.2638 52.9408 24.939 52.112 24.939H37.1131C36.2843 24.939 35.4895 25.2638 34.9035 25.8421C34.3175 26.4203 33.9883 27.2045 33.9883 28.0223V58.8556C33.9883 59.6734 34.3175 60.4576 34.9035 61.0359C35.4895 61.6141 36.2843 61.939 37.1131 61.939H52.112C52.9408 61.939 53.7356 61.6141 54.3216 61.0359C54.9076 60.4576 55.2368 59.6734 55.2368 58.8556V52.6581C57.6091 52.5049 59.8335 51.4669 61.4587 49.7549C63.0839 48.0428 63.9883 45.7848 63.9883 43.439C63.9883 41.0931 63.0839 38.8351 61.4587 37.1231C59.8335 35.411 57.6091 34.373 55.2368 34.2198ZM49.8497 26.1723L49.3997 27.0665C49.3473 27.1691 49.2669 27.2552 49.1675 27.3152C49.0681 27.3751 48.9537 27.4064 48.8373 27.4056H40.3878C40.2714 27.4064 40.157 27.3751 40.0576 27.3152C39.9582 27.2552 39.8778 27.1691 39.8254 27.0665L39.3754 26.1723H49.8497ZM53.9869 58.8556C53.9854 59.3458 53.7874 59.8155 53.4361 60.1622C53.0848 60.5088 52.6088 60.7042 52.112 60.7056H37.1131C36.6163 60.7042 36.1403 60.5088 35.789 60.1622C35.4377 59.8155 35.2397 59.3458 35.2382 58.8556V28.0223C35.2397 27.5321 35.4377 27.0624 35.789 26.7158C36.1403 26.3691 36.6163 26.1738 37.1131 26.1723H37.9755L38.7067 27.6153C38.8621 27.9238 39.102 28.1832 39.3991 28.3641C39.6962 28.545 40.0387 28.6402 40.3878 28.639H48.8373C49.1864 28.6402 49.5289 28.545 49.826 28.3641C50.1231 28.1832 50.363 27.9238 50.5184 27.6153L51.2496 26.1723H52.112C52.6088 26.1738 53.0848 26.3691 53.4361 26.7158C53.7874 27.0624 53.9854 27.5321 53.9869 28.0223V34.2198C51.6146 34.373 49.3902 35.411 47.765 37.1231C46.1398 38.8351 45.2354 41.0931 45.2354 43.439C45.2354 45.7848 46.1398 48.0428 47.765 49.7549C49.3902 51.4669 51.6146 52.5049 53.9869 52.6581V58.8556ZM54.6119 51.4556C53.005 51.4556 51.4342 50.9855 50.0982 50.1046C48.7621 49.2237 47.7208 47.9717 47.1059 46.5068C46.4909 45.042 46.33 43.4301 46.6435 41.875C46.957 40.3199 47.7308 38.8915 48.867 37.7703C50.0032 36.6492 51.4509 35.8857 53.0269 35.5763C54.6028 35.267 56.2364 35.4258 57.7209 36.0325C59.2055 36.6393 60.4744 37.6668 61.3671 38.9851C62.2598 40.3035 62.7363 41.8534 62.7363 43.439C62.7343 45.5645 61.8777 47.6024 60.3545 49.1054C58.8313 50.6084 56.766 51.4537 54.6119 51.4556Z" stroke="url(#paint3_linear_2163_1754)" stroke-width="0.4" mask="url(#path-3-outside-1_2163_1754)"/>
<path d="M44.8597 42.9702L41.0026 38.1642C40.9398 38.0937 40.8611 38.037 40.7723 37.9981C40.6834 37.9591 40.5864 37.939 40.4883 37.939C40.3901 37.939 40.2932 37.9591 40.2043 37.9981C40.1154 38.037 40.0368 38.0937 39.974 38.1642L36.1169 42.9702C36.0452 43.0595 36.0016 43.1656 35.9909 43.2767C35.9802 43.3878 36.0028 43.4995 36.0561 43.5993C36.1095 43.6991 36.1916 43.7831 36.2932 43.8417C36.3947 43.9004 36.5118 43.9314 36.6311 43.9314H37.9169V49.3382C37.9169 49.4975 37.9846 49.6503 38.1051 49.763C38.2257 49.8757 38.3892 49.939 38.5597 49.939H42.4169C42.5873 49.939 42.7509 49.8757 42.8714 49.763C42.992 49.6503 43.0597 49.4975 43.0597 49.3382V43.9314H44.3454C44.4648 43.9314 44.5818 43.9004 44.6834 43.8417C44.7849 43.7831 44.867 43.6991 44.9204 43.5993C44.9738 43.4995 44.9964 43.3878 44.9857 43.2767C44.975 43.1656 44.9313 43.0595 44.8597 42.9702ZM42.4169 42.7299C42.2464 42.7299 42.0828 42.7932 41.9623 42.9059C41.8417 43.0185 41.774 43.1713 41.774 43.3307V48.7375H39.2026V43.3307C39.2026 43.1713 39.1348 43.0185 39.0143 42.9059C38.8937 42.7932 38.7302 42.7299 38.5597 42.7299H37.9169L40.4883 39.5279L43.0597 42.7299H42.4169Z" stroke="url(#paint4_linear_2163_1754)" stroke-width="0.4" mask="url(#path-3-outside-1_2163_1754)"/>
<path d="M57.4856 43.5C57.8743 43.2139 58.1717 42.821 58.3414 42.3691C58.5111 41.9172 58.5459 41.4257 58.4416 40.9544C58.3373 40.483 58.0983 40.0522 57.7537 39.7141C57.4091 39.376 56.9738 39.1453 56.5005 39.05V38H55.5005V39H54.5005V38H53.5005V39H51.5005V40H52.5005V47H51.5005V48H53.5005V49H54.5005V48H55.5005V49H56.5005V47.95C56.9738 47.8547 57.4091 47.624 57.7537 47.2859C58.0983 46.9478 58.3373 46.517 58.4416 46.0456C58.5459 45.5743 58.5111 45.0828 58.3414 44.6309C58.1717 44.179 57.8743 43.7861 57.4856 43.5ZM53.5005 40H56.0005C56.3984 40 56.7799 40.158 57.0612 40.4393C57.3425 40.7206 57.5006 41.1022 57.5006 41.5C57.5006 41.8978 57.3425 42.2794 57.0612 42.5607C56.7799 42.842 56.3984 43 56.0005 43H53.5005V40ZM56.0005 47H53.5005V44H56.0005C56.3984 44 56.7799 44.158 57.0612 44.4393C57.3425 44.7206 57.5006 45.1022 57.5006 45.5C57.5006 45.8978 57.3425 46.2794 57.0612 46.5607C56.7799 46.842 56.3984 47 56.0005 47Z" stroke="url(#paint5_linear_2163_1754)" stroke-width="0.4" mask="url(#path-3-outside-1_2163_1754)"/>
<defs>
<linearGradient id="paint0_linear_2163_1754" x1="55.0005" y1="38" x2="55.0005" y2="49" gradientUnits="userSpaceOnUse">
<stop stop-color="#19459F"/>
<stop offset="0.62" stop-color="#30388F"/>
<stop offset="1" stop-color="#122058"/>
</linearGradient>
<linearGradient id="paint1_linear_2163_1754" x1="55.0005" y1="38" x2="55.0005" y2="49" gradientUnits="userSpaceOnUse">
<stop stop-color="#19459F"/>
<stop offset="0.62" stop-color="#30388F"/>
<stop offset="1" stop-color="#122058"/>
</linearGradient>
<linearGradient id="paint2_linear_2163_1754" x1="55.0005" y1="38" x2="55.0005" y2="49" gradientUnits="userSpaceOnUse">
<stop stop-color="#19459F"/>
<stop offset="0.62" stop-color="#30388F"/>
<stop offset="1" stop-color="#122058"/>
</linearGradient>
<linearGradient id="paint3_linear_2163_1754" x1="55.0005" y1="38" x2="55.0005" y2="49" gradientUnits="userSpaceOnUse">
<stop stop-color="#19459F"/>
<stop offset="0.62" stop-color="#30388F"/>
<stop offset="1" stop-color="#122058"/>
</linearGradient>
<linearGradient id="paint4_linear_2163_1754" x1="55.0005" y1="38" x2="55.0005" y2="49" gradientUnits="userSpaceOnUse">
<stop stop-color="#19459F"/>
<stop offset="0.62" stop-color="#30388F"/>
<stop offset="1" stop-color="#122058"/>
</linearGradient>
<linearGradient id="paint5_linear_2163_1754" x1="55.0005" y1="38" x2="55.0005" y2="49" gradientUnits="userSpaceOnUse">
<stop stop-color="#19459F"/>
<stop offset="0.62" stop-color="#30388F"/>
<stop offset="1" stop-color="#122058"/>
</linearGradient>
</defs>
</svg>
