<svg width="17" height="20" viewBox="0 0 17 20" fill="none" xmlns="http://www.w3.org/2000/svg">
<path d="M11.711 3.46877C12.3909 2.535 12.8522 1.28122 12.7305 0C11.7353 0.054341 10.5209 0.720988 9.81776 1.65549C9.18644 2.45575 8.62767 3.76203 8.77334 4.98954C9.89051 5.09595 11.0066 4.37635 11.711 3.46877Z" fill="black"/>
<path d="M12.6434 5.00649C11.0247 4.90956 9.64835 5.93003 8.87532 5.93003C8.10187 5.93003 6.91812 5.05534 5.6378 5.07891C3.97137 5.10352 2.42512 6.05069 1.57949 7.55713C-0.15985 10.5708 1.12048 15.041 2.81189 17.4955C3.63328 18.7098 4.62319 20.0468 5.92755 19.9987C7.15995 19.9501 7.643 19.1965 9.14104 19.1965C10.638 19.1965 11.0731 19.9987 12.3777 19.9744C13.7305 19.9501 14.5763 18.7595 15.3977 17.5441C16.34 16.1599 16.7257 14.8233 16.75 14.7499C16.7257 14.7256 14.1413 13.7289 14.1173 10.7403C14.0929 8.23795 16.1464 7.04768 16.243 6.97386C15.0834 5.24974 13.2715 5.05534 12.6434 5.00649Z" fill="black"/>
</svg>
