<svg width="21" height="20" viewBox="0 0 21 20" fill="none" xmlns="http://www.w3.org/2000/svg">
<path d="M20.25 10.0011C20.25 9.30556 20.1818 8.64 20.0551 8H10.25V11.6667L15.8969 11.6678C15.6679 12.8878 14.9308 13.9278 13.8014 14.6211V17H17.1628C19.1255 15.3433 20.25 12.8944 20.25 10.0011Z" fill="#4285F4"/>
<path d="M13.9381 15.136C13.0162 15.7343 11.829 16.0843 10.4402 16.0843C7.75731 16.0843 5.48137 14.3448 4.66631 12H1.25V14.5504C2.94255 17.7823 6.42128 20 10.4402 20C13.2179 20 15.5514 19.121 17.25 17.6079L13.9381 15.136Z" fill="#34A853"/>
<path d="M3.96467 10.5C3.96467 9.83325 4.06581 9.18872 4.25 8.58279V6H1.21992C0.599213 7.35339 0.25 8.88108 0.25 10.5C0.25 12.1189 0.600278 13.6466 1.21992 15L4.25 12.4172C4.06581 11.8113 3.96467 11.1668 3.96467 10.5Z" fill="#FABB05"/>
<path d="M10.3997 3.91568C11.9091 3.91568 13.2608 4.41813 14.328 5.39994L17.25 2.57811C15.4753 0.980653 13.1616 0 10.3997 0C6.39969 0 2.93509 2.21773 1.25 5.44961L4.65125 8C5.46273 5.65521 7.72864 3.91568 10.3997 3.91568Z" fill="#E94235"/>
</svg>
