<svg width="150" height="48" viewBox="0 0 150 48" fill="none" xmlns="http://www.w3.org/2000/svg">
<path fill-rule="evenodd" clip-rule="evenodd" d="M14.2792 22.2563C16.692 20.5787 19.5699 19.649 22.5071 19.505L22.5406 19.5034L22.574 19.505C25.5112 19.649 28.3891 20.5787 30.802 22.2563C31.015 20.7444 31.1015 19.0447 31.0292 17.1326C28.9364 15.5002 26.0277 14.2193 22.5406 14.0483C19.0535 14.2193 16.1447 15.5002 14.052 17.1326C13.9796 19.0447 14.0662 20.7444 14.2792 22.2563ZM17.1053 16.2158L16.7046 17.4571L15.4 17.4547L16.4569 18.2193L16.0514 19.4591L17.1053 18.6904L18.1593 19.4591L17.7537 18.2193L18.8107 17.4547L17.5061 17.4571L17.1053 16.2158ZM27.9758 16.2158L28.3765 17.4571L29.6811 17.4547L28.6242 18.2193L29.0297 19.4591L27.9758 18.6904L26.9218 19.4591L27.3274 18.2193L26.2705 17.4547L27.5751 17.4571L27.9758 16.2158ZM22.5406 14.6943L23.055 16.288L24.7299 16.2848L23.373 17.2664L23.8937 18.8582L22.5406 17.8712L21.1876 18.8582L21.7082 17.2664L20.3513 16.2848L22.0261 16.288L22.5406 14.6943Z" fill="#244065"/>
<path fill-rule="evenodd" clip-rule="evenodd" d="M22.5405 36C25.7996 34.6837 28.1554 33.1852 30.1294 30.1678C32.9078 25.9207 33.2239 21.0171 33.0378 16.1046C29.7501 13.5402 26.7806 12.2079 22.5405 12V13.3656C25.9972 13.5324 28.9777 14.6678 31.6987 16.7899C31.863 21.1253 31.4228 25.699 28.9878 29.4212C27.3638 31.9036 25.2634 33.4295 22.5405 34.529V36Z" fill="#B3B3B3"/>
<path fill-rule="evenodd" clip-rule="evenodd" d="M21.8588 20.2343V33.4979C22.0887 33.6046 22.3164 33.7029 22.5408 33.7935C22.7651 33.7029 22.9928 33.6046 23.2229 33.4979V20.2343C22.9981 20.2136 22.7707 20.1975 22.5408 20.1862C22.3108 20.1975 22.0835 20.2136 21.8588 20.2343ZM15.0381 25.6033V22.5687C14.8178 22.7116 14.6045 22.8586 14.3984 23.0092C14.5638 23.9488 14.7799 24.8114 15.0381 25.6033ZM17.7663 30.4907V21.1831C17.2919 21.3651 16.8368 21.5673 16.4022 21.7863V28.6299C16.8224 29.3289 17.2817 29.9455 17.7663 30.4907ZM20.4946 32.768V20.4205C20.0266 20.5056 19.5717 20.6106 19.1304 20.7332V31.7999C19.5786 32.1666 20.0364 32.487 20.4946 32.768ZM30.0435 22.5688V25.603C30.3017 24.8112 30.5178 23.9487 30.6832 23.0092C30.4771 22.8586 30.2638 22.7116 30.0435 22.5688ZM27.3153 21.1831V30.4906C27.7999 29.9453 28.2593 29.3286 28.6794 28.6298V21.7864C28.2448 21.5674 27.7897 21.3651 27.3153 21.1831ZM24.587 20.4206V32.768C25.0452 32.4869 25.503 32.1665 25.9512 31.7998V20.7333C25.51 20.6106 25.055 20.5057 24.587 20.4206Z" fill="#CC0000"/>
<path fill-rule="evenodd" clip-rule="evenodd" d="M22.5406 36C19.2815 34.6837 16.9258 33.1852 14.9518 30.1678C12.1734 25.9207 11.8572 21.0171 12.0433 16.1046C15.3311 13.5402 18.3006 12.2079 22.5406 12V13.3656C19.084 13.5324 16.1034 14.6678 13.3824 16.7899C13.2182 21.1253 13.6584 25.699 16.0933 29.4212C17.7174 31.9036 19.8178 33.4295 22.5406 34.529V36Z" fill="#CCCCCC"/>
<path d="M44.3453 31.5V16.9545H54.1464V19.4901H47.4205V22.956H53.6421V25.4915H47.4205V28.9645H54.1748V31.5H44.3453ZM64.8112 23.7017L62.0414 23.8722C61.994 23.6354 61.8922 23.4223 61.736 23.233C61.5797 23.0388 61.3737 22.8849 61.1181 22.7713C60.8671 22.6529 60.5664 22.5938 60.2161 22.5938C59.7473 22.5938 59.352 22.6932 59.03 22.892C58.708 23.0862 58.547 23.3466 58.547 23.6733C58.547 23.9337 58.6512 24.1539 58.8595 24.3338C59.0679 24.5137 59.4253 24.6581 59.932 24.767L61.9064 25.1648C62.967 25.3826 63.7577 25.733 64.2786 26.2159C64.7994 26.6989 65.0598 27.3333 65.0598 28.1193C65.0598 28.8343 64.8491 29.4616 64.4277 30.0014C64.0111 30.5412 63.4381 30.9626 62.709 31.2656C61.9845 31.5639 61.1488 31.7131 60.2019 31.7131C58.7577 31.7131 57.6072 31.4124 56.7502 30.8111C55.8979 30.205 55.3984 29.3812 55.2516 28.3395L58.2274 28.1832C58.3174 28.6236 58.5352 28.9598 58.8808 29.1918C59.2265 29.419 59.6692 29.5327 60.209 29.5327C60.7393 29.5327 61.1654 29.4309 61.4874 29.2273C61.8141 29.0189 61.9798 28.7514 61.9845 28.4247C61.9798 28.1501 61.8638 27.9252 61.6365 27.75C61.4093 27.5701 61.0589 27.4328 60.5854 27.3381L58.6962 26.9616C57.6308 26.7486 56.8378 26.3793 56.3169 25.8537C55.8008 25.3281 55.5428 24.6581 55.5428 23.8438C55.5428 23.143 55.7322 22.5393 56.111 22.0327C56.4945 21.526 57.0319 21.1354 57.7232 20.8608C58.4192 20.5862 59.2336 20.4489 60.1664 20.4489C61.5442 20.4489 62.6285 20.7401 63.4192 21.3224C64.2146 21.9048 64.6787 22.6979 64.8112 23.7017ZM71.094 31.7131C69.9766 31.7131 69.0154 31.4763 68.2105 31.0028C67.4103 30.5246 66.7947 29.8617 66.3639 29.0142C65.9377 28.1667 65.7247 27.1913 65.7247 26.0881C65.7247 24.9706 65.9401 23.9905 66.371 23.1477C66.8066 22.3002 67.4245 21.6397 68.2247 21.1662C69.0249 20.688 69.9766 20.4489 71.0798 20.4489C72.0315 20.4489 72.8648 20.6217 73.5798 20.9673C74.2947 21.313 74.8606 21.7983 75.2772 22.4233C75.6939 23.0483 75.9235 23.7822 75.9661 24.625H73.111C73.0305 24.0805 72.8175 23.6425 72.4718 23.3111C72.1309 22.9749 71.6835 22.8068 71.1295 22.8068C70.6607 22.8068 70.2512 22.9347 69.9008 23.1903C69.5552 23.4413 69.2853 23.8082 69.0911 24.2912C68.897 24.7741 68.7999 25.3589 68.7999 26.0455C68.7999 26.7415 68.8946 27.3333 69.084 27.821C69.2782 28.3087 69.5504 28.6804 69.9008 28.9361C70.2512 29.1918 70.6607 29.3196 71.1295 29.3196C71.4751 29.3196 71.7853 29.2486 72.0599 29.1065C72.3392 28.9645 72.5689 28.7585 72.7488 28.4886C72.9335 28.214 73.0542 27.8849 73.111 27.5014H75.9661C75.9188 28.3348 75.6915 29.0687 75.2843 29.7031C74.8819 30.3329 74.3255 30.8253 73.6153 31.1804C72.9051 31.5355 72.0646 31.7131 71.094 31.7131ZM77.1033 31.5V20.5909H80.0365V22.4943H80.1502C80.349 21.8172 80.6828 21.3059 81.1516 20.9602C81.6203 20.6098 82.1601 20.4347 82.7709 20.4347C82.9224 20.4347 83.0858 20.4441 83.261 20.4631C83.4361 20.482 83.59 20.508 83.7226 20.5412V23.2259C83.5806 23.1832 83.3841 23.1454 83.1331 23.1122C82.8822 23.0791 82.6525 23.0625 82.4442 23.0625C81.9991 23.0625 81.6014 23.1596 81.251 23.3537C80.9054 23.5431 80.6307 23.8082 80.4271 24.1491C80.2283 24.4901 80.1289 24.883 80.1289 25.3281V31.5H77.1033ZM88.908 31.7131C87.8048 31.7131 86.8508 31.4787 86.0458 31.0099C85.2456 30.5365 84.6277 29.8783 84.1921 29.0355C83.7565 28.188 83.5387 27.2055 83.5387 26.0881C83.5387 24.9612 83.7565 23.9763 84.1921 23.1335C84.6277 22.286 85.2456 21.6278 86.0458 21.1591C86.8508 20.6856 87.8048 20.4489 88.908 20.4489C90.0113 20.4489 90.963 20.6856 91.7632 21.1591C92.5681 21.6278 93.1883 22.286 93.624 23.1335C94.0596 23.9763 94.2774 24.9612 94.2774 26.0881C94.2774 27.2055 94.0596 28.188 93.624 29.0355C93.1883 29.8783 92.5681 30.5365 91.7632 31.0099C90.963 31.4787 90.0113 31.7131 88.908 31.7131ZM88.9222 29.3693C89.4241 29.3693 89.8432 29.2273 90.1793 28.9432C90.5155 28.6544 90.7688 28.2614 90.9393 27.7642C91.1145 27.267 91.2021 26.7012 91.2021 26.0668C91.2021 25.4323 91.1145 24.8665 90.9393 24.3693C90.7688 23.8722 90.5155 23.4792 90.1793 23.1903C89.8432 22.9015 89.4241 22.7571 88.9222 22.7571C88.4156 22.7571 87.9895 22.9015 87.6438 23.1903C87.3029 23.4792 87.0449 23.8722 86.8697 24.3693C86.6992 24.8665 86.614 25.4323 86.614 26.0668C86.614 26.7012 86.6992 27.267 86.8697 27.7642C87.0449 28.2614 87.3029 28.6544 87.6438 28.9432C87.9895 29.2273 88.4156 29.3693 88.9222 29.3693ZM97.3232 31.5L94.3545 20.5909H97.4156L99.1059 27.9205H99.2053L100.967 20.5909H103.971L105.761 27.8778H105.853L107.515 20.5909H110.569L107.607 31.5H104.404L102.529 24.6392H102.394L100.519 31.5H97.3232ZM114.409 16.9545V31.5H111.383V16.9545H114.409ZM117.9 35.5909C117.517 35.5909 117.157 35.5601 116.821 35.4986C116.489 35.4418 116.214 35.3684 115.997 35.2784L116.678 33.0199C117.034 33.1288 117.353 33.188 117.637 33.1974C117.926 33.2069 118.175 33.1406 118.383 32.9986C118.596 32.8565 118.769 32.6151 118.902 32.2741L119.079 31.8125L115.166 20.5909H118.348L120.606 28.6023H120.72L123 20.5909H126.203L121.963 32.679C121.759 33.2661 121.482 33.7775 121.132 34.2131C120.786 34.6534 120.348 34.992 119.818 35.2287C119.287 35.4702 118.648 35.5909 117.9 35.5909Z" fill="#030518"/>
<path d="M129.259 21.4975V20.8636H132.245V21.4975H131.132V24.5H130.372V21.4975H129.259ZM132.537 20.8636H133.485L134.487 23.3068H134.529L135.531 20.8636H136.479V24.5H135.733V22.1332H135.703L134.762 24.4822H134.254L133.313 22.1243H133.283V24.5H132.537V20.8636Z" fill="#030518"/>
</svg>
