<?xml version="1.0" encoding="UTF-8"?>
<svg xmlns="http://www.w3.org/2000/svg" xmlns:xlink="http://www.w3.org/1999/xlink" width="30px" height="33px" viewBox="0 0 30 33" version="1.1">
<g id="surface1">
<path style=" stroke:none;fill-rule:nonzero;fill:rgb(10.196079%,10.196079%,14.509805%);fill-opacity:1;" d="M 15.0625 0.683594 C 10.5 0.433594 4.1875 4.011719 1.601562 5.832031 C -1.628906 20.941406 9.230469 29.03125 15.0625 31.1875 C 28.191406 27.167969 29.808594 12.609375 28.972656 5.832031 C 26.242188 4.21875 19.628906 0.9375 15.0625 0.683594 Z M 15.0625 0.683594 "/>
<path style=" stroke:none;fill-rule:evenodd;fill:rgb(8.235294%,22.745098%,52.156866%);fill-opacity:1;" d="M 3.355469 14.109375 C 6.777344 11.875 10.855469 10.632812 15.015625 10.441406 L 15.109375 10.441406 C 19.273438 10.632812 23.351562 11.875 26.769531 14.109375 C 27.074219 12.09375 27.195312 9.828125 27.09375 7.277344 C 24.128906 5.101562 20.003906 3.390625 15.0625 3.167969 C 10.121094 3.390625 6 5.101562 3.039062 7.277344 C 2.933594 9.828125 3.054688 12.09375 3.355469 14.109375 Z M 3.355469 14.109375 "/>
<path style=" stroke:none;fill-rule:evenodd;fill:rgb(29.803923%,29.803923%,29.803923%);fill-opacity:1;" d="M 15.0625 32.441406 C 19.679688 30.6875 23.019531 28.6875 25.816406 24.660156 C 29.753906 19 30.203125 12.460938 29.941406 5.90625 C 25.28125 2.488281 21.070312 0.710938 15.0625 0.433594 L 15.0625 2.253906 C 19.964844 2.476562 24.183594 3.992188 28.042969 6.824219 C 28.273438 12.605469 27.648438 18.703125 24.199219 23.667969 C 21.898438 26.980469 18.921875 29.011719 15.0625 30.476562 Z M 15.0625 32.441406 "/>
<path style=" stroke:none;fill-rule:evenodd;fill:rgb(80.000001%,0%,0%);fill-opacity:1;" d="M 14.097656 11.417969 L 14.097656 29.105469 C 14.421875 29.246094 14.746094 29.378906 15.0625 29.496094 C 15.382812 29.378906 15.707031 29.246094 16.03125 29.105469 L 16.03125 11.417969 C 15.710938 11.386719 15.390625 11.367188 15.0625 11.351562 C 14.738281 11.367188 14.417969 11.386719 14.097656 11.417969 Z M 4.433594 18.574219 L 4.433594 14.527344 C 4.121094 14.71875 3.820312 14.914062 3.523438 15.117188 C 3.757812 16.367188 4.066406 17.519531 4.433594 18.574219 Z M 8.296875 25.09375 L 8.296875 12.679688 C 7.625 12.921875 6.980469 13.191406 6.367188 13.484375 L 6.367188 22.613281 C 6.960938 23.542969 7.609375 24.367188 8.296875 25.09375 Z M 12.164062 28.128906 L 12.164062 11.664062 C 11.5 11.777344 10.855469 11.914062 10.234375 12.078125 L 10.234375 26.839844 C 10.867188 27.328125 11.515625 27.753906 12.164062 28.128906 Z M 25.695312 14.527344 L 25.695312 18.574219 C 26.058594 17.519531 26.367188 16.367188 26.601562 15.117188 C 26.308594 14.914062 26.007812 14.71875 25.695312 14.527344 Z M 21.828125 12.679688 L 21.828125 25.09375 C 22.515625 24.367188 23.167969 23.542969 23.765625 22.613281 L 23.765625 13.484375 C 23.144531 13.191406 22.503906 12.921875 21.828125 12.679688 Z M 17.964844 11.664062 L 17.964844 28.128906 C 18.613281 27.753906 19.261719 27.328125 19.898438 26.835938 L 19.898438 12.078125 C 19.273438 11.914062 18.625 11.777344 17.964844 11.664062 Z M 17.964844 11.664062 "/>
<path style=" stroke:none;fill-rule:evenodd;fill:rgb(25.882354%,25.882354%,25.882354%);fill-opacity:1;" d="M 15.0625 32.441406 C 10.445312 30.6875 7.105469 28.6875 4.3125 24.660156 C 0.375 19 -0.0742188 12.460938 0.191406 5.90625 C 4.847656 2.488281 9.054688 0.710938 15.0625 0.433594 L 15.0625 2.253906 C 10.167969 2.476562 5.941406 3.992188 2.085938 6.824219 C 1.851562 12.605469 2.476562 18.703125 5.929688 23.667969 C 8.226562 26.980469 11.207031 29.011719 15.0625 30.476562 Z M 15.0625 32.441406 "/>
<path style=" stroke:none;fill-rule:nonzero;fill:rgb(10.196079%,10.196079%,14.509805%);fill-opacity:1;" d="M 16.53125 5.089844 C 16.664062 5.125 16.804688 5.261719 16.84375 5.398438 L 17.285156 7.015625 C 17.320312 7.152344 17.242188 7.230469 17.105469 7.195312 L 15.449219 6.761719 C 15.3125 6.726562 15.171875 6.585938 15.136719 6.453125 L 14.691406 4.832031 C 14.65625 4.695312 14.738281 4.617188 14.875 4.65625 Z M 16.53125 5.089844 "/>
<path style=" stroke:none;fill-rule:nonzero;fill:rgb(10.196079%,10.196079%,14.509805%);fill-opacity:1;" d="M 14.214844 4.753906 C 14.316406 4.65625 14.425781 4.683594 14.460938 4.820312 L 14.90625 6.4375 C 14.941406 6.574219 14.890625 6.761719 14.789062 6.859375 L 13.578125 8.046875 C 13.480469 8.144531 13.367188 8.113281 13.332031 7.984375 L 12.886719 6.359375 C 12.847656 6.226562 12.902344 6.039062 13 5.9375 Z M 14.214844 4.753906 "/>
<path style=" stroke:none;fill-rule:nonzero;fill:rgb(10.196079%,10.196079%,14.509805%);fill-opacity:1;" d="M 14.925781 7.109375 C 15.027344 7.011719 15.21875 6.960938 15.355469 6.996094 L 17.011719 7.429688 C 17.148438 7.46875 17.179688 7.574219 17.078125 7.671875 L 15.863281 8.859375 C 15.765625 8.957031 15.574219 9.007812 15.4375 8.972656 L 13.78125 8.539062 C 13.644531 8.5 13.617188 8.394531 13.714844 8.292969 Z M 14.925781 7.109375 "/>
<path style=" stroke:none;fill-rule:nonzero;fill:rgb(10.196079%,10.196079%,14.509805%);fill-opacity:1;" d="M 23.859375 7.277344 C 23.964844 7.304688 24.070312 7.40625 24.097656 7.503906 L 24.433594 8.710938 C 24.464844 8.808594 24.402344 8.871094 24.300781 8.84375 L 23.03125 8.519531 C 22.925781 8.492188 22.820312 8.390625 22.792969 8.289062 L 22.457031 7.085938 C 22.425781 6.984375 22.488281 6.929688 22.59375 6.953125 Z M 23.859375 7.277344 "/>
<path style=" stroke:none;fill-rule:nonzero;fill:rgb(10.196079%,10.196079%,14.509805%);fill-opacity:1;" d="M 22.089844 7.027344 C 22.167969 6.953125 22.25 6.976562 22.277344 7.078125 L 22.617188 8.28125 C 22.644531 8.382812 22.609375 8.519531 22.53125 8.59375 L 21.605469 9.476562 C 21.527344 9.546875 21.441406 9.527344 21.417969 9.425781 L 21.078125 8.222656 C 21.050781 8.121094 21.085938 7.984375 21.164062 7.910156 Z M 22.089844 7.027344 "/>
<path style=" stroke:none;fill-rule:nonzero;fill:rgb(10.196079%,10.196079%,14.509805%);fill-opacity:1;" d="M 22.636719 8.777344 C 22.710938 8.707031 22.859375 8.667969 22.960938 8.691406 L 24.226562 9.015625 C 24.332031 9.042969 24.355469 9.125 24.277344 9.195312 L 23.351562 10.078125 C 23.277344 10.152344 23.128906 10.191406 23.027344 10.160156 L 21.757812 9.839844 C 21.65625 9.8125 21.632812 9.734375 21.707031 9.660156 Z M 22.636719 8.777344 "/>
<path style=" stroke:none;fill-rule:nonzero;fill:rgb(10.196079%,10.196079%,14.509805%);fill-opacity:1;" d="M 8.34375 7.277344 C 8.449219 7.304688 8.558594 7.40625 8.585938 7.503906 L 8.925781 8.710938 C 8.949219 8.808594 8.890625 8.871094 8.785156 8.84375 L 7.519531 8.519531 C 7.414062 8.492188 7.308594 8.390625 7.28125 8.289062 L 6.941406 7.085938 C 6.914062 6.984375 6.972656 6.929688 7.078125 6.953125 Z M 8.34375 7.277344 "/>
<path style=" stroke:none;fill-rule:nonzero;fill:rgb(10.196079%,10.196079%,14.509805%);fill-opacity:1;" d="M 6.578125 7.027344 C 6.65625 6.953125 6.738281 6.976562 6.765625 7.078125 L 7.105469 8.28125 C 7.132812 8.382812 7.09375 8.519531 7.019531 8.59375 L 6.089844 9.476562 C 6.015625 9.546875 5.929688 9.527344 5.902344 9.425781 L 5.566406 8.222656 C 5.535156 8.121094 5.574219 7.984375 5.648438 7.910156 Z M 6.578125 7.027344 "/>
<path style=" stroke:none;fill-rule:nonzero;fill:rgb(10.196079%,10.196079%,14.509805%);fill-opacity:1;" d="M 7.125 8.777344 C 7.199219 8.707031 7.34375 8.667969 7.449219 8.691406 L 8.714844 9.015625 C 8.816406 9.042969 8.84375 9.125 8.765625 9.195312 L 7.839844 10.078125 C 7.761719 10.152344 7.617188 10.191406 7.511719 10.160156 L 6.246094 9.839844 C 6.140625 9.8125 6.117188 9.734375 6.195312 9.660156 Z M 7.125 8.777344 "/>
</g>
</svg>
