<svg width="126" height="24" viewBox="0 0 126 24" fill="none" xmlns="http://www.w3.org/2000/svg">
<path d="M10.54 0.188122C7.31912 -0.000113696 2.8648 2.68224 1.04024 4.04694C-1.23969 15.3787 6.42343 21.443 10.54 23.0587C19.8045 20.047 20.9445 9.1293 20.3564 4.04694C18.4263 2.8391 13.7608 0.376357 10.54 0.188122Z" fill="white"/>
<path fill-rule="evenodd" clip-rule="evenodd" d="M2.2797 10.2563C4.69241 8.57879 7.57019 7.64911 10.5073 7.50511L10.5407 7.50342L10.5741 7.50511C13.5112 7.64911 16.389 8.57879 18.8018 10.2563C19.0148 8.74451 19.1013 7.04473 19.029 5.13262C16.9363 3.50028 14.0277 2.21932 10.5407 2.04834C7.05375 2.21932 4.14512 3.50028 2.05247 5.13262C1.98007 7.04473 2.06665 8.74451 2.2797 10.2563Z" fill="#153A85"/>
<path fill-rule="evenodd" clip-rule="evenodd" d="M10.54 24C13.799 22.6837 16.1547 21.1852 18.1286 18.1678C20.9069 13.9207 21.223 9.01708 21.0369 4.1046C17.7493 1.5402 14.7799 0.207873 10.54 4.67079e-07V1.36555C13.9965 1.53237 16.977 2.66783 19.6979 4.7899C19.8621 9.12528 19.4219 13.699 16.9871 17.4212C15.3631 19.9036 13.2628 21.4295 10.54 22.529V24Z" fill="#B3B4BA"/>
<path fill-rule="evenodd" clip-rule="evenodd" d="M9.85747 8.23431V21.4979C10.0874 21.6046 10.3151 21.7029 10.5394 21.7935C10.7638 21.7029 10.9915 21.6046 11.2215 21.4979V8.23431C10.9968 8.21358 10.7694 8.19752 10.5394 8.18621C10.3095 8.19752 10.0822 8.21358 9.85747 8.23431ZM3.03709 13.6033V10.5687C2.8168 10.7116 2.60356 10.8586 2.39746 11.0092C2.5628 11.9488 2.77892 12.8114 3.03709 13.6033ZM5.7652 18.4907V9.18313C5.29081 9.36512 4.83576 9.56734 4.40114 9.78632V16.6299C4.82128 17.3289 5.2806 17.9455 5.7652 18.4907ZM8.49341 20.768V8.42047C8.02537 8.50556 7.57052 8.61058 7.12926 8.73317V19.7999C7.57746 20.1666 8.03519 20.487 8.49341 20.768ZM18.0419 10.5688V13.603C18.3001 12.8112 18.5162 11.9488 18.6815 11.0092C18.4754 10.8586 18.2622 10.7116 18.0419 10.5688ZM15.3138 9.18313V18.4906C15.7984 17.9453 16.2577 17.3286 16.6778 16.6298V9.78642C16.2432 9.56744 15.7882 9.36512 15.3138 9.18313ZM12.5856 8.42056V20.768C13.0438 20.4869 13.5015 20.1665 13.9497 19.7998V8.73327C13.5086 8.61058 13.0536 8.50566 12.5856 8.42056Z" fill="#CC0000"/>
<path fill-rule="evenodd" clip-rule="evenodd" d="M10.5402 24C7.28116 22.6837 4.92558 21.1852 2.95165 18.1678C0.173351 13.9207 -0.142844 9.01708 0.0433216 4.1046C3.33092 1.5402 6.30035 0.207873 10.5402 4.67079e-07V1.36555C7.08369 1.53237 4.10326 2.66783 1.38238 4.7899C1.21814 9.12528 1.65831 13.699 4.09314 17.4212C5.71715 19.9036 7.81744 21.4295 10.5402 22.529V24Z" fill="#CDCDD1"/>
<path d="M11.5723 3.49092C11.6688 3.51783 11.768 3.62104 11.7939 3.72146L12.107 4.93725C12.1329 5.03767 12.0756 5.09726 11.9791 5.07035L10.8104 4.74458C10.7138 4.71768 10.6146 4.61446 10.5888 4.51404L10.2756 3.29825C10.2497 3.19784 10.307 3.13825 10.4036 3.16515L11.5723 3.49092Z" fill="white"/>
<path d="M9.93916 3.23887C10.0098 3.16536 10.0881 3.18718 10.1139 3.28759L10.4271 4.50338C10.453 4.6038 10.4166 4.74479 10.346 4.8183L9.49042 5.70832C9.41975 5.78183 9.3415 5.76002 9.31564 5.6596L9.00248 4.44382C8.97661 4.3434 9.01293 4.2024 9.0836 4.12889L9.93916 3.23887Z" fill="white"/>
<path d="M10.4422 5.00482C10.5128 4.93131 10.6484 4.89353 10.7449 4.92044L11.9136 5.24621C12.0101 5.27311 12.0311 5.35452 11.9604 5.42803L11.1049 6.31805C11.0342 6.39156 10.8987 6.42934 10.8021 6.40243L9.63342 6.07666C9.53689 6.04975 9.51593 5.96835 9.58659 5.89484L10.4422 5.00482Z" fill="white"/>
<path d="M16.7456 5.13211C16.8193 5.1521 16.8951 5.22879 16.9148 5.3034L17.154 6.20675C17.1738 6.28136 17.13 6.32564 17.0563 6.30565L16.1636 6.06359C16.0899 6.0436 16.0141 5.96691 15.9943 5.8923L15.7552 4.98895C15.7354 4.91434 15.7792 4.87006 15.8529 4.89005L16.7456 5.13211Z" fill="white"/>
<path d="M15.4982 4.94483C15.5521 4.89021 15.6119 4.90642 15.6317 4.98103L15.8709 5.88438C15.8906 5.95899 15.8629 6.06375 15.8089 6.11837L15.1554 6.77967C15.1015 6.83429 15.0417 6.81808 15.0219 6.74347L14.7827 5.84012C14.763 5.76551 14.7907 5.66075 14.8447 5.60613L15.4982 4.94483Z" fill="white"/>
<path d="M15.8824 6.25695C15.9363 6.20233 16.0399 6.17426 16.1136 6.19426L17.0063 6.43631C17.08 6.4563 17.096 6.51678 17.042 6.5714L16.3886 7.2327C16.3346 7.28732 16.2311 7.31539 16.1573 7.2954L15.2647 7.05335C15.1909 7.03335 15.1749 6.97287 15.2289 6.91825L15.8824 6.25695Z" fill="white"/>
<path d="M5.79927 5.13211C5.873 5.1521 5.94878 5.22879 5.96854 5.3034L6.20773 6.20675C6.22748 6.28136 6.18373 6.32564 6.11 6.30565L5.21733 6.06359C5.1436 6.0436 5.06781 5.96691 5.04806 5.8923L4.80887 4.98895C4.78911 4.91434 4.83287 4.87006 4.9066 4.89005L5.79927 5.13211Z" fill="white"/>
<path d="M4.55188 4.94483C4.60586 4.89021 4.66563 4.90642 4.68538 4.98103L4.92457 5.88438C4.94433 5.95899 4.91659 6.06375 4.86262 6.11837L4.20914 6.77967C4.15516 6.83429 4.09539 6.81808 4.07564 6.74347L3.83645 5.84012C3.81669 5.76551 3.84443 5.66075 3.8984 5.60613L4.55188 4.94483Z" fill="white"/>
<path d="M4.93607 6.25695C4.99005 6.20233 5.09357 6.17426 5.1673 6.19426L6.05997 6.43631C6.1337 6.4563 6.14972 6.51678 6.09574 6.5714L5.44226 7.2327C5.38829 7.28732 5.28477 7.31539 5.21104 7.2954L4.31837 7.05335C4.24464 7.03335 4.22862 6.97287 4.28259 6.91825L4.93607 6.25695Z" fill="white"/>
<path d="M32.3443 19.5V4.95455H42.1454V7.49006H35.4196V10.956H41.6412V13.4915H35.4196V16.9645H42.1738V19.5H32.3443ZM52.8103 11.7017L50.0404 11.8722C49.993 11.6354 49.8912 11.4223 49.735 11.233C49.5787 11.0388 49.3728 10.8849 49.1171 10.7713C48.8661 10.6529 48.5655 10.5938 48.2151 10.5938C47.7463 10.5938 47.351 10.6932 47.029 10.892C46.707 11.0862 46.5461 11.3466 46.5461 11.6733C46.5461 11.9337 46.6502 12.1539 46.8586 12.3338C47.0669 12.5137 47.4244 12.6581 47.931 12.767L49.9054 13.1648C50.966 13.3826 51.7568 13.733 52.2776 14.2159C52.7984 14.6989 53.0588 15.3333 53.0588 16.1193C53.0588 16.8343 52.8481 17.4616 52.4267 18.0014C52.0101 18.5412 51.4372 18.9626 50.708 19.2656C49.9836 19.5639 49.1479 19.7131 48.2009 19.7131C46.7568 19.7131 45.6062 19.4124 44.7492 18.8111C43.8969 18.205 43.3974 17.3812 43.2506 16.3395L46.2265 16.1832C46.3164 16.6236 46.5342 16.9598 46.8799 17.1918C47.2255 17.419 47.6682 17.5327 48.208 17.5327C48.7383 17.5327 49.1644 17.4309 49.4864 17.2273C49.8131 17.0189 49.9788 16.7514 49.9836 16.4247C49.9788 16.1501 49.8628 15.9252 49.6355 15.75C49.4083 15.5701 49.0579 15.4328 48.5844 15.3381L46.6952 14.9616C45.6299 14.7486 44.8368 14.3793 44.3159 13.8537C43.7998 13.3281 43.5418 12.6581 43.5418 11.8438C43.5418 11.143 43.7312 10.5393 44.11 10.0327C44.4935 9.52604 45.0309 9.13542 45.7222 8.8608C46.4182 8.58617 47.2326 8.44886 48.1654 8.44886C49.5432 8.44886 50.6275 8.74006 51.4182 9.32244C52.2137 9.90483 52.6777 10.6979 52.8103 11.7017ZM59.093 19.7131C57.9756 19.7131 57.0144 19.4763 56.2095 19.0028C55.4093 18.5246 54.7938 17.8617 54.3629 17.0142C53.9368 16.1667 53.7237 15.1913 53.7237 14.0881C53.7237 12.9706 53.9391 11.9905 54.37 11.1477C54.8056 10.3002 55.4235 9.63968 56.2237 9.16619C57.0239 8.68797 57.9756 8.44886 59.0788 8.44886C60.0305 8.44886 60.8638 8.62169 61.5788 8.96733C62.2938 9.31297 62.8596 9.7983 63.2762 10.4233C63.6929 11.0483 63.9225 11.7822 63.9652 12.625H61.11C61.0296 12.0805 60.8165 11.6425 60.4708 11.3111C60.1299 10.9749 59.6825 10.8068 59.1285 10.8068C58.6598 10.8068 58.2502 10.9347 57.8998 11.1903C57.5542 11.4413 57.2843 11.8082 57.0902 12.2912C56.896 12.7741 56.799 13.3589 56.799 14.0455C56.799 14.7415 56.8937 15.3333 57.0831 15.821C57.2772 16.3087 57.5494 16.6804 57.8998 16.9361C58.2502 17.1918 58.6598 17.3196 59.1285 17.3196C59.4742 17.3196 59.7843 17.2486 60.0589 17.1065C60.3383 16.9645 60.5679 16.7585 60.7478 16.4886C60.9325 16.214 61.0532 15.8849 61.11 15.5014H63.9652C63.9178 16.3348 63.6905 17.0687 63.2833 17.7031C62.8809 18.3329 62.3245 18.8253 61.6143 19.1804C60.9041 19.5355 60.0636 19.7131 59.093 19.7131ZM65.1023 19.5V8.59091H68.0355V10.4943H68.1492C68.348 9.81723 68.6819 9.30587 69.1506 8.96023C69.6194 8.60985 70.1591 8.43466 70.7699 8.43466C70.9214 8.43466 71.0848 8.44413 71.26 8.46307C71.4352 8.48201 71.589 8.50805 71.7216 8.54119V11.2259C71.5796 11.1832 71.3831 11.1454 71.1321 11.1122C70.8812 11.0791 70.6515 11.0625 70.4432 11.0625C69.9981 11.0625 69.6004 11.1596 69.25 11.3537C68.9044 11.5431 68.6298 11.8082 68.4262 12.1491C68.2273 12.4901 68.1279 12.883 68.1279 13.3281V19.5H65.1023ZM76.9071 19.7131C75.8038 19.7131 74.8498 19.4787 74.0449 19.0099C73.2447 18.5365 72.6268 17.8783 72.1912 17.0355C71.7556 16.188 71.5377 15.2055 71.5377 14.0881C71.5377 12.9612 71.7556 11.9763 72.1912 11.1335C72.6268 10.286 73.2447 9.62784 74.0449 9.15909C74.8498 8.68561 75.8038 8.44886 76.9071 8.44886C78.0103 8.44886 78.962 8.68561 79.7622 9.15909C80.5671 9.62784 81.1874 10.286 81.623 11.1335C82.0586 11.9763 82.2764 12.9612 82.2764 14.0881C82.2764 15.2055 82.0586 16.188 81.623 17.0355C81.1874 17.8783 80.5671 18.5365 79.7622 19.0099C78.962 19.4787 78.0103 19.7131 76.9071 19.7131ZM76.9213 17.3693C77.4232 17.3693 77.8422 17.2273 78.1784 16.9432C78.5145 16.6544 78.7679 16.2614 78.9383 15.7642C79.1135 15.267 79.2011 14.7012 79.2011 14.0668C79.2011 13.4323 79.1135 12.8665 78.9383 12.3693C78.7679 11.8722 78.5145 11.4792 78.1784 11.1903C77.8422 10.9015 77.4232 10.7571 76.9213 10.7571C76.4146 10.7571 75.9885 10.9015 75.6429 11.1903C75.302 11.4792 75.0439 11.8722 74.8687 12.3693C74.6983 12.8665 74.613 13.4323 74.613 14.0668C74.613 14.7012 74.6983 15.267 74.8687 15.7642C75.0439 16.2614 75.302 16.6544 75.6429 16.9432C75.9885 17.2273 76.4146 17.3693 76.9213 17.3693ZM85.3223 19.5L82.3535 8.59091H85.4146L87.1049 15.9205H87.2044L88.9657 8.59091H91.97L93.7598 15.8778H93.8521L95.514 8.59091H98.568L95.6064 19.5H92.4032L90.5282 12.6392H90.3933L88.5183 19.5H85.3223ZM102.408 4.95455V19.5H99.382V4.95455H102.408ZM105.899 23.5909C105.516 23.5909 105.156 23.5601 104.82 23.4986C104.488 23.4418 104.214 23.3684 103.996 23.2784L104.678 21.0199C105.033 21.1288 105.352 21.188 105.636 21.1974C105.925 21.2069 106.174 21.1406 106.382 20.9986C106.595 20.8565 106.768 20.6151 106.901 20.2741L107.078 19.8125L103.165 8.59091H106.347L108.605 16.6023H108.719L110.999 8.59091H114.202L109.962 20.679C109.758 21.2661 109.481 21.7775 109.131 22.2131C108.785 22.6534 108.347 22.992 107.817 23.2287C107.286 23.4702 106.647 23.5909 105.899 23.5909Z" fill="#030518"/>
<path d="M117.258 9.49751V8.86364H120.244V9.49751H119.131V12.5H118.371V9.49751H117.258ZM120.536 8.86364H121.484L122.486 11.3068H122.528L123.53 8.86364H124.478V12.5H123.732V10.1332H123.702L122.761 12.4822H122.253L121.312 10.1243H121.282V12.5H120.536V8.86364Z" fill="#030518"/>
</svg>
