<svg width="44" height="44" viewBox="0 0 44 44" fill="none" xmlns="http://www.w3.org/2000/svg">
<rect width="44" height="44" rx="22" fill="white" fill-opacity="0.2"/>
<g clip-path="url(#clip0_310_11761)">
<path d="M22.8811 13.0417H21.1195C19.392 13.0417 18.0317 13.0417 16.9689 13.1846C15.8785 13.3312 15.0081 13.6385 14.3234 14.3232C13.6387 15.0078 13.3315 15.8782 13.1849 16.9687C13.042 18.0315 13.042 19.3918 13.042 21.1193V21.2142C13.042 22.9417 13.042 24.302 13.1849 25.3648C13.3315 26.4553 13.6387 27.3257 14.3234 28.0103C15.0081 28.695 15.8785 29.0023 16.9689 29.1489C18.0317 29.2918 19.392 29.2918 21.1195 29.2917H22.8811C24.6086 29.2918 25.9689 29.2918 27.0317 29.1489C28.1222 29.0023 28.9926 28.695 29.6773 28.0103C30.3619 27.3257 30.6692 26.4553 30.8158 25.3648C30.9587 24.302 30.9587 22.9417 30.9587 21.2142V21.1193C30.9587 19.3918 30.9587 18.0315 30.8158 16.9687C30.6692 15.8782 30.3619 15.0078 29.6773 14.3232C28.9926 13.6385 28.1222 13.3312 27.0317 13.1846C25.9689 13.0417 24.6086 13.0417 22.8811 13.0417Z" stroke="white" stroke-width="1.25"/>
<path d="M26.167 29.2317C26.475 29.2115 26.7629 29.1845 27.0317 29.1484C27.3135 29.1105 27.5806 29.0619 27.8337 28.9988V30.3329C27.8337 30.7931 27.4606 31.1662 27.0003 31.1662C26.5401 31.1662 26.167 30.7931 26.167 30.3329V29.2317Z" fill="white"/>
<path d="M16.167 28.9988C16.42 29.0619 16.6871 29.1105 16.9689 29.1484C17.2378 29.1845 17.5256 29.2115 17.8337 29.2317V30.3329C17.8337 30.7931 17.4606 31.1662 17.0003 31.1662C16.5401 31.1662 16.167 30.7931 16.167 30.3329V28.9988Z" fill="white"/>
<path fill-rule="evenodd" clip-rule="evenodd" d="M19.9167 17.2083C20.2619 17.2083 20.5417 17.4881 20.5417 17.8333V18.96C20.9178 19.0649 21.2558 19.262 21.5285 19.5257L22.5233 18.9573C22.823 18.786 23.2047 18.8901 23.376 19.1898C23.5473 19.4895 23.4431 19.8713 23.1434 20.0426L22.1564 20.6066C22.2016 20.7857 22.2256 20.9732 22.2256 21.1666C22.2256 21.3599 22.2016 21.5475 22.1564 21.7265L23.1435 22.2906C23.4432 22.4619 23.5473 22.8436 23.3761 23.1433C23.2048 23.443 22.823 23.5472 22.5233 23.3759L21.5286 22.8074C21.2558 23.0712 20.9178 23.2683 20.5417 23.3731V24.4999C20.5417 24.8451 20.2619 25.1249 19.9167 25.1249C19.5715 25.1249 19.2917 24.8451 19.2917 24.4999V23.3731C18.9156 23.2683 18.5776 23.0712 18.3049 22.8075L17.3102 23.3759C17.0105 23.5472 16.6287 23.443 16.4575 23.1433C16.2862 22.8436 16.3903 22.4619 16.69 22.2906L17.6771 21.7266C17.6319 21.5475 17.6078 21.36 17.6078 21.1666C17.6078 20.9732 17.6319 20.7856 17.6771 20.6066L16.6901 20.0426C16.3904 19.8713 16.2863 19.4895 16.4575 19.1898C16.6288 18.8901 17.0106 18.786 17.3103 18.9573L18.305 19.5257C18.5777 19.262 18.9156 19.0649 19.2917 18.96V17.8333C19.2917 17.4881 19.5715 17.2083 19.9167 17.2083ZM18.9948 20.6543L19.0013 20.6433L19.0017 20.6425C19.1843 20.3344 19.5233 20.1249 19.9168 20.1249C20.5077 20.1249 20.9757 20.5973 20.9757 21.1666C20.9757 21.7358 20.5077 22.2083 19.9168 22.2083C19.3259 22.2083 18.8579 21.7358 18.8579 21.1666C18.8579 20.9812 18.9075 20.8062 18.9948 20.6543Z" fill="white"/>
<path fill-rule="evenodd" clip-rule="evenodd" d="M25.6151 17.5403C25.4532 17.8452 25.5692 18.2236 25.8741 18.3854C26.13 18.5213 26.2282 18.6622 26.2904 18.9078C26.371 19.2258 26.3755 19.6675 26.3755 20.4116V21.9218C26.3755 22.666 26.371 23.1076 26.2904 23.4256C26.2282 23.6712 26.13 23.8121 25.8741 23.948C25.5692 24.1098 25.4532 24.4882 25.6151 24.7931C25.7769 25.098 26.1553 25.2139 26.4602 25.0521C27.0376 24.7456 27.356 24.3094 27.5022 23.7325C27.6257 23.2446 27.6256 22.6428 27.6255 21.9889V20.3445C27.6256 19.6906 27.6257 19.0889 27.5022 18.6009C27.356 18.024 27.0376 17.5878 26.4602 17.2813C26.1553 17.1195 25.7769 17.2355 25.6151 17.5403Z" fill="white"/>
</g>
<defs>
<clipPath id="clip0_310_11761">
<rect width="20" height="20" fill="white" transform="translate(12 12)"/>
</clipPath>
</defs>
</svg>
