<svg width="72" height="72" viewBox="0 0 72 72" fill="none" xmlns="http://www.w3.org/2000/svg">
<circle cx="36" cy="36" r="35.7805" stroke="#19459F" stroke-width="0.439024" stroke-dasharray="3.2 3.2"/>
<rect x="4.79014" y="4.35117" width="62.4195" height="62.4195" rx="31.2098" stroke="#19459F" stroke-width="0.8"/>
<mask id="path-3-outside-1_4016_2245" maskUnits="userSpaceOnUse" x="21" y="20" width="29" height="30" fill="black">
<rect fill="white" x="21" y="20" width="29" height="30"/>
<path d="M31.0274 46.7716C31.0187 46.7818 31.0095 46.7915 30.9999 46.8008L30.9986 46.8022L28.9683 48.751C28.8848 48.8295 28.7751 48.8731 28.6611 48.8731C28.5471 48.8731 28.4373 48.8295 28.3538 48.751C28.3137 48.7133 28.2817 48.6677 28.2598 48.6169C28.2379 48.5662 28.2266 48.5114 28.2266 48.456C28.2266 48.4007 28.2379 48.3459 28.2598 48.2951C28.2817 48.2444 28.3137 48.1987 28.3538 48.1611L29.6424 46.9242H26.4077C24.6121 46.9242 23.1512 45.5219 23.1512 43.7984V38.6512C23.1569 38.5385 23.2051 38.4324 23.286 38.3547C23.3668 38.277 23.4741 38.2336 23.5857 38.2336C23.6972 38.2336 23.8045 38.277 23.8854 38.3547C23.9662 38.4324 24.0145 38.5385 24.0201 38.6512V43.7985C24.0201 45.0622 25.0912 46.0903 26.4077 46.0903H29.6428L28.2588 44.762C28.2186 44.7244 28.1866 44.6787 28.1646 44.628C28.1427 44.5772 28.1314 44.5224 28.1314 44.4671C28.1314 44.4117 28.1427 44.3569 28.1646 44.3062C28.1866 44.2554 28.2186 44.2098 28.2588 44.1721C28.3422 44.0936 28.452 44.05 28.566 44.05C28.68 44.05 28.7897 44.0936 28.8732 44.1721L30.9987 46.2123L31 46.2137C31.0096 46.223 31.0187 46.2327 31.0275 46.2429C31.0316 46.2477 31.0352 46.2528 31.0391 46.2579C31.0431 46.2629 31.0485 46.2695 31.0527 46.2757C31.057 46.2818 31.0604 46.2876 31.0642 46.2936C31.0679 46.2996 31.0714 46.3049 31.0746 46.3107C31.0779 46.3165 31.0809 46.3229 31.0839 46.3291C31.0869 46.3354 31.0901 46.3414 31.0929 46.348C31.0957 46.3546 31.0975 46.36 31.0998 46.366C31.1021 46.3721 31.105 46.3795 31.1072 46.3865C31.1091 46.3925 31.1105 46.3985 31.1121 46.4045C31.1139 46.4117 31.116 46.4188 31.1175 46.4261C31.119 46.4334 31.1197 46.4396 31.1208 46.4463C31.1218 46.453 31.1231 46.4597 31.1238 46.4664C31.125 46.4783 31.1255 46.4902 31.1257 46.5021V46.5074V46.5128C31.1257 46.5247 31.125 46.5365 31.1238 46.5484C31.1231 46.5552 31.1218 46.5619 31.1208 46.5685C31.1197 46.5752 31.1189 46.5821 31.1175 46.5887C31.1162 46.5954 31.1139 46.6032 31.1121 46.6104C31.1105 46.6164 31.1091 46.6224 31.1072 46.6284C31.105 46.6354 31.1023 46.6421 31.0998 46.6489C31.0972 46.6556 31.0954 46.661 31.0929 46.6669C31.0903 46.6729 31.0867 46.6795 31.0839 46.6858C31.0811 46.692 31.078 46.6983 31.0746 46.7041C31.0713 46.71 31.0677 46.7156 31.0642 46.7212C31.0606 46.7269 31.0568 46.7333 31.0527 46.7392C31.0486 46.7451 31.0437 46.7512 31.0391 46.7571C31.0345 46.763 31.0316 46.7668 31.0274 46.7716ZM45.7437 29.8777H42.5086L43.7972 28.6408C43.8374 28.6031 43.8694 28.5575 43.8913 28.5067C43.9132 28.456 43.9246 28.4012 43.9246 28.3458C43.9246 28.2904 43.9132 28.2357 43.8913 28.1849C43.8694 28.1342 43.8374 28.0885 43.7972 28.0509C43.7138 27.9724 43.604 27.9287 43.49 27.9287C43.376 27.9287 43.2663 27.9724 43.1828 28.0509L41.1525 29.9997L41.1512 30.0011C41.1416 30.0103 41.1324 30.0201 41.1237 30.0302C41.1196 30.0351 41.116 30.0402 41.1121 30.0452C41.1082 30.0501 41.1028 30.0568 41.0985 30.063C41.0942 30.0691 41.0908 30.075 41.0871 30.081C41.0833 30.087 41.0799 30.0922 41.0766 30.098C41.0733 30.1038 41.0704 30.1106 41.0673 30.1165C41.0643 30.1224 41.0611 30.1287 41.0583 30.1353C41.0555 30.1419 41.0537 30.1473 41.0514 30.1534C41.0491 30.1594 41.0462 30.1669 41.044 30.1738C41.0421 30.1798 41.0408 30.1859 41.0391 30.1918C41.0373 30.199 41.0352 30.2061 41.0337 30.2135C41.0322 30.2208 41.0315 30.2269 41.0305 30.2337C41.0294 30.2405 41.0281 30.247 41.0274 30.2538C41.0262 30.2657 41.0257 30.2775 41.0255 30.2895V30.2948V30.3001C41.0255 30.312 41.0262 30.3239 41.0274 30.3358C41.0281 30.3426 41.0294 30.3492 41.0305 30.3559C41.0315 30.3626 41.0323 30.3694 41.0337 30.3761C41.035 30.3828 41.0373 30.3906 41.0391 30.3977C41.0408 30.404 41.0421 30.4098 41.044 30.4157C41.0462 30.4227 41.0489 30.4294 41.0514 30.4362C41.054 30.443 41.0558 30.4483 41.0583 30.4543C41.0609 30.4602 41.0645 30.4668 41.0673 30.4731C41.0701 30.4794 41.0735 30.4856 41.0766 30.4915C41.0796 30.4974 41.0835 30.5029 41.0871 30.5086C41.0906 30.5143 41.0944 30.5207 41.0985 30.5265C41.1026 30.5324 41.1075 30.5385 41.1121 30.5444C41.1167 30.5503 41.1196 30.5545 41.1237 30.5594C41.1324 30.5695 41.1416 30.5792 41.1512 30.5885L41.1525 30.5899L43.278 32.6301C43.3615 32.7086 43.4712 32.7522 43.5852 32.7522C43.6992 32.7522 43.809 32.7086 43.8924 32.6301C43.9326 32.5924 43.9646 32.5468 43.9865 32.4961C44.0084 32.4453 44.0197 32.3905 44.0197 32.3352C44.0197 32.2798 44.0084 32.225 43.9865 32.1743C43.9646 32.1235 43.9326 32.0779 43.8924 32.0402L42.5084 30.7119H45.7435C47.06 30.7119 48.1311 31.74 48.1311 33.0037V38.151C48.1367 38.2637 48.185 38.3698 48.2658 38.4475C48.3467 38.5253 48.454 38.5686 48.5655 38.5686C48.6771 38.5686 48.7844 38.5253 48.8653 38.4475C48.9461 38.3698 48.9943 38.2637 49 38.151V33.0035C49.0002 31.28 47.5393 29.8777 45.7437 29.8777ZM22.3925 28.8956C22.2416 28.7109 22.1303 28.4967 22.0655 28.2663C22.0006 28.0359 21.9837 27.7945 22.0158 27.5572C22.0484 27.318 22.1287 27.088 22.2519 26.8812C22.3751 26.6744 22.5386 26.4951 22.7325 26.3541L29.4317 21.3872C30.1281 20.8709 31.3048 20.8709 32.0011 21.3872L34.1189 22.9574V22.3168C34.1189 21.7256 34.62 21.2445 35.236 21.2445H36.6014C37.2174 21.2445 37.7186 21.7256 37.7186 22.3168V25.6261L38.7005 26.354C39.5242 26.9648 39.6767 28.1048 39.0404 28.8955C38.8583 29.1176 38.6296 29.296 38.3709 29.4176C38.1122 29.5393 37.83 29.6013 37.5446 29.5991C37.5136 29.5991 37.482 29.597 37.4507 29.5955V37.1578C37.4478 37.2714 37.4003 37.3791 37.3189 37.4573C37.2374 37.5355 37.1286 37.5778 37.0163 37.5749H24.4171C24.3049 37.5778 24.196 37.5355 24.1146 37.4573C24.0331 37.3791 23.9857 37.2714 23.9827 37.1578V29.5967C23.6819 29.6135 23.3814 29.5588 23.1052 29.437C22.8291 29.3153 22.585 29.1299 22.3925 28.8956ZM33.1064 36.7409L33.1055 30.1769H28.3265V36.7409H33.1064ZM36.5816 29.3436C36.5163 29.3068 36.4532 29.2662 36.3927 29.2219L30.7165 25.0136L25.0403 29.2219C24.9798 29.2666 24.9167 29.3077 24.8513 29.3448V36.7409H27.4576V29.7598C27.4606 29.6463 27.508 29.5386 27.5895 29.4604C27.6709 29.3823 27.7797 29.34 27.892 29.3428H33.5399C33.6522 29.34 33.761 29.3822 33.8425 29.4604C33.9239 29.5386 33.9714 29.6463 33.9744 29.7598L33.9753 36.741H36.5816V29.3436ZM34.9878 23.6017L36.8497 24.9823V22.3168C36.8472 22.2522 36.8199 22.1911 36.7735 22.1466C36.7271 22.1021 36.6654 22.0776 36.6014 22.0784H35.236C35.1721 22.0776 35.1103 22.1021 35.064 22.1466C35.0176 22.1911 34.9903 22.2522 34.9878 22.3168V23.6017ZM24.5092 28.5619L30.4509 24.1566C30.5281 24.1 30.6211 24.0696 30.7165 24.0696C30.8119 24.0696 30.9048 24.1 30.982 24.1566L36.9238 28.5619C37.1399 28.7205 37.4074 28.7905 37.6725 28.7579C37.9376 28.7252 38.1807 28.5922 38.3528 28.3857C38.4341 28.2853 38.4942 28.1689 38.5291 28.044C38.5641 27.9191 38.5733 27.7882 38.556 27.6595C38.5388 27.5309 38.4956 27.4072 38.4291 27.2961C38.3626 27.1851 38.2741 27.089 38.1693 27.014L31.4701 22.0475C31.0827 21.7603 30.3502 21.7603 29.9628 22.0475L23.2636 27.0141C23.1591 27.0903 23.0709 27.1872 23.0046 27.2989C22.9382 27.4106 22.895 27.5348 22.8776 27.6639C22.8603 27.7918 22.8693 27.9219 22.9041 28.0461C22.939 28.1703 22.9989 28.2859 23.0801 28.3855C23.2522 28.5921 23.4952 28.7251 23.7603 28.7578C24.0255 28.7905 24.293 28.7205 24.5092 28.5619Z"/>
</mask>
<path d="M31.0274 46.7716C31.0187 46.7818 31.0095 46.7915 30.9999 46.8008L30.9986 46.8022L28.9683 48.751C28.8848 48.8295 28.7751 48.8731 28.6611 48.8731C28.5471 48.8731 28.4373 48.8295 28.3538 48.751C28.3137 48.7133 28.2817 48.6677 28.2598 48.6169C28.2379 48.5662 28.2266 48.5114 28.2266 48.456C28.2266 48.4007 28.2379 48.3459 28.2598 48.2951C28.2817 48.2444 28.3137 48.1987 28.3538 48.1611L29.6424 46.9242H26.4077C24.6121 46.9242 23.1512 45.5219 23.1512 43.7984V38.6512C23.1569 38.5385 23.2051 38.4324 23.286 38.3547C23.3668 38.277 23.4741 38.2336 23.5857 38.2336C23.6972 38.2336 23.8045 38.277 23.8854 38.3547C23.9662 38.4324 24.0145 38.5385 24.0201 38.6512V43.7985C24.0201 45.0622 25.0912 46.0903 26.4077 46.0903H29.6428L28.2588 44.762C28.2186 44.7244 28.1866 44.6787 28.1646 44.628C28.1427 44.5772 28.1314 44.5224 28.1314 44.4671C28.1314 44.4117 28.1427 44.3569 28.1646 44.3062C28.1866 44.2554 28.2186 44.2098 28.2588 44.1721C28.3422 44.0936 28.452 44.05 28.566 44.05C28.68 44.05 28.7897 44.0936 28.8732 44.1721L30.9987 46.2123L31 46.2137C31.0096 46.223 31.0187 46.2327 31.0275 46.2429C31.0316 46.2477 31.0352 46.2528 31.0391 46.2579C31.0431 46.2629 31.0485 46.2695 31.0527 46.2757C31.057 46.2818 31.0604 46.2876 31.0642 46.2936C31.0679 46.2996 31.0714 46.3049 31.0746 46.3107C31.0779 46.3165 31.0809 46.3229 31.0839 46.3291C31.0869 46.3354 31.0901 46.3414 31.0929 46.348C31.0957 46.3546 31.0975 46.36 31.0998 46.366C31.1021 46.3721 31.105 46.3795 31.1072 46.3865C31.1091 46.3925 31.1105 46.3985 31.1121 46.4045C31.1139 46.4117 31.116 46.4188 31.1175 46.4261C31.119 46.4334 31.1197 46.4396 31.1208 46.4463C31.1218 46.453 31.1231 46.4597 31.1238 46.4664C31.125 46.4783 31.1255 46.4902 31.1257 46.5021V46.5074V46.5128C31.1257 46.5247 31.125 46.5365 31.1238 46.5484C31.1231 46.5552 31.1218 46.5619 31.1208 46.5685C31.1197 46.5752 31.1189 46.5821 31.1175 46.5887C31.1162 46.5954 31.1139 46.6032 31.1121 46.6104C31.1105 46.6164 31.1091 46.6224 31.1072 46.6284C31.105 46.6354 31.1023 46.6421 31.0998 46.6489C31.0972 46.6556 31.0954 46.661 31.0929 46.6669C31.0903 46.6729 31.0867 46.6795 31.0839 46.6858C31.0811 46.692 31.078 46.6983 31.0746 46.7041C31.0713 46.71 31.0677 46.7156 31.0642 46.7212C31.0606 46.7269 31.0568 46.7333 31.0527 46.7392C31.0486 46.7451 31.0437 46.7512 31.0391 46.7571C31.0345 46.763 31.0316 46.7668 31.0274 46.7716ZM45.7437 29.8777H42.5086L43.7972 28.6408C43.8374 28.6031 43.8694 28.5575 43.8913 28.5067C43.9132 28.456 43.9246 28.4012 43.9246 28.3458C43.9246 28.2904 43.9132 28.2357 43.8913 28.1849C43.8694 28.1342 43.8374 28.0885 43.7972 28.0509C43.7138 27.9724 43.604 27.9287 43.49 27.9287C43.376 27.9287 43.2663 27.9724 43.1828 28.0509L41.1525 29.9997L41.1512 30.0011C41.1416 30.0103 41.1324 30.0201 41.1237 30.0302C41.1196 30.0351 41.116 30.0402 41.1121 30.0452C41.1082 30.0501 41.1028 30.0568 41.0985 30.063C41.0942 30.0691 41.0908 30.075 41.0871 30.081C41.0833 30.087 41.0799 30.0922 41.0766 30.098C41.0733 30.1038 41.0704 30.1106 41.0673 30.1165C41.0643 30.1224 41.0611 30.1287 41.0583 30.1353C41.0555 30.1419 41.0537 30.1473 41.0514 30.1534C41.0491 30.1594 41.0462 30.1669 41.044 30.1738C41.0421 30.1798 41.0408 30.1859 41.0391 30.1918C41.0373 30.199 41.0352 30.2061 41.0337 30.2135C41.0322 30.2208 41.0315 30.2269 41.0305 30.2337C41.0294 30.2405 41.0281 30.247 41.0274 30.2538C41.0262 30.2657 41.0257 30.2775 41.0255 30.2895V30.2948V30.3001C41.0255 30.312 41.0262 30.3239 41.0274 30.3358C41.0281 30.3426 41.0294 30.3492 41.0305 30.3559C41.0315 30.3626 41.0323 30.3694 41.0337 30.3761C41.035 30.3828 41.0373 30.3906 41.0391 30.3977C41.0408 30.404 41.0421 30.4098 41.044 30.4157C41.0462 30.4227 41.0489 30.4294 41.0514 30.4362C41.054 30.443 41.0558 30.4483 41.0583 30.4543C41.0609 30.4602 41.0645 30.4668 41.0673 30.4731C41.0701 30.4794 41.0735 30.4856 41.0766 30.4915C41.0796 30.4974 41.0835 30.5029 41.0871 30.5086C41.0906 30.5143 41.0944 30.5207 41.0985 30.5265C41.1026 30.5324 41.1075 30.5385 41.1121 30.5444C41.1167 30.5503 41.1196 30.5545 41.1237 30.5594C41.1324 30.5695 41.1416 30.5792 41.1512 30.5885L41.1525 30.5899L43.278 32.6301C43.3615 32.7086 43.4712 32.7522 43.5852 32.7522C43.6992 32.7522 43.809 32.7086 43.8924 32.6301C43.9326 32.5924 43.9646 32.5468 43.9865 32.4961C44.0084 32.4453 44.0197 32.3905 44.0197 32.3352C44.0197 32.2798 44.0084 32.225 43.9865 32.1743C43.9646 32.1235 43.9326 32.0779 43.8924 32.0402L42.5084 30.7119H45.7435C47.06 30.7119 48.1311 31.74 48.1311 33.0037V38.151C48.1367 38.2637 48.185 38.3698 48.2658 38.4475C48.3467 38.5253 48.454 38.5686 48.5655 38.5686C48.6771 38.5686 48.7844 38.5253 48.8653 38.4475C48.9461 38.3698 48.9943 38.2637 49 38.151V33.0035C49.0002 31.28 47.5393 29.8777 45.7437 29.8777ZM22.3925 28.8956C22.2416 28.7109 22.1303 28.4967 22.0655 28.2663C22.0006 28.0359 21.9837 27.7945 22.0158 27.5572C22.0484 27.318 22.1287 27.088 22.2519 26.8812C22.3751 26.6744 22.5386 26.4951 22.7325 26.3541L29.4317 21.3872C30.1281 20.8709 31.3048 20.8709 32.0011 21.3872L34.1189 22.9574V22.3168C34.1189 21.7256 34.62 21.2445 35.236 21.2445H36.6014C37.2174 21.2445 37.7186 21.7256 37.7186 22.3168V25.6261L38.7005 26.354C39.5242 26.9648 39.6767 28.1048 39.0404 28.8955C38.8583 29.1176 38.6296 29.296 38.3709 29.4176C38.1122 29.5393 37.83 29.6013 37.5446 29.5991C37.5136 29.5991 37.482 29.597 37.4507 29.5955V37.1578C37.4478 37.2714 37.4003 37.3791 37.3189 37.4573C37.2374 37.5355 37.1286 37.5778 37.0163 37.5749H24.4171C24.3049 37.5778 24.196 37.5355 24.1146 37.4573C24.0331 37.3791 23.9857 37.2714 23.9827 37.1578V29.5967C23.6819 29.6135 23.3814 29.5588 23.1052 29.437C22.8291 29.3153 22.585 29.1299 22.3925 28.8956ZM33.1064 36.7409L33.1055 30.1769H28.3265V36.7409H33.1064ZM36.5816 29.3436C36.5163 29.3068 36.4532 29.2662 36.3927 29.2219L30.7165 25.0136L25.0403 29.2219C24.9798 29.2666 24.9167 29.3077 24.8513 29.3448V36.7409H27.4576V29.7598C27.4606 29.6463 27.508 29.5386 27.5895 29.4604C27.6709 29.3823 27.7797 29.34 27.892 29.3428H33.5399C33.6522 29.34 33.761 29.3822 33.8425 29.4604C33.9239 29.5386 33.9714 29.6463 33.9744 29.7598L33.9753 36.741H36.5816V29.3436ZM34.9878 23.6017L36.8497 24.9823V22.3168C36.8472 22.2522 36.8199 22.1911 36.7735 22.1466C36.7271 22.1021 36.6654 22.0776 36.6014 22.0784H35.236C35.1721 22.0776 35.1103 22.1021 35.064 22.1466C35.0176 22.1911 34.9903 22.2522 34.9878 22.3168V23.6017ZM24.5092 28.5619L30.4509 24.1566C30.5281 24.1 30.6211 24.0696 30.7165 24.0696C30.8119 24.0696 30.9048 24.1 30.982 24.1566L36.9238 28.5619C37.1399 28.7205 37.4074 28.7905 37.6725 28.7579C37.9376 28.7252 38.1807 28.5922 38.3528 28.3857C38.4341 28.2853 38.4942 28.1689 38.5291 28.044C38.5641 27.9191 38.5733 27.7882 38.556 27.6595C38.5388 27.5309 38.4956 27.4072 38.4291 27.2961C38.3626 27.1851 38.2741 27.089 38.1693 27.014L31.4701 22.0475C31.0827 21.7603 30.3502 21.7603 29.9628 22.0475L23.2636 27.0141C23.1591 27.0903 23.0709 27.1872 23.0046 27.2989C22.9382 27.4106 22.895 27.5348 22.8776 27.6639C22.8603 27.7918 22.8693 27.9219 22.9041 28.0461C22.939 28.1703 22.9989 28.2859 23.0801 28.3855C23.2522 28.5921 23.4952 28.7251 23.7603 28.7578C24.0255 28.7905 24.293 28.7205 24.5092 28.5619Z" fill="url(#paint0_linear_4016_2245)"/>
<path d="M31.0274 46.7716C31.0187 46.7818 31.0095 46.7915 30.9999 46.8008L30.9986 46.8022L28.9683 48.751C28.8848 48.8295 28.7751 48.8731 28.6611 48.8731C28.5471 48.8731 28.4373 48.8295 28.3538 48.751C28.3137 48.7133 28.2817 48.6677 28.2598 48.6169C28.2379 48.5662 28.2266 48.5114 28.2266 48.456C28.2266 48.4007 28.2379 48.3459 28.2598 48.2951C28.2817 48.2444 28.3137 48.1987 28.3538 48.1611L29.6424 46.9242H26.4077C24.6121 46.9242 23.1512 45.5219 23.1512 43.7984V38.6512C23.1569 38.5385 23.2051 38.4324 23.286 38.3547C23.3668 38.277 23.4741 38.2336 23.5857 38.2336C23.6972 38.2336 23.8045 38.277 23.8854 38.3547C23.9662 38.4324 24.0145 38.5385 24.0201 38.6512V43.7985C24.0201 45.0622 25.0912 46.0903 26.4077 46.0903H29.6428L28.2588 44.762C28.2186 44.7244 28.1866 44.6787 28.1646 44.628C28.1427 44.5772 28.1314 44.5224 28.1314 44.4671C28.1314 44.4117 28.1427 44.3569 28.1646 44.3062C28.1866 44.2554 28.2186 44.2098 28.2588 44.1721C28.3422 44.0936 28.452 44.05 28.566 44.05C28.68 44.05 28.7897 44.0936 28.8732 44.1721L30.9987 46.2123L31 46.2137C31.0096 46.223 31.0187 46.2327 31.0275 46.2429C31.0316 46.2477 31.0352 46.2528 31.0391 46.2579C31.0431 46.2629 31.0485 46.2695 31.0527 46.2757C31.057 46.2818 31.0604 46.2876 31.0642 46.2936C31.0679 46.2996 31.0714 46.3049 31.0746 46.3107C31.0779 46.3165 31.0809 46.3229 31.0839 46.3291C31.0869 46.3354 31.0901 46.3414 31.0929 46.348C31.0957 46.3546 31.0975 46.36 31.0998 46.366C31.1021 46.3721 31.105 46.3795 31.1072 46.3865C31.1091 46.3925 31.1105 46.3985 31.1121 46.4045C31.1139 46.4117 31.116 46.4188 31.1175 46.4261C31.119 46.4334 31.1197 46.4396 31.1208 46.4463C31.1218 46.453 31.1231 46.4597 31.1238 46.4664C31.125 46.4783 31.1255 46.4902 31.1257 46.5021V46.5074V46.5128C31.1257 46.5247 31.125 46.5365 31.1238 46.5484C31.1231 46.5552 31.1218 46.5619 31.1208 46.5685C31.1197 46.5752 31.1189 46.5821 31.1175 46.5887C31.1162 46.5954 31.1139 46.6032 31.1121 46.6104C31.1105 46.6164 31.1091 46.6224 31.1072 46.6284C31.105 46.6354 31.1023 46.6421 31.0998 46.6489C31.0972 46.6556 31.0954 46.661 31.0929 46.6669C31.0903 46.6729 31.0867 46.6795 31.0839 46.6858C31.0811 46.692 31.078 46.6983 31.0746 46.7041C31.0713 46.71 31.0677 46.7156 31.0642 46.7212C31.0606 46.7269 31.0568 46.7333 31.0527 46.7392C31.0486 46.7451 31.0437 46.7512 31.0391 46.7571C31.0345 46.763 31.0316 46.7668 31.0274 46.7716ZM45.7437 29.8777H42.5086L43.7972 28.6408C43.8374 28.6031 43.8694 28.5575 43.8913 28.5067C43.9132 28.456 43.9246 28.4012 43.9246 28.3458C43.9246 28.2904 43.9132 28.2357 43.8913 28.1849C43.8694 28.1342 43.8374 28.0885 43.7972 28.0509C43.7138 27.9724 43.604 27.9287 43.49 27.9287C43.376 27.9287 43.2663 27.9724 43.1828 28.0509L41.1525 29.9997L41.1512 30.0011C41.1416 30.0103 41.1324 30.0201 41.1237 30.0302C41.1196 30.0351 41.116 30.0402 41.1121 30.0452C41.1082 30.0501 41.1028 30.0568 41.0985 30.063C41.0942 30.0691 41.0908 30.075 41.0871 30.081C41.0833 30.087 41.0799 30.0922 41.0766 30.098C41.0733 30.1038 41.0704 30.1106 41.0673 30.1165C41.0643 30.1224 41.0611 30.1287 41.0583 30.1353C41.0555 30.1419 41.0537 30.1473 41.0514 30.1534C41.0491 30.1594 41.0462 30.1669 41.044 30.1738C41.0421 30.1798 41.0408 30.1859 41.0391 30.1918C41.0373 30.199 41.0352 30.2061 41.0337 30.2135C41.0322 30.2208 41.0315 30.2269 41.0305 30.2337C41.0294 30.2405 41.0281 30.247 41.0274 30.2538C41.0262 30.2657 41.0257 30.2775 41.0255 30.2895V30.2948V30.3001C41.0255 30.312 41.0262 30.3239 41.0274 30.3358C41.0281 30.3426 41.0294 30.3492 41.0305 30.3559C41.0315 30.3626 41.0323 30.3694 41.0337 30.3761C41.035 30.3828 41.0373 30.3906 41.0391 30.3977C41.0408 30.404 41.0421 30.4098 41.044 30.4157C41.0462 30.4227 41.0489 30.4294 41.0514 30.4362C41.054 30.443 41.0558 30.4483 41.0583 30.4543C41.0609 30.4602 41.0645 30.4668 41.0673 30.4731C41.0701 30.4794 41.0735 30.4856 41.0766 30.4915C41.0796 30.4974 41.0835 30.5029 41.0871 30.5086C41.0906 30.5143 41.0944 30.5207 41.0985 30.5265C41.1026 30.5324 41.1075 30.5385 41.1121 30.5444C41.1167 30.5503 41.1196 30.5545 41.1237 30.5594C41.1324 30.5695 41.1416 30.5792 41.1512 30.5885L41.1525 30.5899L43.278 32.6301C43.3615 32.7086 43.4712 32.7522 43.5852 32.7522C43.6992 32.7522 43.809 32.7086 43.8924 32.6301C43.9326 32.5924 43.9646 32.5468 43.9865 32.4961C44.0084 32.4453 44.0197 32.3905 44.0197 32.3352C44.0197 32.2798 44.0084 32.225 43.9865 32.1743C43.9646 32.1235 43.9326 32.0779 43.8924 32.0402L42.5084 30.7119H45.7435C47.06 30.7119 48.1311 31.74 48.1311 33.0037V38.151C48.1367 38.2637 48.185 38.3698 48.2658 38.4475C48.3467 38.5253 48.454 38.5686 48.5655 38.5686C48.6771 38.5686 48.7844 38.5253 48.8653 38.4475C48.9461 38.3698 48.9943 38.2637 49 38.151V33.0035C49.0002 31.28 47.5393 29.8777 45.7437 29.8777ZM22.3925 28.8956C22.2416 28.7109 22.1303 28.4967 22.0655 28.2663C22.0006 28.0359 21.9837 27.7945 22.0158 27.5572C22.0484 27.318 22.1287 27.088 22.2519 26.8812C22.3751 26.6744 22.5386 26.4951 22.7325 26.3541L29.4317 21.3872C30.1281 20.8709 31.3048 20.8709 32.0011 21.3872L34.1189 22.9574V22.3168C34.1189 21.7256 34.62 21.2445 35.236 21.2445H36.6014C37.2174 21.2445 37.7186 21.7256 37.7186 22.3168V25.6261L38.7005 26.354C39.5242 26.9648 39.6767 28.1048 39.0404 28.8955C38.8583 29.1176 38.6296 29.296 38.3709 29.4176C38.1122 29.5393 37.83 29.6013 37.5446 29.5991C37.5136 29.5991 37.482 29.597 37.4507 29.5955V37.1578C37.4478 37.2714 37.4003 37.3791 37.3189 37.4573C37.2374 37.5355 37.1286 37.5778 37.0163 37.5749H24.4171C24.3049 37.5778 24.196 37.5355 24.1146 37.4573C24.0331 37.3791 23.9857 37.2714 23.9827 37.1578V29.5967C23.6819 29.6135 23.3814 29.5588 23.1052 29.437C22.8291 29.3153 22.585 29.1299 22.3925 28.8956ZM33.1064 36.7409L33.1055 30.1769H28.3265V36.7409H33.1064ZM36.5816 29.3436C36.5163 29.3068 36.4532 29.2662 36.3927 29.2219L30.7165 25.0136L25.0403 29.2219C24.9798 29.2666 24.9167 29.3077 24.8513 29.3448V36.7409H27.4576V29.7598C27.4606 29.6463 27.508 29.5386 27.5895 29.4604C27.6709 29.3823 27.7797 29.34 27.892 29.3428H33.5399C33.6522 29.34 33.761 29.3822 33.8425 29.4604C33.9239 29.5386 33.9714 29.6463 33.9744 29.7598L33.9753 36.741H36.5816V29.3436ZM34.9878 23.6017L36.8497 24.9823V22.3168C36.8472 22.2522 36.8199 22.1911 36.7735 22.1466C36.7271 22.1021 36.6654 22.0776 36.6014 22.0784H35.236C35.1721 22.0776 35.1103 22.1021 35.064 22.1466C35.0176 22.1911 34.9903 22.2522 34.9878 22.3168V23.6017ZM24.5092 28.5619L30.4509 24.1566C30.5281 24.1 30.6211 24.0696 30.7165 24.0696C30.8119 24.0696 30.9048 24.1 30.982 24.1566L36.9238 28.5619C37.1399 28.7205 37.4074 28.7905 37.6725 28.7579C37.9376 28.7252 38.1807 28.5922 38.3528 28.3857C38.4341 28.2853 38.4942 28.1689 38.5291 28.044C38.5641 27.9191 38.5733 27.7882 38.556 27.6595C38.5388 27.5309 38.4956 27.4072 38.4291 27.2961C38.3626 27.1851 38.2741 27.089 38.1693 27.014L31.4701 22.0475C31.0827 21.7603 30.3502 21.7603 29.9628 22.0475L23.2636 27.0141C23.1591 27.0903 23.0709 27.1872 23.0046 27.2989C22.9382 27.4106 22.895 27.5348 22.8776 27.6639C22.8603 27.7918 22.8693 27.9219 22.9041 28.0461C22.939 28.1703 22.9989 28.2859 23.0801 28.3855C23.2522 28.5921 23.4952 28.7251 23.7603 28.7578C24.0255 28.7905 24.293 28.7205 24.5092 28.5619Z" stroke="url(#paint1_linear_4016_2245)" stroke-width="0.4" mask="url(#path-3-outside-1_4016_2245)"/>
<path d="M42.1857 42V42.4455H41.8143V42V41.9H41.7143H41.1429H41.0429V42V42.4455H40H39.9V42.5455V43.0909V43.1909H40H40.4714V46.8091H40H39.9V46.9091V47.4545V47.5545H40H41.0429V48V48.1H41.1429H41.7143H41.8143V48V47.5545H42.1857V48V48.1H42.2857H42.8572H42.9572V48V47.5077C43.2144 47.4441 43.4506 47.317 43.6416 47.138C43.8527 46.9404 43.9996 46.688 44.0638 46.4111C44.128 46.1342 44.1065 45.8455 44.0021 45.5803C43.9139 45.356 43.7698 45.1571 43.5837 45C43.7698 44.8429 43.9139 44.644 44.0021 44.4197C44.1065 44.1545 44.128 43.8658 44.0638 43.5889C43.9996 43.312 43.8527 43.0596 43.6416 42.862C43.4506 42.683 43.2144 42.556 42.9572 42.4923V42V41.9H42.8572H42.2857H42.1857V42ZM41.2429 43.1909H42.5715C42.7737 43.1909 42.9668 43.2677 43.1085 43.4029C43.25 43.538 43.3286 43.7202 43.3286 43.9091C43.3286 44.098 43.25 44.2802 43.1085 44.4153C42.9668 44.5505 42.7737 44.6273 42.5715 44.6273H41.2429V43.1909ZM42.5715 46.8091H41.2429V45.3727H42.5715C42.7737 45.3727 42.9668 45.4495 43.1085 45.5847C43.25 45.7198 43.3286 45.902 43.3286 46.0909C43.3286 46.2798 43.25 46.462 43.1085 46.5971C42.9668 46.7323 42.7737 46.8091 42.5715 46.8091Z" fill="url(#paint2_linear_4016_2245)" stroke="url(#paint3_linear_4016_2245)" stroke-width="0.2"/>
<circle cx="42" cy="45" r="5.5" stroke="url(#paint4_linear_4016_2245)"/>
<defs>
<linearGradient id="paint0_linear_4016_2245" x1="35.5" y1="21" x2="35.5" y2="48.8731" gradientUnits="userSpaceOnUse">
<stop stop-color="#19459F"/>
<stop offset="0.62" stop-color="#30388F"/>
<stop offset="1" stop-color="#122058"/>
</linearGradient>
<linearGradient id="paint1_linear_4016_2245" x1="35.5" y1="21" x2="35.5" y2="48.8731" gradientUnits="userSpaceOnUse">
<stop stop-color="#19459F"/>
<stop offset="0.62" stop-color="#30388F"/>
<stop offset="1" stop-color="#122058"/>
</linearGradient>
<linearGradient id="paint2_linear_4016_2245" x1="42" y1="42" x2="42" y2="48" gradientUnits="userSpaceOnUse">
<stop stop-color="#19459F"/>
<stop offset="0.62" stop-color="#30388F"/>
<stop offset="1" stop-color="#122058"/>
</linearGradient>
<linearGradient id="paint3_linear_4016_2245" x1="42" y1="42" x2="42" y2="48" gradientUnits="userSpaceOnUse">
<stop stop-color="#19459F"/>
<stop offset="0.62" stop-color="#30388F"/>
<stop offset="1" stop-color="#122058"/>
</linearGradient>
<linearGradient id="paint4_linear_4016_2245" x1="42" y1="39" x2="42" y2="51" gradientUnits="userSpaceOnUse">
<stop stop-color="#19459F"/>
<stop offset="0.62" stop-color="#30388F"/>
<stop offset="1" stop-color="#122058"/>
</linearGradient>
</defs>
</svg>
