<svg width="72" height="72" viewBox="0 0 72 72" fill="none" xmlns="http://www.w3.org/2000/svg">
<circle cx="36" cy="36" r="35.7805" stroke="#19459F" stroke-width="0.439024" stroke-dasharray="3.2 3.2"/>
<rect x="4.79014" y="4.35117" width="62.4195" height="62.4195" rx="31.2098" stroke="#19459F" stroke-width="0.8"/>
<path fill-rule="evenodd" clip-rule="evenodd" d="M22.8609 40.5834H22.3263C21.3267 40.5834 20.502 39.7333 20.502 38.668V33.332C20.502 32.2667 21.3267 31.4166 22.3263 31.4166H22.8609C23.4886 29.6263 24.4728 28.001 25.728 26.6269C28.276 23.8375 31.94 22.0833 36 22.0833C40.06 22.0833 43.724 23.8375 46.272 26.6269C47.5271 28.001 48.5114 29.6263 49.1391 31.4166H49.6737C50.6733 31.4166 51.498 32.2667 51.498 33.332V38.668C51.498 39.7333 50.6733 40.5834 49.6737 40.5834H49.1391C48.4924 42.428 47.4671 44.0974 46.1571 45.4973C43.6144 48.2145 39.9994 49.9167 36 49.9167C32.0008 49.9167 28.3859 48.2146 25.8432 45.4977C24.533 44.0976 23.5077 42.4282 22.8609 40.5834ZM23.7957 31.4166H29.1979C29.3848 30.4491 29.6292 29.534 29.9226 28.6864C28.5345 28.3736 27.2669 27.9574 26.1631 27.4589C25.1551 28.6179 24.3475 29.9554 23.7957 31.4166ZM30.0932 31.4166H35.5608V29.332C33.8825 29.3077 32.2766 29.1443 30.7906 28.8654C30.5104 29.6571 30.2756 30.5122 30.0932 31.4166ZM36.4392 31.4166H41.9081C41.7257 30.5121 41.4908 29.657 41.2104 28.8652C39.724 29.1442 38.1178 29.3077 36.4392 29.332V31.4166ZM42.8035 31.4166H48.2043C47.6524 29.9554 46.8449 28.6179 45.8369 27.4589C44.7333 27.9573 43.4662 28.3734 42.0784 28.6862C42.3719 29.5338 42.6164 30.449 42.8035 31.4166ZM48.2043 40.5834H42.8035C42.6046 41.6122 42.3408 42.5816 42.0222 43.4737C43.386 43.7778 44.6345 44.1816 45.7276 44.6651C46.7866 43.478 47.6326 42.0971 48.2043 40.5834ZM41.9081 40.5834H36.4392V42.8399C38.0961 42.8639 39.6823 43.0237 41.1522 43.2962C41.4584 42.4597 41.7132 41.5497 41.9081 40.5834ZM35.5608 40.5834H30.0932C30.2881 41.5498 30.5428 42.4598 30.8489 43.2965C32.3185 43.0238 33.9043 42.864 35.5608 42.8399V40.5834ZM29.1979 40.5834H23.7957C24.3674 42.0972 25.2136 43.4784 26.2729 44.6657C27.3658 44.1823 28.6146 43.7782 29.979 43.4739C29.6604 42.5818 29.3967 41.6122 29.1979 40.5834ZM45.2018 26.7787C43.3158 24.8966 40.8592 23.5859 38.1196 23.1346C39.5788 23.9635 40.8587 25.627 41.7667 27.8567C43.0246 27.5802 44.1811 27.2157 45.2018 26.7787ZM33.8805 23.1345C31.1409 23.5858 28.6843 24.8966 26.7982 26.7787C27.8192 27.2158 28.9759 27.5804 30.2342 27.8569C31.142 25.6271 32.4215 23.9635 33.8805 23.1345ZM26.9217 45.3429C28.7907 47.1596 31.1997 48.4236 33.8794 48.8652C32.4553 48.0562 31.2025 46.4523 30.2997 44.3019C29.0668 44.5695 27.9302 44.9214 26.9217 45.3429ZM38.1208 48.8652C40.8007 48.4235 43.2098 47.1593 45.0789 45.3423C44.0704 44.9208 42.934 44.569 41.7014 44.3016C40.7982 46.4521 39.5451 48.0561 38.1208 48.8652ZM31.1119 28.0324C32.5021 28.2835 33.999 28.4302 35.5608 28.4535V23.4557C34.7078 23.5756 33.9056 24.0409 33.1826 24.7643C32.3785 25.5688 31.6758 26.6878 31.1119 28.0324ZM36.4392 28.4535C38.0013 28.4302 39.4985 28.2835 40.889 28.0322C40.3249 26.6877 39.622 25.5687 38.8177 24.7643C38.0945 24.0409 37.2923 23.5756 36.4392 23.4557V28.4535ZM40.8206 44.1279C39.4495 43.8838 37.9758 43.7413 36.4392 43.7184V48.5442C37.2752 48.4267 38.0624 47.9775 38.7742 47.2788C39.5643 46.5033 40.2581 45.4251 40.8206 44.1279ZM35.5608 43.7184C34.0245 43.7414 32.5512 43.884 31.1804 44.1282C31.7427 45.4253 32.4363 46.5035 33.2262 47.2789C33.9378 47.9775 34.7249 48.4267 35.5608 48.5442V43.7184ZM49.6737 32.295H22.3263C21.7959 32.295 21.3804 32.7667 21.3804 33.332V38.668C21.3804 39.2332 21.7959 39.705 22.3263 39.705H49.6737C50.2041 39.705 50.6196 39.2332 50.6196 38.668V33.332C50.6196 32.7667 50.2041 32.295 49.6737 32.295ZM48.785 33.7057V38.2943C48.785 38.5368 48.5884 38.7335 48.3458 38.7335H30.6303C30.3878 38.7335 30.1911 38.5368 30.1911 38.2943V33.7057C30.1911 33.4631 30.3878 33.2665 30.6303 33.2665H48.3458C48.5884 33.2665 48.785 33.4631 48.785 33.7057ZM47.9066 34.1449C47.9066 34.1449 33.7607 34.1449 31.0695 34.1449V37.855H47.9066V34.1449ZM26.8552 34.9297H26.878C27.1206 34.9297 27.3172 35.1264 27.3172 35.369V36.8171C27.3172 37.9937 26.3546 38.9562 25.1781 38.9562C24.0016 38.9562 23.039 37.9937 23.039 36.8171V35.369C23.039 35.1264 23.2356 34.9297 23.4782 34.9297H23.501V34.7209C23.501 34.2593 23.6891 33.8398 23.9932 33.5357C24.297 33.2319 24.7164 33.0438 25.1781 33.0438C25.6396 33.0438 26.059 33.2318 26.3631 33.5355L26.3635 33.5359C26.6672 33.84 26.8552 34.2594 26.8552 34.7209V34.9297ZM24.3794 34.9297H25.9768V34.7209C25.9768 34.5011 25.8867 34.3017 25.7422 34.1569C25.5973 34.0123 25.3978 33.9222 25.1781 33.9222C24.9584 33.9222 24.7589 34.0123 24.6143 34.1569C24.4695 34.3016 24.3794 34.5011 24.3794 34.7209V34.9297ZM23.9174 35.8082V36.8171C23.9174 37.5105 24.4847 38.0778 25.1781 38.0778C25.8715 38.0778 26.4388 37.5105 26.4388 36.8171V35.8082H23.9174ZM25.1781 36C25.4465 36 25.6643 36.2178 25.6643 36.4862C25.6643 36.655 25.5784 36.8041 25.4474 36.8912V37.2611C25.4474 37.4097 25.3267 37.5304 25.1781 37.5304C25.0295 37.5304 24.9088 37.4097 24.9088 37.2611V36.8912C24.7782 36.8041 24.6919 36.6554 24.6919 36.4862C24.6919 36.2178 24.9097 36 25.1781 36Z" fill="url(#paint0_linear_4016_7886)"/>
<defs>
<linearGradient id="paint0_linear_4016_7886" x1="36" y1="22.0833" x2="36" y2="49.9167" gradientUnits="userSpaceOnUse">
<stop stop-color="#19459F"/>
<stop offset="0.62" stop-color="#30388F"/>
<stop offset="1" stop-color="#122058"/>
</linearGradient>
</defs>
</svg>
