<svg width="72" height="72" viewBox="0 0 72 72" fill="none" xmlns="http://www.w3.org/2000/svg">
<circle cx="36" cy="36" r="35.6" stroke="#19459F" stroke-width="0.8" stroke-dasharray="3.2 3.2"/>
<rect x="4.79014" y="4.35117" width="62.4195" height="62.4195" rx="31.2098" stroke="#19459F" stroke-width="0.8"/>
<g clip-path="url(#clip0_4016_9007)">
<path d="M47.7334 46.6666H47.2001V34.3999C47.2001 33.6927 46.9191 33.0144 46.419 32.5143C45.9189 32.0142 45.2406 31.7333 44.5334 31.7333H27.4667C26.7595 31.7333 26.0812 32.0142 25.5811 32.5143C25.081 33.0144 24.8001 33.6927 24.8001 34.3999V46.6666H24.2667C24.1253 46.6666 23.9896 46.7228 23.8896 46.8228C23.7896 46.9228 23.7334 47.0585 23.7334 47.1999V49.3333C23.7334 50.0405 24.0143 50.7188 24.5144 51.2189C25.0145 51.719 25.6928 51.9999 26.4001 51.9999H45.6001C46.3073 51.9999 46.9856 51.719 47.4857 51.2189C47.9858 50.7188 48.2667 50.0405 48.2667 49.3333V47.1999C48.2667 47.0585 48.2105 46.9228 48.1105 46.8228C48.0105 46.7228 47.8748 46.6666 47.7334 46.6666ZM25.8667 34.3999C25.868 33.976 26.037 33.5698 26.3368 33.27C26.6365 32.9702 27.0428 32.8012 27.4667 32.7999H44.5334C44.9574 32.8012 45.3636 32.9702 45.6634 33.27C45.9632 33.5698 46.1321 33.976 46.1334 34.3999V46.6666H45.0667V34.9333C45.0659 34.6506 44.9532 34.3798 44.7534 34.18C44.5535 33.9801 44.2827 33.8675 44.0001 33.8666H28.0001C27.7174 33.8675 27.4466 33.9801 27.2468 34.18C27.0469 34.3798 26.9342 34.6506 26.9334 34.9333V46.6666H25.8667V34.3999ZM28.0001 46.6666V34.9333H44.0001V46.6666H28.0001ZM39.2001 47.7333V48.2666C39.2001 48.4081 39.1439 48.5437 39.0439 48.6437C38.9438 48.7438 38.8082 48.7999 38.6667 48.7999H33.3334C33.1919 48.7999 33.0563 48.7438 32.9563 48.6437C32.8563 48.5437 32.8001 48.4081 32.8001 48.2666V47.7333H39.2001ZM47.2001 49.3333C47.1988 49.7572 47.0298 50.1635 46.73 50.4632C46.4303 50.763 46.024 50.932 45.6001 50.9333H26.4001C25.9761 50.932 25.5699 50.763 25.2701 50.4632C24.9703 50.1635 24.8013 49.7572 24.8001 49.3333V47.7333H31.7334V48.2666C31.7347 48.6906 31.9036 49.0968 32.2034 49.3966C32.5032 49.6964 32.9094 49.8653 33.3334 49.8666H38.6667C39.0907 49.8653 39.4969 49.6964 39.7967 49.3966C40.0965 49.0968 40.2655 48.6906 40.2667 48.2666V47.7333H47.2001V49.3333Z" fill="url(#paint0_linear_4016_9007)"/>
<path d="M40.2668 38.624C40.2549 38.4905 40.1936 38.3663 40.095 38.2756C39.9964 38.1848 39.8675 38.1341 39.7335 38.1333H38.6668V37.6C38.6655 37.176 38.4966 36.7698 38.1968 36.47C37.897 36.1702 37.4908 36.0013 37.0668 36H34.9335C34.5095 36.0013 34.1033 36.1702 33.8035 36.47C33.5037 36.7698 33.3347 37.176 33.3335 37.6V38.1333H32.2668C32.1328 38.1341 32.0039 38.1848 31.9053 38.2756C31.8067 38.3663 31.7454 38.4905 31.7335 38.624L31.2001 45.024C31.1944 45.0974 31.2037 45.1713 31.2276 45.241C31.2514 45.3107 31.2893 45.3748 31.3388 45.4293C31.3897 45.4829 31.4509 45.5256 31.5187 45.5549C31.5865 45.5843 31.6596 45.5996 31.7335 45.6H40.2668C40.3407 45.5996 40.4137 45.5843 40.4815 45.5549C40.5494 45.5256 40.6106 45.4829 40.6615 45.4293C40.711 45.3748 40.7488 45.3107 40.7727 45.241C40.7965 45.1713 40.8059 45.0974 40.8001 45.024L40.2668 38.624ZM33.3335 44.5333H32.3148L32.7575 39.2H33.3335V44.5333ZM34.4001 37.6C34.4001 37.4586 34.4563 37.3229 34.5563 37.2229C34.6564 37.1229 34.792 37.0667 34.9335 37.0667H37.0668C37.2082 37.0667 37.3439 37.1229 37.4439 37.2229C37.5439 37.3229 37.6001 37.4586 37.6001 37.6V38.1333H34.4001V37.6ZM34.4001 44.5333V39.2H39.2428L39.6855 44.5333H34.4001Z" fill="url(#paint1_linear_4016_9007)"/>
<path d="M25 20C24.0111 20 23.0444 20.2932 22.2222 20.8427C21.3999 21.3921 20.759 22.173 20.3806 23.0866C20.0022 24.0002 19.9031 25.0055 20.0961 25.9754C20.289 26.9454 20.7652 27.8363 21.4645 28.5355C22.1637 29.2348 23.0546 29.711 24.0245 29.9039C24.9945 30.0969 25.9998 29.9978 26.9134 29.6194C27.827 29.241 28.6079 28.6001 29.1573 27.7778C29.7068 26.9556 30 25.9889 30 25C29.9979 23.6746 29.4704 22.404 28.5332 21.4668C27.596 20.5296 26.3254 20.0021 25 20ZM25 29C24.2089 29 23.4355 28.7654 22.7777 28.3259C22.1199 27.8864 21.6072 27.2616 21.3045 26.5307C21.0017 25.7998 20.9225 24.9956 21.0769 24.2196C21.2312 23.4437 21.6122 22.731 22.1716 22.1716C22.731 21.6122 23.4437 21.2312 24.2196 21.0769C24.9956 20.9225 25.7998 21.0017 26.5307 21.3045C27.2616 21.6072 27.8864 22.1199 28.3259 22.7777C28.7654 23.4355 29 24.2089 29 25C28.9985 26.0604 28.5767 27.077 27.8268 27.8268C27.077 28.5766 26.0604 28.9985 25 29Z" fill="url(#paint2_linear_4016_9007)"/>
<path d="M46 20C45.0111 20 44.0444 20.2932 43.2222 20.8427C42.3999 21.3921 41.759 22.173 41.3806 23.0866C41.0022 24.0002 40.9031 25.0055 41.0961 25.9754C41.289 26.9454 41.7652 27.8363 42.4645 28.5355C43.1637 29.2348 44.0546 29.711 45.0245 29.9039C45.9945 30.0969 46.9998 29.9978 47.9134 29.6194C48.827 29.241 49.6079 28.6001 50.1573 27.7778C50.7068 26.9556 51 25.9889 51 25C50.9979 23.6746 50.4704 22.404 49.5332 21.4668C48.596 20.5296 47.3254 20.0021 46 20ZM49.965 24.5H48.49C48.4667 23.9773 48.4015 23.4573 48.295 22.945C48.5679 22.802 48.8273 22.6347 49.07 22.445C49.5614 23.0287 49.8723 23.7427 49.965 24.5ZM48.325 21.75C48.2235 21.8236 48.1184 21.892 48.01 21.955C47.9434 21.7741 47.8666 21.5972 47.78 21.425C47.9699 21.5188 48.1522 21.6275 48.325 21.75ZM46 21C46.345 21 46.77 21.49 47.085 22.35C46.7315 22.4477 46.3667 22.4982 46 22.5C45.6333 22.4982 45.2685 22.4477 44.915 22.35C45.23 21.49 45.655 21 46 21ZM42.93 22.445C43.1727 22.6347 43.4321 22.802 43.705 22.945C43.5985 23.4573 43.5333 23.9773 43.51 24.5H42.035C42.1277 23.7427 42.4386 23.0287 42.93 22.445ZM42.035 25.5H43.51C43.5333 26.0227 43.5985 26.5427 43.705 27.055C43.4321 27.198 43.1727 27.3653 42.93 27.555C42.4386 26.9713 42.1277 26.2573 42.035 25.5ZM43.675 28.25C43.7765 28.1764 43.8816 28.108 43.99 28.045C44.0566 28.2258 44.1334 28.4028 44.22 28.575C44.0301 28.4812 43.8478 28.3725 43.675 28.25ZM43.99 21.955C43.8816 21.892 43.7765 21.8236 43.675 21.75C43.8478 21.6275 44.0301 21.5188 44.22 21.425C44.1334 21.5972 44.0566 21.7741 43.99 21.955ZM46 29C45.655 29 45.23 28.51 44.915 27.65C45.6245 27.45 46.3755 27.45 47.085 27.65C46.77 28.51 46.345 29 46 29ZM47.345 26.685C46.4653 26.4383 45.5347 26.4383 44.655 26.685C44.5796 26.2939 44.5328 25.8979 44.515 25.5H47.485C47.4672 25.8979 47.4204 26.2939 47.345 26.685ZM44.515 24.5C44.5328 24.1021 44.5796 23.7061 44.655 23.315C45.093 23.437 45.5454 23.4992 46 23.5C46.4546 23.4992 46.907 23.437 47.345 23.315C47.4204 23.7061 47.4672 24.1021 47.485 24.5H44.515ZM47.78 28.575C47.8666 28.4028 47.9434 28.2258 48.01 28.045C48.1184 28.108 48.2235 28.1764 48.325 28.25C48.1522 28.3725 47.9699 28.4812 47.78 28.575ZM49.07 27.555C48.8273 27.3653 48.5679 27.198 48.295 27.055C48.4015 26.5427 48.4667 26.0227 48.49 25.5H49.965C49.8723 26.2573 49.5614 26.9713 49.07 27.555Z" fill="url(#paint3_linear_4016_9007)"/>
<path d="M37.2229 24.4229L37.977 25.177L40.1103 23.0437C40.2103 22.9437 40.2665 22.8081 40.2665 22.6666C40.2665 22.5252 40.2103 22.3896 40.1103 22.2896L37.977 20.1562L37.2229 20.9104L38.4458 22.1333H32.2666V23.2H38.4458L37.2229 24.4229Z" fill="url(#paint4_linear_4016_9007)"/>
<path d="M34.0229 29.4438L34.777 28.6896L33.5541 27.4667H39.7333V26.4H33.5541L34.777 25.1771L34.0229 24.423L31.8896 26.5563C31.7896 26.6563 31.7334 26.792 31.7334 26.9334C31.7334 27.0748 31.7896 27.2104 31.8896 27.3104L34.0229 29.4438Z" fill="url(#paint5_linear_4016_9007)"/>
<path d="M23.6437 40.5039L22.5771 38.9039L21.6896 39.4959L22.2037 40.2666H21.0667V31.7333H20V40.7999C20 40.9414 20.0562 41.077 20.1562 41.1771C20.2562 41.2771 20.3919 41.3333 20.5333 41.3333H22.2037L21.6896 42.1039L22.5771 42.6959L23.6437 41.0959C23.7022 41.0083 23.7334 40.9053 23.7334 40.7999C23.7334 40.6946 23.7022 40.5916 23.6437 40.5039Z" fill="url(#paint6_linear_4016_9007)"/>
<path d="M50.9333 40.2666H49.7963L50.3104 39.4959L49.4229 38.9039L48.3563 40.5039C48.2978 40.5916 48.2666 40.6946 48.2666 40.7999C48.2666 40.9053 48.2978 41.0083 48.3563 41.0959L49.4229 42.6959L50.3104 42.1039L49.7963 41.3333H51.4667C51.6081 41.3333 51.7438 41.2771 51.8438 41.1771C51.9438 41.077 52 40.9414 52 40.7999V31.7333H50.9333V40.2666Z" fill="url(#paint7_linear_4016_9007)"/>
<path d="M25.1857 22V22.4455H24.8143V22V21.9H24.7143H24.1429H24.0429V22V22.4455H23H22.9V22.5455V23.0909V23.1909H23H23.4714V26.8091H23H22.9V26.9091V27.4545V27.5545H23H24.0429V28V28.1H24.1429H24.7143H24.8143V28V27.5545H25.1857V28V28.1H25.2857H25.8572H25.9572V28V27.5077C26.2144 27.4441 26.4506 27.317 26.6416 27.138C26.8527 26.9404 26.9996 26.688 27.0638 26.4111C27.128 26.1342 27.1065 25.8455 27.0021 25.5803C26.9139 25.356 26.7698 25.1571 26.5837 25C26.7698 24.8429 26.9139 24.644 27.0021 24.4197C27.1065 24.1545 27.128 23.8658 27.0638 23.5889C26.9996 23.312 26.8527 23.0596 26.6416 22.862C26.4506 22.683 26.2144 22.556 25.9572 22.4923V22V21.9H25.8572H25.2857H25.1857V22ZM24.2429 23.1909H25.5715C25.7737 23.1909 25.9668 23.2677 26.1085 23.4029C26.25 23.538 26.3286 23.7202 26.3286 23.9091C26.3286 24.098 26.25 24.2802 26.1085 24.4153C25.9668 24.5505 25.7737 24.6273 25.5715 24.6273H24.2429V23.1909ZM25.5715 26.8091H24.2429V25.3727H25.5715C25.7737 25.3727 25.9668 25.4495 26.1085 25.5847C26.25 25.7198 26.3286 25.902 26.3286 26.0909C26.3286 26.2798 26.25 26.462 26.1085 26.5971C25.9668 26.7323 25.7737 26.8091 25.5715 26.8091Z" fill="url(#paint8_linear_4016_9007)" stroke="url(#paint9_linear_4016_9007)" stroke-width="0.2"/>
</g>
<defs>
<linearGradient id="paint0_linear_4016_9007" x1="36.0001" y1="31.7333" x2="36.0001" y2="51.9999" gradientUnits="userSpaceOnUse">
<stop stop-color="#19459F"/>
<stop offset="0.62" stop-color="#30388F"/>
<stop offset="1" stop-color="#122058"/>
</linearGradient>
<linearGradient id="paint1_linear_4016_9007" x1="36.0001" y1="36" x2="36.0001" y2="45.6" gradientUnits="userSpaceOnUse">
<stop stop-color="#19459F"/>
<stop offset="0.62" stop-color="#30388F"/>
<stop offset="1" stop-color="#122058"/>
</linearGradient>
<linearGradient id="paint2_linear_4016_9007" x1="25" y1="20" x2="25" y2="30" gradientUnits="userSpaceOnUse">
<stop stop-color="#19459F"/>
<stop offset="0.62" stop-color="#30388F"/>
<stop offset="1" stop-color="#122058"/>
</linearGradient>
<linearGradient id="paint3_linear_4016_9007" x1="46" y1="20" x2="46" y2="30" gradientUnits="userSpaceOnUse">
<stop stop-color="#19459F"/>
<stop offset="0.62" stop-color="#30388F"/>
<stop offset="1" stop-color="#122058"/>
</linearGradient>
<linearGradient id="paint4_linear_4016_9007" x1="36.2665" y1="20.1562" x2="36.2665" y2="25.177" gradientUnits="userSpaceOnUse">
<stop stop-color="#19459F"/>
<stop offset="0.62" stop-color="#30388F"/>
<stop offset="1" stop-color="#122058"/>
</linearGradient>
<linearGradient id="paint5_linear_4016_9007" x1="35.7333" y1="24.423" x2="35.7333" y2="29.4438" gradientUnits="userSpaceOnUse">
<stop stop-color="#19459F"/>
<stop offset="0.62" stop-color="#30388F"/>
<stop offset="1" stop-color="#122058"/>
</linearGradient>
<linearGradient id="paint6_linear_4016_9007" x1="21.8667" y1="31.7333" x2="21.8667" y2="42.6959" gradientUnits="userSpaceOnUse">
<stop stop-color="#19459F"/>
<stop offset="0.62" stop-color="#30388F"/>
<stop offset="1" stop-color="#122058"/>
</linearGradient>
<linearGradient id="paint7_linear_4016_9007" x1="50.1333" y1="31.7333" x2="50.1333" y2="42.6959" gradientUnits="userSpaceOnUse">
<stop stop-color="#19459F"/>
<stop offset="0.62" stop-color="#30388F"/>
<stop offset="1" stop-color="#122058"/>
</linearGradient>
<linearGradient id="paint8_linear_4016_9007" x1="25" y1="22" x2="25" y2="28" gradientUnits="userSpaceOnUse">
<stop stop-color="#19459F"/>
<stop offset="0.62" stop-color="#30388F"/>
<stop offset="1" stop-color="#122058"/>
</linearGradient>
<linearGradient id="paint9_linear_4016_9007" x1="25" y1="22" x2="25" y2="28" gradientUnits="userSpaceOnUse">
<stop stop-color="#19459F"/>
<stop offset="0.62" stop-color="#30388F"/>
<stop offset="1" stop-color="#122058"/>
</linearGradient>
<clipPath id="clip0_4016_9007">
<rect width="32" height="32" fill="white" transform="translate(20 20)"/>
</clipPath>
</defs>
</svg>
