<svg width="72" height="72" viewBox="0 0 72 72" fill="none" xmlns="http://www.w3.org/2000/svg">
<circle cx="36" cy="36" r="35.7805" stroke="#19459F" stroke-width="0.439024" stroke-dasharray="3.2 3.2"/>
<rect x="4.79014" y="4.35117" width="62.4195" height="62.4195" rx="31.2098" stroke="#19459F" stroke-width="0.8"/>
<path d="M47.7334 29.6H44.5334V28C44.5284 23.5838 40.9496 20.005 36.5334 20H35.4667C31.0505 20.005 27.4717 23.5838 27.4667 28V29.6H24.2667C23.9722 29.6 23.7334 29.8388 23.7334 30.1333V51.4667C23.7334 51.7612 23.9722 52 24.2667 52H47.7334C48.0279 52 48.2667 51.7612 48.2667 51.4667V30.1333C48.2667 29.8388 48.0279 29.6 47.7334 29.6ZM28.5334 28C28.5378 24.1727 31.6394 21.0711 35.4667 21.0667H36.5334C40.3607 21.0711 43.4623 24.1727 43.4667 28V29.6H42.4001V28C42.3963 24.7615 39.7719 22.1371 36.5334 22.1333H35.4667C32.2283 22.1371 29.6039 24.7615 29.6001 28V29.6H28.5334V28ZM41.3334 29.6H30.6667V28C30.6699 25.3504 32.8171 23.2032 35.4667 23.2H36.5334C39.183 23.2032 41.3302 25.3504 41.3334 28V29.6ZM47.2001 50.9333H24.8001V30.6667H47.2001V50.9333Z" fill="url(#paint0_linear_4016_5677)"/>
<path d="M36 47.7333C39.8292 47.7333 42.9333 44.6292 42.9333 40.8C42.9333 36.9708 39.8292 33.8666 36 33.8666C32.1708 33.8666 29.0667 36.9708 29.0667 40.8C29.0711 44.6273 32.1727 47.7289 36 47.7333ZM36 34.9333C39.2401 34.9333 41.8667 37.5599 41.8667 40.8C41.8667 44.04 39.2401 46.6666 36 46.6666C32.7599 46.6666 30.1333 44.04 30.1333 40.8C30.1371 37.5615 32.7615 34.9371 36 34.9333Z" fill="url(#paint1_linear_4016_5677)"/>
<path d="M34.4 44.5333V45.6H35.4667V44.5333H36V45.6H37.0667V44.5333H37.6C38.4837 44.5333 39.2 43.817 39.2 42.9333V41.8667C39.1986 41.4718 39.0504 41.0915 38.784 40.8C39.0504 40.5085 39.1986 40.1282 39.2 39.7333V38.6667C39.2 37.783 38.4837 37.0667 37.6 37.0667H37.0667V36H36V37.0667H35.4667V36H34.4V37.0667H32.8V38.1333H33.8667V43.4667H32.8V44.5333H34.4ZM34.9334 38.1333H37.6C37.8946 38.1333 38.1334 38.3721 38.1334 38.6667V39.7333C38.1334 40.0279 37.8946 40.2667 37.6 40.2667H34.9334V38.1333ZM37.6 41.3333C37.8946 41.3333 38.1334 41.5721 38.1334 41.8667V42.9333C38.1334 43.2279 37.8946 43.4667 37.6 43.4667H34.9334V41.3333H37.6Z" fill="url(#paint2_linear_4016_5677)"/>
<path d="M35.9999 33.3333C36.2944 33.3333 36.5332 33.0945 36.5332 32.8V31.7333C36.5332 31.4388 36.2944 31.2 35.9999 31.2C35.7054 31.2 35.4666 31.4388 35.4666 31.7333V32.8C35.4666 33.0945 35.7054 33.3333 35.9999 33.3333Z" fill="url(#paint3_linear_4016_5677)"/>
<path d="M31.5382 34.1387C31.6838 34.3948 32.0094 34.4843 32.2654 34.3387C32.5215 34.1931 32.611 33.8675 32.4654 33.6115C32.4643 33.6094 32.4631 33.6074 32.4619 33.6053L31.9286 32.6811C31.7796 32.4269 31.4528 32.3417 31.1988 32.4907C30.947 32.6383 30.8606 32.9607 31.0048 33.2144L31.5382 34.1387Z" fill="url(#paint4_linear_4016_5677)"/>
<path d="M27.881 36.7286L28.8053 37.2619C29.0594 37.4109 29.3862 37.3257 29.5352 37.0717C29.6842 36.8176 29.599 36.4908 29.3449 36.3418C29.3428 36.3406 29.3408 36.3394 29.3387 36.3382L28.4144 35.8049C28.1584 35.6593 27.8328 35.7489 27.6872 36.005C27.543 36.2586 27.6294 36.581 27.881 36.7286Z" fill="url(#paint5_linear_4016_5677)"/>
<path d="M28.5332 40.8001C28.5332 40.5055 28.2944 40.2667 27.9999 40.2667H26.9332C26.6387 40.2667 26.3999 40.5055 26.3999 40.8001C26.3999 41.0946 26.6387 41.3334 26.9332 41.3334H27.9999C28.2944 41.3334 28.5332 41.0946 28.5332 40.8001Z" fill="url(#paint6_linear_4016_5677)"/>
<path d="M28.8052 44.3382L27.881 44.8715C27.6249 45.017 27.5353 45.3426 27.6808 45.5987C27.8264 45.8548 28.152 45.9444 28.408 45.7988C28.4101 45.7976 28.4122 45.7964 28.4142 45.7952L29.3385 45.2619C29.5946 45.1164 29.6842 44.7908 29.5386 44.5347C29.3931 44.2786 29.0675 44.189 28.8114 44.3346C28.8094 44.3358 28.8073 44.337 28.8052 44.3382Z" fill="url(#paint7_linear_4016_5677)"/>
<path d="M32.2666 47.2662C32.0115 47.1189 31.6853 47.2063 31.538 47.4614L31.0047 48.3856C30.8558 48.6398 30.941 48.9665 31.1951 49.1154C31.4492 49.2644 31.776 49.1792 31.9249 48.925C31.9261 48.923 31.9272 48.921 31.9284 48.9189L32.4618 47.9946C32.609 47.7396 32.5216 47.4134 32.2666 47.2662Z" fill="url(#paint8_linear_4016_5677)"/>
<path d="M35.9999 48.2667C35.7054 48.2667 35.4666 48.5055 35.4666 48.8V49.8667C35.4666 50.1612 35.7054 50.4 35.9999 50.4C36.2944 50.4 36.5332 50.1612 36.5332 49.8667V48.8C36.5332 48.5055 36.2944 48.2667 35.9999 48.2667Z" fill="url(#paint9_linear_4016_5677)"/>
<path d="M40.4619 47.4614C40.3164 47.2053 39.9908 47.1157 39.7347 47.2613C39.4787 47.4068 39.3891 47.7324 39.5346 47.9885C39.5358 47.9905 39.537 47.9926 39.5382 47.9947L40.0715 48.9189C40.2205 49.173 40.5473 49.2582 40.8014 49.1092C41.0531 48.9616 41.1395 48.6392 40.9953 48.3856L40.4619 47.4614Z" fill="url(#paint10_linear_4016_5677)"/>
<path d="M44.1189 44.8715L43.1947 44.3382C42.9386 44.1927 42.613 44.2822 42.4675 44.5383C42.3233 44.792 42.4097 45.1144 42.6613 45.2619L43.5856 45.7953C43.8397 45.9443 44.1665 45.8591 44.3155 45.605C44.4645 45.3509 44.3793 45.0241 44.1252 44.8751C44.1231 44.8739 44.121 44.8727 44.1189 44.8715Z" fill="url(#paint11_linear_4016_5677)"/>
<path d="M43.4666 40.8001C43.4666 41.0946 43.7054 41.3334 43.9999 41.3334H45.0666C45.3611 41.3334 45.5999 41.0946 45.5999 40.8001C45.5999 40.5055 45.3611 40.2667 45.0666 40.2667H43.9999C43.7054 40.2667 43.4666 40.5055 43.4666 40.8001Z" fill="url(#paint12_linear_4016_5677)"/>
<path d="M43.5855 35.8049L42.6612 36.3382C42.4052 36.4837 42.3156 36.8093 42.4611 37.0654C42.6066 37.3215 42.9322 37.4111 43.1883 37.2655C43.1904 37.2643 43.1924 37.2631 43.1945 37.2619L44.1188 36.7286C44.3729 36.5797 44.4581 36.2529 44.3092 35.9988C44.1616 35.7471 43.8392 35.6607 43.5855 35.8049Z" fill="url(#paint13_linear_4016_5677)"/>
<path d="M39.7333 34.3339C39.9884 34.4812 40.3146 34.3938 40.4618 34.1387L40.9952 33.2145C41.1442 32.9604 41.059 32.6336 40.8049 32.4846C40.5508 32.3356 40.224 32.4208 40.075 32.6749C40.0738 32.6769 40.0726 32.679 40.0714 32.6811L39.5381 33.6053C39.3908 33.8605 39.4782 34.1867 39.7333 34.3339Z" fill="url(#paint14_linear_4016_5677)"/>
<defs>
<linearGradient id="paint0_linear_4016_5677" x1="36.0001" y1="20" x2="36.0001" y2="52" gradientUnits="userSpaceOnUse">
<stop stop-color="#19459F"/>
<stop offset="0.62" stop-color="#30388F"/>
<stop offset="1" stop-color="#122058"/>
</linearGradient>
<linearGradient id="paint1_linear_4016_5677" x1="36" y1="33.8666" x2="36" y2="47.7333" gradientUnits="userSpaceOnUse">
<stop stop-color="#19459F"/>
<stop offset="0.62" stop-color="#30388F"/>
<stop offset="1" stop-color="#122058"/>
</linearGradient>
<linearGradient id="paint2_linear_4016_5677" x1="36" y1="36" x2="36" y2="45.6" gradientUnits="userSpaceOnUse">
<stop stop-color="#19459F"/>
<stop offset="0.62" stop-color="#30388F"/>
<stop offset="1" stop-color="#122058"/>
</linearGradient>
<linearGradient id="paint3_linear_4016_5677" x1="35.9999" y1="31.2" x2="35.9999" y2="33.3333" gradientUnits="userSpaceOnUse">
<stop stop-color="#19459F"/>
<stop offset="0.62" stop-color="#30388F"/>
<stop offset="1" stop-color="#122058"/>
</linearGradient>
<linearGradient id="paint4_linear_4016_5677" x1="31.7351" y1="32.4174" x2="31.7351" y2="34.4085" gradientUnits="userSpaceOnUse">
<stop stop-color="#19459F"/>
<stop offset="0.62" stop-color="#30388F"/>
<stop offset="1" stop-color="#122058"/>
</linearGradient>
<linearGradient id="paint5_linear_4016_5677" x1="28.613" y1="35.7351" x2="28.613" y2="37.3353" gradientUnits="userSpaceOnUse">
<stop stop-color="#19459F"/>
<stop offset="0.62" stop-color="#30388F"/>
<stop offset="1" stop-color="#122058"/>
</linearGradient>
<linearGradient id="paint6_linear_4016_5677" x1="27.4666" y1="40.2667" x2="27.4666" y2="41.3334" gradientUnits="userSpaceOnUse">
<stop stop-color="#19459F"/>
<stop offset="0.62" stop-color="#30388F"/>
<stop offset="1" stop-color="#122058"/>
</linearGradient>
<linearGradient id="paint7_linear_4016_5677" x1="28.6097" y1="44.2648" x2="28.6097" y2="45.8686" gradientUnits="userSpaceOnUse">
<stop stop-color="#19459F"/>
<stop offset="0.62" stop-color="#30388F"/>
<stop offset="1" stop-color="#122058"/>
</linearGradient>
<linearGradient id="paint8_linear_4016_5677" x1="31.7323" y1="47.1946" x2="31.7323" y2="49.1887" gradientUnits="userSpaceOnUse">
<stop stop-color="#19459F"/>
<stop offset="0.62" stop-color="#30388F"/>
<stop offset="1" stop-color="#122058"/>
</linearGradient>
<linearGradient id="paint9_linear_4016_5677" x1="35.9999" y1="48.2667" x2="35.9999" y2="50.4" gradientUnits="userSpaceOnUse">
<stop stop-color="#19459F"/>
<stop offset="0.62" stop-color="#30388F"/>
<stop offset="1" stop-color="#122058"/>
</linearGradient>
<linearGradient id="paint10_linear_4016_5677" x1="40.2649" y1="47.1915" x2="40.2649" y2="49.1826" gradientUnits="userSpaceOnUse">
<stop stop-color="#19459F"/>
<stop offset="0.62" stop-color="#30388F"/>
<stop offset="1" stop-color="#122058"/>
</linearGradient>
<linearGradient id="paint11_linear_4016_5677" x1="43.3933" y1="44.2684" x2="43.3933" y2="45.8686" gradientUnits="userSpaceOnUse">
<stop stop-color="#19459F"/>
<stop offset="0.62" stop-color="#30388F"/>
<stop offset="1" stop-color="#122058"/>
</linearGradient>
<linearGradient id="paint12_linear_4016_5677" x1="44.5332" y1="40.2667" x2="44.5332" y2="41.3334" gradientUnits="userSpaceOnUse">
<stop stop-color="#19459F"/>
<stop offset="0.62" stop-color="#30388F"/>
<stop offset="1" stop-color="#122058"/>
</linearGradient>
<linearGradient id="paint13_linear_4016_5677" x1="43.3869" y1="35.7351" x2="43.3869" y2="37.3353" gradientUnits="userSpaceOnUse">
<stop stop-color="#19459F"/>
<stop offset="0.62" stop-color="#30388F"/>
<stop offset="1" stop-color="#122058"/>
</linearGradient>
<linearGradient id="paint14_linear_4016_5677" x1="40.2675" y1="32.4113" x2="40.2675" y2="34.4055" gradientUnits="userSpaceOnUse">
<stop stop-color="#19459F"/>
<stop offset="0.62" stop-color="#30388F"/>
<stop offset="1" stop-color="#122058"/>
</linearGradient>
</defs>
</svg>
