<svg width="44" height="44" viewBox="0 0 44 44" fill="none" xmlns="http://www.w3.org/2000/svg">
<rect width="44" height="44" rx="22" fill="white"/>
<rect x="0.5" y="0.5" width="43" height="43" rx="21.5" stroke="black" stroke-opacity="0.1"/>
<path d="M25.335 26.5833H28.2516M25.335 26.5833V24.4999C25.335 24.1071 25.335 23.9107 25.457 23.7886C25.579 23.6666 25.7755 23.6666 26.1683 23.6666H27.0016M25.335 26.5833V28.6666C25.335 29.0594 25.335 29.2558 25.457 29.3779C25.579 29.4999 25.7755 29.4999 26.1683 29.4999H27.0016M28.2516 26.5833C28.942 26.5833 29.5016 25.9303 29.5016 25.1249C29.5016 24.3195 28.942 23.6666 28.2516 23.6666H27.0016M28.2516 26.5833C28.942 26.5833 29.5016 27.2362 29.5016 28.0416C29.5016 28.847 28.942 29.4999 28.2516 29.4999H27.0016M27.0016 29.4999V30.3333M27.0016 23.6666V22.8333" stroke="#0A133C" stroke-width="1.25" stroke-linecap="round"/>
<path d="M22.8337 30.3333L20.9397 30.3333C18.222 30.3333 16.8632 30.3333 15.9195 29.6684C15.6492 29.4779 15.4091 29.252 15.2067 28.9975C14.5003 28.1094 14.5003 26.8305 14.5003 24.2726L14.5003 22.1514C14.5003 19.6821 14.5003 18.4475 14.8911 17.4614C15.5193 15.8761 16.8479 14.6257 18.5323 14.0344C19.58 13.6666 20.8918 13.6666 23.5155 13.6666C25.0147 13.6666 25.7643 13.6666 26.363 13.8768C27.3255 14.2146 28.0847 14.9292 28.4437 15.835C28.667 16.3985 28.667 17.104 28.667 18.5151L28.667 20.3333" stroke="#0A133C" stroke-width="1.25" stroke-linecap="round" stroke-linejoin="round"/>
<path d="M14.4997 22C14.4997 20.4659 15.7433 19.2222 17.2775 19.2222C17.8323 19.2222 18.4864 19.3194 19.0258 19.1749C19.5051 19.0465 19.8795 18.6721 20.0079 18.1928C20.1524 17.6534 20.0552 16.9993 20.0552 16.4444C20.0552 14.9103 21.2989 13.6667 22.833 13.6667" stroke="#0A133C" stroke-width="1.25" stroke-linecap="round" stroke-linejoin="round"/>
</svg>
