<svg width="72" height="72" viewBox="0 0 72 72" fill="none" xmlns="http://www.w3.org/2000/svg">
<circle cx="36" cy="36" r="35.6" stroke="#19459F" stroke-width="0.8" stroke-dasharray="3.2 3.2"/>
<rect x="4.79014" y="4.35117" width="62.4195" height="62.4195" rx="31.2098" stroke="#19459F" stroke-width="0.8"/>
<g clip-path="url(#clip0_4016_3103)">
<mask id="path-3-outside-1_4016_3103" maskUnits="userSpaceOnUse" x="19" y="19" width="34" height="34" fill="black">
<rect fill="white" x="19" y="19" width="34" height="34"/>
<path d="M42.638 36.3845H29.3619C28.7169 36.3845 28.1921 36.9091 28.1921 37.5541V50.8301C28.1921 51.475 28.7169 51.9998 29.3619 51.9998H42.638C43.283 51.9998 43.8078 51.475 43.8078 50.8301V37.5541C43.8078 36.9091 43.283 36.3845 42.638 36.3845ZM34.494 37.1649H37.3011V40.9048L36.1724 39.7852C36.0207 39.6346 35.7752 39.6341 35.623 39.7852L34.494 40.9049L34.494 37.1649ZM43.0271 50.8301C43.0271 51.0447 42.8527 51.2194 42.638 51.2194H29.3619C29.1473 51.2194 28.9729 51.0447 28.9729 50.8301V37.5541C28.9729 37.3394 29.1473 37.1649 29.3619 37.1649H33.7133V41.8415C33.7133 41.9991 33.808 42.1411 33.9536 42.2017C34.002 42.2219 34.0531 42.2317 34.1036 42.2317C34.2045 42.2317 34.304 42.1926 34.3783 42.1186L35.8977 40.612L37.4168 42.1186C37.5282 42.2296 37.6965 42.2624 37.8415 42.2017C37.9871 42.1411 38.0818 41.9991 38.0818 41.8415V37.1649H42.638C42.8527 37.1649 43.0271 37.3394 43.0271 37.5541V50.8301ZM40.9909 49.1748C40.9909 49.3904 40.8159 49.565 40.6005 49.565H36.7268C36.5114 49.565 36.3365 49.3904 36.3365 49.1748C36.3365 48.9593 36.5114 48.7846 36.7268 48.7846H40.6005C40.8159 48.7846 40.9909 48.9593 40.9909 49.1748ZM37.3048 47.5069C37.3048 47.2913 37.4797 47.1166 37.6952 47.1166H39.6321C39.8476 47.1166 40.0225 47.2913 40.0225 47.5069C40.0225 47.7224 39.8476 47.8971 39.6321 47.8971H37.6952C37.4797 47.8971 37.3048 47.7224 37.3048 47.5069ZM26.0818 32.639C26.1541 32.7476 26.2761 32.8129 26.4066 32.8129C26.537 32.8129 26.659 32.7476 26.7313 32.639L32.7476 23.6102C32.8508 23.4554 32.8301 23.2492 32.6986 23.1177L29.6903 20.1141C29.617 20.041 29.518 20 29.4146 20H23.3983C23.2948 20 23.1958 20.041 23.1225 20.1141L20.1145 23.1177C19.9827 23.2492 19.9623 23.4554 20.0656 23.6102L26.0818 32.639ZM26.4018 23.7841L26.4064 23.7834L26.4111 23.7841H28.8754L26.4066 31.1888L23.9377 23.7841H26.4018ZM29.6982 23.7841H31.6938L27.6996 29.7784L29.6982 23.7841ZM27.3532 23.0036L29.4148 20.9419L31.4796 23.0036H27.3532ZM26.4064 22.8466L24.3404 20.7805H28.4724L26.4064 22.8466ZM25.4596 23.0036H21.3334L23.398 20.9419L25.4596 23.0036ZM23.1149 23.7841L25.1135 29.7784L21.1193 23.7841H23.1149ZM45.5934 32.813C49.1259 32.813 52 29.939 52 26.4065C52 22.874 49.1259 20 45.5934 20C42.0608 20 39.1867 22.874 39.1867 26.4065C39.1867 29.939 42.0608 32.813 45.5934 32.813ZM45.5934 20.7805C48.6956 20.7805 51.2193 23.3043 51.2193 26.4065C51.2193 29.5087 48.6956 32.0325 45.5934 32.0325C42.4912 32.0325 39.9675 29.5087 39.9675 26.4065C39.9675 23.3043 42.4912 20.7805 45.5934 20.7805ZM45.5934 31.218C48.2465 31.218 50.405 29.0596 50.405 26.4065C50.405 23.7534 48.2465 21.595 45.5934 21.595C42.9403 21.595 40.7818 23.7534 40.7818 26.4065C40.7818 29.0596 42.9403 31.218 45.5934 31.218ZM45.5934 22.3755C47.8162 22.3755 49.6242 24.1838 49.6242 26.4065C49.6242 28.6292 47.8162 30.4375 45.5934 30.4375C43.3706 30.4375 41.5625 28.6292 41.5625 26.4065C41.5625 24.1838 43.3706 22.3755 45.5934 22.3755ZM24.3995 37.6635L25.4422 37.8372C25.5883 37.8617 25.7341 37.8015 25.8209 37.6829C25.908 37.5641 25.9209 37.4064 25.854 37.2751L23.8731 33.3874C23.8167 33.2771 23.7116 33.2001 23.5894 33.1797C23.4689 33.1596 23.3432 33.1979 23.2538 33.2842L20.1187 36.3192C20.0129 36.4216 19.974 36.575 20.0177 36.7157C20.0616 36.8563 20.1809 36.9603 20.3262 36.9845L21.4992 37.18C21.509 40.6417 23.4367 43.295 27.2336 45.0705C27.2868 45.0954 27.3431 45.1073 27.3987 45.1073C27.5255 45.1073 27.6483 45.0456 27.7229 44.9346C27.8301 44.7749 27.805 44.5609 27.6636 44.4303C25.5949 42.5202 24.4982 40.2455 24.3995 37.6635ZM22.2844 36.8631C22.2907 36.6675 22.1515 36.4975 21.9583 36.4653L21.2176 36.3418L23.4173 34.2123L24.8073 36.9402L24.0663 36.8167C23.9554 36.7983 23.8387 36.8294 23.7511 36.903C23.6637 36.9766 23.6129 37.0847 23.6119 37.1989C23.596 39.4066 24.2333 41.4113 25.5102 43.1839C23.2567 41.5804 22.1976 39.4966 22.2844 36.8631ZM48.7464 33.2842C48.6572 33.1981 48.5318 33.1597 48.4108 33.1797C48.2886 33.2001 48.1835 33.2771 48.1271 33.3874L46.1459 37.2751C46.079 37.4064 46.092 37.5641 46.179 37.6829C46.2658 37.8018 46.4114 37.8622 46.5577 37.8372L47.6005 37.6635C47.5017 40.2455 46.405 42.5202 44.3363 44.4303C44.1949 44.5609 44.1698 44.7749 44.277 44.9346C44.3516 45.0456 44.4744 45.1073 44.6012 45.1073C44.6568 45.1073 44.7131 45.0954 44.7663 45.0705C48.5633 43.295 50.491 40.6417 50.5007 37.18L51.6737 36.9845C51.819 36.9603 51.9383 36.8563 51.9823 36.7157C52.0259 36.575 51.987 36.4218 51.8812 36.3192L48.7464 33.2842ZM50.0416 36.4653C49.8484 36.4975 49.7092 36.6675 49.7155 36.8631C49.8024 39.4966 48.7432 41.5804 46.4897 43.184C47.7667 41.4113 48.4039 39.4066 48.3881 37.1989C48.387 37.0847 48.3362 36.9766 48.2489 36.903C48.1779 36.8435 48.089 36.8115 47.9977 36.8115C47.9763 36.8115 47.9548 36.8132 47.9337 36.8168L47.1926 36.9402L48.5829 34.2123L50.7824 36.3418L50.0416 36.4653ZM36.3124 35.2786L38.7443 31.0666L38.1906 31.2108C37.9813 31.2652 37.769 31.1402 37.7145 30.9315C37.6602 30.7229 37.7852 30.5099 37.9937 30.4555L39.4503 30.0761C39.462 30.0731 39.4735 30.0726 39.4852 30.0707C39.4981 30.0685 39.5109 30.0654 39.5241 30.0646C39.5405 30.0635 39.5565 30.0649 39.5726 30.0659C39.5817 30.0664 39.5908 30.0659 39.5999 30.0671C39.6177 30.0695 39.6348 30.0742 39.6519 30.0789C39.6593 30.081 39.6668 30.0819 39.6741 30.0844C39.6974 30.0923 39.7197 30.1025 39.741 30.1145L39.7438 30.1158C39.7666 30.129 39.7882 30.1445 39.808 30.162L39.8097 30.1638C39.8279 30.1801 39.8446 30.198 39.8595 30.2177C39.8663 30.2265 39.8711 30.2365 39.877 30.2459C39.8847 30.2579 39.893 30.2693 39.8994 30.2823C39.9106 30.3053 39.9194 30.3293 39.926 30.354L39.9264 30.3553L40.306 31.812C40.3602 32.0206 40.2353 32.2337 40.0268 32.2881C39.9937 32.2967 39.9606 32.3008 39.928 32.3008C39.7547 32.3008 39.5964 32.1843 39.5506 32.0089L39.411 31.4729L36.9883 35.669C36.9161 35.7941 36.7848 35.8641 36.6501 35.8641C36.5837 35.8641 36.5167 35.8472 36.4553 35.8117C36.2685 35.704 36.2047 35.4653 36.3124 35.2786ZM32.5521 30.0768L34.0062 30.4555C34.2148 30.5099 34.3397 30.7229 34.2854 30.9315C34.2309 31.1399 34.0187 31.2649 33.8093 31.2108L33.2556 31.0666L35.6875 35.2786C35.7953 35.4653 35.7315 35.704 35.5446 35.8117C35.4832 35.8472 35.4163 35.8641 35.3499 35.8641C35.2152 35.8641 35.0839 35.7941 35.0116 35.669L32.5889 31.4729L32.4493 32.0089C32.4035 32.1843 32.2452 32.3008 32.0719 32.3008C32.0394 32.3008 32.0063 32.2967 31.9732 32.2881C31.7646 32.2337 31.6397 32.0206 31.694 31.812L32.0735 30.3553L32.074 30.354C32.0805 30.3294 32.0893 30.3054 32.1005 30.2825C32.1097 30.2636 32.1211 30.2463 32.133 30.2294C32.1356 30.2258 32.1373 30.2217 32.14 30.2181C32.1874 30.1554 32.2526 30.109 32.3263 30.0841C32.3324 30.082 32.3385 30.0813 32.3446 30.0796C32.3627 30.0744 32.3809 30.0695 32.3997 30.067C32.4103 30.0656 32.4208 30.0661 32.4314 30.0656C32.4459 30.0649 32.4603 30.0635 32.475 30.0644C32.4946 30.0657 32.5137 30.0694 32.5328 30.0735C32.5384 30.0747 32.544 30.0747 32.5496 30.0761L32.5521 30.0768Z"/>
</mask>
<path d="M42.638 36.3845H29.3619C28.7169 36.3845 28.1921 36.9091 28.1921 37.5541V50.8301C28.1921 51.475 28.7169 51.9998 29.3619 51.9998H42.638C43.283 51.9998 43.8078 51.475 43.8078 50.8301V37.5541C43.8078 36.9091 43.283 36.3845 42.638 36.3845ZM34.494 37.1649H37.3011V40.9048L36.1724 39.7852C36.0207 39.6346 35.7752 39.6341 35.623 39.7852L34.494 40.9049L34.494 37.1649ZM43.0271 50.8301C43.0271 51.0447 42.8527 51.2194 42.638 51.2194H29.3619C29.1473 51.2194 28.9729 51.0447 28.9729 50.8301V37.5541C28.9729 37.3394 29.1473 37.1649 29.3619 37.1649H33.7133V41.8415C33.7133 41.9991 33.808 42.1411 33.9536 42.2017C34.002 42.2219 34.0531 42.2317 34.1036 42.2317C34.2045 42.2317 34.304 42.1926 34.3783 42.1186L35.8977 40.612L37.4168 42.1186C37.5282 42.2296 37.6965 42.2624 37.8415 42.2017C37.9871 42.1411 38.0818 41.9991 38.0818 41.8415V37.1649H42.638C42.8527 37.1649 43.0271 37.3394 43.0271 37.5541V50.8301ZM40.9909 49.1748C40.9909 49.3904 40.8159 49.565 40.6005 49.565H36.7268C36.5114 49.565 36.3365 49.3904 36.3365 49.1748C36.3365 48.9593 36.5114 48.7846 36.7268 48.7846H40.6005C40.8159 48.7846 40.9909 48.9593 40.9909 49.1748ZM37.3048 47.5069C37.3048 47.2913 37.4797 47.1166 37.6952 47.1166H39.6321C39.8476 47.1166 40.0225 47.2913 40.0225 47.5069C40.0225 47.7224 39.8476 47.8971 39.6321 47.8971H37.6952C37.4797 47.8971 37.3048 47.7224 37.3048 47.5069ZM26.0818 32.639C26.1541 32.7476 26.2761 32.8129 26.4066 32.8129C26.537 32.8129 26.659 32.7476 26.7313 32.639L32.7476 23.6102C32.8508 23.4554 32.8301 23.2492 32.6986 23.1177L29.6903 20.1141C29.617 20.041 29.518 20 29.4146 20H23.3983C23.2948 20 23.1958 20.041 23.1225 20.1141L20.1145 23.1177C19.9827 23.2492 19.9623 23.4554 20.0656 23.6102L26.0818 32.639ZM26.4018 23.7841L26.4064 23.7834L26.4111 23.7841H28.8754L26.4066 31.1888L23.9377 23.7841H26.4018ZM29.6982 23.7841H31.6938L27.6996 29.7784L29.6982 23.7841ZM27.3532 23.0036L29.4148 20.9419L31.4796 23.0036H27.3532ZM26.4064 22.8466L24.3404 20.7805H28.4724L26.4064 22.8466ZM25.4596 23.0036H21.3334L23.398 20.9419L25.4596 23.0036ZM23.1149 23.7841L25.1135 29.7784L21.1193 23.7841H23.1149ZM45.5934 32.813C49.1259 32.813 52 29.939 52 26.4065C52 22.874 49.1259 20 45.5934 20C42.0608 20 39.1867 22.874 39.1867 26.4065C39.1867 29.939 42.0608 32.813 45.5934 32.813ZM45.5934 20.7805C48.6956 20.7805 51.2193 23.3043 51.2193 26.4065C51.2193 29.5087 48.6956 32.0325 45.5934 32.0325C42.4912 32.0325 39.9675 29.5087 39.9675 26.4065C39.9675 23.3043 42.4912 20.7805 45.5934 20.7805ZM45.5934 31.218C48.2465 31.218 50.405 29.0596 50.405 26.4065C50.405 23.7534 48.2465 21.595 45.5934 21.595C42.9403 21.595 40.7818 23.7534 40.7818 26.4065C40.7818 29.0596 42.9403 31.218 45.5934 31.218ZM45.5934 22.3755C47.8162 22.3755 49.6242 24.1838 49.6242 26.4065C49.6242 28.6292 47.8162 30.4375 45.5934 30.4375C43.3706 30.4375 41.5625 28.6292 41.5625 26.4065C41.5625 24.1838 43.3706 22.3755 45.5934 22.3755ZM24.3995 37.6635L25.4422 37.8372C25.5883 37.8617 25.7341 37.8015 25.8209 37.6829C25.908 37.5641 25.9209 37.4064 25.854 37.2751L23.8731 33.3874C23.8167 33.2771 23.7116 33.2001 23.5894 33.1797C23.4689 33.1596 23.3432 33.1979 23.2538 33.2842L20.1187 36.3192C20.0129 36.4216 19.974 36.575 20.0177 36.7157C20.0616 36.8563 20.1809 36.9603 20.3262 36.9845L21.4992 37.18C21.509 40.6417 23.4367 43.295 27.2336 45.0705C27.2868 45.0954 27.3431 45.1073 27.3987 45.1073C27.5255 45.1073 27.6483 45.0456 27.7229 44.9346C27.8301 44.7749 27.805 44.5609 27.6636 44.4303C25.5949 42.5202 24.4982 40.2455 24.3995 37.6635ZM22.2844 36.8631C22.2907 36.6675 22.1515 36.4975 21.9583 36.4653L21.2176 36.3418L23.4173 34.2123L24.8073 36.9402L24.0663 36.8167C23.9554 36.7983 23.8387 36.8294 23.7511 36.903C23.6637 36.9766 23.6129 37.0847 23.6119 37.1989C23.596 39.4066 24.2333 41.4113 25.5102 43.1839C23.2567 41.5804 22.1976 39.4966 22.2844 36.8631ZM48.7464 33.2842C48.6572 33.1981 48.5318 33.1597 48.4108 33.1797C48.2886 33.2001 48.1835 33.2771 48.1271 33.3874L46.1459 37.2751C46.079 37.4064 46.092 37.5641 46.179 37.6829C46.2658 37.8018 46.4114 37.8622 46.5577 37.8372L47.6005 37.6635C47.5017 40.2455 46.405 42.5202 44.3363 44.4303C44.1949 44.5609 44.1698 44.7749 44.277 44.9346C44.3516 45.0456 44.4744 45.1073 44.6012 45.1073C44.6568 45.1073 44.7131 45.0954 44.7663 45.0705C48.5633 43.295 50.491 40.6417 50.5007 37.18L51.6737 36.9845C51.819 36.9603 51.9383 36.8563 51.9823 36.7157C52.0259 36.575 51.987 36.4218 51.8812 36.3192L48.7464 33.2842ZM50.0416 36.4653C49.8484 36.4975 49.7092 36.6675 49.7155 36.8631C49.8024 39.4966 48.7432 41.5804 46.4897 43.184C47.7667 41.4113 48.4039 39.4066 48.3881 37.1989C48.387 37.0847 48.3362 36.9766 48.2489 36.903C48.1779 36.8435 48.089 36.8115 47.9977 36.8115C47.9763 36.8115 47.9548 36.8132 47.9337 36.8168L47.1926 36.9402L48.5829 34.2123L50.7824 36.3418L50.0416 36.4653ZM36.3124 35.2786L38.7443 31.0666L38.1906 31.2108C37.9813 31.2652 37.769 31.1402 37.7145 30.9315C37.6602 30.7229 37.7852 30.5099 37.9937 30.4555L39.4503 30.0761C39.462 30.0731 39.4735 30.0726 39.4852 30.0707C39.4981 30.0685 39.5109 30.0654 39.5241 30.0646C39.5405 30.0635 39.5565 30.0649 39.5726 30.0659C39.5817 30.0664 39.5908 30.0659 39.5999 30.0671C39.6177 30.0695 39.6348 30.0742 39.6519 30.0789C39.6593 30.081 39.6668 30.0819 39.6741 30.0844C39.6974 30.0923 39.7197 30.1025 39.741 30.1145L39.7438 30.1158C39.7666 30.129 39.7882 30.1445 39.808 30.162L39.8097 30.1638C39.8279 30.1801 39.8446 30.198 39.8595 30.2177C39.8663 30.2265 39.8711 30.2365 39.877 30.2459C39.8847 30.2579 39.893 30.2693 39.8994 30.2823C39.9106 30.3053 39.9194 30.3293 39.926 30.354L39.9264 30.3553L40.306 31.812C40.3602 32.0206 40.2353 32.2337 40.0268 32.2881C39.9937 32.2967 39.9606 32.3008 39.928 32.3008C39.7547 32.3008 39.5964 32.1843 39.5506 32.0089L39.411 31.4729L36.9883 35.669C36.9161 35.7941 36.7848 35.8641 36.6501 35.8641C36.5837 35.8641 36.5167 35.8472 36.4553 35.8117C36.2685 35.704 36.2047 35.4653 36.3124 35.2786ZM32.5521 30.0768L34.0062 30.4555C34.2148 30.5099 34.3397 30.7229 34.2854 30.9315C34.2309 31.1399 34.0187 31.2649 33.8093 31.2108L33.2556 31.0666L35.6875 35.2786C35.7953 35.4653 35.7315 35.704 35.5446 35.8117C35.4832 35.8472 35.4163 35.8641 35.3499 35.8641C35.2152 35.8641 35.0839 35.7941 35.0116 35.669L32.5889 31.4729L32.4493 32.0089C32.4035 32.1843 32.2452 32.3008 32.0719 32.3008C32.0394 32.3008 32.0063 32.2967 31.9732 32.2881C31.7646 32.2337 31.6397 32.0206 31.694 31.812L32.0735 30.3553L32.074 30.354C32.0805 30.3294 32.0893 30.3054 32.1005 30.2825C32.1097 30.2636 32.1211 30.2463 32.133 30.2294C32.1356 30.2258 32.1373 30.2217 32.14 30.2181C32.1874 30.1554 32.2526 30.109 32.3263 30.0841C32.3324 30.082 32.3385 30.0813 32.3446 30.0796C32.3627 30.0744 32.3809 30.0695 32.3997 30.067C32.4103 30.0656 32.4208 30.0661 32.4314 30.0656C32.4459 30.0649 32.4603 30.0635 32.475 30.0644C32.4946 30.0657 32.5137 30.0694 32.5328 30.0735C32.5384 30.0747 32.544 30.0747 32.5496 30.0761L32.5521 30.0768Z" fill="url(#paint0_linear_4016_3103)"/>
<path d="M42.638 36.3845H29.3619C28.7169 36.3845 28.1921 36.9091 28.1921 37.5541V50.8301C28.1921 51.475 28.7169 51.9998 29.3619 51.9998H42.638C43.283 51.9998 43.8078 51.475 43.8078 50.8301V37.5541C43.8078 36.9091 43.283 36.3845 42.638 36.3845ZM34.494 37.1649H37.3011V40.9048L36.1724 39.7852C36.0207 39.6346 35.7752 39.6341 35.623 39.7852L34.494 40.9049L34.494 37.1649ZM43.0271 50.8301C43.0271 51.0447 42.8527 51.2194 42.638 51.2194H29.3619C29.1473 51.2194 28.9729 51.0447 28.9729 50.8301V37.5541C28.9729 37.3394 29.1473 37.1649 29.3619 37.1649H33.7133V41.8415C33.7133 41.9991 33.808 42.1411 33.9536 42.2017C34.002 42.2219 34.0531 42.2317 34.1036 42.2317C34.2045 42.2317 34.304 42.1926 34.3783 42.1186L35.8977 40.612L37.4168 42.1186C37.5282 42.2296 37.6965 42.2624 37.8415 42.2017C37.9871 42.1411 38.0818 41.9991 38.0818 41.8415V37.1649H42.638C42.8527 37.1649 43.0271 37.3394 43.0271 37.5541V50.8301ZM40.9909 49.1748C40.9909 49.3904 40.8159 49.565 40.6005 49.565H36.7268C36.5114 49.565 36.3365 49.3904 36.3365 49.1748C36.3365 48.9593 36.5114 48.7846 36.7268 48.7846H40.6005C40.8159 48.7846 40.9909 48.9593 40.9909 49.1748ZM37.3048 47.5069C37.3048 47.2913 37.4797 47.1166 37.6952 47.1166H39.6321C39.8476 47.1166 40.0225 47.2913 40.0225 47.5069C40.0225 47.7224 39.8476 47.8971 39.6321 47.8971H37.6952C37.4797 47.8971 37.3048 47.7224 37.3048 47.5069ZM26.0818 32.639C26.1541 32.7476 26.2761 32.8129 26.4066 32.8129C26.537 32.8129 26.659 32.7476 26.7313 32.639L32.7476 23.6102C32.8508 23.4554 32.8301 23.2492 32.6986 23.1177L29.6903 20.1141C29.617 20.041 29.518 20 29.4146 20H23.3983C23.2948 20 23.1958 20.041 23.1225 20.1141L20.1145 23.1177C19.9827 23.2492 19.9623 23.4554 20.0656 23.6102L26.0818 32.639ZM26.4018 23.7841L26.4064 23.7834L26.4111 23.7841H28.8754L26.4066 31.1888L23.9377 23.7841H26.4018ZM29.6982 23.7841H31.6938L27.6996 29.7784L29.6982 23.7841ZM27.3532 23.0036L29.4148 20.9419L31.4796 23.0036H27.3532ZM26.4064 22.8466L24.3404 20.7805H28.4724L26.4064 22.8466ZM25.4596 23.0036H21.3334L23.398 20.9419L25.4596 23.0036ZM23.1149 23.7841L25.1135 29.7784L21.1193 23.7841H23.1149ZM45.5934 32.813C49.1259 32.813 52 29.939 52 26.4065C52 22.874 49.1259 20 45.5934 20C42.0608 20 39.1867 22.874 39.1867 26.4065C39.1867 29.939 42.0608 32.813 45.5934 32.813ZM45.5934 20.7805C48.6956 20.7805 51.2193 23.3043 51.2193 26.4065C51.2193 29.5087 48.6956 32.0325 45.5934 32.0325C42.4912 32.0325 39.9675 29.5087 39.9675 26.4065C39.9675 23.3043 42.4912 20.7805 45.5934 20.7805ZM45.5934 31.218C48.2465 31.218 50.405 29.0596 50.405 26.4065C50.405 23.7534 48.2465 21.595 45.5934 21.595C42.9403 21.595 40.7818 23.7534 40.7818 26.4065C40.7818 29.0596 42.9403 31.218 45.5934 31.218ZM45.5934 22.3755C47.8162 22.3755 49.6242 24.1838 49.6242 26.4065C49.6242 28.6292 47.8162 30.4375 45.5934 30.4375C43.3706 30.4375 41.5625 28.6292 41.5625 26.4065C41.5625 24.1838 43.3706 22.3755 45.5934 22.3755ZM24.3995 37.6635L25.4422 37.8372C25.5883 37.8617 25.7341 37.8015 25.8209 37.6829C25.908 37.5641 25.9209 37.4064 25.854 37.2751L23.8731 33.3874C23.8167 33.2771 23.7116 33.2001 23.5894 33.1797C23.4689 33.1596 23.3432 33.1979 23.2538 33.2842L20.1187 36.3192C20.0129 36.4216 19.974 36.575 20.0177 36.7157C20.0616 36.8563 20.1809 36.9603 20.3262 36.9845L21.4992 37.18C21.509 40.6417 23.4367 43.295 27.2336 45.0705C27.2868 45.0954 27.3431 45.1073 27.3987 45.1073C27.5255 45.1073 27.6483 45.0456 27.7229 44.9346C27.8301 44.7749 27.805 44.5609 27.6636 44.4303C25.5949 42.5202 24.4982 40.2455 24.3995 37.6635ZM22.2844 36.8631C22.2907 36.6675 22.1515 36.4975 21.9583 36.4653L21.2176 36.3418L23.4173 34.2123L24.8073 36.9402L24.0663 36.8167C23.9554 36.7983 23.8387 36.8294 23.7511 36.903C23.6637 36.9766 23.6129 37.0847 23.6119 37.1989C23.596 39.4066 24.2333 41.4113 25.5102 43.1839C23.2567 41.5804 22.1976 39.4966 22.2844 36.8631ZM48.7464 33.2842C48.6572 33.1981 48.5318 33.1597 48.4108 33.1797C48.2886 33.2001 48.1835 33.2771 48.1271 33.3874L46.1459 37.2751C46.079 37.4064 46.092 37.5641 46.179 37.6829C46.2658 37.8018 46.4114 37.8622 46.5577 37.8372L47.6005 37.6635C47.5017 40.2455 46.405 42.5202 44.3363 44.4303C44.1949 44.5609 44.1698 44.7749 44.277 44.9346C44.3516 45.0456 44.4744 45.1073 44.6012 45.1073C44.6568 45.1073 44.7131 45.0954 44.7663 45.0705C48.5633 43.295 50.491 40.6417 50.5007 37.18L51.6737 36.9845C51.819 36.9603 51.9383 36.8563 51.9823 36.7157C52.0259 36.575 51.987 36.4218 51.8812 36.3192L48.7464 33.2842ZM50.0416 36.4653C49.8484 36.4975 49.7092 36.6675 49.7155 36.8631C49.8024 39.4966 48.7432 41.5804 46.4897 43.184C47.7667 41.4113 48.4039 39.4066 48.3881 37.1989C48.387 37.0847 48.3362 36.9766 48.2489 36.903C48.1779 36.8435 48.089 36.8115 47.9977 36.8115C47.9763 36.8115 47.9548 36.8132 47.9337 36.8168L47.1926 36.9402L48.5829 34.2123L50.7824 36.3418L50.0416 36.4653ZM36.3124 35.2786L38.7443 31.0666L38.1906 31.2108C37.9813 31.2652 37.769 31.1402 37.7145 30.9315C37.6602 30.7229 37.7852 30.5099 37.9937 30.4555L39.4503 30.0761C39.462 30.0731 39.4735 30.0726 39.4852 30.0707C39.4981 30.0685 39.5109 30.0654 39.5241 30.0646C39.5405 30.0635 39.5565 30.0649 39.5726 30.0659C39.5817 30.0664 39.5908 30.0659 39.5999 30.0671C39.6177 30.0695 39.6348 30.0742 39.6519 30.0789C39.6593 30.081 39.6668 30.0819 39.6741 30.0844C39.6974 30.0923 39.7197 30.1025 39.741 30.1145L39.7438 30.1158C39.7666 30.129 39.7882 30.1445 39.808 30.162L39.8097 30.1638C39.8279 30.1801 39.8446 30.198 39.8595 30.2177C39.8663 30.2265 39.8711 30.2365 39.877 30.2459C39.8847 30.2579 39.893 30.2693 39.8994 30.2823C39.9106 30.3053 39.9194 30.3293 39.926 30.354L39.9264 30.3553L40.306 31.812C40.3602 32.0206 40.2353 32.2337 40.0268 32.2881C39.9937 32.2967 39.9606 32.3008 39.928 32.3008C39.7547 32.3008 39.5964 32.1843 39.5506 32.0089L39.411 31.4729L36.9883 35.669C36.9161 35.7941 36.7848 35.8641 36.6501 35.8641C36.5837 35.8641 36.5167 35.8472 36.4553 35.8117C36.2685 35.704 36.2047 35.4653 36.3124 35.2786ZM32.5521 30.0768L34.0062 30.4555C34.2148 30.5099 34.3397 30.7229 34.2854 30.9315C34.2309 31.1399 34.0187 31.2649 33.8093 31.2108L33.2556 31.0666L35.6875 35.2786C35.7953 35.4653 35.7315 35.704 35.5446 35.8117C35.4832 35.8472 35.4163 35.8641 35.3499 35.8641C35.2152 35.8641 35.0839 35.7941 35.0116 35.669L32.5889 31.4729L32.4493 32.0089C32.4035 32.1843 32.2452 32.3008 32.0719 32.3008C32.0394 32.3008 32.0063 32.2967 31.9732 32.2881C31.7646 32.2337 31.6397 32.0206 31.694 31.812L32.0735 30.3553L32.074 30.354C32.0805 30.3294 32.0893 30.3054 32.1005 30.2825C32.1097 30.2636 32.1211 30.2463 32.133 30.2294C32.1356 30.2258 32.1373 30.2217 32.14 30.2181C32.1874 30.1554 32.2526 30.109 32.3263 30.0841C32.3324 30.082 32.3385 30.0813 32.3446 30.0796C32.3627 30.0744 32.3809 30.0695 32.3997 30.067C32.4103 30.0656 32.4208 30.0661 32.4314 30.0656C32.4459 30.0649 32.4603 30.0635 32.475 30.0644C32.4946 30.0657 32.5137 30.0694 32.5328 30.0735C32.5384 30.0747 32.544 30.0747 32.5496 30.0761L32.5521 30.0768Z" stroke="url(#paint1_linear_4016_3103)" stroke-width="0.4" mask="url(#path-3-outside-1_4016_3103)"/>
<path d="M45.8048 24V24.3545H45.5286V24V23.9H45.4286H44.9524H44.8524V24V24.3545H44H43.9V24.4545V24.9091V25.0091H44H44.3762V27.9909H44H43.9V28.0909V28.5455V28.6455H44H44.8524V29V29.1H44.9524H45.4286H45.5286V29V28.6455H45.8048V29V29.1H45.9048H46.381H46.481V29V28.6027C46.6931 28.548 46.8879 28.442 47.0461 28.2939C47.2243 28.127 47.3484 27.9137 47.4027 27.6797C47.457 27.4457 47.4388 27.2016 47.3506 26.9774C47.2784 26.794 47.162 26.6306 47.012 26.5C47.162 26.3694 47.2784 26.206 47.3506 26.0226C47.4388 25.7984 47.457 25.5543 47.4027 25.3203C47.3484 25.0863 47.2243 24.873 47.0461 24.7061C46.8879 24.558 46.6931 24.452 46.481 24.3973V24V23.9H46.381H45.9048H45.8048V24ZM45.0524 25.0091H46.1429C46.3073 25.0091 46.464 25.0715 46.5789 25.1811C46.6936 25.2906 46.7572 25.4381 46.7572 25.5909C46.7572 25.7437 46.6936 25.8912 46.5789 26.0007C46.464 26.1104 46.3073 26.1727 46.1429 26.1727H45.0524V25.0091ZM46.1429 27.9909H45.0524V26.8273H46.1429C46.3073 26.8273 46.464 26.8896 46.5789 26.9993C46.6936 27.1088 46.7572 27.2563 46.7572 27.4091C46.7572 27.5619 46.6936 27.7094 46.5789 27.8189C46.464 27.9285 46.3073 27.9909 46.1429 27.9909Z" fill="url(#paint2_linear_4016_3103)" stroke="url(#paint3_linear_4016_3103)" stroke-width="0.2"/>
</g>
<defs>
<linearGradient id="paint0_linear_4016_3103" x1="36" y1="20" x2="36" y2="51.9998" gradientUnits="userSpaceOnUse">
<stop stop-color="#19459F"/>
<stop offset="0.62" stop-color="#30388F"/>
<stop offset="1" stop-color="#122058"/>
</linearGradient>
<linearGradient id="paint1_linear_4016_3103" x1="36" y1="20" x2="36" y2="51.9998" gradientUnits="userSpaceOnUse">
<stop stop-color="#19459F"/>
<stop offset="0.62" stop-color="#30388F"/>
<stop offset="1" stop-color="#122058"/>
</linearGradient>
<linearGradient id="paint2_linear_4016_3103" x1="45.6667" y1="24" x2="45.6667" y2="29" gradientUnits="userSpaceOnUse">
<stop stop-color="#19459F"/>
<stop offset="0.62" stop-color="#30388F"/>
<stop offset="1" stop-color="#122058"/>
</linearGradient>
<linearGradient id="paint3_linear_4016_3103" x1="45.6667" y1="24" x2="45.6667" y2="29" gradientUnits="userSpaceOnUse">
<stop stop-color="#19459F"/>
<stop offset="0.62" stop-color="#30388F"/>
<stop offset="1" stop-color="#122058"/>
</linearGradient>
<clipPath id="clip0_4016_3103">
<rect width="34" height="34" fill="white" transform="translate(19 19)"/>
</clipPath>
</defs>
</svg>
