<svg width="44" height="44" viewBox="0 0 44 44" fill="none" xmlns="http://www.w3.org/2000/svg">
<rect width="44" height="44" rx="22" fill="white" fill-opacity="0.2"/>
<path d="M20.3453 13.6667C17.1971 13.6667 15.623 13.6667 14.645 14.6431C13.667 15.6194 13.667 17.1907 13.667 20.3334C13.667 23.4761 13.667 25.0475 14.645 26.0238C15.623 27.0001 17.1971 27.0001 20.3453 27.0001H23.6845C26.8327 27.0001 28.4068 27.0001 29.3848 26.0238C30.0595 25.3503 30.2687 24.3937 30.3337 22.8334" stroke="white" stroke-width="1.25" stroke-linecap="round"/>
<path d="M22 27V30.3333" stroke="white" stroke-width="1.25"/>
<path d="M18.667 30.3333H25.3337" stroke="white" stroke-width="1.25" stroke-linecap="round"/>
<path d="M21.167 24.5H22.8337" stroke="white" stroke-width="1.25" stroke-linecap="round" stroke-linejoin="round"/>
<path d="M26.5833 13.6667C25.396 13.6667 24.6262 14.4239 23.7157 14.6998C23.3455 14.812 23.1604 14.8682 23.0855 14.9472C23.0106 15.0263 22.9887 15.1419 22.9448 15.373C22.4753 17.8465 23.5014 20.1332 25.9486 21.0233C26.2115 21.1189 26.343 21.1668 26.5846 21.1667C26.8262 21.1667 26.9576 21.1189 27.2205 21.0233C29.6675 20.1332 30.6926 17.8465 30.2231 15.373C30.1792 15.1419 30.1572 15.0263 30.0823 14.9472C30.0074 14.8681 29.8223 14.812 29.4521 14.6999C28.5413 14.4239 27.7706 13.6667 26.5833 13.6667Z" stroke="white" stroke-width="1.25" stroke-linecap="round" stroke-linejoin="round"/>
</svg>
