<svg width="72" height="72" viewBox="0 0 72 72" fill="none" xmlns="http://www.w3.org/2000/svg">
<circle cx="36" cy="36" r="35.7805" stroke="#19459F" stroke-width="0.439024" stroke-dasharray="3.2 3.2"/>
<rect x="4.79014" y="4.35117" width="62.4195" height="62.4195" rx="31.2098" stroke="#19459F" stroke-width="0.8"/>
<g clip-path="url(#clip0_4016_5704)">
<path d="M50.3984 43.38H44.356C43.6454 43.38 43.0672 43.9581 43.0672 44.6688V47.1899H39.9092V45.8564C39.9092 44.9903 39.2046 44.2856 38.3385 44.2856H26.0373C25.1712 44.2856 24.4666 44.9902 24.4666 45.8564V47.1899H22.7246C21.9461 47.1899 21.3128 46.5566 21.3128 45.7782V40.7406C21.3128 39.2594 22.5179 38.0544 23.9991 38.0544H28.1465L27.5895 40.3403C27.5532 40.4894 27.5873 40.6469 27.6821 40.7676C27.7768 40.8883 27.9218 40.9587 28.0752 40.9587H42.2707C42.5013 40.9587 42.7019 40.8011 42.7565 40.5771L43.3712 38.0544H47.7623C49.7949 38.0544 51.4486 36.4007 51.4486 34.3681V28.2428C51.4486 26.913 50.3667 25.8311 49.0368 25.8311H48.6441V24.4973C48.6441 23.6312 47.9394 22.9266 47.0733 22.9266H36.3696C35.5035 22.9266 34.7989 23.6312 34.7989 24.4973V25.831H32.955C32.6992 22.5729 29.9664 20 26.6437 20C23.1528 20 20.3127 22.84 20.3127 26.3309C20.3127 29.8219 23.1528 32.6619 26.6437 32.6619C29.9663 32.6619 32.6991 30.0891 32.9549 26.831H34.7988V28.1646C34.7988 29.0307 35.5034 29.7354 36.3696 29.7354H47.0734C47.9395 29.7354 48.6441 29.0307 48.6441 28.1646V26.831H49.0369C49.8154 26.831 50.4487 27.4643 50.4487 28.2428V34.3681C50.4487 35.8493 49.2436 37.0543 47.7624 37.0543H43.6149L44.1719 34.7683C44.2082 34.6193 44.1741 34.4618 44.0794 34.3411C43.9846 34.2204 43.8396 34.1499 43.6862 34.1499H29.4906C29.2601 34.1499 29.0594 34.3076 29.0049 34.5316L28.3902 37.0543H23.9991C21.9664 37.0543 20.3127 38.708 20.3127 40.7406V45.7781C20.3127 47.1079 21.3947 48.1899 22.7245 48.1899H24.4665V49.5236C24.4665 50.3896 25.1711 51.0943 26.0372 51.0943H38.3384C39.2046 51.0943 39.9092 50.3897 39.9092 49.5236V48.1899H43.0672V50.7111C43.0672 51.4217 43.6453 51.9999 44.3559 51.9999H50.3984C51.109 51.9999 51.6871 51.4217 51.6871 50.7111V44.6688C51.6872 43.9581 51.1091 43.38 50.3984 43.38ZM26.6437 31.6619C23.7042 31.6619 21.3127 29.2704 21.3127 26.3309C21.3127 23.3914 23.7042 21 26.6437 21C29.5832 21 31.9746 23.3914 31.9746 26.3309C31.9746 29.2704 29.5832 31.6619 26.6437 31.6619ZM47.6441 28.1646C47.6441 28.4793 47.3881 28.7354 47.0734 28.7354H36.3696C36.0549 28.7354 35.7989 28.4793 35.7989 28.1646V24.4973C35.7989 24.1826 36.0549 23.9266 36.3696 23.9266H47.0734C47.3881 23.9266 47.6442 24.1826 47.6442 24.4973L47.6441 28.1646ZM29.8834 35.1499H43.0497L41.878 39.9586H28.7117L29.8834 35.1499ZM38.9092 49.5236C38.9092 49.8383 38.6532 50.0944 38.3385 50.0944H26.0373C25.7226 50.0944 25.4666 49.8383 25.4666 49.5236V45.8564C25.4666 45.5417 25.7226 45.2856 26.0373 45.2856H38.3385C38.6532 45.2856 38.9092 45.5417 38.9092 45.8564V49.5236ZM50.6872 50.7112C50.6872 50.8678 50.555 51 50.3985 51H44.3561C44.1996 51 44.0673 50.8678 44.0673 50.7112V44.6688C44.0673 44.5122 44.1996 44.38 44.3561 44.38H50.3985C50.555 44.38 50.6872 44.5122 50.6872 44.6688V50.7112ZM49.3733 46.8361L47.4832 49.1728C47.3941 49.283 47.2623 49.3501 47.1207 49.3576C47.1119 49.3581 47.1032 49.3583 47.0944 49.3583C46.9622 49.3583 46.8349 49.3059 46.7409 49.2119L45.4164 47.8873C45.2211 47.692 45.2211 47.3755 45.4164 47.1802C45.6116 46.985 45.9282 46.985 46.1234 47.1802L47.0552 48.1119L48.5959 46.2073C48.7695 45.9926 49.0843 45.9592 49.2991 46.133C49.5137 46.3066 49.547 46.6214 49.3733 46.8361ZM30.4973 37.5543C30.4973 37.2782 30.7212 37.0543 30.9973 37.0543H34.1391C34.4152 37.0543 34.6391 37.2782 34.6391 37.5543C34.6391 37.8304 34.4152 38.0543 34.1391 38.0543H30.9973C30.7211 38.0543 30.4973 37.8304 30.4973 37.5543ZM35.5515 37.5543C35.5515 37.2782 35.7754 37.0543 36.0515 37.0543H40.7642C41.0403 37.0543 41.2642 37.2782 41.2642 37.5543C41.2642 37.8304 41.0403 38.0543 40.7642 38.0543H36.0515C35.7753 38.0543 35.5515 37.8304 35.5515 37.5543ZM37.5713 47.69C37.5713 47.9661 37.3474 48.19 37.0713 48.19H33.9295C33.6534 48.19 33.4295 47.9661 33.4295 47.69C33.4295 47.4139 33.6534 47.19 33.9295 47.19H37.0713C37.3475 47.19 37.5713 47.4139 37.5713 47.69ZM32.5171 47.69C32.5171 47.9661 32.2932 48.19 32.0171 48.19H27.3044C27.0283 48.19 26.8044 47.9661 26.8044 47.69C26.8044 47.4139 27.0283 47.19 27.3044 47.19H32.0171C32.2932 47.19 32.5171 47.4139 32.5171 47.69ZM42.0696 26.331C42.0696 26.6071 41.8457 26.831 41.5696 26.831H37.3781C37.102 26.831 36.8781 26.6071 36.8781 26.331C36.8781 26.0549 37.102 25.831 37.3781 25.831H41.5696C41.8457 25.831 42.0696 26.0549 42.0696 26.331ZM46.5648 26.331C46.5648 26.6071 46.3409 26.831 46.0648 26.831H43.2705C42.9944 26.831 42.7705 26.6071 42.7705 26.331C42.7705 26.0549 42.9944 25.831 43.2705 25.831H46.0648C46.3409 25.831 46.5648 26.0549 46.5648 26.331ZM26.6437 21.6172C24.0446 21.6172 21.93 23.7318 21.93 26.3309C21.93 28.9301 24.0446 31.0446 26.6437 31.0446C29.2428 31.0446 31.3574 28.9301 31.3574 26.3309C31.3574 23.7318 29.2428 21.6172 26.6437 21.6172ZM26.6437 30.0446C24.5959 30.0446 22.93 28.3787 22.93 26.3309C22.93 24.2832 24.5959 22.6172 26.6437 22.6172C28.6914 22.6172 30.3574 24.2832 30.3574 26.3309C30.3574 28.3787 28.6914 30.0446 26.6437 30.0446Z" fill="url(#paint0_linear_4016_5704)"/>
<path d="M26.6143 24V24.3545H26.3857V24V23.9H26.2857H25.8572H25.7572V24V24.3545H25H24.9V24.4545V24.9091V25.0091H25H25.3286V27.9909H25H24.9V28.0909V28.5455V28.6455H25H25.7572V29V29.1H25.8572H26.2857H26.3857V29V28.6455H26.6143V29V29.1H26.7143H27.1429H27.2429V29V28.6006C27.4349 28.5446 27.6102 28.4378 27.7521 28.2902C27.9131 28.1226 28.0242 27.9096 28.0727 27.6775C28.1211 27.4455 28.105 27.2034 28.0261 26.9807C27.9609 26.7967 27.8551 26.6319 27.7176 26.5C27.8551 26.3681 27.9609 26.2033 28.0261 26.0193C28.105 25.7966 28.1211 25.5545 28.0727 25.3225C28.0242 25.0904 27.9131 24.8774 27.7521 24.7098C27.6102 24.5622 27.4349 24.4554 27.2429 24.3994V24V23.9H27.1429H26.7143H26.6143V24ZM25.9572 25.0091H26.9286C27.0706 25.0091 27.2081 25.0689 27.3104 25.1774C27.4129 25.2861 27.4715 25.4348 27.4715 25.5909C27.4715 25.7471 27.4129 25.8957 27.3104 26.0044C27.2081 26.1129 27.0706 26.1727 26.9286 26.1727H25.9572V25.0091ZM26.9286 27.9909H25.9572V26.8273H26.9286C27.0706 26.8273 27.2081 26.8871 27.3104 26.9956C27.4129 27.1043 27.4715 27.2529 27.4715 27.4091C27.4715 27.5652 27.4129 27.7139 27.3104 27.8226C27.2081 27.9311 27.0706 27.9909 26.9286 27.9909Z" fill="url(#paint1_linear_4016_5704)" stroke="url(#paint2_linear_4016_5704)" stroke-width="0.2"/>
</g>
<defs>
<linearGradient id="paint0_linear_4016_5704" x1="35.9999" y1="20" x2="35.9999" y2="51.9999" gradientUnits="userSpaceOnUse">
<stop stop-color="#19459F"/>
<stop offset="0.62" stop-color="#30388F"/>
<stop offset="1" stop-color="#122058"/>
</linearGradient>
<linearGradient id="paint1_linear_4016_5704" x1="26.5" y1="24" x2="26.5" y2="29" gradientUnits="userSpaceOnUse">
<stop stop-color="#19459F"/>
<stop offset="0.62" stop-color="#30388F"/>
<stop offset="1" stop-color="#122058"/>
</linearGradient>
<linearGradient id="paint2_linear_4016_5704" x1="26.5" y1="24" x2="26.5" y2="29" gradientUnits="userSpaceOnUse">
<stop stop-color="#19459F"/>
<stop offset="0.62" stop-color="#30388F"/>
<stop offset="1" stop-color="#122058"/>
</linearGradient>
<clipPath id="clip0_4016_5704">
<rect width="32" height="32" fill="white" transform="translate(20 20)"/>
</clipPath>
</defs>
</svg>
