<svg width="72" height="72" viewBox="0 0 72 72" fill="none" xmlns="http://www.w3.org/2000/svg">
<circle cx="36" cy="36" r="35.6" stroke="#19459F" stroke-width="0.8" stroke-dasharray="3.2 3.2"/>
<rect x="4.79014" y="4.35117" width="62.4195" height="62.4195" rx="31.2098" stroke="#19459F" stroke-width="0.8"/>
<path d="M43.5276 37.2268L43.5274 37.228L42.9161 41.854C42.9058 41.9321 42.8802 42.0074 42.8408 42.0756C42.8014 42.1438 42.7489 42.2036 42.6864 42.2515C42.6239 42.2995 42.5525 42.3346 42.4764 42.355C42.4003 42.3753 42.3209 42.3805 42.2428 42.3702C42.1647 42.3599 42.0894 42.3343 42.0212 42.2949C41.953 42.2555 41.8932 42.203 41.8453 42.1405C41.7973 42.078 41.7622 42.0066 41.7418 41.9305C41.7215 41.8544 41.7163 41.775 41.7266 41.6969L41.8258 41.71L41.7266 41.6969L42.0871 38.9689L39.0242 42.3311L39.0241 42.3312C38.7372 42.6451 38.3376 42.8325 37.9128 42.8522C37.488 42.8719 37.0727 42.7224 36.758 42.4364L36.7579 42.4363L34.3529 40.2456L43.5276 37.2268ZM43.5276 37.2268C43.5381 37.1385 43.529 37.049 43.5009 36.9647C43.4727 36.8803 43.4262 36.8033 43.3648 36.7391C43.3033 36.6748 43.2284 36.625 43.1454 36.5932C43.0631 36.5616 42.9748 36.5485 42.8869 36.5547C42.8589 36.5558 42.8311 36.5588 42.8035 36.5637L42.8035 36.5636L42.7991 36.5647L38.2498 37.6032C38.2498 37.6032 38.2498 37.6032 38.2498 37.6032C38.173 37.6207 38.1003 37.6532 38.0361 37.6988C37.9718 37.7444 37.9172 37.8022 37.8752 37.8689C37.8333 37.9356 37.8049 38.01 37.7918 38.0877C37.7786 38.1653 37.7808 38.2449 37.7984 38.3217C37.8159 38.3985 37.8484 38.4711 37.894 38.5353C37.9396 38.5996 37.9975 38.6542 38.0642 38.6961C38.131 38.738 38.2053 38.7664 38.283 38.7795C38.3606 38.7927 38.4401 38.7904 38.5169 38.7728C38.517 38.7728 38.517 38.7728 38.517 38.7728L41.1999 38.1604M43.5276 37.2268L41.1999 38.1604M41.1999 38.1604L38.1372 41.5224C38.0649 41.6016 37.9641 41.6488 37.857 41.6538C37.75 41.6588 37.6453 41.6212 37.5659 41.5492L41.1999 38.1604ZM49.6476 36.5494L49.6476 36.5494L49.6459 36.548L41.6571 29.9365C41.8919 29.2883 42.0127 28.6041 42.0141 27.9143H42.0142L42.014 27.91C41.6865 19.9413 30.3167 19.9337 29.9861 27.91L29.986 27.91L29.986 27.9144C29.9874 28.6054 30.1087 29.2908 30.3443 29.9401L22.3543 36.548L22.354 36.5483C22.2321 36.6499 22.1554 36.7958 22.1408 36.9539C22.1262 37.1119 22.1749 37.2694 22.2761 37.3917C22.3773 37.514 22.5229 37.5912 22.6809 37.6064C22.8389 37.6216 22.9965 37.5736 23.1192 37.4728L23.1195 37.4726L26.652 34.5511V48.0264V48.0265C26.6526 48.5763 26.8712 49.1033 27.26 49.4921C27.6487 49.8808 28.1758 50.0995 28.7255 50.1H28.7257H43.2745H43.2746C43.8243 50.0995 44.3514 49.8808 44.7402 49.4921C45.1289 49.1033 45.3475 48.5763 45.3481 48.0265V48.0264V34.5491L48.8806 37.4726L48.8806 37.4726L48.8824 37.474C49.0054 37.5713 49.1617 37.6166 49.3177 37.6001C49.4737 37.5836 49.617 37.5067 49.7171 37.3859C49.8171 37.265 49.8658 37.1098 49.8528 36.9535C49.8398 36.7972 49.7662 36.6521 49.6476 36.5494ZM37.5658 41.5491L35.1607 39.3582L35.1606 39.3582C34.8459 39.0721 34.4305 38.9226 34.0057 38.9424C33.5808 38.9622 33.1812 39.1498 32.8945 39.4639L32.8944 39.4639L28.3661 44.4347L28.3661 44.4346L28.3647 44.4362C28.2613 44.5544 28.2084 44.7084 28.2173 44.8653C28.2261 45.0221 28.2961 45.1692 28.4122 45.275C28.5283 45.3808 28.6812 45.4369 28.8382 45.4312C28.9952 45.4255 29.1437 45.3586 29.2518 45.2446L29.2518 45.2447L29.2532 45.2431L33.7813 40.2723C33.7813 40.2722 33.7814 40.2722 33.7814 40.2721C33.8539 40.1932 33.9546 40.1462 34.0616 40.1412C34.1686 40.1362 34.2732 40.1736 34.3526 40.2454L37.5658 41.5491ZM36.0001 23.1C37.2764 23.1016 38.5 23.6092 39.4024 24.5117C40.3045 25.4137 40.8121 26.6365 40.8141 27.9121C40.5475 34.3011 31.4516 34.2995 31.186 27.9121C31.1881 26.6365 31.6957 25.4137 32.5977 24.5117C33.5002 23.6092 34.7238 23.1016 36.0001 23.1ZM44.1481 48.0263C44.1478 48.2579 44.0556 48.48 43.8918 48.6437C43.728 48.8075 43.506 48.8997 43.2743 48.9H28.7258C28.4942 48.8997 28.2721 48.8075 28.1083 48.6437C27.9445 48.48 27.8524 48.2579 27.852 48.0263V33.5587L30.8802 31.0543C31.4098 31.909 32.1453 32.618 33.02 33.1161C33.9287 33.6334 34.9563 33.9052 36.0019 33.9049C37.0475 33.9046 38.075 33.6321 38.9833 33.1142C39.8578 32.6156 40.5928 31.9062 41.1218 31.0512L44.1481 33.5559V48.0263Z" fill="url(#paint0_linear_4016_5725)" stroke="url(#paint1_linear_4016_5725)" stroke-width="0.2"/>
<path d="M36.2144 25V25.3545H35.9858V25V24.9H35.8858H35.4572H35.3572V25V25.3545H34.6001H34.5001V25.4545V25.9091V26.0091H34.6001H34.9287V28.9909H34.6001H34.5001V29.0909V29.5455V29.6455H34.6001H35.3572V30V30.1H35.4572H35.8858H35.9858V30V29.6455H36.2144V30V30.1H36.3144H36.743H36.843V30V29.6006C37.035 29.5446 37.2103 29.4378 37.3522 29.2902C37.5132 29.1226 37.6243 28.9096 37.6727 28.6775C37.7212 28.4455 37.7051 28.2034 37.6262 27.9807C37.561 27.7967 37.4552 27.6319 37.3177 27.5C37.4552 27.3681 37.561 27.2033 37.6262 27.0193C37.7051 26.7966 37.7212 26.5545 37.6727 26.3225C37.6243 26.0904 37.5132 25.8774 37.3522 25.7098C37.2103 25.5622 37.035 25.4554 36.843 25.3994V25V24.9H36.743H36.3144H36.2144V25ZM35.5572 26.0091H36.5287C36.6707 26.0091 36.8082 26.0689 36.9105 26.1774C37.013 26.2861 37.0716 26.4348 37.0716 26.5909C37.0716 26.7471 37.013 26.8957 36.9105 27.0044C36.8082 27.1129 36.6707 27.1727 36.5287 27.1727H35.5572V26.0091ZM36.5287 28.9909H35.5572V27.8273H36.5287C36.6707 27.8273 36.8082 27.8871 36.9105 27.9956C37.013 28.1043 37.0716 28.2529 37.0716 28.4091C37.0716 28.5652 37.013 28.7139 36.9105 28.8226C36.8082 28.9311 36.6707 28.9909 36.5287 28.9909Z" fill="url(#paint2_linear_4016_5725)" stroke="url(#paint3_linear_4016_5725)" stroke-width="0.2"/>
<defs>
<linearGradient id="paint0_linear_4016_5725" x1="35.9966" y1="22.0306" x2="35.9966" y2="50" gradientUnits="userSpaceOnUse">
<stop stop-color="#19459F"/>
<stop offset="0.62" stop-color="#30388F"/>
<stop offset="1" stop-color="#122058"/>
</linearGradient>
<linearGradient id="paint1_linear_4016_5725" x1="35.9966" y1="22.0306" x2="35.9966" y2="50" gradientUnits="userSpaceOnUse">
<stop stop-color="#19459F"/>
<stop offset="0.62" stop-color="#30388F"/>
<stop offset="1" stop-color="#122058"/>
</linearGradient>
<linearGradient id="paint2_linear_4016_5725" x1="36.1001" y1="25" x2="36.1001" y2="30" gradientUnits="userSpaceOnUse">
<stop stop-color="#19459F"/>
<stop offset="0.62" stop-color="#30388F"/>
<stop offset="1" stop-color="#122058"/>
</linearGradient>
<linearGradient id="paint3_linear_4016_5725" x1="36.1001" y1="25" x2="36.1001" y2="30" gradientUnits="userSpaceOnUse">
<stop stop-color="#19459F"/>
<stop offset="0.62" stop-color="#30388F"/>
<stop offset="1" stop-color="#122058"/>
</linearGradient>
</defs>
</svg>
