<svg width="72" height="72" viewBox="0 0 72 72" fill="none" xmlns="http://www.w3.org/2000/svg">
<circle cx="36" cy="36" r="35.6" stroke="#19459F" stroke-width="0.8" stroke-dasharray="3.2 3.2"/>
<rect x="4.79014" y="4.35117" width="62.4195" height="62.4195" rx="31.2098" stroke="#19459F" stroke-width="0.8"/>
<g clip-path="url(#clip0_4016_13321)">
<mask id="path-3-outside-1_4016_13321" maskUnits="userSpaceOnUse" x="21.2246" y="19.0018" width="29" height="34" fill="black">
<rect fill="white" x="21.2246" y="19.0018" width="29" height="34"/>
<path d="M49.7622 46.1026L47.0144 35.237C46.986 35.1244 46.914 35.0278 46.8142 34.9684C46.7145 34.9089 46.5952 34.8916 46.4827 34.9201L42.5355 35.9194C42.3012 35.9786 42.1593 36.2166 42.2187 36.4509L42.5767 37.8666L41.4492 38.2002C38.1445 36.1891 36.4259 35.8297 34.7935 36.8112H29.6887L29.7798 36.4507C29.839 36.2165 29.6972 35.9786 29.463 35.9193L25.5175 34.9201C25.4051 34.8915 25.2858 34.9088 25.186 34.9683C25.0863 35.0277 25.0143 35.1244 24.9858 35.2369L22.238 46.1026C22.2095 46.2151 22.2269 46.3343 22.2863 46.4341C22.3458 46.5337 22.4425 46.6057 22.555 46.6341L26.5022 47.6316C26.5382 47.6407 26.5743 47.645 26.6098 47.645C26.8054 47.645 26.9836 47.5129 27.0337 47.3146L27.3972 45.8767L33.0146 51.4941C33.3524 51.8319 33.7962 52.0008 34.2399 52.0008C34.6837 52.0008 35.1275 51.8319 35.4653 51.4941C35.6815 51.2779 35.8334 51.0142 35.9115 50.7262L36.6423 51.4563C36.9679 51.7831 37.4025 51.9633 37.866 51.9637H37.8675C38.3313 51.9637 38.7667 51.7837 39.0936 51.4569C39.356 51.1946 39.5235 50.8614 39.5788 50.4994C40.1919 50.7213 40.9062 50.5868 41.3973 50.0958C41.7602 49.7316 41.9275 49.2442 41.8993 48.7665C41.9338 48.7685 41.9684 48.7695 42.0032 48.7695C42.4677 48.7695 42.903 48.5893 43.2281 48.2632C43.6103 47.8822 43.7768 47.3646 43.7272 46.8647L44.7288 46.3753L44.9664 47.3147C45.0166 47.513 45.1947 47.6451 45.3903 47.6451C45.4258 47.6451 45.4619 47.6407 45.4978 47.6316L49.4451 46.6342C49.5576 46.6057 49.6543 46.5338 49.7138 46.4341C49.7733 46.3344 49.7906 46.2151 49.7622 46.1026ZM26.2925 46.6759L23.1938 45.8929L25.727 35.876L28.8241 36.6604L26.2925 46.6759ZM42.6093 47.6443C42.4487 47.8056 42.2334 47.8943 42.0033 47.8943C41.7733 47.8943 41.558 47.8056 41.3974 47.6443C41.3973 47.6442 41.3972 47.6441 41.3971 47.6441C41.397 47.644 41.3969 47.6439 41.3968 47.6438L37.5081 43.755C37.3372 43.5841 37.0601 43.5842 36.8892 43.755C36.7183 43.9259 36.7183 44.203 36.8892 44.3739L40.7774 48.2621C41.1115 48.5973 41.1115 49.1428 40.778 49.4774C40.6173 49.6381 40.4019 49.7266 40.1715 49.7266C39.941 49.7266 39.7257 49.6381 39.565 49.4774L39.0938 49.0062L35.205 45.1174C35.0341 44.9465 34.757 44.9465 34.5861 45.1174C34.4152 45.2882 34.4152 45.5654 34.5861 45.7362L38.4749 49.6251C38.8093 49.9595 38.8093 50.5036 38.4749 50.838C38.3133 50.9996 38.0977 51.0886 37.8677 51.0886C37.8675 51.0886 37.8671 51.0886 37.8669 51.0886C37.6375 51.0884 37.4228 50.9996 37.2617 50.8379L35.5158 49.0937L33.3713 46.9492C33.2004 46.7784 32.9233 46.7784 32.7524 46.9492C32.5815 47.1201 32.5815 47.3972 32.7524 47.5681L34.8489 49.6646C35.0087 49.8249 35.0968 50.0388 35.097 50.2673C35.0972 50.4976 35.0082 50.7135 34.8465 50.8752C34.5119 51.2097 33.9678 51.2096 33.6335 50.8752L27.6469 44.8887L29.4674 37.6864H33.677C33.0266 38.3073 32.3397 39.1248 31.5121 40.1097C31.1559 40.5339 30.7875 40.9724 30.3773 41.4493C30.2325 41.6177 30.2368 41.8679 30.3873 42.0312C31.0287 42.7271 31.771 43.1039 32.5935 43.1512C33.62 43.2124 34.4408 42.6837 35.1661 42.2186C36.0842 41.6299 36.8129 41.1625 37.8477 41.6686L42.6098 46.4307L42.6148 46.4356C42.615 46.4357 42.6151 46.4359 42.6153 46.4361C42.6157 46.4365 42.6159 46.4369 42.6163 46.4372C42.638 46.4594 42.6586 46.4827 42.6778 46.5072C42.6785 46.5082 42.6791 46.5092 42.6798 46.5101C42.7382 46.5852 42.7842 46.6702 42.8146 46.7605C42.8153 46.7626 42.8163 46.7645 42.817 46.7666C42.9158 47.0648 42.8472 47.4073 42.6093 47.6443ZM43.421 46.0402C43.3938 46.0018 43.3649 45.9642 43.3342 45.9276C43.333 45.9262 43.3318 45.9249 43.3307 45.9235C43.3011 45.8883 43.2703 45.8538 43.2374 45.8206C43.2372 45.8204 43.237 45.8202 43.2368 45.8201C43.2365 45.8197 43.2362 45.8192 43.2358 45.8189L38.4168 41C38.3851 40.9682 38.3486 40.9416 38.3088 40.9209C36.7933 40.1351 35.6777 40.8506 34.6935 41.4817C34.0208 41.9131 33.3852 42.3217 32.644 42.2774C32.1584 42.2495 31.7185 42.0624 31.308 41.7077C31.6167 41.3458 31.9031 41.0048 32.1821 40.6727C33.1772 39.4883 33.963 38.5528 34.6912 37.9537C34.8508 37.8226 35.001 37.7131 35.1523 37.6174C36.5188 36.7437 37.978 37.0912 41.1574 39.0476C41.2632 39.1128 41.3918 39.1297 41.5108 39.0946L42.7914 38.7157L44.5095 45.5082L43.421 46.0402ZM45.7077 46.6759L43.536 38.09C43.5331 38.0741 43.5296 38.0582 43.5249 38.0424C43.5239 38.039 43.5225 38.0359 43.5215 38.0326L43.1744 36.6604L46.2732 35.8759L48.8064 45.8928L45.7077 46.6759ZM33.0302 31.1338C33.0983 31.2966 33.2575 31.4024 33.4338 31.4024H38.5663C38.7426 31.4024 38.9018 31.2966 38.9699 31.1338L39.8558 29.0184C39.9123 28.8834 39.8976 28.7289 39.8165 28.607C39.7353 28.4851 39.5986 28.4118 39.4522 28.4118H32.548C32.4016 28.4118 32.2648 28.4851 32.1837 28.607C32.1026 28.7289 32.0878 28.8834 32.1444 29.0184L33.0302 31.1338ZM38.7945 29.2871L38.2752 30.5272H33.725L33.2056 29.2871H38.7945ZM29.2515 28.5027L30.885 28.8783C31.1206 28.9324 31.2677 29.1672 31.2135 29.4028C31.1669 29.6054 30.9867 29.7425 30.7874 29.7425C30.7549 29.7425 30.722 29.7389 30.689 29.7312L29.0555 29.3557C28.82 29.3016 28.6729 29.0667 28.7271 28.8312C28.7812 28.5956 29.0163 28.4482 29.2515 28.5027ZM40.7849 29.4027C40.7308 29.1671 40.8779 28.9324 41.1135 28.8782L42.7487 28.5026C42.9844 28.4486 43.219 28.5957 43.2732 28.8312C43.3273 29.0667 43.1802 29.3015 42.9447 29.3557L41.3094 29.7312C41.2765 29.7388 41.2435 29.7424 41.2111 29.7424C41.0117 29.7424 40.8315 29.6053 40.7849 29.4027ZM27.0633 27.6646L27.4155 32.7385V33.6489C27.4155 34.4001 28.0267 35.0113 28.778 35.0113H30.4096C31.1609 35.0113 31.7721 34.4001 31.7721 33.6489V33.1617H40.2281V33.6489C40.2281 34.4001 40.8393 35.0113 41.5906 35.0113H43.2223C43.9735 35.0113 44.5847 34.4001 44.5847 33.6489V32.7393L44.9734 27.1204C44.9801 27.0232 44.9537 26.9276 44.9004 26.8476L44.9008 26.8473L44.2946 25.9386H44.466C44.7077 25.9386 44.9036 25.7427 44.9036 25.501C44.9036 25.2593 44.7077 25.0634 44.466 25.0634H43.7106L41.9745 22.4611C41.6275 21.9396 41.0705 21.6405 40.4461 21.6405H32.1198C32.0684 21.5712 32.0155 21.5027 31.9594 21.4362C30.5208 19.7316 27.9639 19.5153 26.26 20.9535C25.4345 21.6502 24.9297 22.6264 24.8385 23.7026C24.7472 24.7788 25.0806 25.8261 25.777 26.6512C26.1387 27.0801 26.5761 27.4217 27.0633 27.6646ZM30.9232 27.5278H44.0678L43.7386 32.2864H28.2614L27.9629 27.9862C28.1468 28.0281 28.3348 28.0581 28.5261 28.0744C28.6429 28.0843 28.7593 28.0892 28.8752 28.0892C29.6013 28.0892 30.304 27.8952 30.9232 27.5278ZM30.8968 33.6489C30.8968 33.9175 30.6783 34.1361 30.4096 34.1361H28.778C28.5093 34.1361 28.2908 33.9175 28.2908 33.6489V33.1617H30.8968V33.6489ZM43.2223 34.1361H41.5906C41.322 34.1361 41.1034 33.9175 41.1034 33.6489V33.1617H43.7095V33.6489C43.7095 33.9175 43.4909 34.1361 43.2223 34.1361ZM40.4461 22.5158C40.782 22.5158 41.0585 22.6646 41.246 22.9464L43.0549 25.6576C43.0784 25.7189 43.1152 25.7734 43.1618 25.8179L43.7188 26.6526H31.9583C32.497 26.0172 32.826 25.2329 32.898 24.3861C32.953 23.7379 32.8531 23.1007 32.6137 22.5158H40.4461ZM26.8243 21.6224C27.418 21.1214 28.1435 20.8767 28.8656 20.8767C29.7677 20.8767 30.6644 21.2589 31.2905 22.0007C31.8363 22.6475 32.0975 23.4682 32.0258 24.3119C31.9542 25.1557 31.5582 25.921 30.9105 26.4669C30.2637 27.0128 29.4432 27.2745 28.6002 27.2022C27.757 27.1306 26.992 26.7346 26.446 26.0869C25.3194 24.7521 25.4892 22.7493 26.8243 21.6224ZM26.9303 24.3276C26.777 24.1409 26.8041 23.8651 26.991 23.7117C27.1777 23.5584 27.4535 23.5856 27.6068 23.7724L28.3658 24.6971L30.2558 22.4254C30.4103 22.2396 30.6863 22.2143 30.8721 22.3689C31.0578 22.5235 31.0831 22.7994 30.9285 22.9852L28.6998 25.6639C28.6167 25.7639 28.4933 25.8216 28.3634 25.8216C28.3629 25.8216 28.3624 25.8216 28.362 25.8216C28.2315 25.8211 28.108 25.7625 28.0252 25.6616L26.9303 24.3276Z"/>
</mask>
<path d="M49.7622 46.1026L47.0144 35.237C46.986 35.1244 46.914 35.0278 46.8142 34.9684C46.7145 34.9089 46.5952 34.8916 46.4827 34.9201L42.5355 35.9194C42.3012 35.9786 42.1593 36.2166 42.2187 36.4509L42.5767 37.8666L41.4492 38.2002C38.1445 36.1891 36.4259 35.8297 34.7935 36.8112H29.6887L29.7798 36.4507C29.839 36.2165 29.6972 35.9786 29.463 35.9193L25.5175 34.9201C25.4051 34.8915 25.2858 34.9088 25.186 34.9683C25.0863 35.0277 25.0143 35.1244 24.9858 35.2369L22.238 46.1026C22.2095 46.2151 22.2269 46.3343 22.2863 46.4341C22.3458 46.5337 22.4425 46.6057 22.555 46.6341L26.5022 47.6316C26.5382 47.6407 26.5743 47.645 26.6098 47.645C26.8054 47.645 26.9836 47.5129 27.0337 47.3146L27.3972 45.8767L33.0146 51.4941C33.3524 51.8319 33.7962 52.0008 34.2399 52.0008C34.6837 52.0008 35.1275 51.8319 35.4653 51.4941C35.6815 51.2779 35.8334 51.0142 35.9115 50.7262L36.6423 51.4563C36.9679 51.7831 37.4025 51.9633 37.866 51.9637H37.8675C38.3313 51.9637 38.7667 51.7837 39.0936 51.4569C39.356 51.1946 39.5235 50.8614 39.5788 50.4994C40.1919 50.7213 40.9062 50.5868 41.3973 50.0958C41.7602 49.7316 41.9275 49.2442 41.8993 48.7665C41.9338 48.7685 41.9684 48.7695 42.0032 48.7695C42.4677 48.7695 42.903 48.5893 43.2281 48.2632C43.6103 47.8822 43.7768 47.3646 43.7272 46.8647L44.7288 46.3753L44.9664 47.3147C45.0166 47.513 45.1947 47.6451 45.3903 47.6451C45.4258 47.6451 45.4619 47.6407 45.4978 47.6316L49.4451 46.6342C49.5576 46.6057 49.6543 46.5338 49.7138 46.4341C49.7733 46.3344 49.7906 46.2151 49.7622 46.1026ZM26.2925 46.6759L23.1938 45.8929L25.727 35.876L28.8241 36.6604L26.2925 46.6759ZM42.6093 47.6443C42.4487 47.8056 42.2334 47.8943 42.0033 47.8943C41.7733 47.8943 41.558 47.8056 41.3974 47.6443C41.3973 47.6442 41.3972 47.6441 41.3971 47.6441C41.397 47.644 41.3969 47.6439 41.3968 47.6438L37.5081 43.755C37.3372 43.5841 37.0601 43.5842 36.8892 43.755C36.7183 43.9259 36.7183 44.203 36.8892 44.3739L40.7774 48.2621C41.1115 48.5973 41.1115 49.1428 40.778 49.4774C40.6173 49.6381 40.4019 49.7266 40.1715 49.7266C39.941 49.7266 39.7257 49.6381 39.565 49.4774L39.0938 49.0062L35.205 45.1174C35.0341 44.9465 34.757 44.9465 34.5861 45.1174C34.4152 45.2882 34.4152 45.5654 34.5861 45.7362L38.4749 49.6251C38.8093 49.9595 38.8093 50.5036 38.4749 50.838C38.3133 50.9996 38.0977 51.0886 37.8677 51.0886C37.8675 51.0886 37.8671 51.0886 37.8669 51.0886C37.6375 51.0884 37.4228 50.9996 37.2617 50.8379L35.5158 49.0937L33.3713 46.9492C33.2004 46.7784 32.9233 46.7784 32.7524 46.9492C32.5815 47.1201 32.5815 47.3972 32.7524 47.5681L34.8489 49.6646C35.0087 49.8249 35.0968 50.0388 35.097 50.2673C35.0972 50.4976 35.0082 50.7135 34.8465 50.8752C34.5119 51.2097 33.9678 51.2096 33.6335 50.8752L27.6469 44.8887L29.4674 37.6864H33.677C33.0266 38.3073 32.3397 39.1248 31.5121 40.1097C31.1559 40.5339 30.7875 40.9724 30.3773 41.4493C30.2325 41.6177 30.2368 41.8679 30.3873 42.0312C31.0287 42.7271 31.771 43.1039 32.5935 43.1512C33.62 43.2124 34.4408 42.6837 35.1661 42.2186C36.0842 41.6299 36.8129 41.1625 37.8477 41.6686L42.6098 46.4307L42.6148 46.4356C42.615 46.4357 42.6151 46.4359 42.6153 46.4361C42.6157 46.4365 42.6159 46.4369 42.6163 46.4372C42.638 46.4594 42.6586 46.4827 42.6778 46.5072C42.6785 46.5082 42.6791 46.5092 42.6798 46.5101C42.7382 46.5852 42.7842 46.6702 42.8146 46.7605C42.8153 46.7626 42.8163 46.7645 42.817 46.7666C42.9158 47.0648 42.8472 47.4073 42.6093 47.6443ZM43.421 46.0402C43.3938 46.0018 43.3649 45.9642 43.3342 45.9276C43.333 45.9262 43.3318 45.9249 43.3307 45.9235C43.3011 45.8883 43.2703 45.8538 43.2374 45.8206C43.2372 45.8204 43.237 45.8202 43.2368 45.8201C43.2365 45.8197 43.2362 45.8192 43.2358 45.8189L38.4168 41C38.3851 40.9682 38.3486 40.9416 38.3088 40.9209C36.7933 40.1351 35.6777 40.8506 34.6935 41.4817C34.0208 41.9131 33.3852 42.3217 32.644 42.2774C32.1584 42.2495 31.7185 42.0624 31.308 41.7077C31.6167 41.3458 31.9031 41.0048 32.1821 40.6727C33.1772 39.4883 33.963 38.5528 34.6912 37.9537C34.8508 37.8226 35.001 37.7131 35.1523 37.6174C36.5188 36.7437 37.978 37.0912 41.1574 39.0476C41.2632 39.1128 41.3918 39.1297 41.5108 39.0946L42.7914 38.7157L44.5095 45.5082L43.421 46.0402ZM45.7077 46.6759L43.536 38.09C43.5331 38.0741 43.5296 38.0582 43.5249 38.0424C43.5239 38.039 43.5225 38.0359 43.5215 38.0326L43.1744 36.6604L46.2732 35.8759L48.8064 45.8928L45.7077 46.6759ZM33.0302 31.1338C33.0983 31.2966 33.2575 31.4024 33.4338 31.4024H38.5663C38.7426 31.4024 38.9018 31.2966 38.9699 31.1338L39.8558 29.0184C39.9123 28.8834 39.8976 28.7289 39.8165 28.607C39.7353 28.4851 39.5986 28.4118 39.4522 28.4118H32.548C32.4016 28.4118 32.2648 28.4851 32.1837 28.607C32.1026 28.7289 32.0878 28.8834 32.1444 29.0184L33.0302 31.1338ZM38.7945 29.2871L38.2752 30.5272H33.725L33.2056 29.2871H38.7945ZM29.2515 28.5027L30.885 28.8783C31.1206 28.9324 31.2677 29.1672 31.2135 29.4028C31.1669 29.6054 30.9867 29.7425 30.7874 29.7425C30.7549 29.7425 30.722 29.7389 30.689 29.7312L29.0555 29.3557C28.82 29.3016 28.6729 29.0667 28.7271 28.8312C28.7812 28.5956 29.0163 28.4482 29.2515 28.5027ZM40.7849 29.4027C40.7308 29.1671 40.8779 28.9324 41.1135 28.8782L42.7487 28.5026C42.9844 28.4486 43.219 28.5957 43.2732 28.8312C43.3273 29.0667 43.1802 29.3015 42.9447 29.3557L41.3094 29.7312C41.2765 29.7388 41.2435 29.7424 41.2111 29.7424C41.0117 29.7424 40.8315 29.6053 40.7849 29.4027ZM27.0633 27.6646L27.4155 32.7385V33.6489C27.4155 34.4001 28.0267 35.0113 28.778 35.0113H30.4096C31.1609 35.0113 31.7721 34.4001 31.7721 33.6489V33.1617H40.2281V33.6489C40.2281 34.4001 40.8393 35.0113 41.5906 35.0113H43.2223C43.9735 35.0113 44.5847 34.4001 44.5847 33.6489V32.7393L44.9734 27.1204C44.9801 27.0232 44.9537 26.9276 44.9004 26.8476L44.9008 26.8473L44.2946 25.9386H44.466C44.7077 25.9386 44.9036 25.7427 44.9036 25.501C44.9036 25.2593 44.7077 25.0634 44.466 25.0634H43.7106L41.9745 22.4611C41.6275 21.9396 41.0705 21.6405 40.4461 21.6405H32.1198C32.0684 21.5712 32.0155 21.5027 31.9594 21.4362C30.5208 19.7316 27.9639 19.5153 26.26 20.9535C25.4345 21.6502 24.9297 22.6264 24.8385 23.7026C24.7472 24.7788 25.0806 25.8261 25.777 26.6512C26.1387 27.0801 26.5761 27.4217 27.0633 27.6646ZM30.9232 27.5278H44.0678L43.7386 32.2864H28.2614L27.9629 27.9862C28.1468 28.0281 28.3348 28.0581 28.5261 28.0744C28.6429 28.0843 28.7593 28.0892 28.8752 28.0892C29.6013 28.0892 30.304 27.8952 30.9232 27.5278ZM30.8968 33.6489C30.8968 33.9175 30.6783 34.1361 30.4096 34.1361H28.778C28.5093 34.1361 28.2908 33.9175 28.2908 33.6489V33.1617H30.8968V33.6489ZM43.2223 34.1361H41.5906C41.322 34.1361 41.1034 33.9175 41.1034 33.6489V33.1617H43.7095V33.6489C43.7095 33.9175 43.4909 34.1361 43.2223 34.1361ZM40.4461 22.5158C40.782 22.5158 41.0585 22.6646 41.246 22.9464L43.0549 25.6576C43.0784 25.7189 43.1152 25.7734 43.1618 25.8179L43.7188 26.6526H31.9583C32.497 26.0172 32.826 25.2329 32.898 24.3861C32.953 23.7379 32.8531 23.1007 32.6137 22.5158H40.4461ZM26.8243 21.6224C27.418 21.1214 28.1435 20.8767 28.8656 20.8767C29.7677 20.8767 30.6644 21.2589 31.2905 22.0007C31.8363 22.6475 32.0975 23.4682 32.0258 24.3119C31.9542 25.1557 31.5582 25.921 30.9105 26.4669C30.2637 27.0128 29.4432 27.2745 28.6002 27.2022C27.757 27.1306 26.992 26.7346 26.446 26.0869C25.3194 24.7521 25.4892 22.7493 26.8243 21.6224ZM26.9303 24.3276C26.777 24.1409 26.8041 23.8651 26.991 23.7117C27.1777 23.5584 27.4535 23.5856 27.6068 23.7724L28.3658 24.6971L30.2558 22.4254C30.4103 22.2396 30.6863 22.2143 30.8721 22.3689C31.0578 22.5235 31.0831 22.7994 30.9285 22.9852L28.6998 25.6639C28.6167 25.7639 28.4933 25.8216 28.3634 25.8216C28.3629 25.8216 28.3624 25.8216 28.362 25.8216C28.2315 25.8211 28.108 25.7625 28.0252 25.6616L26.9303 24.3276Z" fill="url(#paint0_linear_4016_13321)"/>
<path d="M49.7622 46.1026L47.0144 35.237C46.986 35.1244 46.914 35.0278 46.8142 34.9684C46.7145 34.9089 46.5952 34.8916 46.4827 34.9201L42.5355 35.9194C42.3012 35.9786 42.1593 36.2166 42.2187 36.4509L42.5767 37.8666L41.4492 38.2002C38.1445 36.1891 36.4259 35.8297 34.7935 36.8112H29.6887L29.7798 36.4507C29.839 36.2165 29.6972 35.9786 29.463 35.9193L25.5175 34.9201C25.4051 34.8915 25.2858 34.9088 25.186 34.9683C25.0863 35.0277 25.0143 35.1244 24.9858 35.2369L22.238 46.1026C22.2095 46.2151 22.2269 46.3343 22.2863 46.4341C22.3458 46.5337 22.4425 46.6057 22.555 46.6341L26.5022 47.6316C26.5382 47.6407 26.5743 47.645 26.6098 47.645C26.8054 47.645 26.9836 47.5129 27.0337 47.3146L27.3972 45.8767L33.0146 51.4941C33.3524 51.8319 33.7962 52.0008 34.2399 52.0008C34.6837 52.0008 35.1275 51.8319 35.4653 51.4941C35.6815 51.2779 35.8334 51.0142 35.9115 50.7262L36.6423 51.4563C36.9679 51.7831 37.4025 51.9633 37.866 51.9637H37.8675C38.3313 51.9637 38.7667 51.7837 39.0936 51.4569C39.356 51.1946 39.5235 50.8614 39.5788 50.4994C40.1919 50.7213 40.9062 50.5868 41.3973 50.0958C41.7602 49.7316 41.9275 49.2442 41.8993 48.7665C41.9338 48.7685 41.9684 48.7695 42.0032 48.7695C42.4677 48.7695 42.903 48.5893 43.2281 48.2632C43.6103 47.8822 43.7768 47.3646 43.7272 46.8647L44.7288 46.3753L44.9664 47.3147C45.0166 47.513 45.1947 47.6451 45.3903 47.6451C45.4258 47.6451 45.4619 47.6407 45.4978 47.6316L49.4451 46.6342C49.5576 46.6057 49.6543 46.5338 49.7138 46.4341C49.7733 46.3344 49.7906 46.2151 49.7622 46.1026ZM26.2925 46.6759L23.1938 45.8929L25.727 35.876L28.8241 36.6604L26.2925 46.6759ZM42.6093 47.6443C42.4487 47.8056 42.2334 47.8943 42.0033 47.8943C41.7733 47.8943 41.558 47.8056 41.3974 47.6443C41.3973 47.6442 41.3972 47.6441 41.3971 47.6441C41.397 47.644 41.3969 47.6439 41.3968 47.6438L37.5081 43.755C37.3372 43.5841 37.0601 43.5842 36.8892 43.755C36.7183 43.9259 36.7183 44.203 36.8892 44.3739L40.7774 48.2621C41.1115 48.5973 41.1115 49.1428 40.778 49.4774C40.6173 49.6381 40.4019 49.7266 40.1715 49.7266C39.941 49.7266 39.7257 49.6381 39.565 49.4774L39.0938 49.0062L35.205 45.1174C35.0341 44.9465 34.757 44.9465 34.5861 45.1174C34.4152 45.2882 34.4152 45.5654 34.5861 45.7362L38.4749 49.6251C38.8093 49.9595 38.8093 50.5036 38.4749 50.838C38.3133 50.9996 38.0977 51.0886 37.8677 51.0886C37.8675 51.0886 37.8671 51.0886 37.8669 51.0886C37.6375 51.0884 37.4228 50.9996 37.2617 50.8379L35.5158 49.0937L33.3713 46.9492C33.2004 46.7784 32.9233 46.7784 32.7524 46.9492C32.5815 47.1201 32.5815 47.3972 32.7524 47.5681L34.8489 49.6646C35.0087 49.8249 35.0968 50.0388 35.097 50.2673C35.0972 50.4976 35.0082 50.7135 34.8465 50.8752C34.5119 51.2097 33.9678 51.2096 33.6335 50.8752L27.6469 44.8887L29.4674 37.6864H33.677C33.0266 38.3073 32.3397 39.1248 31.5121 40.1097C31.1559 40.5339 30.7875 40.9724 30.3773 41.4493C30.2325 41.6177 30.2368 41.8679 30.3873 42.0312C31.0287 42.7271 31.771 43.1039 32.5935 43.1512C33.62 43.2124 34.4408 42.6837 35.1661 42.2186C36.0842 41.6299 36.8129 41.1625 37.8477 41.6686L42.6098 46.4307L42.6148 46.4356C42.615 46.4357 42.6151 46.4359 42.6153 46.4361C42.6157 46.4365 42.6159 46.4369 42.6163 46.4372C42.638 46.4594 42.6586 46.4827 42.6778 46.5072C42.6785 46.5082 42.6791 46.5092 42.6798 46.5101C42.7382 46.5852 42.7842 46.6702 42.8146 46.7605C42.8153 46.7626 42.8163 46.7645 42.817 46.7666C42.9158 47.0648 42.8472 47.4073 42.6093 47.6443ZM43.421 46.0402C43.3938 46.0018 43.3649 45.9642 43.3342 45.9276C43.333 45.9262 43.3318 45.9249 43.3307 45.9235C43.3011 45.8883 43.2703 45.8538 43.2374 45.8206C43.2372 45.8204 43.237 45.8202 43.2368 45.8201C43.2365 45.8197 43.2362 45.8192 43.2358 45.8189L38.4168 41C38.3851 40.9682 38.3486 40.9416 38.3088 40.9209C36.7933 40.1351 35.6777 40.8506 34.6935 41.4817C34.0208 41.9131 33.3852 42.3217 32.644 42.2774C32.1584 42.2495 31.7185 42.0624 31.308 41.7077C31.6167 41.3458 31.9031 41.0048 32.1821 40.6727C33.1772 39.4883 33.963 38.5528 34.6912 37.9537C34.8508 37.8226 35.001 37.7131 35.1523 37.6174C36.5188 36.7437 37.978 37.0912 41.1574 39.0476C41.2632 39.1128 41.3918 39.1297 41.5108 39.0946L42.7914 38.7157L44.5095 45.5082L43.421 46.0402ZM45.7077 46.6759L43.536 38.09C43.5331 38.0741 43.5296 38.0582 43.5249 38.0424C43.5239 38.039 43.5225 38.0359 43.5215 38.0326L43.1744 36.6604L46.2732 35.8759L48.8064 45.8928L45.7077 46.6759ZM33.0302 31.1338C33.0983 31.2966 33.2575 31.4024 33.4338 31.4024H38.5663C38.7426 31.4024 38.9018 31.2966 38.9699 31.1338L39.8558 29.0184C39.9123 28.8834 39.8976 28.7289 39.8165 28.607C39.7353 28.4851 39.5986 28.4118 39.4522 28.4118H32.548C32.4016 28.4118 32.2648 28.4851 32.1837 28.607C32.1026 28.7289 32.0878 28.8834 32.1444 29.0184L33.0302 31.1338ZM38.7945 29.2871L38.2752 30.5272H33.725L33.2056 29.2871H38.7945ZM29.2515 28.5027L30.885 28.8783C31.1206 28.9324 31.2677 29.1672 31.2135 29.4028C31.1669 29.6054 30.9867 29.7425 30.7874 29.7425C30.7549 29.7425 30.722 29.7389 30.689 29.7312L29.0555 29.3557C28.82 29.3016 28.6729 29.0667 28.7271 28.8312C28.7812 28.5956 29.0163 28.4482 29.2515 28.5027ZM40.7849 29.4027C40.7308 29.1671 40.8779 28.9324 41.1135 28.8782L42.7487 28.5026C42.9844 28.4486 43.219 28.5957 43.2732 28.8312C43.3273 29.0667 43.1802 29.3015 42.9447 29.3557L41.3094 29.7312C41.2765 29.7388 41.2435 29.7424 41.2111 29.7424C41.0117 29.7424 40.8315 29.6053 40.7849 29.4027ZM27.0633 27.6646L27.4155 32.7385V33.6489C27.4155 34.4001 28.0267 35.0113 28.778 35.0113H30.4096C31.1609 35.0113 31.7721 34.4001 31.7721 33.6489V33.1617H40.2281V33.6489C40.2281 34.4001 40.8393 35.0113 41.5906 35.0113H43.2223C43.9735 35.0113 44.5847 34.4001 44.5847 33.6489V32.7393L44.9734 27.1204C44.9801 27.0232 44.9537 26.9276 44.9004 26.8476L44.9008 26.8473L44.2946 25.9386H44.466C44.7077 25.9386 44.9036 25.7427 44.9036 25.501C44.9036 25.2593 44.7077 25.0634 44.466 25.0634H43.7106L41.9745 22.4611C41.6275 21.9396 41.0705 21.6405 40.4461 21.6405H32.1198C32.0684 21.5712 32.0155 21.5027 31.9594 21.4362C30.5208 19.7316 27.9639 19.5153 26.26 20.9535C25.4345 21.6502 24.9297 22.6264 24.8385 23.7026C24.7472 24.7788 25.0806 25.8261 25.777 26.6512C26.1387 27.0801 26.5761 27.4217 27.0633 27.6646ZM30.9232 27.5278H44.0678L43.7386 32.2864H28.2614L27.9629 27.9862C28.1468 28.0281 28.3348 28.0581 28.5261 28.0744C28.6429 28.0843 28.7593 28.0892 28.8752 28.0892C29.6013 28.0892 30.304 27.8952 30.9232 27.5278ZM30.8968 33.6489C30.8968 33.9175 30.6783 34.1361 30.4096 34.1361H28.778C28.5093 34.1361 28.2908 33.9175 28.2908 33.6489V33.1617H30.8968V33.6489ZM43.2223 34.1361H41.5906C41.322 34.1361 41.1034 33.9175 41.1034 33.6489V33.1617H43.7095V33.6489C43.7095 33.9175 43.4909 34.1361 43.2223 34.1361ZM40.4461 22.5158C40.782 22.5158 41.0585 22.6646 41.246 22.9464L43.0549 25.6576C43.0784 25.7189 43.1152 25.7734 43.1618 25.8179L43.7188 26.6526H31.9583C32.497 26.0172 32.826 25.2329 32.898 24.3861C32.953 23.7379 32.8531 23.1007 32.6137 22.5158H40.4461ZM26.8243 21.6224C27.418 21.1214 28.1435 20.8767 28.8656 20.8767C29.7677 20.8767 30.6644 21.2589 31.2905 22.0007C31.8363 22.6475 32.0975 23.4682 32.0258 24.3119C31.9542 25.1557 31.5582 25.921 30.9105 26.4669C30.2637 27.0128 29.4432 27.2745 28.6002 27.2022C27.757 27.1306 26.992 26.7346 26.446 26.0869C25.3194 24.7521 25.4892 22.7493 26.8243 21.6224ZM26.9303 24.3276C26.777 24.1409 26.8041 23.8651 26.991 23.7117C27.1777 23.5584 27.4535 23.5856 27.6068 23.7724L28.3658 24.6971L30.2558 22.4254C30.4103 22.2396 30.6863 22.2143 30.8721 22.3689C31.0578 22.5235 31.0831 22.7994 30.9285 22.9852L28.6998 25.6639C28.6167 25.7639 28.4933 25.8216 28.3634 25.8216C28.3629 25.8216 28.3624 25.8216 28.362 25.8216C28.2315 25.8211 28.108 25.7625 28.0252 25.6616L26.9303 24.3276Z" stroke="url(#paint1_linear_4016_13321)" stroke-width="0.4" mask="url(#path-3-outside-1_4016_13321)"/>
</g>
<defs>
<linearGradient id="paint0_linear_4016_13321" x1="36.0001" y1="20.0018" x2="36.0001" y2="52.0008" gradientUnits="userSpaceOnUse">
<stop stop-color="#19459F"/>
<stop offset="0.62" stop-color="#30388F"/>
<stop offset="1" stop-color="#122058"/>
</linearGradient>
<linearGradient id="paint1_linear_4016_13321" x1="36.0001" y1="20.0018" x2="36.0001" y2="52.0008" gradientUnits="userSpaceOnUse">
<stop stop-color="#19459F"/>
<stop offset="0.62" stop-color="#30388F"/>
<stop offset="1" stop-color="#122058"/>
</linearGradient>
<clipPath id="clip0_4016_13321">
<rect width="32" height="32" fill="white" transform="translate(20 20)"/>
</clipPath>
</defs>
</svg>
