<svg width="33" height="32" viewBox="0 0 33 32" fill="none" xmlns="http://www.w3.org/2000/svg">
<path d="M32.1611 11.0523C31.9732 9.23827 31.5689 7.233 30.0809 6.17918C28.9284 5.36196 27.4136 5.33175 25.9994 5.33343C23.01 5.33343 20.0189 5.33847 17.0294 5.34015C14.1541 5.34351 11.2788 5.34518 8.40341 5.34854C7.20227 5.34854 6.03469 5.25624 4.91911 5.77644C3.96122 6.2228 3.21135 7.07191 2.76008 8.01665C2.13435 9.33057 2.00351 10.819 1.92802 12.2722C1.78878 14.9185 1.80388 17.5715 1.96996 20.2161C2.09242 22.1459 2.40276 24.2787 3.89412 25.5087C5.21604 26.5978 7.08148 26.6515 8.79595 26.6532C14.238 26.6582 19.6817 26.6632 25.1254 26.6666C25.8232 26.6683 26.5513 26.6548 27.2626 26.5776C28.6617 26.4266 29.9953 26.0256 30.8945 24.9885C31.8021 23.9431 32.0353 22.4882 32.1728 21.1105C32.5083 17.7678 32.505 14.3933 32.1611 11.0523ZM13.8823 20.686V11.314L21.9951 15.9992L13.8823 20.686Z" fill="white"/>
</svg>
