<svg width="33" height="32" viewBox="0 0 33 32" fill="none" xmlns="http://www.w3.org/2000/svg">
<path fill-rule="evenodd" clip-rule="evenodd" d="M15.8333 4C12.7549 4 12.3696 4.01417 11.1612 4.068C9.95417 4.12467 9.1325 4.3145 8.41 4.595C7.66483 4.884 7.03158 5.27217 6.40258 5.90258C5.77217 6.53158 5.38258 7.16342 5.095 7.91C4.8145 8.6325 4.62325 9.45417 4.568 10.6612C4.51133 11.8696 4.5 12.2549 4.5 15.3333C4.5 18.4118 4.51417 18.7971 4.568 20.0055C4.62467 21.2125 4.8145 22.0356 5.095 22.7567C5.384 23.5018 5.77217 24.1351 6.40258 24.7641C7.03158 25.3945 7.66342 25.7841 8.41 26.0717C9.1325 26.3522 9.95417 26.5434 11.1612 26.5987C12.3696 26.6553 12.7549 26.6667 15.8333 26.6667C18.9118 26.6667 19.2971 26.6525 20.5055 26.5987C21.7125 26.542 22.5356 26.3522 23.2567 26.0717C24.0018 25.7827 24.6351 25.3945 25.2641 24.7641C25.8945 24.1351 26.2841 23.5033 26.5717 22.7567C26.8522 22.0342 27.0434 21.2125 27.0987 20.0055C27.1553 18.7971 27.1667 18.4118 27.1667 15.3333C27.1667 12.2549 27.1525 11.8696 27.0987 10.6612C27.042 9.45417 26.8522 8.63108 26.5717 7.91C26.2827 7.16483 25.8945 6.53158 25.2641 5.90258C24.6351 5.27217 24.0033 4.88258 23.2567 4.595C22.5342 4.3145 21.7125 4.12325 20.5055 4.068C19.2971 4.01133 18.9118 4 15.8333 4ZM15.8333 6.04C18.8593 6.04 19.2192 6.05417 20.4134 6.108C21.5184 6.159 22.1177 6.34317 22.5172 6.499C23.047 6.70442 23.4238 6.9495 23.8205 7.34617C24.2172 7.74283 24.4623 8.11967 24.6677 8.6495C24.8235 9.049 25.0077 9.64825 25.0587 10.7533C25.1125 11.9489 25.1253 12.3073 25.1253 15.3333C25.1253 18.3593 25.1111 18.7192 25.0573 19.9134C25.0063 21.0184 24.8221 21.6177 24.6663 22.0172C24.4608 22.547 24.2158 22.9238 23.8191 23.3205C23.4224 23.7172 23.0456 23.9623 22.5158 24.1677C22.1163 24.3235 21.517 24.5077 20.412 24.5587C19.2163 24.6125 18.8579 24.6253 15.8319 24.6253C12.8059 24.6253 12.4461 24.6111 11.2518 24.5573C10.1468 24.5063 9.54758 24.3221 9.14808 24.1663C8.61825 23.9608 8.24142 23.7158 7.84475 23.3191C7.44808 22.9224 7.203 22.5456 6.99758 22.0158C6.84175 21.6163 6.65758 21.017 6.60658 19.912C6.55417 18.7192 6.54 18.3593 6.54 15.3333C6.54 12.3073 6.55417 11.9475 6.608 10.7533C6.659 9.64825 6.84317 9.049 6.999 8.6495C7.20442 8.11967 7.4495 7.74283 7.84617 7.34617C8.24283 6.9495 8.61967 6.70442 9.1495 6.499C9.549 6.34317 10.1483 6.159 11.2533 6.108C12.4475 6.05417 12.8073 6.04 15.8333 6.04ZM15.8333 9.51367C12.6175 9.51367 10.0137 12.1203 10.0137 15.3333C10.0137 18.5492 12.6203 21.153 15.8333 21.153C19.0492 21.153 21.653 18.5463 21.653 15.3333C21.653 12.1175 19.0463 9.51367 15.8333 9.51367ZM15.8333 19.1116C13.7466 19.1116 12.0551 17.4201 12.0551 15.3333C12.0551 13.2466 13.7466 11.5551 15.8333 11.5551C17.9201 11.5551 19.6116 13.2466 19.6116 15.3333C19.6116 17.4201 17.9201 19.1116 15.8333 19.1116ZM23.2425 9.28417C23.2425 10.035 22.6333 10.6442 21.8825 10.6442C21.1317 10.6442 20.5225 10.035 20.5225 9.28417C20.5225 8.53333 21.1317 7.92417 21.8825 7.92417C22.6333 7.92417 23.2425 8.53333 23.2425 9.28417Z" fill="white"/>
</svg>
