<svg width="33" height="32" viewBox="0 0 33 32" fill="none" xmlns="http://www.w3.org/2000/svg">
<path d="M27.9812 4H5.87101C5.11406 4 4.5 4.61406 4.5 5.37101V27.4812C4.5 28.2392 5.11406 28.8522 5.87101 28.8522H17.7732V19.2282H14.5331V15.4786H17.7732V12.7086C17.7732 9.49959 19.7344 7.75372 22.5976 7.75372C23.9697 7.75372 25.1491 7.85417 25.4929 7.89973V11.2548H23.5037C21.9504 11.2548 21.648 12.0014 21.648 13.0887V15.4817H25.3593L24.8778 19.2406H21.648V28.8522H27.9802C28.7392 28.8522 29.3522 28.2392 29.3522 27.4812V5.37101C29.3522 4.61406 28.7392 4 27.9812 4Z" fill="white"/>
</svg>
