<svg width="33" height="32" viewBox="0 0 33 32" fill="none" xmlns="http://www.w3.org/2000/svg">
<path d="M31.8656 6.08666C30.7659 6.57004 29.5916 6.89933 28.3552 7.04968C29.6152 6.29045 30.5845 5.09381 31.043 3.66605C29.8613 4.3557 28.5516 4.85772 27.1574 5.1373C26.044 3.94564 24.4572 3.20007 22.6951 3.20007C19.319 3.20007 16.5815 5.93755 16.5815 9.30999C16.5815 9.79461 16.6374 10.2606 16.7393 10.7067C11.657 10.4669 7.15256 8.02638 4.13798 4.33706C3.60739 5.23423 3.3104 6.27678 3.3104 7.41253C3.3104 9.53739 4.39147 11.405 6.02924 12.5023C5.02645 12.47 4.08331 12.1941 3.2607 11.7368V11.8126C3.2607 14.7762 5.36444 17.2478 8.16404 17.8107C7.65084 17.9486 7.10907 18.0232 6.55362 18.0232C6.16344 18.0232 5.78941 17.9859 5.41539 17.9163C6.19947 20.3431 8.45357 22.1126 11.1364 22.1623C9.04878 23.8013 6.40326 24.778 3.55395 24.778C3.06933 24.778 2.58596 24.7494 2.1001 24.6948C4.82017 26.427 8.02487 27.4397 11.4905 27.4397C22.7411 27.4397 28.8858 18.1251 28.8858 10.0605C28.8858 9.80083 28.8858 9.53863 28.8672 9.27769C30.0613 8.42153 31.1039 7.33921 31.924 6.11151L31.8656 6.08666Z" fill="white"/>
</svg>
