<svg width="101" height="16" viewBox="0 0 101 16" fill="none" xmlns="http://www.w3.org/2000/svg">
<g clip-path="url(#clip0_4001_2595)">
<path d="M16.8316 6.1142H10.4012L8.42166 0L6.43045 6.1142L0 6.10249L5.20058 9.88579L3.20937 16L8.40995 12.2167L13.6105 16L11.631 9.88579L16.8316 6.1142Z" fill="#00B67A"/>
<path d="M12.0763 11.2679L11.6312 9.88574L8.42188 12.2166L12.0763 11.2679Z" fill="#005128"/>
</g>
<g clip-path="url(#clip1_4001_2595)">
<path d="M37.6627 6.1142H31.2322L29.2527 0L27.2615 6.1142L20.8311 6.10249L26.0316 9.88579L24.0404 16L29.241 12.2167L34.4416 16L32.4621 9.88579L37.6627 6.1142Z" fill="#00B67A"/>
<path d="M32.9074 11.2679L32.4623 9.88574L29.2529 12.2166L32.9074 11.2679Z" fill="#005128"/>
</g>
<g clip-path="url(#clip2_4001_2595)">
<path d="M58.4947 6.1142H52.0643L50.0848 0L48.0935 6.1142L41.6631 6.10249L46.8637 9.88579L44.8725 16L50.073 12.2167L55.2736 16L53.2941 9.88579L58.4947 6.1142Z" fill="#00B67A"/>
<path d="M53.7394 11.2679L53.2943 9.88574L50.085 12.2166L53.7394 11.2679Z" fill="#005128"/>
</g>
<g clip-path="url(#clip3_4001_2595)">
<path d="M79.3258 6.1142H72.8953L70.9158 0L68.9246 6.1142L62.4941 6.10249L67.6947 9.88579L65.7035 16L70.9041 12.2167L76.1047 16L74.1252 9.88579L79.3258 6.1142Z" fill="#00B67A"/>
<path d="M74.5705 11.2679L74.1254 9.88574L70.916 12.2166L74.5705 11.2679Z" fill="#005128"/>
</g>
<g clip-path="url(#clip4_4001_2595)">
<path d="M100.158 6.1142H93.7273L91.7478 0L89.7566 6.1142L83.3262 6.10249L88.5268 9.88579L86.5355 16L91.7361 12.2167L96.9367 16L94.9572 9.88579L100.158 6.1142Z" fill="#00B67A"/>
<path d="M95.4025 11.2679L94.9574 9.88574L91.748 12.2166L95.4025 11.2679Z" fill="#005128"/>
</g>
<mask id="mask0_4001_2595" style="mask-type:alpha" maskUnits="userSpaceOnUse" x="83" y="0" width="18" height="16">
<g clip-path="url(#clip5_4001_2595)">
<path d="M100.158 6.1142H93.7273L91.7478 0L89.7566 6.1142L83.3262 6.10249L88.5268 9.88579L86.5355 16L91.7361 12.2167L96.9367 16L94.9572 9.88579L100.158 6.1142Z" fill="#00B67A"/>
<path d="M95.4025 11.2679L94.9574 9.88574L91.748 12.2166L95.4025 11.2679Z" fill="#005128"/>
</g>
</mask>
<g mask="url(#mask0_4001_2595)">
<rect x="93.1445" y="-2.104" width="12.6237" height="19.6369" fill="#5E6993"/>
</g>
<defs>
<clipPath id="clip0_4001_2595">
<rect width="16.8316" height="16" fill="white" transform="matrix(-1 0 0 -1 16.832 16)"/>
</clipPath>
<clipPath id="clip1_4001_2595">
<rect width="16.8316" height="16" fill="white" transform="matrix(-1 0 0 -1 37.6631 16)"/>
</clipPath>
<clipPath id="clip2_4001_2595">
<rect width="16.8316" height="16" fill="white" transform="matrix(-1 0 0 -1 58.4951 16)"/>
</clipPath>
<clipPath id="clip3_4001_2595">
<rect width="16.8316" height="16" fill="white" transform="matrix(-1 0 0 -1 79.3262 16)"/>
</clipPath>
<clipPath id="clip4_4001_2595">
<rect width="16.8316" height="16" fill="white" transform="matrix(-1 0 0 -1 100.158 16)"/>
</clipPath>
<clipPath id="clip5_4001_2595">
<rect width="16.8316" height="16" fill="white" transform="matrix(-1 0 0 -1 100.158 16)"/>
</clipPath>
</defs>
</svg>
