<svg width="54" height="14" viewBox="0 0 54 14" fill="none" xmlns="http://www.w3.org/2000/svg">
<g clip-path="url(#clip0_4001_2620)">
<path d="M14.176 4.69238H19.6325V5.70818H17.4841V11.4344H16.3065V5.70818H14.167L14.176 4.69238ZM19.3988 6.55319H20.4056V7.49707H20.4236C20.4596 7.36223 20.5225 7.23638 20.6124 7.11053C20.7023 6.98468 20.8102 6.86781 20.945 6.76893C21.0708 6.66106 21.2147 6.58016 21.3765 6.51723C21.5293 6.4543 21.6911 6.41835 21.8529 6.41835C21.9788 6.41835 22.0687 6.42734 22.1136 6.42734C22.1586 6.43632 22.2125 6.44532 22.2575 6.44532V7.4791C22.1855 7.46112 22.1046 7.45213 22.0237 7.44314C21.9428 7.43415 21.8709 7.42516 21.79 7.42516C21.6102 7.42516 21.4394 7.46111 21.2776 7.53303C21.1158 7.60495 20.981 7.71282 20.8551 7.84766C20.7382 7.99149 20.6394 8.16229 20.5674 8.36905C20.4955 8.5758 20.4596 8.81852 20.4596 9.0882V11.4075H19.3808L19.3988 6.55319ZM27.2016 11.4344H26.1409V10.7512H26.1229C25.988 11.0029 25.7903 11.1917 25.5296 11.3445C25.2689 11.4974 24.9992 11.5693 24.7295 11.5693C24.0913 11.5693 23.6238 11.4165 23.3362 11.0928C23.0485 10.7782 22.9047 10.2928 22.9047 9.65453V6.55319H23.9834V9.54666C23.9834 9.97815 24.0643 10.2838 24.2351 10.4546C24.3969 10.6344 24.6306 10.7243 24.9273 10.7243C25.152 10.7243 25.3408 10.6883 25.4936 10.6164C25.6465 10.5445 25.7723 10.4546 25.8622 10.3377C25.9611 10.2209 26.024 10.077 26.069 9.91522C26.1139 9.75341 26.1319 9.57362 26.1319 9.38485V6.55319H27.2106V11.4344H27.2016ZM29.0355 9.87027C29.0714 10.1849 29.1883 10.4006 29.395 10.5355C29.6018 10.6613 29.8535 10.7243 30.1411 10.7243C30.24 10.7243 30.3569 10.7153 30.4827 10.6973C30.6086 10.6793 30.7345 10.6524 30.8423 10.6074C30.9592 10.5625 31.0491 10.4995 31.121 10.4096C31.1929 10.3197 31.2289 10.2119 31.2199 10.077C31.2109 9.94219 31.1659 9.82533 31.0671 9.73543C30.9682 9.64554 30.8513 9.58261 30.7075 9.51969C30.5637 9.46575 30.3929 9.4208 30.2041 9.38485C30.0153 9.34889 29.8265 9.30394 29.6288 9.259C29.431 9.21405 29.2332 9.16011 29.0444 9.09719C28.8557 9.03426 28.6939 8.95335 28.541 8.83649C28.3972 8.72862 28.2714 8.59378 28.1905 8.42298C28.1006 8.25218 28.0556 8.05441 28.0556 7.80271C28.0556 7.53303 28.1185 7.31729 28.2534 7.1375C28.3792 6.95771 28.55 6.81388 28.7478 6.70601C28.9456 6.59813 29.1703 6.51723 29.413 6.47228C29.6557 6.42734 29.8894 6.40936 30.1052 6.40936C30.3569 6.40936 30.5996 6.43633 30.8243 6.49026C31.0491 6.5442 31.2648 6.6251 31.4446 6.75095C31.6334 6.86782 31.7862 7.02962 31.9031 7.2184C32.0289 7.40718 32.1008 7.6409 32.1368 7.91059H31.0131C30.9592 7.64989 30.8423 7.4791 30.6625 7.3892C30.4738 7.29931 30.267 7.25436 30.0243 7.25436C29.9524 7.25436 29.8535 7.26335 29.7546 7.27234C29.6467 7.29032 29.5568 7.3083 29.458 7.34425C29.3681 7.38021 29.2872 7.43415 29.2242 7.49707C29.1613 7.56 29.1253 7.64989 29.1253 7.75776C29.1253 7.89261 29.1703 7.99149 29.2602 8.07239C29.3501 8.1533 29.4669 8.21623 29.6198 8.27915C29.7636 8.33309 29.9344 8.37803 30.1232 8.41399C30.312 8.44995 30.5097 8.4949 30.7075 8.53984C30.9053 8.58479 31.094 8.63873 31.2828 8.70165C31.4716 8.76458 31.6424 8.84548 31.7862 8.96235C31.93 9.07022 32.0559 9.20506 32.1458 9.36687C32.2357 9.52868 32.2806 9.73543 32.2806 9.96916C32.2806 10.2568 32.2177 10.4995 32.0829 10.7063C31.948 10.9041 31.7772 11.0749 31.5705 11.2007C31.3637 11.3266 31.121 11.4165 30.8693 11.4794C30.6086 11.5333 30.3569 11.5693 30.1052 11.5693C29.7996 11.5693 29.5119 11.5333 29.2512 11.4614C28.9905 11.3895 28.7568 11.2816 28.568 11.1468C28.3792 11.0029 28.2264 10.8321 28.1185 10.6164C28.0107 10.4096 27.9477 10.1579 27.9387 9.86129H29.0265V9.87027H29.0355ZM32.5863 6.55319H33.4043V5.07893H34.483V6.5442H35.4539V7.34425H34.483V9.95118C34.483 10.068 34.492 10.1579 34.501 10.2478C34.51 10.3287 34.537 10.4006 34.5639 10.4546C34.5999 10.5085 34.6538 10.5535 34.7168 10.5804C34.7887 10.6074 34.8786 10.6254 35.0044 10.6254C35.0763 10.6254 35.1572 10.6254 35.2291 10.6164C35.3011 10.6074 35.382 10.5984 35.4539 10.5804V11.4165C35.337 11.4344 35.2202 11.4434 35.1033 11.4524C34.9864 11.4704 34.8786 11.4704 34.7527 11.4704C34.4651 11.4704 34.2403 11.4434 34.0695 11.3895C33.8987 11.3355 33.7639 11.2546 33.665 11.1558C33.5661 11.0479 33.5032 10.922 33.4672 10.7692C33.4313 10.6164 33.4133 10.4276 33.4043 10.2298V7.35324H32.5863V6.53521V6.55319ZM36.209 6.55319H37.2248V7.2184H37.2428C37.3956 6.93074 37.6024 6.73297 37.872 6.60712C38.1417 6.48127 38.4294 6.41835 38.753 6.41835C39.1395 6.41835 39.4721 6.48127 39.7598 6.6251C40.0475 6.75994 40.2812 6.93973 40.47 7.18244C40.6587 7.41617 40.8026 7.69484 40.8925 8.00947C40.9824 8.3241 41.0363 8.66569 41.0363 9.01628C41.0363 9.34889 40.9914 9.66352 40.9104 9.96916C40.8206 10.2748 40.6947 10.5535 40.5239 10.7872C40.3531 11.0209 40.1374 11.2097 39.8677 11.3535C39.598 11.4974 39.2924 11.5693 38.9328 11.5693C38.78 11.5693 38.6182 11.5513 38.4653 11.5243C38.3125 11.4974 38.1597 11.4524 38.0159 11.3895C37.872 11.3266 37.7372 11.2457 37.6203 11.1468C37.4945 11.0479 37.3956 10.931 37.3147 10.8052H37.2967V13.2413H36.218V6.55319H36.209ZM39.9756 8.9983C39.9756 8.78256 39.9486 8.56681 39.8857 8.36006C39.8317 8.1533 39.7418 7.97351 39.625 7.8117C39.5081 7.64989 39.3643 7.52404 39.2025 7.42516C39.0317 7.32628 38.8339 7.28133 38.6182 7.28133C38.1687 7.28133 37.8271 7.43415 37.5934 7.74878C37.3686 8.06341 37.2518 8.48591 37.2518 9.00729C37.2518 9.259 37.2787 9.48373 37.3417 9.69049C37.4046 9.89724 37.4855 10.077 37.6113 10.2298C37.7282 10.3827 37.872 10.4995 38.0428 10.5894C38.2136 10.6793 38.4024 10.7243 38.6271 10.7243C38.8788 10.7243 39.0766 10.6703 39.2474 10.5714C39.4182 10.4726 39.553 10.3377 39.6699 10.1849C39.7778 10.0231 39.8587 9.84331 39.9036 9.63655C39.9486 9.42081 39.9756 9.21405 39.9756 8.9983ZM41.8723 4.69238H42.951V5.70818H41.8723V4.69238ZM41.8723 6.55319H42.951V11.4344H41.8723V6.55319ZM43.9129 4.69238H44.9916V11.4344H43.9129V4.69238ZM48.2818 11.5693C47.8952 11.5693 47.5446 11.5063 47.239 11.3715C46.9333 11.2367 46.6816 11.0659 46.4659 10.8411C46.2591 10.6164 46.0973 10.3377 45.9895 10.0231C45.8816 9.70847 45.8187 9.35788 45.8187 8.98931C45.8187 8.62075 45.8726 8.27915 45.9895 7.96452C46.0973 7.64989 46.2591 7.38021 46.4659 7.14649C46.6727 6.92175 46.9333 6.74196 47.239 6.61611C47.5446 6.49026 47.8952 6.41835 48.2818 6.41835C48.6683 6.41835 49.0189 6.48127 49.3245 6.61611C49.6302 6.74196 49.8819 6.92175 50.0976 7.14649C50.3044 7.37122 50.4662 7.64989 50.5741 7.96452C50.6819 8.27915 50.7449 8.62075 50.7449 8.98931C50.7449 9.36687 50.6909 9.70847 50.5741 10.0231C50.4572 10.3377 50.3044 10.6074 50.0976 10.8411C49.8909 11.0659 49.6302 11.2457 49.3245 11.3715C49.0189 11.4974 48.6773 11.5693 48.2818 11.5693ZM48.2818 10.7153C48.5155 10.7153 48.7312 10.6613 48.902 10.5625C49.0818 10.4636 49.2167 10.3287 49.3335 10.1669C49.4504 10.0051 49.5313 9.81634 49.5852 9.61857C49.6392 9.41182 49.6661 9.20506 49.6661 8.98931C49.6661 8.78256 49.6392 8.5758 49.5852 8.36905C49.5313 8.16229 49.4504 7.9825 49.3335 7.82069C49.2167 7.65888 49.0728 7.53303 48.902 7.43415C48.7222 7.33527 48.5155 7.28133 48.2818 7.28133C48.048 7.28133 47.8323 7.33527 47.6615 7.43415C47.4817 7.53303 47.3469 7.66787 47.23 7.82069C47.1131 7.9825 47.0322 8.16229 46.9783 8.36905C46.9244 8.5758 46.8974 8.78256 46.8974 8.98931C46.8974 9.20506 46.9244 9.41182 46.9783 9.61857C47.0322 9.82533 47.1131 10.0051 47.23 10.1669C47.3469 10.3287 47.4907 10.4636 47.6615 10.5625C47.8413 10.6703 48.048 10.7153 48.2818 10.7153ZM51.0685 6.55319H51.8865V5.07893H52.9652V6.5442H53.9361V7.34425H52.9652V9.95118C52.9652 10.068 52.9742 10.1579 52.9832 10.2478C52.9922 10.3287 53.0192 10.4006 53.0461 10.4546C53.0821 10.5085 53.136 10.5535 53.199 10.5804C53.2709 10.6074 53.3608 10.6254 53.4866 10.6254C53.5585 10.6254 53.6394 10.6254 53.7113 10.6164C53.7833 10.6074 53.8642 10.5984 53.9361 10.5804V11.4165C53.8192 11.4344 53.7024 11.4434 53.5855 11.4524C53.4686 11.4704 53.3608 11.4704 53.2349 11.4704C52.9473 11.4704 52.7225 11.4434 52.5517 11.3895C52.3809 11.3355 52.2461 11.2546 52.1472 11.1558C52.0483 11.0479 51.9854 10.922 51.9494 10.7692C51.9135 10.6164 51.8955 10.4276 51.8865 10.2298V7.35324H51.0685V6.53521V6.55319Z" fill="white"/>
<g clip-path="url(#clip1_4001_2620)">
<path d="M12.9178 4.69247H7.98259L6.46338 0L4.93518 4.69247L0 4.68348L3.99129 7.58705L2.46309 12.2795L6.45439 9.37594L10.4457 12.2795L8.92647 7.58705L12.9178 4.69247Z" fill="#00B67A"/>
<path d="M9.26856 8.64766L8.92696 7.58691L6.46387 9.3758L9.26856 8.64766Z" fill="#005128"/>
</g>
</g>
<defs>
<clipPath id="clip0_4001_2620">
<rect width="53.9364" height="13.2414" fill="white" transform="matrix(-1 0 0 -1 53.9365 13.2412)"/>
</clipPath>
<clipPath id="clip1_4001_2620">
<rect width="12.9178" height="12.2795" fill="white" transform="matrix(-1 0 0 -1 12.918 12.2793)"/>
</clipPath>
</defs>
</svg>
